<svg xmlns="http://www.w3.org/2000/svg" viewBox="0 0 137.27 120.99"><g id="Layer_2" data-name="Layer 2"><g id="Object"><path d="M78.44,89.14c5.79,7,13.2,12.93,19.85,19.07,2.9,2.67,5.81,5.32,8.71,8,2.07,1.89,4.44,4.86,7.59,4.8,5.66-.12,8.35-9.8,10.4-13.77q6.08-11.72,11.88-23.57c2-4.11-4.17-7.74-6.17-3.6Q126.38,89,121.93,97.8q-2.12,4.22-4.27,8.41c-.92,1.79-2.9,7.55-4.8,8.38l2.64-.35c-3.35-.77-7.2-5.68-9.78-7.89q-4.12-3.52-8.28-7C92.06,94.8,86.8,89.78,80.87,86c-2-1.32-3.81,1.5-2.43,3.16Z"/><path d="M114.44,119.28c2.71-6.09,1.53-14,1-20.49a169.85,169.85,0,0,0-3.55-23.32A166.32,166.32,0,0,0,96.26,33.09C90.31,22.1,82.19,11.3,71.15,5,60-1.32,47-1.53,35.3,3.68,20.22,10.41,9.52,24.23.63,37.67-2,41.61,4.16,45,6.86,41.31,16.85,27.83,27,12.75,44.24,8.18,59.86,4,73.47,13,82.71,25c10,12.9,16.12,28.85,20.74,44.33a200,200,0,0,1,5.66,24.86c.74,4.56,1.24,9.14,1.68,13.73.37,3.84.48,7.85,2.06,11.41a.93.93,0,0,0,1.59,0Z"/></g></g></svg>