<svg width="50" height="80" viewBox="0 0 50 80" fill="none" xmlns="http://www.w3.org/2000/svg">
<path d="M31.6049 52.4355C31.5978 52.409 31.5913 52.3847 31.5842 52.3581C31.5786 52.3468 31.5697 52.3373 31.5587 52.331C31.5478 52.3247 31.5352 52.3217 31.5225 52.3225C31.4897 52.2887 31.4525 52.256 31.4153 52.2233C31.3269 52.1177 31.2166 52.0326 31.092 51.9739C30.9674 51.9153 30.8316 51.8843 30.6938 51.8834C30.6574 51.8681 30.6219 51.8508 30.5875 51.8313C30.5309 51.7915 30.4721 51.755 30.4113 51.7221L30.3914 51.7274C30.2646 51.6196 30.1192 51.5356 29.9624 51.4798C29.7862 51.4334 29.6009 51.4341 29.4249 51.4816L29.3719 51.4958L29.3008 51.4959C28.8461 51.4708 28.4448 51.7418 28.0978 52.0126C27.8882 52.1548 27.6938 52.318 27.5174 52.4999C27.4532 52.5787 27.3898 52.6691 27.3318 52.7534C27.2867 52.8253 27.2509 52.9026 27.2252 52.9834C26.9099 53.5037 26.7182 54.0894 26.6648 54.6954C26.6383 55.024 26.6474 55.3545 26.6919 55.6811C26.7131 55.9058 26.7874 56.1223 26.9086 56.3127C26.9375 56.4335 26.9954 56.5454 27.0774 56.6386C27.1594 56.7319 27.2629 56.8037 27.379 56.8479L27.4195 56.8749L27.4487 56.8955C27.5492 56.9545 27.6577 56.9989 27.7707 57.0273C27.9478 57.0496 28.1272 57.0455 28.303 57.015C28.4536 56.9884 28.6016 56.9487 28.7453 56.8965C29.6249 56.8978 30.5326 56.0313 31.0134 55.4285C31.5458 54.7621 32.2366 53.475 31.7336 52.6594C31.7046 52.5776 31.661 52.5018 31.6049 52.4355ZM31.1173 52.2344L31.1328 52.2303L31.1173 52.2344ZM31.1898 53.6369C31.1762 53.7143 31.1507 53.7891 31.1141 53.8587C31.1141 53.8587 31.1106 53.8454 31.1094 53.841C31.142 53.7754 31.1689 53.7072 31.1898 53.6369ZM30.5724 54.0394C30.5724 54.0612 30.5735 54.0831 30.5757 54.1048L30.5476 54.1503C30.5541 54.1035 30.5629 54.0656 30.5695 54.0283L30.5724 54.0394ZM27.9976 54.407C27.9943 54.3905 27.99 54.3742 27.9846 54.3583L28.0253 54.236L28.0223 54.225L27.9976 54.407ZM28.4554 53.8245L28.5422 53.6709C28.5162 53.7419 28.4958 53.8161 28.4754 53.8903C28.4677 53.8615 28.4612 53.8372 28.4524 53.8135L28.4554 53.8245ZM29.193 52.8448L29.1554 52.8904L29.1688 52.8608L29.193 52.8448ZM29.0521 55.8568L29.1905 55.7013C29.1826 55.7247 29.1774 55.7498 29.1701 55.7755L29.1429 55.8065L29.0521 55.8568ZM29.1979 54.7205C29.1874 54.9587 29.1142 55.1899 28.9857 55.3907C28.8573 55.5916 28.6782 55.755 28.4664 55.8645C28.3511 55.925 28.2298 55.9733 28.1045 56.0088C28.026 56.0497 27.9433 56.0822 27.858 56.1057L27.9226 56.0552L27.8143 56.0842C27.8051 56.0861 27.7957 56.086 27.7865 56.0839C27.7774 56.0819 27.7688 56.0779 27.7613 56.0724C27.7487 56.0615 27.7387 56.048 27.7318 56.0329C27.7211 55.9931 27.7282 55.9485 27.7808 55.9415L27.867 55.9184C27.9334 55.9007 27.9997 55.8829 28.066 55.8651L28.1235 55.8497L28.1434 55.8444C28.1761 55.8072 28.206 55.7683 28.2359 55.7295L28.2734 55.6839L28.3401 55.5878L28.3812 55.52C28.484 55.3502 28.5511 55.1613 28.5784 54.9647C28.6011 54.7927 28.5899 54.6274 28.6015 54.4584L28.6185 54.3093C28.6267 54.2692 28.6299 54.2281 28.6425 54.1868C28.7218 53.9063 28.8359 53.6369 28.9822 53.3848C29.0924 53.2093 29.2156 53.0424 29.3508 52.8855C29.3893 52.8074 29.4343 52.7327 29.4853 52.6622C29.5213 52.6105 29.5613 52.5617 29.605 52.5164C29.6908 52.4259 29.7962 52.3563 29.9131 52.313L30.0237 52.2833C30.0548 52.2774 30.0863 52.2737 30.1179 52.2723L30.1312 52.2688C30.1506 52.2708 30.1684 52.2804 30.1806 52.2956C30.1929 52.3107 30.1987 52.3302 30.1967 52.3496C30.1946 52.369 30.185 52.3868 30.1698 52.399C30.1547 52.4113 30.1353 52.4171 30.1159 52.4151C30.0811 52.4161 30.0466 52.4206 30.0128 52.4285L29.9879 52.4683L29.9747 52.4718L29.9948 52.4499L29.9572 52.4599C29.8817 52.4891 29.813 52.5334 29.7551 52.5899L29.733 52.5959C29.7037 52.6235 29.6769 52.6537 29.6529 52.6861L29.6387 52.7041C29.5403 52.8466 29.4623 53.0023 29.4072 53.1666C29.401 53.1819 29.3957 53.1976 29.3913 53.2135C29.3807 53.2448 29.3702 53.2761 29.3618 53.3068C29.3534 53.3374 29.3465 53.3559 29.3414 53.381L29.3461 53.3986L29.3185 53.5079C29.2573 53.9144 29.2223 54.3243 29.2137 54.7352L29.1979 54.7205ZM29.7799 52.2491L29.7918 52.2317L29.8073 52.2276L29.7799 52.2491Z" fill="#505050"/>
<path d="M14.2109 41.0305C14.1439 40.7806 13.7431 40.8857 13.8173 41.136C14.2962 42.721 14.9149 44.2603 15.666 45.7359C15.7854 45.9694 16.1357 45.7641 16.0163 45.5307C15.2818 44.0873 14.6776 42.5813 14.2109 41.0305Z" fill="#505050"/>
<path d="M16.1889 43.5838L16.7372 45.1171C16.8241 45.3617 17.2183 45.2584 17.1308 45.0117L16.5825 43.4783C16.4935 43.2344 16.1015 43.337 16.1889 43.5838Z" fill="#505050"/>
<path d="M40.2992 65.1597C40.6486 66.139 40.7896 67.1805 40.7133 68.2174C40.6932 68.4787 41.1014 68.4807 41.1192 68.22C41.1976 67.1466 41.0517 66.0687 40.6906 65.0549C40.6038 64.8103 40.2118 64.913 40.2992 65.1597Z" fill="#505050"/>
<path d="M41.2621 62.9511C41.9199 64.7909 42.23 66.737 42.1766 68.6901C42.1807 68.741 42.2036 68.7884 42.241 68.8232C42.2784 68.8579 42.3274 68.8773 42.3784 68.8777C42.4294 68.878 42.4787 68.8592 42.5165 68.8249C42.5543 68.7907 42.5779 68.7435 42.5826 68.6927C42.6367 66.7032 42.3225 64.7209 41.6557 62.8456C41.5689 62.6011 41.1747 62.7043 41.2621 62.9511Z" fill="#505050"/>
<path d="M37.8327 27.0676C37.3893 26.6863 36.8737 26.6373 36.3334 26.5664L36.3245 26.5332C36.3095 26.5099 36.2895 26.4902 36.2659 26.4756C36.2423 26.461 36.2157 26.4519 36.1881 26.4489C35.6554 24.2573 34.2133 22.4752 32.3032 21.0247C31.1716 20.1714 30.1058 19.5635 28.6001 19.3484L28.5088 19.3349C26.0925 18.7052 23.5702 18.5943 21.108 19.0097C20.5113 17.0229 20.0192 15.0063 19.6337 12.968C19.4556 11.9848 19.1887 10.9092 19.2002 9.90841C19.2117 8.9076 20.7114 8.20714 21.4496 7.68941C22.9485 6.6384 24.4846 5.64618 26.0578 4.71275C26.1525 4.68754 26.2366 4.6326 26.2978 4.55601C26.6124 4.20866 26.3976 3.46041 26.2521 3.09415C26.0014 2.47542 25.5356 1.96814 24.9404 1.66581C24.9156 1.65297 24.8885 1.64528 24.8607 1.64322C24.8329 1.64117 24.8049 1.64478 24.7785 1.65384C24.7522 1.6629 24.7279 1.67723 24.7072 1.69595C24.6865 1.71466 24.6699 1.73739 24.6583 1.76274C24.6393 1.76547 24.6207 1.77045 24.603 1.77755C22.4006 3.09286 20.1163 4.32349 17.9961 5.76847C17.2241 6.28344 16.1216 6.96277 15.6529 7.78748C15.5063 8.0748 15.4654 8.40456 15.5375 8.71897C15.6277 9.35603 15.7666 9.9895 15.8927 10.6193C16.5129 13.6857 17.3162 16.7102 18.0366 19.7615C15.9598 20.4262 14.0353 21.4961 12.3746 22.9092C9.90383 25.0714 8.36306 28.0509 8.21504 31.0364C8.10972 32.1844 8.1941 33.342 8.46481 34.4627C7.68609 34.714 7.48811 35.753 7.59254 36.5142C7.72748 37.6369 8.46697 38.4863 9.60273 38.6299C9.87114 38.6614 10.1419 38.6682 10.4116 38.6501L12.4608 44.3079C13.7551 48.2009 14.8771 52.1495 16.0219 56.0945C16.3109 57.2968 16.6612 58.4803 17.0639 59.6474C17.9317 62.5408 18.8591 65.4183 19.9416 68.2376C20.5177 69.7421 21.0823 71.283 21.8462 72.6922L21.8497 72.7055C21.8904 72.8131 21.9311 72.9207 21.974 73.0277C22.1674 73.562 22.4793 74.0456 22.8862 74.4422C22.9092 74.4854 22.9468 74.519 22.9922 74.5371C23.4203 74.8885 23.9158 75.1485 24.4483 75.3011C25.2591 75.5538 26.0966 75.7111 26.9438 75.77C27.8829 75.9991 28.854 76.0674 29.8158 75.9721C32.0842 75.7079 34.4932 75.2259 36.6128 74.3712C37.69 73.9009 38.731 73.3518 39.7275 72.7285C40.7508 72.1249 41.8285 71.5565 42.8314 70.9038C44.2442 69.9849 44.2533 68.5155 43.9858 67.0396C43.9262 65.8706 43.5919 64.6851 43.406 63.5666C42.9218 60.775 42.4351 57.9825 41.9457 55.1891L40.2133 45.2565C39.4419 40.2991 38.6096 35.3533 37.4144 30.4857C38.0825 29.9631 38.641 29.2968 38.5358 28.3912C38.4719 27.8787 38.2216 27.4075 37.8327 27.0676ZM25.6413 2.79569C25.7558 2.96646 26.1735 3.70296 26.0312 3.92358C25.7724 4.31996 25.4361 3.47159 25.3616 3.2996C25.1921 2.92856 25.0584 2.5422 24.9623 2.14576C25.232 2.31427 25.4637 2.53712 25.6425 2.80011L25.6413 2.79569ZM21.5016 19.5939C21.7316 19.5678 21.9628 19.5461 22.2106 19.5247C23.6828 19.4177 25.1612 19.4281 26.6318 19.5559C27.1305 19.5952 27.6365 19.635 28.1351 19.7005C30.6911 20.3949 32.9542 21.7651 34.4115 23.8606C34.9735 24.6613 35.3881 25.5558 35.636 26.5021C35.703 26.7122 35.749 26.9285 35.7734 27.1478C35.7781 27.3275 35.761 27.5072 35.7225 27.6828C35.5211 27.8689 35.2974 28.0292 35.0564 28.1599C34.8173 28.2761 34.5755 28.3907 34.3353 28.5024L34.1466 28.5767C34.1705 27.6223 33.2198 27.1874 32.2772 27.075C32.0764 25.8301 30.9939 25.2575 29.8209 25.0456C29.7449 23.5943 29.0402 22.008 27.4575 21.7354C26.7344 21.6363 25.9981 21.7512 25.3396 22.0658C25.3378 22.0553 25.335 22.0449 25.3313 22.0349C24.9507 21.6226 24.4483 21.4989 23.9075 21.4353C23.1291 21.3428 22.5353 21.329 21.9551 20.7734C21.8583 20.6781 21.7554 20.5893 21.6469 20.5076C21.812 20.2217 21.6996 19.8821 21.5016 19.5939ZM22.9664 30.7832C24.8061 29.8921 26.5949 28.9175 28.528 28.2336C29.3439 27.923 30.1842 27.6804 31.0401 27.5084C31.8872 27.362 33.9517 27.3894 33.7365 28.7268C33.3231 28.8732 32.9143 29.0016 32.5574 29.1376C31.5247 29.5233 30.487 29.893 29.4442 30.2467C27.2148 31.0099 24.9732 31.7717 22.7116 32.4417C20.5756 33.0757 18.3827 33.5329 16.2048 33.9932C15.1435 34.216 14.0803 34.4227 13.019 34.6099C16.3808 33.465 19.7657 32.3352 22.9714 30.7842L22.9664 30.7832ZM11.9608 34.5261C11.9884 33.656 12.9949 32.7512 13.5907 32.2858C14.3595 31.7282 15.1862 31.2548 16.0563 30.8739C17.7987 30.0444 19.4721 29.1078 21.1486 28.1562C22.8251 27.2046 24.5584 26.1642 26.45 25.6526C27.958 25.2486 31.4841 24.8844 31.8774 27.0423C31.6384 27.0348 31.3992 27.0474 31.1623 27.0798C29.0612 27.3845 26.996 28.336 25.0987 29.2686C22.902 30.3573 20.7297 31.4133 18.4385 32.2643C16.2999 33.0743 14.1297 33.7933 11.9659 34.5271L11.9608 34.5261ZM21.9755 21.3628C22.8355 22.0424 24.1699 21.5213 24.9674 22.2509C24.1425 22.704 23.3549 23.2217 22.6118 23.7992C22.3248 22.9139 22.0372 22.0264 21.7585 21.1366C21.8232 21.219 21.8959 21.2948 21.9755 21.3628ZM24.5785 2.26994C24.7154 2.78072 25.0582 3.78613 25.4573 4.33803C24.3252 4.08613 23.1806 3.89445 22.0282 3.76381C22.8783 3.26585 23.7318 2.77173 24.5785 2.26994ZM21.175 4.2768C21.1846 4.30606 21.2015 4.33239 21.2241 4.35329C21.2467 4.37419 21.2743 4.38897 21.3042 4.39624C21.9961 4.56396 22.6937 4.73491 23.3884 4.86871C23.662 4.92574 23.9369 4.99664 24.212 5.04143L24.5715 5.15366C24.2286 5.36877 23.8833 5.57504 23.544 5.80341C23.5227 5.79847 23.5007 5.79715 23.479 5.79951C22.6983 5.86651 21.9947 5.56683 21.2254 5.45538C20.8411 5.41815 20.4551 5.40055 20.069 5.40265C19.874 5.36484 19.6796 5.32924 19.4858 5.29585C20.0369 4.94675 20.6042 4.60514 21.175 4.2768ZM17.0979 6.9358C17.511 6.59889 17.9416 6.28414 18.388 5.99288C18.4095 6.00658 18.4338 6.01545 18.459 6.01889C19.2059 6.15292 19.9713 6.26776 20.7284 6.37774C21.2532 6.47886 21.7829 6.55417 22.3175 6.60367C21.9156 6.87252 21.5319 7.13885 21.1434 7.41359C20.0552 7.29929 18.9583 7.29468 17.8692 7.39981C17.527 7.42278 16.9723 7.36048 16.5032 7.43168C16.6983 7.24904 16.9153 7.07714 17.0979 6.9358ZM16.1838 9.99858C16.0891 9.52152 15.878 8.91926 15.9194 8.41047L16.4276 8.3525C16.5866 8.37221 16.747 8.37917 16.9072 8.37331C17.9176 8.41271 18.9295 8.37917 19.9351 8.27295C19.7365 8.41622 19.5379 8.5595 19.3644 8.7079C19.149 8.84828 18.9731 9.04144 18.8535 9.26901C18.8226 9.27339 18.7932 9.28533 18.768 9.30376L16.3949 11.0606C16.3234 10.7053 16.2525 10.3523 16.1838 9.99858ZM16.5987 11.9895L18.845 10.6435L18.8663 10.6259C18.9115 10.9977 18.9594 11.3712 19.014 11.7429C18.9902 11.7548 18.9688 11.7709 18.9509 11.7906C18.3133 12.5065 17.6747 13.2219 17.0352 13.9368C16.8921 13.2878 16.7418 12.6385 16.5987 11.9895ZM17.3151 15.061C17.9966 14.3433 18.6263 13.5782 19.1995 12.7715C19.3176 13.4508 19.4552 14.1415 19.606 14.8192L19.5798 14.8452C19.0032 15.5234 18.2443 15.9638 17.7094 16.683C17.5774 16.1433 17.446 15.6026 17.3151 15.061ZM21.0724 20.2919C21.0199 20.4023 20.9324 20.4924 20.8235 20.5481C20.6662 20.6104 20.5022 20.6544 20.3348 20.6791C19.961 20.7698 19.5889 20.8553 19.2186 20.9355C19.357 20.8089 19.4776 20.6642 19.5773 20.5052C19.6899 20.3329 19.7988 20.1734 19.9079 20.0233L20.0905 19.8203C20.3567 19.7703 20.6214 19.7231 20.8878 19.6825C20.9461 19.8825 21.0085 20.0886 21.0724 20.2919ZM18.0004 17.8753C18.023 17.8646 18.0441 17.851 18.0631 17.8348C18.703 17.2747 19.3145 16.6913 19.8977 16.0848C20.0439 16.6776 20.2019 17.2672 20.3717 17.8537C20.3348 17.8686 20.3029 17.8936 20.2796 17.9258C19.8896 18.464 19.4625 18.9744 19.0015 19.4532C18.8114 19.5042 18.6212 19.5551 18.4288 19.6067C18.2826 19.0344 18.1446 18.4576 18.0004 17.8753ZM18.8371 21.4311L18.9609 21.398C19.4947 21.285 20.0283 21.1625 20.5618 21.0306L20.6325 21.0117C20.1322 21.7272 19.6575 22.4587 19.2085 23.2063C19.0913 22.6096 18.9676 22.0242 18.8371 21.4311ZM19.5201 24.8646C19.5717 24.8523 19.6167 24.8208 19.6458 24.7765C20.2881 23.8776 20.9556 22.9957 21.6481 22.1307C21.8532 22.7725 22.0612 23.4159 22.2685 24.0571C21.4197 24.6661 20.56 25.252 19.6758 25.7994C19.6238 25.4815 19.5736 25.1703 19.5201 24.8646ZM20.289 25.9123C21.0467 25.432 21.7705 24.8873 22.5001 24.3553C22.5535 24.3632 22.6078 24.3497 22.6512 24.3176C22.6946 24.2856 22.7235 24.2376 22.7316 24.1843C23.463 23.6378 24.2364 23.15 25.0448 22.7255C25.934 22.2763 27.0575 21.8259 28.023 22.3422C28.9884 22.8585 29.3758 23.9326 29.4412 24.9815C28.9671 24.929 28.4891 24.9222 28.0137 24.9611C25.6965 25.1578 23.6334 26.3031 21.6416 27.4221C19.4704 28.6414 17.2811 29.7755 15.0675 30.9161C14.2046 31.3294 13.4131 31.8775 12.7226 32.5398C12.6945 32.5263 12.6637 32.5192 12.6325 32.519C12.6013 32.5187 12.5705 32.5254 12.5421 32.5384C12.3824 32.6143 12.2372 31.6128 12.2344 31.5757C12.2231 31.3098 12.2595 31.044 12.3417 30.7909C12.5027 30.3461 12.7898 29.9578 13.168 29.6737L13.1879 29.6683C13.2214 29.6567 13.2503 29.6348 13.2707 29.6059C13.8779 29.1889 14.5338 28.8476 15.2238 28.5896C16.9792 27.8287 18.6722 26.9313 20.2873 25.9057L20.289 25.9123ZM13.2555 29.098C13.3516 26.3255 16.7938 25.498 18.9732 24.1059C19.0922 24.7447 19.2052 25.3875 19.3037 26.0294C18.5975 26.454 17.879 26.8535 17.1483 27.2279C16.2618 27.6787 15.3516 28.0671 14.4455 28.4711C14.0326 28.6463 13.6341 28.8537 13.2537 29.0914L13.2555 29.098ZM17.9754 20.8776C17.9771 20.8131 18.0852 20.7036 18.2257 20.5735L18.3519 21.1061C18.1404 21.113 17.9736 21.0653 17.9754 20.8776ZM9.03466 34.2721C9.02108 34.2347 9.01077 34.1963 9.00385 34.1571C8.99356 34.1149 8.99396 34.0708 9.00502 34.0288C9.00502 34.0288 9.00028 34.0111 8.99791 34.0023C8.73949 33.1091 8.62196 32.1811 8.64957 31.2517C8.91564 27.7251 10.9971 24.3045 14.3367 22.1038C15.4176 21.3957 16.5846 20.8289 17.8094 20.4173C17.5389 20.6723 17.3438 20.9615 17.4612 21.2405C17.618 21.6132 18.0503 21.5993 18.44 21.5233C18.5986 22.2392 18.7482 22.9567 18.8888 23.6759C16.5265 25.3231 12.6718 26.0527 12.8495 29.3869C12.7307 29.4836 12.6186 29.5881 12.5138 29.6997C12.2469 29.9788 12.0457 30.3142 11.9251 30.6811C11.8044 31.048 11.7673 31.4373 11.8165 31.8204C11.862 32.1494 12.0124 32.7727 12.3475 32.9176C11.9109 33.4374 11.4789 34.0983 11.5704 34.7847C11.4599 34.7883 11.3517 34.7912 11.2411 34.7853L11.2124 34.793L10.2457 34.7676L10.1736 34.7727C10.1403 34.8136 10.096 34.8442 10.046 34.8609C9.99595 34.8777 9.94219 34.8799 9.89093 34.8674C9.82342 34.8634 9.75572 34.8711 9.69085 34.8902C9.64244 34.9049 9.59078 34.905 9.54227 34.8907C9.49377 34.8763 9.45055 34.848 9.41796 34.8093C9.35403 34.8193 9.28869 34.8047 9.23504 34.7685C9.1814 34.7324 9.14341 34.6773 9.12871 34.6142L9.03466 34.2721ZM42.3203 70.7564C42.4535 70.652 42.5839 70.5459 42.7086 70.4367C42.7108 70.4534 42.7151 70.4698 42.7217 70.4853C42.605 70.5806 42.4677 70.6695 42.3203 70.7564ZM38.4665 37.6407C38.8561 39.873 39.2448 42.1048 39.6325 44.3361C39.9207 46.1548 40.1972 47.9649 40.4837 49.7769C41.0074 53.0935 41.5492 56.41 42.1092 59.7264C42.4002 61.4022 42.6917 63.0794 42.9835 64.7581C43.1201 65.551 43.2633 66.3421 43.4011 67.1394C43.5008 67.6006 43.523 68.0752 43.4669 68.5437C43.3811 68.8851 43.2391 69.2099 43.0467 69.5048C43.0135 69.5492 42.9754 69.5926 42.9373 69.636C41.9824 70.7071 40.6333 71.5449 39.4071 72.2669C38.0965 73.038 36.7097 73.6717 35.2688 74.1578C33.2728 74.8476 31.188 75.2466 29.0784 75.3426C29.053 75.3356 29.0267 75.333 29.0005 75.335L28.8336 75.3489C27.9791 75.371 27.1243 75.3202 26.2784 75.197L26.2461 75.1914C25.504 74.9779 24.7721 74.7142 24.0532 74.4637C23.4501 74.1224 22.9335 73.647 22.5434 73.0742C22.4307 72.9101 22.3268 72.7436 22.2262 72.5715C22.1708 72.418 22.1177 72.264 22.0636 72.115L19.0002 63.84C18.461 62.3848 17.9129 60.9319 17.419 59.4599C17.4147 59.4397 17.4094 59.4198 17.403 59.4002C17.0734 58.294 16.7484 57.1874 16.4281 56.0804C16.3718 55.8703 16.3149 55.6581 16.278 55.4405C15.9778 54.0989 15.7417 52.7402 15.3609 51.399C14.9579 49.9831 14.4366 48.6037 13.9358 47.2211C13.5572 46.1739 13.1781 45.1276 12.7985 44.0823C12.1885 42.2479 11.5364 40.4248 10.8275 38.6193C11.7452 38.5061 12.6698 38.2157 13.5153 38.0365L18.5157 36.9834C24.7177 35.6653 31.1887 34.4575 36.6355 31.0286L36.8371 30.8964C37.6554 33.066 38.0727 35.3573 38.4731 37.6389L38.4665 37.6407ZM38.1121 28.8887C37.9945 29.3724 37.7146 29.8012 37.3191 30.1036C37.309 30.0661 37.2995 30.0307 37.2901 29.9953C37.1372 30.2091 36.9271 30.3755 36.684 30.4753C36.6905 30.4996 36.697 30.5239 36.7035 30.5482C36.3113 30.8003 35.8996 31.0149 35.5608 31.2099C33.3481 32.4492 31.0045 33.4388 28.5733 34.1605C23.7591 35.652 18.7363 36.5333 13.8036 37.5825C12.7944 37.796 11.7207 38.1406 10.6629 38.2439L10.6428 38.1687C10.5013 38.1925 10.3566 38.1895 10.2162 38.1598L10.2007 38.1639C10.2114 38.2037 10.222 38.2435 10.246 38.2798C10.1616 38.2834 10.0767 38.2848 9.99116 38.2841C9.2108 38.2728 8.51767 37.9679 8.18071 37.2145C7.92404 36.6458 7.73481 35.1347 8.56676 34.8786C8.60823 35.0334 8.64971 35.1881 8.71167 35.3398C8.7338 35.3904 8.77346 35.4313 8.82335 35.4549C8.87323 35.4786 8.92999 35.4834 8.98315 35.4685C9.02264 35.4946 9.06922 35.5077 9.1165 35.5062C9.29316 35.511 9.46745 35.507 9.64056 35.4985C9.66076 35.5235 9.68729 35.5425 9.71738 35.5536C9.74747 35.5647 9.77999 35.5675 9.81154 35.5617C15.3596 35.0329 20.8332 33.8985 26.1344 32.1787C28.7674 31.3218 31.3515 30.3216 33.8753 29.1826C34.2985 28.9934 34.7236 28.8107 35.1427 28.606C35.183 28.6182 35.2259 28.619 35.2666 28.6084C35.3844 28.5834 35.4989 28.5447 35.6078 28.4932C35.7119 28.3519 35.8303 28.2217 35.9611 28.1047C36.0801 27.9983 36.2201 27.9181 36.3719 27.869C36.386 27.8416 36.3933 27.8112 36.3932 27.7804C36.3873 27.7582 36.3814 27.7361 36.3903 27.7077C36.4861 27.4866 36.5185 27.2432 36.484 27.0048C36.8687 27.0211 37.2401 27.1498 37.5525 27.3749C37.7693 27.5568 37.935 27.7921 38.0331 28.0576C38.1313 28.323 38.1585 28.6095 38.1121 28.8887Z" fill="#505050"/>
<path d="M35.484 46.1277L35.4763 46.099L35.2571 46.006L35.2462 46.054C35.1759 46.4206 35.0282 46.768 34.813 47.073C34.6411 47.3373 34.3834 47.5343 34.0833 47.6311C34.0177 47.6576 33.9464 47.667 33.8762 47.6585C33.8059 47.6499 33.739 47.6237 33.6816 47.5823C33.5827 47.4896 33.5134 47.3696 33.4826 47.2375C33.4686 47.1971 33.4575 47.1557 33.4494 47.1137C33.7042 47.0119 33.9425 46.873 34.1566 46.7015C34.3622 46.5442 34.5302 46.3429 34.6481 46.1124C34.7492 45.9088 34.771 45.6748 34.7092 45.4561C34.6239 45.1377 34.3998 45.0176 34.0592 45.1089C33.805 45.1805 33.5769 45.3239 33.4021 45.5219C33.2053 45.7406 33.0531 45.9955 32.9538 46.2725C32.8558 46.5309 32.8087 46.8059 32.8153 47.0822C32.7122 47.3484 32.5631 47.5945 32.375 47.8092C32.2182 47.9998 32.0077 48.1388 31.7708 48.2081C31.4458 48.2952 31.2444 48.1714 31.1537 47.8331C31.1387 47.7906 31.127 47.747 31.1188 47.7026C31.3789 47.5951 31.6219 47.4502 31.8401 47.2724C32.0585 47.1013 32.2382 46.886 32.3675 46.6405C32.486 46.4307 32.519 46.1833 32.4597 45.9498C32.3756 45.6358 32.1521 45.518 31.816 45.608C31.5122 45.7004 31.2474 45.8905 31.0626 46.1488C30.8435 46.4307 30.6826 46.7533 30.5894 47.098C30.5352 47.2854 30.5074 47.4795 30.5069 47.6746C30.4765 47.7469 30.4405 47.8168 30.3994 47.8836C30.3253 48.0064 30.2067 48.096 30.0682 48.1335C30.0179 48.1504 29.9644 48.1561 29.9117 48.1501C29.8589 48.1442 29.8081 48.1268 29.7628 48.0992C29.665 48.0336 29.5845 47.9454 29.528 47.8421C29.4588 47.7256 29.3693 47.5505 29.2611 47.3235C29.2361 47.2711 29.201 47.2241 29.1577 47.1854C29.1244 47.1545 29.0842 47.132 29.0405 47.1196L29.0697 46.8748C29.3292 46.5752 29.5547 46.2477 29.7418 45.8984C29.9349 45.5488 30.0844 45.1768 30.1869 44.7909C30.2774 44.4906 30.2907 44.1724 30.2257 43.8657C30.1416 43.5517 29.9514 43.5315 29.8054 43.5706C29.4118 43.6761 29.101 44.1789 28.8523 45.1082C28.6067 46.0591 28.4546 47.0317 28.3981 48.0122C28.349 48.1749 28.2802 48.331 28.1932 48.4771C28.1199 48.6006 28.001 48.6904 27.862 48.727C27.812 48.7438 27.7589 48.7493 27.7065 48.7433C27.6541 48.7373 27.6037 48.7198 27.5588 48.6921C27.4604 48.6273 27.3797 48.5389 27.3241 48.435C27.2549 48.3185 27.1631 48.144 27.0571 47.9165C27.0314 47.8641 26.9955 47.8173 26.9515 47.7789C26.9191 47.7467 26.8786 47.724 26.8344 47.7131L26.8636 47.4683C27.1273 47.1677 27.3571 46.8391 27.549 46.4883C27.7405 46.1385 27.8892 45.7668 27.9918 45.3814C28.084 45.0813 28.0981 44.7627 28.0328 44.4556C27.9487 44.1416 27.7563 44.1221 27.6103 44.1612C27.2167 44.2667 26.9059 44.7694 26.6572 45.6987C26.4067 46.6701 26.253 47.6639 26.1985 48.6655C26.1622 48.7644 26.1056 48.8546 26.0325 48.9304C25.9372 49.0326 25.8169 49.1081 25.6835 49.1495C25.6395 49.1615 25.594 49.1673 25.5483 49.1668C25.6146 48.9554 25.6628 48.7387 25.6924 48.5191C25.7228 48.3248 25.7155 48.1264 25.6709 47.9348C25.6377 47.7825 25.5501 47.6476 25.4246 47.5552C25.3552 47.5125 25.2771 47.4859 25.1961 47.4773C25.115 47.4687 25.0331 47.4783 24.9562 47.5053C24.8563 47.5271 24.7626 47.571 24.6818 47.6336C24.601 47.6963 24.5352 47.7762 24.4892 47.8675C24.4078 48.0347 24.3757 48.2217 24.3967 48.4066C24.335 48.3982 24.2724 48.4014 24.2119 48.4158C24.1335 48.443 24.0618 48.4865 24.0015 48.5436C23.9412 48.6006 23.8937 48.6697 23.8621 48.7465C23.7655 48.9328 23.7065 49.1362 23.6884 49.3452C23.683 49.387 23.6804 49.4303 23.6777 49.4737C23.6256 49.642 23.5583 49.8052 23.4766 49.9613C23.3411 50.2203 23.1638 50.4552 22.9519 50.6564C22.7741 50.8336 22.5546 50.9634 22.3136 51.0337C22.1794 51.0794 22.0353 51.0881 21.8966 51.059C21.7579 51.0299 21.6295 50.964 21.525 50.8681C21.2895 50.6474 21.1253 50.3612 21.0537 50.0465C20.9331 49.5042 20.9238 48.9431 21.0265 48.3972C21.0985 47.8336 21.267 47.2866 21.5246 46.7801C21.7661 46.3196 22.0386 46.0452 22.3393 45.9646C22.5184 45.9166 22.6192 45.9654 22.6595 46.1158C22.6977 46.3395 22.6776 46.5693 22.6013 46.7831C22.5242 47.057 22.4208 47.3228 22.2926 47.5768L22.2803 47.6015L22.3 47.6222C22.3412 47.6784 22.3977 47.7213 22.4628 47.746C22.5278 47.7706 22.5987 47.7758 22.6666 47.761C22.7489 47.73 22.823 47.6806 22.883 47.6164C22.9431 47.5522 22.9876 47.475 23.013 47.3909C23.1024 47.1717 23.1562 46.9397 23.1725 46.7035C23.1959 46.4822 23.1816 46.2584 23.1303 46.0418C23.1122 45.9474 23.0722 45.8587 23.0135 45.7826C22.9549 45.7065 22.8792 45.6453 22.7925 45.6038C22.6091 45.5369 22.4088 45.5323 22.2225 45.5906C21.7217 45.7476 21.2948 46.0809 21.0211 46.5287C20.6635 47.0541 20.4191 47.6483 20.3036 48.2733C20.174 48.891 20.188 49.5302 20.3445 50.1417C20.4185 50.4243 20.5484 50.6893 20.7263 50.921C20.8971 51.1447 21.1277 51.3154 21.3915 51.4134C21.6831 51.5138 21.999 51.5196 22.2941 51.4299C22.7569 51.3036 23.1604 51.0185 23.4339 50.6245C23.5674 50.4374 23.6831 50.2382 23.7793 50.0295C23.8236 50.1603 23.9007 50.2775 24.0032 50.37C24.0715 50.4258 24.1532 50.4626 24.2402 50.4768C24.3272 50.4909 24.4164 50.4818 24.4988 50.4505C24.71 50.3872 24.8984 50.2643 25.0415 50.0965C25.2074 49.9145 25.3448 49.7083 25.4487 49.485C25.5622 49.4914 25.676 49.4809 25.7864 49.4538C25.9506 49.4059 26.0981 49.313 26.2122 49.1856C26.1639 49.7953 26.1983 50.4087 26.3145 51.0091C26.3456 51.2029 26.4492 51.3776 26.6043 51.4979C26.6574 51.5333 26.7173 51.5573 26.7803 51.5682C26.8432 51.5791 26.9077 51.5767 26.9696 51.5612C27.0777 51.5199 27.1744 51.4536 27.2519 51.3677C27.3294 51.2819 27.3855 51.1789 27.4155 51.0672C27.5302 50.7484 27.5884 50.412 27.5876 50.0732C27.6018 49.7242 27.5703 49.3749 27.4941 49.0341C27.6483 49.0904 27.8157 49.0999 27.9754 49.0616C28.1549 49.003 28.3103 48.8872 28.418 48.732C28.3778 49.2962 28.4118 49.8631 28.5191 50.4184C28.5502 50.6122 28.6537 50.7869 28.8088 50.9072C28.8623 50.9419 28.9222 50.9654 28.985 50.9762C29.0478 50.9871 29.1121 50.9851 29.1742 50.9705C29.2822 50.9292 29.3789 50.8629 29.4564 50.777C29.5339 50.6912 29.59 50.5882 29.6201 50.4765C29.7355 50.1576 29.7945 49.821 29.7944 49.4819C29.8032 49.1273 29.7672 48.773 29.6872 48.4275C29.8415 48.4837 30.0089 48.4933 30.1686 48.4549C30.3576 48.3904 30.5192 48.2636 30.6267 48.0952C30.6962 48.2778 30.8285 48.4298 30.9999 48.5237C31.2332 48.6372 31.5016 48.6554 31.7481 48.5744C32.0115 48.5016 32.2533 48.366 32.4528 48.1794C32.6492 48.0061 32.8153 47.8014 32.9446 47.5736C33.03 47.7454 33.1671 47.8861 33.3367 47.9757C33.5553 48.0813 33.806 48.0989 34.0372 48.025C34.4182 47.9145 34.7493 47.6759 34.9748 47.3496C35.2389 46.9883 35.4134 46.5696 35.484 46.1277ZM34.1465 45.4789C34.1974 45.4653 34.2129 45.4611 34.222 45.4776C34.2312 45.4941 34.2462 45.4972 34.2622 45.5569C34.2835 45.6667 34.2777 45.78 34.2452 45.887C34.2128 45.9939 34.1547 46.0914 34.076 46.1708C33.8953 46.3796 33.6895 46.5653 33.4634 46.7237C33.4766 46.5529 33.5111 46.3844 33.566 46.2222C33.6237 46.0425 33.7105 45.8735 33.823 45.722C33.9026 45.6068 34.0178 45.521 34.151 45.4777L34.1465 45.4789ZM31.5846 46.2483C31.6653 46.1249 31.7843 46.0314 31.9233 45.9822C31.9786 45.9674 31.9926 45.9754 31.9954 45.9771C31.9982 45.9787 32.014 45.9934 32.0247 46.0332C32.0439 46.1557 32.0344 46.2809 31.997 46.3991C31.9595 46.5173 31.8952 46.6252 31.809 46.7143C31.626 46.9498 31.4119 47.1594 31.1726 47.3375C31.2173 46.9424 31.3606 46.565 31.5895 46.2399L31.5846 46.2483ZM29.2273 50.4348C29.1853 50.4461 29.1339 50.3603 29.0918 50.2033C29.0213 49.8865 28.9862 49.5629 28.9873 49.2383C28.9768 48.8454 28.986 48.4021 29.0123 47.9163C29.0776 47.9863 29.1355 48.063 29.1849 48.145C29.2431 48.2435 29.2868 48.35 29.3146 48.461C29.3778 48.719 29.4121 48.9833 29.4167 49.2489C29.4294 49.525 29.4155 49.8018 29.3751 50.0753C29.3351 50.368 29.2683 50.4286 29.2329 50.4381L29.2273 50.4348ZM29.8843 44.2012L29.8976 44.1977C29.8976 44.1977 29.8976 44.1977 29.9011 44.2109C29.9157 44.3547 29.8988 44.5 29.8517 44.6366C29.7833 44.8964 29.6926 45.1499 29.5807 45.3941C29.468 45.6427 29.3423 45.8852 29.2042 46.1206C29.2648 45.6825 29.3596 45.2498 29.4878 44.8265C29.6154 44.4534 29.7506 44.2418 29.8899 44.2045L29.8843 44.2012ZM27.0206 51.0261C26.9786 51.0374 26.9294 50.951 26.8873 50.794C26.8159 50.4776 26.7801 50.1541 26.7806 49.8296C26.7701 49.4367 26.7793 48.9934 26.8077 48.507C26.8715 48.5784 26.9292 48.6549 26.9804 48.7357C27.0386 48.8342 27.0822 48.9407 27.1101 49.0517C27.1724 49.31 27.2059 49.5745 27.21 49.8402C27.2233 50.1161 27.2101 50.3926 27.1706 50.666C27.1283 50.9593 27.0616 51.0199 27.0262 51.0294L27.0206 51.0261ZM27.6798 44.7919L27.6908 44.789C27.6908 44.789 27.6908 44.789 27.6944 44.8022C27.7104 44.9457 27.6942 45.0909 27.6471 45.2273C27.5829 45.486 27.4959 45.7385 27.3872 45.9818C27.276 46.2312 27.1503 46.4738 27.0107 46.7084C27.0709 46.2698 27.1665 45.8368 27.2965 45.4136C27.4108 45.0441 27.5527 44.8307 27.6854 44.7952L27.6798 44.7919ZM24.8495 49.7783C24.7934 49.8673 24.7109 49.9366 24.6135 49.9766C24.5317 49.9985 24.4163 50.001 24.3517 49.76C24.3168 49.6126 24.3049 49.4607 24.3163 49.3097C24.323 49.1391 24.3458 48.9695 24.3845 48.8032C24.4011 48.7267 24.4265 48.6523 24.4601 48.5815C24.5553 48.9213 24.779 49.2107 25.084 49.3884C25.0195 49.5261 24.9409 49.6567 24.8495 49.7783ZM25.327 48.0222C25.365 48.1844 25.3714 48.3525 25.3458 48.5172C25.3219 48.6955 25.2817 48.8713 25.2258 49.0423C25.159 48.9787 25.1025 48.9051 25.0584 48.8241C24.9958 48.7223 24.9473 48.6126 24.9141 48.4978C24.8853 48.3943 24.8772 48.2861 24.8904 48.1795C24.9003 48.0875 24.9299 47.9988 24.9771 47.9192C24.9904 47.8921 25.0089 47.8679 25.0317 47.848C25.0544 47.8281 25.0809 47.8128 25.1095 47.8032C25.1637 47.7934 25.2721 47.7644 25.3402 48.0186L25.327 48.0222Z" fill="#505050"/>
</svg>
