<svg xmlns="http://www.w3.org/2000/svg" viewBox="0 0 104.83 93.31"><g id="Layer_2" data-name="Layer 2"><g id="Object"><path d="M104.75,19.31c0-.28,0-.55,0-.82a.6.6,0,0,0-.36-.56c-.13-.4-.29-.8-.46-1.2-.75-2.55-2.34-5-4.75-6a9.16,9.16,0,0,1-.67-.87,15.72,15.72,0,0,0-1-1.66.65.65,0,0,0-.15-.1,12.87,12.87,0,0,0-2.62-3.93C93.48,2.75,91.81,2.54,90.21,2l-.59-.24c-.19-.09-.37-.17-.56-.28C85.32-.67,80.79-.07,76.71.78a35.34,35.34,0,0,0-6.92,1.7c-.88.39-1.79.91-2.63,1.38a9.13,9.13,0,0,0-1.86,1.5A37.17,37.17,0,0,0,53.35,17.53a44.81,44.81,0,0,0-4,8.44c-.77,2.08-1.42,5.46-.43,7.71a.08.08,0,0,1,0,0,.65.65,0,0,0-.54.63A5.27,5.27,0,0,0,48.55,36a16.61,16.61,0,0,0,.54,2.71A12.34,12.34,0,0,0,52.85,45c4.4,4,10.29,5.15,16.08,5.21,1.52,0,3,.08,4.57,0a36.4,36.4,0,0,0,4.73-1,38.21,38.21,0,0,0,8-3c5-2.2,10.34-5.51,13.14-10.45,2.41-4.25,4.38-8.46,5.11-13.12A7.35,7.35,0,0,0,104.75,19.31ZM67.61,5.6C71,3.61,75.24,3,79.05,2.41a19.24,19.24,0,0,1,10.26.7h0l.1,0,.36.14c3,1.31,5,3.93,6.65,6.61h0a2,2,0,0,0-.35.16.85.85,0,0,1-.19.06,11.86,11.86,0,0,0-1.79.07c-.9-.08-1.82-.22-2.27-.22-3.89,0-7.33,1.8-10.78,3.36a30.27,30.27,0,0,0-9,6.63,18.85,18.85,0,0,0-3.71,5.26,11.86,11.86,0,0,1-4.1,5.18,17.52,17.52,0,0,1-5.69,2.7,9.36,9.36,0,0,1-4.2.42c-1.19-.24-2.87-.89-2.91-2.28a.62.62,0,0,0-.57-.62,15.19,15.19,0,0,1,.32-4,24.81,24.81,0,0,1,2.59-6.34,43.25,43.25,0,0,1,7.85-10.1C63,9,64.45,8,65.75,6.8a.27.27,0,0,1,.08-.07C66.42,6.33,67,6,67.61,5.6Zm22,6c-.4.2-.79.41-1.2.58a38.64,38.64,0,0,0-3.57,1.95c-4.18,2.45-8.21,5.35-11.14,9.26A36.54,36.54,0,0,0,71.43,27a15.74,15.74,0,0,1-2.85,3.3c-2,1.93-4.36,4.06-7.19,4.58a10.64,10.64,0,0,1-3.77-.09c.29-.05.56-.11.81-.17,3.93-1,7.76-3,10.06-6.5,1.38-2.11,2.05-4.4,3.79-6.33a33.31,33.31,0,0,1,6.26-5.41,42.82,42.82,0,0,1,5.81-2.95A21.64,21.64,0,0,1,89.57,11.63ZM61.63,42.91a19.13,19.13,0,0,1-7.81-2.74,8.67,8.67,0,0,1-3.71-4,6.22,6.22,0,0,1,0-1.43.7.7,0,0,0,.61-.6c1.43.05,3.85,1.17,4.61,1.41a14,14,0,0,0,5.84.71c4.08-.54,6.59-3.57,9.51-6.09,1.41-1.22,2.06-2.84,3-4.42a27.2,27.2,0,0,1,4.7-5.46,42,42,0,0,1,5.33-3.82,33.91,33.91,0,0,1,5.87-3.24c2-.85,3.61-1.85,5.91-1.74a10.18,10.18,0,0,1,2.92.51c.62.75,1.21,1.51,1.88,2.23a10.3,10.3,0,0,1,2.24,2.92c.07.16.14.33.2.49a9,9,0,0,1,.3,2.66,14.51,14.51,0,0,1-2.72,6.86c-.71,1.1-1.44,2.15-2.2,3.14A57.16,57.16,0,0,1,93,34.52c-4,3-8.54,4.95-13.18,6.76-1.12.44-2.26.82-3.4,1.16A58,58,0,0,1,61.63,42.91Zm35.72-6.63a29,29,0,0,1-7.07,6.42c-2.69,1.74-5.92,2.83-8.87,4.07-6.23,2.64-13.63,2.56-20.16,1.14a16.75,16.75,0,0,1-8.64-5A10.12,10.12,0,0,1,51,40.38a16.52,16.52,0,0,0,6.51,3.69,38.45,38.45,0,0,0,9.26,1.3c3.14.17,6-.67,9-1.45l.15,0a33.22,33.22,0,0,0,4-.83,48.19,48.19,0,0,0,7.4-3C91.76,38,96,35.66,99,31.57l.06-.08.21-.18A17.68,17.68,0,0,0,101.32,29c-.5,1.1-1.08,2.18-1.63,3.24A26.64,26.64,0,0,1,97.35,36.28Z"/><path d="M61.64,15.09c-1.53,1-2.71,3.32-3.58,4.82-1.36,2.37-1.83,5-2.84,7.46-.21.53.55,1,.79.43.93-2.09,1.46-4.31,2.53-6.35.82-1.56,2-3.9,3.49-5a.68.68,0,0,0,.61-.82l0-.16A.66.66,0,0,0,61.64,15.09Z"/><path d="M60.82,13.64c-.13.36.49.6.64.24a5,5,0,0,1,2.17-1.83A14.9,14.9,0,0,1,66.35,11c.74-.24.26-1.37-.46-1C64.2,10.87,61.57,11.65,60.82,13.64Z"/><path d="M88.14,34.09c1.21-1.17,3-2,4.32-3.05a21,21,0,0,0,3.9-3.87A15.3,15.3,0,0,0,99,17.34a.44.44,0,0,0-.88,0,14.77,14.77,0,0,1-3.7,10.22,26.6,26.6,0,0,1-4,3.41,23.7,23.7,0,0,0-3.24,2.21C86.64,33.81,87.55,34.65,88.14,34.09Z"/><path d="M82.53,33.67a12.48,12.48,0,0,1,2-1.09,17,17,0,0,0,2.18-1.47,13.72,13.72,0,0,0,2.83-3c.23-.32-.32-.72-.56-.41a15.4,15.4,0,0,1-3.49,3.25c-1.09.75-2.58,1.11-3.5,2.07C81.66,33.35,82.14,34,82.53,33.67Z"/><path d="M50.64,63.84a29.22,29.22,0,0,0-3.35-7.43,21.18,21.18,0,0,0-4.55-5.95,17.25,17.25,0,0,0-2.86-2,21,21,0,0,1-3.3-2.41A18.7,18.7,0,0,0,31,42.83a40.25,40.25,0,0,0-7.94-2c-.37,0-.75-.1-1.15-.17a.57.57,0,0,0-.36-.15c-.43,0-.86-.07-1.29-.08a8.6,8.6,0,0,0-1.34,0l-.14,0a4.86,4.86,0,0,0-3.28,1.16,31.81,31.81,0,0,0-8.88,5.07A13.42,13.42,0,0,0,2,53.52,20.21,20.21,0,0,0,.88,56.36a19,19,0,0,0-.54,9.27c1.27,6.31,3.51,12.47,8.12,17.1A36,36,0,0,0,16,88.62c2.88,1.66,5.62,3.42,8.92,4.12a47,47,0,0,0,9.7.57c2.87,0,5.34-1.4,7.72-2.87A19.71,19.71,0,0,0,48.43,84a18.69,18.69,0,0,0,2.19-9.3.49.49,0,0,0,.09-.33A20.17,20.17,0,0,0,50.64,63.84ZM26.05,42.72a21.85,21.85,0,0,1,7.55,2.85,24.43,24.43,0,0,1,3,2.09,15.89,15.89,0,0,0,2.94,2,17.9,17.9,0,0,1,6,6.12,29.13,29.13,0,0,1,3.92,8.4c.65,2.73,1.13,6.09.45,8.87a13,13,0,0,1-1.32,3.22c0,.1,0,.2,0,.31a.61.61,0,0,1-.41.44l-.18.26a.49.49,0,0,0-.39-.13,1.75,1.75,0,0,1-1.61-.27,14,14,0,0,1-1.35-.42l-.71-.28-.2-.09c-.54-.23-1.07-.48-1.56-.73L42,75.33,41.28,75a3.74,3.74,0,0,1-.44-.23l-.1,0-.15-.08-.27-.15-.16-.1c-.15-.08-.29-.18-.43-.27L39.61,74c-.17-.12-.33-.25-.49-.38a3.33,3.33,0,0,1-.93-1.11c-.24-.25-.48-.51-.73-.8-1.37-1.65-3.11-3-4.29-4.78-2.45-3.74-2.68-8.59-4.62-12.58-.92-1.9-2.08-3.73-3.17-5.53a11.53,11.53,0,0,0-3.61-4.05,17,17,0,0,0-4.17-2,3,3,0,0,1,.09-.52A10.33,10.33,0,0,1,19.83,42a.46.46,0,0,0,.39-.18c.46.06.91.14,1.31.17A43,43,0,0,1,26.05,42.72ZM38.26,74.54c-4.17-1.28-8.21-3.69-10.27-7.62a25.9,25.9,0,0,1-2.51-8.43,28.45,28.45,0,0,0-1.55-7.61,16.39,16.39,0,0,0-3.53-5.36,11.12,11.12,0,0,1,3.48,3.33A39.31,39.31,0,0,1,29.23,60a42,42,0,0,0,2,6.07,14.92,14.92,0,0,0,3,4.14c.8.88,1.69,1.66,2.45,2.58a11.34,11.34,0,0,0,1.45,1.64Zm-21.71-32h.05v0Zm-5.18,2.35A8.29,8.29,0,0,1,14,44.53c1.38.46,3,.31,4.34,1,1.68.87,3.08,3.09,3.94,4.71,2,3.71,1.61,8.14,2.69,12.13,1,3.76,2.64,7.32,5.82,9.74a32.07,32.07,0,0,0,5,2.85c2,1,4,1.22,6.17,1.72a5.79,5.79,0,0,1,1,.31.61.61,0,0,1,.46,0,4.12,4.12,0,0,1,1,.44l.42.18h0a2.93,2.93,0,0,1,.39.21,1.84,1.84,0,0,1,1,1.73s0,0,0,.07h0l-.06.26c0,.05,0,.09,0,.13-.44,1.27-2.17,2.13-3.82,2.66l-.72.22h0l-.08,0-.34.17-.44.17-.19.09-.16.13a6.08,6.08,0,0,1-.54.39l-.15.09a4.49,4.49,0,0,1-.42.24l-.14.06a5,5,0,0,1-1.17.39,7.89,7.89,0,0,1-1.39.18,5.9,5.9,0,0,1-.95.17,61.65,61.65,0,0,1-6.66,0,14.39,14.39,0,0,1-7.08-2c-3.85-2.21-7.74-4.28-11-7.38A31.19,31.19,0,0,1,6.1,70.22a24.11,24.11,0,0,1-2.5-6.71,18.44,18.44,0,0,1-.84-7.8,13.64,13.64,0,0,1,1.41-4.25c.28-.45.56-.89.82-1.35A11.22,11.22,0,0,1,5.84,49,22.86,22.86,0,0,1,11.37,44.89ZM47.78,82.53a19.81,19.81,0,0,1-4.62,5.69c-2,1.89-5.39,3.71-8.15,3.83a44.09,44.09,0,0,1-8.75-.34,24.11,24.11,0,0,1-8.51-3.53,40.31,40.31,0,0,1-7.36-5.34,27.3,27.3,0,0,1-5.25-6.7,40.71,40.71,0,0,1-3-8.62,20.09,20.09,0,0,1-.7-8.2,30.77,30.77,0,0,0,1.44,6.26,19.5,19.5,0,0,0,2.71,6,38.93,38.93,0,0,0,11.21,10c2.2,1.26,4.41,2.6,6.69,3.7,2.09,1,4.68,1,7,1s5.12.39,7.37-.58a9,9,0,0,0,.88-.44,8.06,8.06,0,0,0,2.43-1.1c1.15-.61,2.31-1.16,3.42-1.83A13.89,13.89,0,0,0,49,78,15.55,15.55,0,0,1,47.78,82.53Z"/><path d="M8.34,68.2c.25.55,1.14.29.91-.28C7.37,63.3,5.94,58.46,6.9,53.46a.35.35,0,0,0,0-.59l-.11-.06a.36.36,0,0,0-.52.24C5,58.12,6.26,63.52,8.34,68.2Z"/><path d="M13.56,70.67a12.58,12.58,0,0,1-2.79-6.31.38.38,0,0,0-.75,0c0,2.6,1.31,4.72,2.66,6.82C13,71.78,13.94,71.2,13.56,70.67Z"/><path d="M42.18,57.55c1.42,1.45,2.16,4,2.56,5.85a57.44,57.44,0,0,1,.9,7.41c.06.77,1.27.73,1.21-.06a43.5,43.5,0,0,0-1.18-8.27c-.51-1.89-1.49-4.47-3.09-5.68-.18-.14-.53-.17-.63.1l0,.09A.43.43,0,0,0,42.18,57.55Z"/><path d="M43.1,65.83a13.86,13.86,0,0,1,0,4.36c-.15.61.85.82.93.22a15.79,15.79,0,0,0-.36-4.6C43.59,65.47,43.08,65.48,43.1,65.83Z"/><path d="M18.55,24.23a7.58,7.58,0,0,0,1,3.19c.52.68,1.63,0,1.15-.72a9.65,9.65,0,0,1-.89-3.22c-.28-1.42-.44-2.86-.59-4.29a50.93,50.93,0,0,1-.28-7,.62.62,0,0,0-.15-1.12L18.46,11a.62.62,0,0,0-.75.62,51.62,51.62,0,0,0,.31,9C18.15,21.83,18.31,23,18.55,24.23Z"/><path d="M26.14,29.25c.52.65,1.64,0,1.12-.7a9.22,9.22,0,0,1-1.45-3.92c-.27-1.3-1.5-5.47-.55-6.73.4-.54-.35-1.28-.78-.73a2.77,2.77,0,0,0-.7,2,31.8,31.8,0,0,0,.59,4.32C24.68,25.39,24.9,27.66,26.14,29.25Z"/><path d="M76.77,66.54a59,59,0,0,1-1.9,7.74,22.23,22.23,0,0,1-4.3,7c-.54.68.47,1.6,1,.92,1.59-2.11,3.09-3.84,4-6.36a53.44,53.44,0,0,0,2.23-9C78,66.1,76.9,65.85,76.77,66.54Z"/><path d="M82.61,74.75a15.66,15.66,0,0,1-1.08,6.12,27,27,0,0,1-1.08,3.85.63.63,0,0,0-.51.84l.09.26a.69.69,0,0,0,1.25.13c.85-1.28.92-3,1.37-4.5a17.32,17.32,0,0,0,1.07-6.75C83.65,74,82.55,74,82.61,74.75Z"/></g></g></svg>