<svg width="51" height="44" viewBox="0 0 51 44" fill="none" xmlns="http://www.w3.org/2000/svg">
<path d="M42.3046 34.6568C42.3608 34.7184 42.4289 34.5796 42.457 34.5678C42.3302 34.5084 42.2831 34.6906 42.3046 34.6568Z" fill="#505050"/>
<path d="M41.0038 34.0768L41.0606 34.0419L40.8076 34.0357L41.0038 34.0768Z" fill="#505050"/>
<path d="M39.988 33.2722C39.9257 33.5488 40.3813 33.533 40.5071 33.7468L40.4994 33.8134L40.7091 33.7168C40.4709 33.5695 40.0968 33.452 39.988 33.2722Z" fill="#505050"/>
<path d="M39.7929 32.4107C39.7524 32.5103 39.6253 32.385 39.9007 32.5359L39.8929 32.4979C39.8578 32.471 39.8244 32.4419 39.7929 32.4107Z" fill="#505050"/>
<path d="M39.893 32.4975C40.0029 32.5768 39.8772 32.3757 39.893 32.4975V32.4975Z" fill="#505050"/>
<path d="M39.3691 32.1491L39.5639 32.1936C39.5696 32.1224 39.4551 32.0138 39.5277 32.0163C39.3544 31.9379 39.3486 32.0092 39.3691 32.1491Z" fill="#505050"/>
<path d="M39.1177 32.1863L39.2113 32.2244C39.2182 32.1882 39.2036 32.1667 39.1177 32.1863Z" fill="#505050"/>
<path d="M39.4175 32.2773L39.2135 32.2174C39.1959 32.2606 39.1662 32.3337 39.3032 32.2539C39.2423 32.2988 39.3204 32.2687 39.4175 32.2773Z" fill="#505050"/>
<path d="M39.4802 32.3801C39.5221 32.4863 39.6027 32.5926 39.4099 32.5528C39.699 32.7364 39.7693 32.5637 39.4802 32.3801Z" fill="#505050"/>
<path d="M39.7726 33.4399L39.8316 33.58L39.9754 33.5883C39.9042 33.5825 39.8102 33.3855 39.7726 33.4399Z" fill="#505050"/>
<path d="M38.5877 31.3393C38.5422 31.375 38.5282 31.4854 38.5025 31.5485L38.6435 31.5827C38.6179 31.5219 38.5553 31.419 38.5877 31.3393Z" fill="#505050"/>
<path d="M38.4998 31.555L38.2884 31.5038C38.4248 31.6251 38.4769 31.6115 38.4998 31.555Z" fill="#505050"/>
<path d="M38.9148 32.39L39.2934 32.4396L38.8638 32.3537L38.9148 32.39Z" fill="#505050"/>
<path d="M38.0041 30.8615L38.1694 30.8358L37.8976 30.8568L38.0041 30.8615Z" fill="#505050"/>
<path d="M37.6072 30.5527C37.7352 30.5235 37.6311 30.3418 37.7409 30.3478C37.6176 30.2877 37.4809 30.26 37.3439 30.2674C37.4075 30.2903 37.4647 30.3281 37.5105 30.3778C37.5563 30.4275 37.5895 30.4875 37.6072 30.5527Z" fill="#505050"/>
<path d="M37.1309 30.2581C37.1995 30.2727 37.2697 30.2792 37.3398 30.2774C37.2723 30.2566 37.2011 30.2501 37.1309 30.2581Z" fill="#505050"/>
<path d="M38.0501 31.2713C38.0631 31.2355 38.0677 31.1972 38.0637 31.1593C38.0597 31.1215 38.0471 31.085 38.0269 31.0527L37.9899 31.2196L38.0501 31.2713Z" fill="#505050"/>
<path d="M37.9872 31.2264L37.8627 31.1138L37.9872 31.2264Z" fill="#505050"/>
<path d="M38.0648 31.2849C38.0648 31.2849 38.0422 31.2976 38.0648 31.2849V31.2849Z" fill="#505050"/>
<path d="M38.5999 31.9558C38.4548 31.9509 38.207 31.8655 38.3066 32.1151C38.438 32.0873 38.3803 31.9438 38.5999 31.9558Z" fill="#505050"/>
<path d="M38.0175 31.4941L38.157 31.6555C38.1732 31.6156 38.1975 31.5558 38.2601 31.5542L38.0175 31.4941Z" fill="#505050"/>
<path d="M37.9076 31.469L38.018 31.4945L37.9681 31.4353L37.9076 31.469Z" fill="#505050"/>
<path d="M37.3146 30.5962C37.2093 30.584 37.1094 30.5433 37.0256 30.4785C37.097 30.5781 37.1818 30.6674 37.2777 30.7437C37.3232 30.7081 37.4186 30.6734 37.3146 30.5962Z" fill="#505050"/>
<path d="M37.6347 30.9125L37.605 30.9004C37.608 30.9401 37.6146 30.9428 37.6347 30.9125Z" fill="#505050"/>
<path d="M37.2729 30.765C37.2929 30.7956 37.3217 30.8194 37.3555 30.8332C37.3893 30.847 37.4266 30.8501 37.4622 30.8421C37.3962 30.8105 37.3343 30.771 37.2778 30.7244C37.2778 30.7244 37.2497 30.7556 37.2729 30.765Z" fill="#505050"/>
<path d="M36.8481 30.1159C36.864 30.1722 36.886 30.2266 36.9137 30.2781C36.9088 30.2141 36.8835 30.0955 36.8481 30.1159Z" fill="#505050"/>
<path d="M37.6226 30.8572C37.5731 30.8483 37.5225 30.8473 37.4728 30.8543C37.5193 30.8791 37.5683 30.899 37.6189 30.9138C37.6175 30.8948 37.6188 30.8758 37.6226 30.8572Z" fill="#505050"/>
<path d="M35.2909 30.2988C35.3313 30.2744 35.3772 30.2603 35.4244 30.2578C35.4716 30.2553 35.5186 30.2645 35.5614 30.2846C35.6042 30.3047 35.6413 30.3351 35.6695 30.373C35.6977 30.4109 35.7162 30.4552 35.7231 30.5019C35.9472 30.5506 36.1444 30.1044 36.1783 29.793C36.1334 29.8366 36.0965 29.8797 35.8805 29.8111C35.8885 29.915 36.1215 30.246 35.9032 30.2307C35.6409 30.1239 35.7605 30.0487 35.7075 29.9032C35.6803 30.1128 35.2729 29.8773 35.1496 30.1135L35.392 30.2122C35.3726 30.2314 35.2627 30.2254 35.2909 30.2988Z" fill="#505050"/>
<path d="M36.4736 30.0564L36.5533 30.0889C36.4916 29.9871 36.4561 29.8716 36.4502 29.7527C36.2959 29.7131 36.2399 29.7367 36.2018 29.7638L36.5116 30.0487L36.4736 30.0564Z" fill="#505050"/>
<path d="M36.8447 30.343C36.6931 30.4206 36.4938 30.3395 36.4826 30.5478C36.684 30.6995 36.7022 30.5598 36.8484 30.6C36.5123 30.3702 36.9922 30.6082 36.8213 30.3528C36.8903 30.3821 36.9558 30.4191 37.0164 30.4632C36.9726 30.403 36.9338 30.3393 36.9004 30.2727C36.8909 30.296 36.8855 30.3093 36.8923 30.2927C36.8763 30.3057 36.8588 30.3168 36.8401 30.3256C36.7715 30.228 36.8564 30.2858 36.8923 30.2927L36.9004 30.2727L36.5347 30.0774C36.6218 30.1833 36.7267 30.2731 36.8447 30.343Z" fill="#505050"/>
<path d="M37.9329 32.2338C37.9316 32.2276 37.9322 32.2212 37.9346 32.2153C37.937 32.2094 37.9411 32.2044 37.9463 32.2008C37.908 32.2006 37.8901 32.2164 37.9329 32.2338Z" fill="#505050"/>
<path d="M37.8568 32.0599C37.89 32.0734 37.9542 32.0298 38.0177 32.1021C38.0812 32.1744 37.9707 32.1604 37.9418 32.2029C38.0144 32.2053 38.1686 32.2449 38.0765 32.0719L38.0433 32.0584C37.9516 31.9126 37.9161 31.6194 37.946 31.6316C37.8873 31.7667 37.8569 31.9125 37.8568 32.0599Z" fill="#505050"/>
<path d="M37.3133 31.2267L36.9921 31.0649L37.042 31.275L37.0718 31.2019C37.2273 31.362 37.2579 31.2583 37.3133 31.2267Z" fill="#505050"/>
<path d="M36.203 29.6751L36.3421 29.5808L36.0421 29.6328L36.203 29.6751Z" fill="#505050"/>
<path d="M35.8544 29.4093L35.9562 29.3114L35.8124 29.3032L35.8544 29.4093Z" fill="#505050"/>
<path d="M32.1552 22.6457L32.0492 22.6765C32.0862 22.6731 32.1222 22.6627 32.1552 22.6457Z" fill="#505050"/>
<path d="M32.9087 22.7237L32.9356 22.6577C32.895 22.6912 32.8764 22.7182 32.9087 22.7237Z" fill="#505050"/>
<path d="M33.5507 21.2899C33.7309 21.2277 33.9802 21.186 33.8374 21.1279L33.6771 21.0936C33.6704 21.1331 33.6557 21.1709 33.634 21.2046C33.6122 21.2384 33.5839 21.2674 33.5507 21.2899Z" fill="#505050"/>
<path d="M38.0567 20.283L38.0811 20.2232C38.0254 20.2028 37.9676 20.1884 37.9089 20.1802C37.963 20.207 38.0128 20.2416 38.0567 20.283Z" fill="#505050"/>
<path d="M38.7178 20.3044C38.6995 20.4164 38.6691 20.5261 38.6272 20.6315C38.6812 20.5305 38.7121 20.4188 38.7178 20.3044Z" fill="#505050"/>
<path d="M28.0811 21.8967L27.9093 22.0048C28.0927 22.0679 28.0381 21.9643 28.0811 21.8967Z" fill="#505050"/>
<path d="M32.8667 26.4973C32.8718 26.4086 32.8623 26.3197 32.8384 26.2341C32.8042 26.3751 32.736 26.5331 32.8667 26.4973Z" fill="#505050"/>
<path d="M32.6062 21.0331C32.5454 21.0587 32.5186 21.0865 32.5164 21.1205C32.5791 21.0996 32.6172 21.0725 32.6062 21.0331Z" fill="#505050"/>
<path d="M32.7395 25.973C32.7296 25.9922 32.7214 26.0122 32.7151 26.0328C32.7684 26.0894 32.8082 26.1573 32.8318 26.2313C32.8624 26.1276 32.877 26.0252 32.7395 25.973Z" fill="#505050"/>
<path d="M20.7156 9.93108C20.7156 9.93108 20.7263 9.9047 20.7303 9.89481C20.7344 9.88491 20.7137 9.90727 20.7156 9.93108Z" fill="#505050"/>
<path d="M23.1111 6.16821C23.104 6.22232 23.0914 6.27556 23.0735 6.32712C23.1001 6.27849 23.1131 6.2236 23.1111 6.16821Z" fill="#505050"/>
<path d="M34.4937 28.9753C34.4651 28.9773 34.4382 28.9896 34.4181 29.0099C34.4397 28.9918 34.4658 28.9798 34.4937 28.9753Z" fill="#505050"/>
<path d="M31.6063 25.3995C31.5864 25.4107 31.5931 25.3942 31.6063 25.3995V25.3995Z" fill="#505050"/>
<path d="M34.6127 28.3624C34.5987 28.323 34.58 28.2853 34.5571 28.2502C34.5719 28.2894 34.5905 28.327 34.6127 28.3624Z" fill="#505050"/>
<path d="M34.6474 28.2947L34.6992 28.3586C34.7241 28.3454 34.7276 28.3273 34.6474 28.2947Z" fill="#505050"/>
<path d="M34.4672 28.1477C34.5055 28.1781 34.5392 28.214 34.5671 28.2542C34.5671 28.2542 34.5766 28.2309 34.5779 28.2276L34.4672 28.1477Z" fill="#505050"/>
<path d="M22.5291 17.6771L22.5373 17.6571C22.417 17.6081 22.4483 17.6365 22.5291 17.6771Z" fill="#505050"/>
<path d="M33.7374 17.9127C33.7396 17.9982 33.7172 18.0826 33.673 18.1558C33.6288 18.229 33.5645 18.2881 33.4878 18.326C33.6339 18.3854 33.77 18.4602 33.906 18.5349C33.825 18.335 33.7684 18.1261 33.7374 17.9127Z" fill="#505050"/>
<path d="M30.3591 22.4061L30.5744 22.5905C30.2337 22.7615 30.0321 22.6291 30.2231 22.8733C30.3544 22.4081 31.2003 23.0119 31.3071 22.5404L31.4521 22.6692C31.409 22.6516 31.3954 22.6848 31.3509 22.6706C31.6249 22.9486 31.6345 22.364 32.0259 22.477C32.1621 22.5324 32.2521 22.6155 32.1493 22.6588C32.26 22.6342 32.3687 22.6049 32.4755 22.571C32.5686 22.5895 32.5381 22.6739 32.4417 22.654L32.9257 22.6536C33.0243 22.5711 33.1286 22.4959 33.2381 22.4285C33.3548 22.5031 33.1758 22.4767 33.1948 22.5348L33.4651 22.4319C33.5668 22.5624 33.3438 22.6729 33.1601 22.6484C33.3902 23.1292 33.3852 22.5426 33.916 22.8362L33.66 22.8945C33.8181 23.1718 34.0211 23.0726 34.313 23.2495C34.2383 23.1571 33.7205 22.803 34.0301 22.6891C34.0852 22.7186 34.1476 22.7313 34.2098 22.7256C34.272 22.72 34.3311 22.6962 34.3799 22.6573C34.3822 22.8324 34.5362 22.7868 34.7215 22.7693L34.7134 22.9983C34.9249 22.9257 34.9016 22.8117 35.0188 22.7045C35.2492 22.7093 35.3093 22.8847 35.3737 23.031C35.7545 23.0466 35.0957 22.7629 35.5288 22.707C35.8474 22.7709 36.0425 22.6529 36.3985 22.4727C36.6526 22.5142 36.3743 22.6177 36.4732 22.6695C36.539 22.6 36.601 22.5271 36.659 22.451C36.7117 22.4453 36.708 22.5019 36.7024 22.5345C36.8689 22.4203 36.6739 22.3099 36.929 22.1776C36.9285 22.0458 37.084 22.1014 37.2877 22.1146C37.4913 22.1278 37.7512 22.0981 37.8405 21.8597C37.9611 21.8584 37.8789 22.0031 37.9545 22.0648C38.081 21.9159 38.1873 21.7509 38.2704 21.574C38.3355 21.4057 38.3628 21.2252 38.3503 21.0452C38.4554 20.9263 38.5396 20.7903 38.5991 20.6432C38.4976 20.807 38.4047 20.7499 38.3261 20.6482C38.2481 20.5182 38.1579 20.3959 38.0567 20.2829C38.0097 20.3527 37.956 20.4177 37.8963 20.4771C37.8503 20.3808 37.7851 20.295 37.7048 20.2248C37.7237 20.1784 37.8064 20.1655 37.9188 20.1842C37.8946 20.1709 37.869 20.1605 37.8424 20.1531C37.8586 20.0087 37.9999 19.985 38.1681 20.0379C38.1499 20.1064 38.1231 20.1722 38.0883 20.2339C38.2477 20.2988 38.4109 20.3923 38.551 20.3526C38.5106 20.3005 38.478 20.2429 38.4541 20.1815C38.504 20.2018 38.5405 20.2167 38.5586 20.2008C38.5766 20.185 38.5124 20.124 38.4269 20.0582C38.495 19.9918 38.5577 19.9203 38.6147 19.8443L38.5094 19.8556C38.454 19.627 38.3678 19.4069 38.2531 19.2015C38.0152 19.1365 37.7705 19.0992 37.524 19.0905C37.2668 19.0663 37.0157 18.9981 36.7815 18.8888C37.005 18.8249 36.9893 18.6637 37.1269 18.4874C37.1152 18.773 37.5564 18.6972 37.7587 18.9421C37.6542 18.8183 37.7511 18.7609 37.8057 18.76C37.6231 18.6856 37.4304 18.6265 37.2376 18.5673C37.3623 18.4323 37.2268 18.3848 37.1478 18.2365C37.0358 18.5781 36.6627 18.1823 36.3971 18.1786C36.4417 18.069 36.5521 17.9785 36.7927 18.1578C36.7274 17.957 36.5693 17.9933 36.4285 18.0443C36.2877 18.0954 36.1509 18.1558 36.0433 17.992C36.1098 18.0191 36.1463 18.0339 36.1938 18.0029C36.0025 18.0257 35.6195 17.8349 35.7345 17.7617C35.7599 17.7687 35.7844 17.7787 35.8075 17.7915C35.4715 17.6652 35.1037 17.6513 34.7591 17.7517C34.3901 17.8686 34.1729 18.117 34.2292 18.2638C34.1654 18.1253 34.1236 17.9777 34.1054 17.8262C33.9802 18.2552 33.9974 18.7133 34.1546 19.1316C34.0152 19.0066 33.8622 18.8975 33.6985 18.8065C33.5302 18.6876 33.3845 18.5509 33.4784 18.3297C33.3986 18.373 33.3292 18.4333 33.2754 18.5064C33.2215 18.5795 33.1845 18.6636 33.1669 18.7526C33.2437 18.7065 33.5833 18.8138 33.5488 18.9081C33.1396 18.9622 33.308 18.9766 32.9242 19.13C33.0271 19.0674 33.3181 19.3795 33.2288 19.5134C33.1891 19.4586 32.8711 19.3174 32.8655 19.2455L33.0259 19.8025C33.01 19.6798 32.7381 19.6156 32.5975 19.628C32.686 19.6292 32.4158 19.9412 32.3998 20.047L32.5669 19.9408C32.2936 20.3173 32.8465 20.6044 32.6257 20.9945C32.5756 20.9083 32.2317 20.6405 32.0807 20.8307C32.216 21.0213 32.7673 21.6832 32.7727 22.0881L32.6328 22.1085C32.6361 22.2144 32.6428 22.3216 32.6495 22.4289C32.3344 22.0009 32.0917 21.5241 31.9311 21.0175C31.7732 21.1391 31.7853 21.0046 31.6853 21.2504C31.5419 21.2888 31.5926 21.0501 31.6204 20.9723C31.5088 21.1514 31.4005 21.3318 31.2994 21.523C31.5294 21.5857 31.3407 22.0586 31.5408 22.1091C31.5383 21.868 31.5538 21.6304 31.5639 21.3868C31.7164 21.4996 31.8261 21.6606 31.8753 21.8438C31.9244 22.0269 31.9101 22.2213 31.8347 22.3952C31.7051 22.4663 31.4592 22.1765 31.3787 22.1554C31.4348 22.2363 31.3906 22.6015 31.3266 22.6258L31.2613 22.4057C31.0976 22.6177 31.4416 22.8662 31.1451 23.1094C31.1059 23.2057 30.7675 23.3428 30.9036 23.3982C31.3537 23.3278 31.8146 23.3979 32.2234 23.5988C32.0715 23.7797 31.9067 23.9494 31.7302 24.1064C31.4963 24.2435 31.2494 23.7945 31.0404 23.8991C31.1068 23.9372 31.1604 23.994 31.1945 24.0625C31.1253 24.166 30.9986 23.9827 30.997 24.2338C31.227 24.2964 30.9541 24.7196 31.192 24.3635C31.2551 24.5982 31.1286 24.6048 31.1402 24.8805C31.2932 24.7996 31.6848 25.1023 31.7722 25.2966C31.7089 25.2902 31.636 25.3457 31.6012 25.3741C31.6198 25.5946 31.6121 25.7657 31.6317 25.9362C31.6385 26.0242 31.6433 26.1074 31.6567 26.1981C31.6702 26.2887 31.7042 26.3761 31.7409 26.4762C31.7152 26.5393 31.7112 26.7584 31.581 26.717C31.6745 26.7505 31.7548 26.8131 31.8102 26.8955C31.7409 27.2273 31.6454 26.6348 31.5071 26.9269C31.6405 26.8844 31.8452 27.1614 32.021 27.2717C32.1758 27.1101 31.8383 26.8837 31.678 26.7449C31.859 26.7024 32.0475 26.7045 32.2276 26.7508C32.4076 26.7971 32.5737 26.8864 32.7117 27.0109C32.9468 27.2228 32.6211 27.2334 32.6969 27.2565C32.746 27.3462 32.8193 27.4203 32.9085 27.4703C32.9976 27.5203 33.0991 27.5442 33.2012 27.5393C33.2884 27.5303 33.3758 27.5535 33.4471 27.6046C33.5183 27.6558 33.5683 27.7312 33.5877 27.8167C33.5913 28.093 33.3196 28.0947 33.2556 28.2234C33.0048 28.0787 33.0502 27.834 32.9292 27.7034L33.0097 27.9336C32.9451 27.9209 32.8848 27.8921 32.8343 27.8499C32.7838 27.8077 32.7448 27.7534 32.7208 27.6921C32.7094 27.8152 32.8786 28.0273 33.0922 28.2537C33.3148 28.4684 33.5156 28.7044 33.6918 28.9586C33.8003 28.9679 33.9585 29.0168 33.9551 28.9109L33.8218 28.8295C33.8184 28.6191 34.1944 28.8651 34.0817 28.676C34.212 28.6817 34.3398 28.7142 34.457 28.7712C34.5743 28.8283 34.6786 28.9088 34.7635 29.0078L34.6783 29.217C34.7027 29.1572 34.6191 28.9916 34.5113 28.9902C34.6677 28.9959 34.6606 29.5079 34.951 29.3745L34.8933 29.1264C35.124 29.1778 35.4737 29.1653 35.6241 29.3853C35.6762 29.1433 35.5643 29.361 35.5856 29.0521C35.5001 29.4045 35.0902 28.6143 35.0696 29.0356C35.1184 28.6877 34.8978 28.7256 34.8773 28.3766C34.8502 28.443 34.851 28.5362 34.7128 28.3716C34.6882 28.3797 34.6627 28.3849 34.6368 28.3871C34.654 28.437 34.6576 28.4906 34.6472 28.5423C34.4571 28.6004 34.2055 28.3625 34.0637 28.3589C33.9925 28.2486 34.1565 28.3309 34.1584 28.231L33.9461 28.2104C34.0422 28.0791 33.8887 27.7999 34.1677 27.9135L33.985 27.7345C33.969 27.6539 33.9347 27.5781 33.8848 27.5128C33.8348 27.4475 33.7706 27.3945 33.697 27.3579C33.6471 27.2524 33.376 27.262 33.5346 27.253C33.4278 27.1825 33.3237 27.1052 33.2363 27.0348L33.2498 27.0016C33.1482 26.8518 32.9917 26.7416 32.8694 26.5951C32.7987 26.5223 32.749 26.4317 32.7258 26.3329C32.7026 26.2341 32.7068 26.1309 32.7377 26.0343C32.6841 25.9853 32.6416 25.9253 32.6134 25.8583C32.5852 25.7913 32.5719 25.719 32.5743 25.6464L32.6993 25.5773C32.6544 25.5164 32.6824 25.4001 32.6863 25.3049C32.6902 25.2097 32.6948 25.1225 32.625 25.0941C32.8107 24.9993 32.8097 24.8402 32.8049 24.6524C32.7731 24.4788 32.7746 24.3008 32.8094 24.1278L32.6312 24.09C32.6641 23.8811 32.6699 23.6687 32.6484 23.4583L32.4888 23.432C32.4151 23.1852 32.7503 22.9229 32.8602 22.596C32.9085 22.6389 32.8628 22.7132 32.7953 22.7554C33.2828 22.5087 32.8815 21.8304 33.2753 21.5765C33.2693 21.5349 33.2765 21.4925 33.2958 21.4553C33.3151 21.418 33.3457 21.3877 33.3831 21.3687C33.3789 21.376 33.3757 21.3838 33.3736 21.392C33.3736 21.392 33.3831 21.3687 33.3899 21.3521C33.4373 21.3287 33.4831 21.3021 33.5269 21.2724C33.4808 21.2849 33.4372 21.3051 33.398 21.3322C33.4381 21.2376 33.4656 21.1382 33.4797 21.0364L33.6532 21.0761L33.6641 21.0495C33.7717 20.9849 33.6342 20.9328 33.4904 20.9246C33.4943 20.8627 33.4868 20.8006 33.4682 20.7414C33.7555 20.7964 33.5314 20.4341 33.8527 20.4721C33.7584 20.333 34.0419 19.9219 33.8101 19.7114C33.8467 19.7263 33.8807 19.7092 33.8498 19.7663C33.9022 19.7316 33.9455 19.6847 33.976 19.6298C34.0064 19.5748 34.0232 19.5132 34.0248 19.4504L34.234 19.5356C34.1957 19.4132 34.1636 19.289 34.1378 19.1635C34.3391 19.1254 34.4215 19.1512 34.4709 19.3533C34.4603 19.2465 34.4775 19.1388 34.5207 19.0406C34.5605 18.9527 34.588 18.8596 34.6024 18.7642L34.6668 18.8911C34.7217 18.8514 34.7818 18.6088 34.8836 18.7199C34.9855 18.8311 35.1987 18.8018 35.4871 18.8921C35.8179 18.9884 36.1053 19.1957 36.3012 19.4791C36.4675 19.0706 36.4243 19.8041 36.6508 19.5711C36.6103 19.6708 36.6522 19.7769 36.5151 19.7714C36.8472 19.9066 36.796 20.2226 37.1113 20.1613C37.0721 20.2576 36.9678 20.219 36.9434 20.2787C36.97 20.2896 37.0626 20.2808 37.0316 20.3379C37.0006 20.395 36.9469 20.3653 36.8909 20.3696C36.9743 20.4501 37.0503 20.4345 37.1678 20.3933C37.2852 20.3521 37.4108 20.2909 37.5396 20.2312C37.468 20.4072 37.4747 20.3906 37.688 20.4658C37.5971 20.5178 37.5011 20.5445 37.4643 20.4637C37.4498 20.5132 37.4303 20.561 37.4062 20.6065C37.3909 20.6413 37.3873 20.6802 37.3959 20.7172C37.4046 20.7543 37.425 20.7875 37.4542 20.8119C37.3977 20.7889 37.3645 20.8799 37.3576 20.9158C37.1765 21.0279 37.1419 21.0177 36.9368 21.1316L37.0114 21.1388C37.0242 21.4305 36.8387 21.2775 36.6437 21.3762L36.6531 21.3529C36.399 21.3114 36.3576 21.3371 36.3068 21.3668C36.256 21.3964 36.2126 21.4175 35.9369 21.3246L35.9838 21.4946C35.9681 21.8754 35.5027 21.3259 35.2155 21.4799L35.3301 21.5692C35.1688 21.7087 34.845 21.0968 34.6888 21.0525C34.6524 21.0183 34.7424 20.9969 34.7905 20.9739C34.3676 20.7669 34.7451 21.1993 34.4298 21.2607C34.3706 21.1398 34.4976 20.9515 34.29 20.9289C34.1908 20.8304 33.6724 21.3239 33.3923 21.0705C33.4496 21.1674 33.5116 21.2623 33.3574 21.3273C33.1262 21.3532 32.7785 20.9329 32.5491 21.2111C32.538 21.2012 32.5292 21.1889 32.5234 21.1752C32.5176 21.1614 32.515 21.1466 32.5156 21.1317C32.3382 21.1872 31.9446 21.1934 31.8192 21.3398C31.7792 21.0292 31.5067 21.0615 31.2447 21.1058C30.9828 21.1502 30.727 21.1699 30.8066 20.8887C30.6283 20.8703 30.4448 20.8266 30.2804 20.8023L30.3021 20.7491C30.2016 20.7045 30.0908 20.688 29.9816 20.7015C29.8724 20.715 29.769 20.758 29.6824 20.8259C29.6155 20.7715 29.6836 20.7373 29.6991 20.7088C29.5602 20.6037 29.3951 20.5389 29.2218 20.5217C29.0485 20.5044 28.8738 20.5352 28.7169 20.6108L28.7333 20.4278C28.6633 20.4574 28.5142 20.3386 28.3206 20.2055C28.1271 20.0438 27.8879 19.9464 27.6365 19.927C27.645 19.9128 27.6565 19.9008 27.6703 19.8916C27.6841 19.8825 27.6997 19.8766 27.716 19.8742C27.1162 19.8545 26.7526 18.8935 26.2882 19.378L25.8949 19.3456C26.2841 19.6164 25.6972 19.5555 25.8132 19.746C25.6339 19.6729 25.4855 19.3338 25.7013 19.4217L25.7177 19.467C25.9543 19.2188 25.2781 19.0635 25.4097 18.8732C24.7046 18.3918 24.0983 17.7796 23.6238 17.0697L23.4778 17.3045L23.3135 17.0712C23.3234 16.9707 23.4219 16.8714 23.5341 17.0332C23.599 16.8738 23.2291 16.8316 23.1849 16.864C23.0648 16.4744 23.5227 16.8234 23.4628 16.7139L23.3637 16.5961L23.3461 16.6392C23.1933 16.577 23.0758 16.6376 22.9719 16.4172C22.9469 16.2599 23.0781 16.2707 23.0544 16.2146C23.0308 16.1585 23.0666 16.1847 23.0223 16.1319C22.9817 16.0224 22.9318 15.9169 22.8991 15.8068L22.7627 16.0184C22.6068 15.9162 22.6401 15.7014 22.4901 15.9461C22.6031 15.7637 22.5152 15.4376 22.4352 15.1301C22.3552 14.8227 22.2473 14.5077 22.2905 14.4208C22.1202 14.2242 22.0325 13.9693 22.0458 13.7095C22.0147 13.7859 21.7872 13.8597 21.7835 13.6027C22.2673 13.6409 21.9462 13.1269 22.2798 12.9066C22.0582 13.099 22.1975 12.2149 21.8821 12.5046C21.9174 12.2945 22.0607 12.4844 22.1709 12.328C21.9835 11.8374 22.2981 11.2454 22.2852 10.6401C22.2254 10.6158 22.1162 10.7223 22.0332 10.584L22.3765 10.3018C22.3559 10.1811 22.0211 10.1571 22.2647 9.95816C22.2087 9.98179 22.1232 10.0205 22.1137 9.93925C22.2899 9.35414 22.4051 8.7524 22.4577 8.1436C22.5169 7.51386 22.7678 6.91744 23.1767 6.43483C23.0122 6.55367 23.0328 6.44593 23.0669 6.32429C23.0145 6.39588 22.9241 6.26615 22.8308 6.2669L23.2156 5.85446C23.0295 5.69351 23.3899 5.34084 23.1982 5.21248L23.1806 5.3795C23.0046 5.07945 22.5162 5.46129 22.2061 5.31955C22.4072 5.65305 21.5538 5.82822 21.8569 6.3388C21.764 6.40547 21.7764 6.23243 21.6809 6.26713C21.7886 6.41162 21.7858 6.5421 21.6586 6.74973L21.6302 6.71493C21.4957 7.36862 21.2891 7.60971 21.0476 8.33599L21.2275 8.31246C21.1952 8.40783 21.1379 8.49278 21.0615 8.55846C21.2799 8.78287 21.1575 8.11361 21.4059 8.33087C21.0168 8.47829 21.2152 9.44565 20.8138 9.53772C20.783 9.78455 21.0159 9.48836 20.985 9.7352L20.8702 9.78909L21.0089 9.85719C20.9944 9.91915 20.9603 9.97475 20.9115 10.0156C20.8628 10.0565 20.8021 10.0805 20.7385 10.0839C20.7547 10.0441 20.7232 9.96929 20.7215 9.926C20.5745 10.1255 20.7052 10.5272 20.6608 10.5981L20.7554 10.3657C20.7938 11.0511 20.6363 11.8657 20.8638 12.543L20.9434 12.4902C21.1088 12.9873 20.867 12.8965 20.9788 13.4492L20.9522 13.4384C21.0448 13.5519 21.0989 13.6919 21.1069 13.8382C20.9971 13.7083 20.9586 14.1263 20.8312 13.9543C21.0716 14.4858 20.9927 14.2137 21.3523 14.5189L21.2352 14.626C21.3086 14.6589 21.3738 14.7078 21.4259 14.7692C21.4779 14.8306 21.5155 14.9029 21.5359 14.9808C21.376 14.784 21.3808 15.2002 21.1744 14.9845C21.1483 15.1037 21.1503 15.2272 21.18 15.3455C21.2098 15.4637 21.2666 15.5735 21.3459 15.6661C21.4548 15.8265 21.5407 15.9389 21.3896 16.1484C21.8256 16.2756 21.4043 15.5892 21.5341 15.7079C21.599 15.5485 21.8662 15.8431 21.8951 16.0097C21.9241 16.1763 21.5699 16.4851 21.8036 16.9287C21.7825 16.8853 21.7504 16.907 21.7348 16.8503C21.7415 17.0621 22.0155 17.1118 22.0058 17.3827C22.2576 17.3729 22.1514 17.6433 22.4099 17.5124C22.3067 17.4045 22.2155 17.2861 22.115 17.1716C22.3156 17.354 22.7038 17.361 22.8204 17.7686C22.7222 17.7622 22.6265 17.7338 22.5406 17.6856C22.5471 17.8315 22.7228 17.8372 22.7345 17.9891C22.4872 18.1401 22.3507 17.6006 22.0279 17.4807C21.9941 17.6683 22.4966 17.8032 22.162 17.8644C22.5793 17.7904 22.4256 18.3008 22.8801 18.3542L22.7397 18.4519C22.8318 18.4734 22.9179 18.5151 22.9919 18.574L22.7088 18.5942C23.0313 18.6674 22.9688 19.0872 23.2378 19.1967C22.8246 18.8233 23.2825 18.9633 23.2021 18.7138C23.5342 18.849 23.5153 19 23.5089 19.1678C23.4958 19.2827 23.5195 19.3988 23.5767 19.4994C23.6339 19.5999 23.7216 19.6796 23.8271 19.727C23.7275 19.6865 23.5887 19.4093 23.7636 19.4457C23.8661 19.5638 23.9416 19.7029 23.9848 19.8532C24.4113 20.1082 24.0252 19.6683 24.2561 19.7004C24.2737 19.9708 24.5027 19.7698 24.7114 19.8277L24.6166 19.9749C25.0244 20.3617 24.9289 19.7498 25.2736 20.1108L24.976 20.2142L25.2279 20.2897L25.072 20.4159C25.1828 20.4152 25.2926 20.4386 25.3935 20.4844C25.4945 20.5302 25.5844 20.5973 25.6569 20.6812C25.6591 20.5427 25.833 20.4199 26.0448 20.5178C26.1443 20.6822 25.891 20.6293 26.2045 20.7531C26.0902 20.815 25.9492 20.9047 25.8912 20.6953C25.851 20.737 25.7737 20.7558 25.7368 20.7988C25.8381 20.9872 26.1236 21.0183 26.2338 21.0709C26.1924 21.0487 26.1577 21.0158 26.1332 20.9757L26.6746 20.9678C26.72 21.0559 26.6313 21.074 26.5659 21.1016C26.6589 21.1395 26.7604 21.0802 26.8973 21.1243C26.8081 21.2389 26.7606 21.3745 26.5363 21.3644L27.0287 21.4101C27.0356 21.4787 27.1877 21.6567 27.1123 21.6803C27.3316 21.8547 27.8089 21.6619 28.0985 21.8728C28.1429 21.848 28.1943 21.839 28.2445 21.847C28.5434 21.9687 28.7662 22.2298 29.1895 22.1505L29.3348 22.4497C29.6422 22.4742 29.1347 22.0663 29.6379 22.1047C29.9987 22.1122 29.7143 22.3448 29.8182 22.4414C30.0238 22.3547 30.3705 22.1784 30.6492 22.4352C30.5352 22.4584 30.4603 22.4047 30.3591 22.4061ZM34.0368 22.6918C33.964 22.728 33.8181 22.8389 33.7668 22.7367C33.8546 22.5402 33.9133 22.6338 34.0368 22.6918ZM38.0821 19.6119C38.1585 19.643 38.2019 19.7265 38.2005 19.8537C38.1416 19.7842 38.1009 19.7011 38.0821 19.6119ZM33.7564 27.6686C33.6953 27.5237 33.7123 27.5771 33.7564 27.6686V27.6686ZM33.9146 27.9265C33.9212 27.9279 33.9281 27.9279 33.9347 27.9265C33.9414 27.9251 33.9477 27.9224 33.9532 27.9185C33.9588 27.9146 33.9635 27.9096 33.9671 27.9039C33.9707 27.8981 33.9731 27.8917 33.9741 27.885C33.9287 27.9013 33.8844 27.8485 33.8355 27.7975C33.8152 27.8474 33.8236 27.8934 33.9146 27.9265ZM22.9997 16.2349L22.974 16.298C22.884 16.2149 22.9425 16.2232 22.9997 16.2349Z" fill="#505050"/>
<path d="M38.6416 20.2928C38.6209 20.322 38.5903 20.3428 38.5555 20.3512C38.5861 20.3909 38.6249 20.3911 38.6416 20.2928Z" fill="#505050"/>
<path d="M28.1152 21.8796C28.1096 21.8888 28.1055 21.8988 28.1031 21.9093L28.1152 21.8796Z" fill="#505050"/>
<path d="M30.9449 24.0385C30.9668 23.9865 31.0037 23.9422 31.0509 23.9113C31.0084 23.9017 30.9703 23.9288 30.9449 24.0385Z" fill="#505050"/>
<path d="M35.3329 28.7789L35.1517 28.6819C35.2038 28.7215 35.2397 28.7788 35.2526 28.843C35.2674 28.8258 35.2832 28.7393 35.3329 28.7789Z" fill="#505050"/>
<path d="M35.9867 30.7292C36.0199 30.7427 36.0431 30.7522 36.0764 30.7657L36.1279 30.7247C36.0173 30.6255 35.9021 30.6328 35.9867 30.7292Z" fill="#505050"/>
<path d="M35.1044 29.3401C35.0237 29.4621 35.154 29.5035 35.2754 29.5762C35.2754 29.5762 35.2754 29.5762 35.2555 29.568C35.4201 29.4299 35.2639 29.3857 35.1044 29.3401Z" fill="#505050"/>
<path d="M35.3072 29.5931C35.3411 29.6101 35.3729 29.6309 35.4021 29.655C35.4735 29.6221 35.3722 29.6428 35.3072 29.5931Z" fill="#505050"/>
<path d="M34.257 28.1124C34.2819 28.1845 34.4109 28.0009 34.3985 28.0694C34.5748 27.9786 33.9311 27.9526 34.257 28.1124Z" fill="#505050"/>
<path d="M34.8826 29.7803L34.9596 29.6103L34.8081 29.6686L34.8826 29.7803Z" fill="#505050"/>
<path d="M34.116 28.9533L34.254 29.1372C34.2648 29.1106 34.3041 29.1189 34.342 29.1304C34.238 29.0339 34.1562 28.9116 34.116 28.9533Z" fill="#505050"/>
<path d="M34.342 29.1304C34.3842 29.1772 34.4394 29.2104 34.5005 29.2259C34.4525 29.1867 34.3991 29.1545 34.342 29.1304Z" fill="#505050"/>
<path d="M34.6113 29.6194L34.5864 29.5473L34.4699 29.4341L34.6113 29.6194Z" fill="#505050"/>
<path d="M32.4929 27.1968C32.4339 27.1418 32.3731 27.0822 32.3202 27.0219C32.2535 27.0335 32.253 27.1107 32.3239 27.1744C32.3947 27.2381 32.4625 27.2619 32.4929 27.1968Z" fill="#505050"/>
<path d="M32.5485 28.106C32.5297 28.0286 32.5578 27.9975 32.5782 27.9284L32.4023 28.0658L32.5485 28.106Z" fill="#505050"/>
<path d="M32.0594 27.5197C31.9947 27.5359 31.6926 27.2891 31.8959 27.5693C31.9585 27.5677 32.1565 27.7567 32.0594 27.5197Z" fill="#505050"/>
<path d="M31.6094 23.7282L31.6016 23.7947L31.9629 23.8489L31.6094 23.7282Z" fill="#505050"/>
<path d="M32.0038 20.2303C31.782 20.4613 32.1679 20.3978 31.945 20.5935C31.9916 20.6977 32.1271 20.4315 32.1605 20.5303C32.1644 20.3305 32.256 20.2672 32.0038 20.2303Z" fill="#505050"/>
<path d="M32.1492 20.5295C32.1496 20.5672 32.1525 20.6048 32.1579 20.6421C32.1609 20.6044 32.158 20.5664 32.1492 20.5295Z" fill="#505050"/>
<path d="M23.5148 5.60455L23.6468 5.46088L23.4926 5.52585L23.5148 5.60455Z" fill="#505050"/>
<path d="M23.3809 5.18235L23.6143 5.22707L23.459 5.04766C23.454 5.08825 23.4429 5.17274 23.3809 5.18235Z" fill="#505050"/>
<path d="M34.5906 23.1574L34.6122 23.1043C34.5819 23.0455 34.5334 23.0412 34.4395 23.0339L34.5906 23.1574Z" fill="#505050"/>
<path d="M31.8805 22.8436L31.9264 22.8545L31.8645 22.6357L31.8805 22.8436Z" fill="#505050"/>
<path d="M29.5783 22.6884C29.6647 22.7235 29.7867 22.6997 29.8757 22.7282C29.666 22.7202 29.6146 22.4283 29.5783 22.6884Z" fill="#505050"/>
<path d="M36.9532 37.255C37.0362 37.2888 37.0285 37.127 37.046 37.1031C36.8848 37.1188 36.9369 37.2949 36.9532 37.255Z" fill="#505050"/>
<path d="M35.4124 37.3594L35.4501 37.305L35.2077 37.4154L35.4124 37.3594Z" fill="#505050"/>
<path d="M34.0311 37.1105C34.1166 37.3853 34.5401 37.1629 34.769 37.2948L34.7999 37.3616L34.9448 37.1767C34.6387 37.2037 34.3301 37.1814 34.0311 37.1105Z" fill="#505050"/>
<path d="M33.4173 36.431C33.44 36.537 33.2412 36.4832 33.58 36.4972L33.5468 36.4837L33.4173 36.431Z" fill="#505050"/>
<path d="M33.5449 36.4594C33.6869 36.4787 33.4669 36.3584 33.5449 36.4594V36.4594Z" fill="#505050"/>
<path d="M32.8737 36.3683L33.0838 36.3184C33.0529 36.2516 32.8887 36.2079 32.9588 36.1784C32.7396 36.1937 32.7771 36.2632 32.8737 36.3683Z" fill="#505050"/>
<path d="M32.6509 36.5258L32.7581 36.5111C32.7463 36.4829 32.7209 36.4687 32.6509 36.5258Z" fill="#505050"/>
<path d="M32.9816 36.4741L32.7577 36.5107C32.7774 36.5574 32.7642 36.6373 32.8583 36.5013C32.8252 36.5731 32.8815 36.5108 32.9816 36.4741Z" fill="#505050"/>
<path d="M33.0911 36.5382C33.1885 36.6127 33.3173 36.6768 33.1086 36.7234C33.4799 36.7624 33.4624 36.5771 33.0911 36.5382Z" fill="#505050"/>
<path d="M33.9116 37.3562L34.0435 37.4602L34.1817 37.3965C34.1116 37.426 33.9201 37.2784 33.9116 37.3562Z" fill="#505050"/>
<path d="M31.7194 35.999C31.6991 36.0488 31.7524 36.1557 31.7513 36.2249L31.9066 36.1953C31.843 36.1423 31.7129 36.0815 31.7194 35.999Z" fill="#505050"/>
<path d="M31.7513 36.2249L31.5233 36.2714C31.7075 36.3231 31.7456 36.2961 31.7513 36.2249Z" fill="#505050"/>
<path d="M32.5595 36.7979L32.9457 36.6764L32.4943 36.7868L32.5595 36.7979Z" fill="#505050"/>
<path d="M30.9296 35.809L31.0767 35.714L30.8235 35.8509L30.9296 35.809Z" fill="#505050"/>
<path d="M30.3989 35.7052C30.5086 35.626 30.3209 35.507 30.427 35.4651C30.2803 35.4598 30.1347 35.4909 30.003 35.5557C30.0759 35.55 30.1492 35.5605 30.2176 35.5863C30.286 35.6122 30.3479 35.6528 30.3989 35.7052Z" fill="#505050"/>
<path d="M29.7961 35.6262C29.8693 35.6104 29.9408 35.5877 30.0096 35.5583C29.9346 35.5664 29.862 35.5895 29.7961 35.6262Z" fill="#505050"/>
<path d="M31.1724 36.1635C31.1682 36.124 31.1542 36.0861 31.1318 36.0533C31.1093 36.0205 31.0791 35.9938 31.0438 35.9756L31.092 36.1423L31.1724 36.1635Z" fill="#505050"/>
<path d="M31.094 36.1468L30.9165 36.0978L31.094 36.1468Z" fill="#505050"/>
<path d="M31.2002 36.1709L31.1804 36.1628C31.1804 36.1628 31.1921 36.1907 31.2002 36.1709Z" fill="#505050"/>
<path d="M32.0397 36.5437C31.8961 36.6014 31.6156 36.6343 31.8402 36.8148C31.9513 36.7323 31.8261 36.631 32.0397 36.5437Z" fill="#505050"/>
<path d="M31.2517 36.3776L31.4676 36.4655C31.4824 36.4289 31.4449 36.3594 31.5203 36.3359L31.2517 36.3776Z" fill="#505050"/>
<path d="M31.1329 36.4033L31.2556 36.3793L31.1754 36.3466L31.1329 36.4033Z" fill="#505050"/>
<path d="M30.139 35.8588C30.0286 35.8896 29.912 35.8902 29.8014 35.8607C29.9184 35.924 30.042 35.9743 30.17 36.0108C30.2029 35.9584 30.2779 35.8883 30.139 35.8588Z" fill="#505050"/>
<path d="M30.5994 36.0115C30.5994 36.0115 30.5953 36.0405 30.5994 36.0115V36.0115Z" fill="#505050"/>
<path d="M28.6493 35.5619L28.6597 35.593L28.6704 35.5666L28.6493 35.5619Z" fill="#505050"/>
<path d="M30.1824 36.0467C30.2154 36.0667 30.2535 36.077 30.2921 36.0763C30.3308 36.0756 30.3685 36.064 30.4008 36.0427C30.3227 36.0397 30.245 36.0301 30.1686 36.014C30.1525 36.0345 30.1525 36.0345 30.1824 36.0467Z" fill="#505050"/>
<path d="M29.4573 35.6122C29.5023 35.6565 29.5501 35.6979 29.6003 35.7362C29.5654 35.6794 29.502 35.5878 29.4573 35.6122Z" fill="#505050"/>
<path d="M30.5544 35.9697C30.546 35.924 30.5459 35.9432 30.5544 35.9697V35.9697Z" fill="#505050"/>
<path d="M30.5544 35.9698C30.5024 35.9825 30.4525 36.0026 30.4062 36.0295C30.4635 36.0312 30.5208 36.0273 30.5774 36.0179L30.5544 35.9698Z" fill="#505050"/>
<path d="M28.0381 36.4165C28.0936 36.2803 28.3755 36.2248 28.5554 36.4297C28.7961 36.3805 28.7744 35.8917 28.6564 35.592C28.6335 35.6484 28.6118 35.7016 28.3806 35.7275C28.4379 35.8244 28.8175 36.0331 28.6113 36.1117C28.3037 36.1065 28.3788 36.0171 28.2644 35.8892C28.3397 36.0941 27.8188 36.0329 27.8237 36.306L28.1022 36.2877C28.0873 36.3242 27.9759 36.3602 28.0381 36.4165Z" fill="#505050"/>
<path d="M29.0645 35.7116L29.1583 35.7188C29.0458 35.6518 28.9509 35.5587 28.8817 35.4475C28.7164 35.4731 28.6715 35.5168 28.6506 35.5586L29.0839 35.6924L29.0645 35.7116Z" fill="#505050"/>
<path d="M29.5652 35.8225C29.4565 35.9563 29.2241 35.9662 29.3148 36.1618C29.5827 36.2168 29.5323 36.0839 29.7056 36.0577C29.2706 35.9851 29.8511 36.0047 29.5651 35.8418C29.6443 35.8393 29.7235 35.8456 29.8013 35.8605C29.7315 35.8239 29.6643 35.7823 29.6004 35.7361C29.6203 35.7442 29.6175 35.7702 29.6004 35.7361C29.5962 35.7562 29.5884 35.7753 29.5774 35.7926C29.4578 35.7439 29.5677 35.7499 29.6004 35.7361C29.6331 35.7223 29.6004 35.7361 29.6085 35.7162L29.1625 35.6895C29.2887 35.7553 29.4247 35.8003 29.5652 35.8225Z" fill="#505050"/>
<path d="M31.5381 37.0902C31.5379 37.0847 31.5389 37.0792 31.541 37.0741C31.5431 37.0689 31.5462 37.0643 31.5502 37.0605C31.5026 37.0642 31.4873 37.0733 31.5381 37.0902Z" fill="#505050"/>
<path d="M31.3819 36.961C31.4193 36.9452 31.4569 36.8908 31.5565 36.9314C31.6562 36.972 31.5295 36.9978 31.5338 37.0538C31.6025 37.0276 31.7719 36.992 31.6041 36.8811L31.5714 36.8949C31.4068 36.8046 31.2292 36.5658 31.2633 36.5487C31.2747 36.6927 31.3151 36.8329 31.3819 36.961Z" fill="#505050"/>
<path d="M30.447 36.4333L30.0663 36.4176L30.2196 36.5924L30.2281 36.5145C30.4274 36.5957 30.4061 36.4863 30.447 36.4333Z" fill="#505050"/>
<path d="M28.6265 35.4753L28.7166 35.3301L28.4546 35.4982L28.6265 35.4753Z" fill="#505050"/>
<path d="M28.165 35.3724L28.2191 35.2396L28.0763 35.286L28.165 35.3724Z" fill="#505050"/>
<path d="M23.4015 33.2005L23.2947 33.2427C23.3327 33.2356 23.3689 33.2213 23.4015 33.2005Z" fill="#505050"/>
<path d="M24.2137 33.1436L24.2406 33.0777C24.1921 33.1117 24.18 33.1414 24.2137 33.1436Z" fill="#505050"/>
<path d="M24.5452 28.7457C24.7247 28.7801 24.9319 28.88 24.8321 28.7542L24.7176 28.6456C24.6993 28.6752 24.674 28.6998 24.6439 28.7172C24.6138 28.7347 24.5799 28.7445 24.5452 28.7457Z" fill="#505050"/>
<path d="M30.0868 30.1774L30.1515 30.1611C30.1311 30.1037 30.1058 30.0481 30.0759 29.9949C30.0842 30.0553 30.0879 30.1164 30.0868 30.1774Z" fill="#505050"/>
<path d="M30.5219 30.6682C30.4397 30.7229 30.353 30.7705 30.2626 30.8104C30.3582 30.7822 30.4466 30.7336 30.5219 30.6682Z" fill="#505050"/>
<path d="M18.9752 33.307L18.8338 33.4546C19.0361 33.4711 18.9521 33.3827 18.9752 33.307Z" fill="#505050"/>
<path d="M24.1517 33.5913C24.1378 33.5 24.1065 33.4124 24.0594 33.333C24.0631 33.4855 24.0301 33.6618 24.1517 33.5913Z" fill="#505050"/>
<path d="M23.5891 31.5311C23.529 31.5646 23.5028 31.6004 23.5086 31.6338C23.572 31.6015 23.6049 31.5684 23.5891 31.5311Z" fill="#505050"/>
<path d="M23.8884 33.0968C23.8857 33.1182 23.8847 33.1398 23.8854 33.1614C23.9519 33.21 24.0103 33.269 24.0581 33.3362C24.0421 33.2329 24.0367 33.1223 23.8884 33.0968Z" fill="#505050"/>
<path d="M4.3643 27.2025C4.3643 27.2025 4.35257 27.1746 4.3533 27.1634C4.35403 27.1522 4.3439 27.1865 4.3643 27.2025Z" fill="#505050"/>
<path d="M3.16266 22.5479C3.19571 22.5984 3.22455 22.6516 3.2489 22.7069C3.23422 22.6474 3.20452 22.5926 3.16266 22.5479Z" fill="#505050"/>
<path d="M26.3977 34.7688C26.4867 34.8051 26.4044 34.7523 26.3977 34.7688V34.7688Z" fill="#505050"/>
<path d="M26.6523 35.5036C26.6378 35.508 26.6246 35.5157 26.6136 35.5261C26.6026 35.5365 26.5942 35.5493 26.589 35.5635C26.6023 35.5367 26.6248 35.5154 26.6523 35.5036Z" fill="#505050"/>
<path d="M22.6411 32.6895C22.6178 32.7185 22.6205 32.7119 22.6411 32.6895V32.6895Z" fill="#505050"/>
<path d="M26.5095 34.8842C26.4804 34.8522 26.448 34.8234 26.4128 34.7983C26.4405 34.8317 26.4731 34.8606 26.5095 34.8842Z" fill="#505050"/>
<path d="M26.5179 34.8064L26.5947 34.8377C26.6102 34.8284 26.6023 34.8096 26.5179 34.8064Z" fill="#505050"/>
<path d="M26.2726 34.7335C26.3222 34.7477 26.3701 34.7672 26.4154 34.7917C26.3955 34.7836 26.3889 34.7809 26.4003 34.7623L26.2726 34.7335Z" fill="#505050"/>
<path d="M11.7993 31.5233L11.7763 31.5139C11.671 31.5364 11.7192 31.5407 11.7993 31.5233Z" fill="#505050"/>
<path d="M26.8689 26.3857C26.6747 26.5583 26.5816 26.5397 26.4354 26.4996C26.4838 26.647 26.5274 26.7964 26.5692 26.9412C26.6655 26.752 26.7625 26.5708 26.8689 26.3857Z" fill="#505050"/>
<path d="M21.4595 33.3003L21.723 33.4424C21.4013 33.6714 21.1627 33.6014 21.4152 33.7894C21.4568 33.3069 22.4596 33.7346 22.4873 33.2387L22.6638 33.3377C22.6206 33.3201 22.6063 33.3646 22.5578 33.3603C22.9093 33.5809 22.7984 32.9976 23.2349 33.0476C23.3898 33.0758 23.4939 33.153 23.401 33.2004L23.7309 33.0559C23.8307 33.0579 23.8149 33.1444 23.6984 33.1356C23.8703 33.1127 24.0416 33.0818 24.2129 33.0509C24.3017 32.9528 24.3992 32.8629 24.5042 32.7824C24.6404 32.8378 24.4446 32.8433 24.4842 32.8981L24.7555 32.7453C24.886 32.8527 24.65 33.0044 24.4642 33.0139C24.7903 33.468 24.6842 32.8634 25.3028 33.065L25.0597 33.1867C25.2786 33.4384 25.4772 33.3024 25.816 33.421C25.7233 33.3446 25.1282 33.0945 25.4222 32.9239C25.4862 32.9387 25.553 32.9368 25.616 32.9184C25.6791 32.9001 25.7364 32.8658 25.7824 32.8189C25.8167 32.9916 25.9736 32.92 26.1723 32.8693L26.2042 33.0952C26.4146 32.9873 26.374 32.8778 26.4813 32.7473C26.5724 32.7403 26.6634 32.7622 26.7413 32.8099C26.8192 32.8576 26.88 32.9287 26.9152 33.013C27.327 32.9523 26.5756 32.8012 27.0346 32.6435C27.3855 32.647 27.6016 32.4872 27.9394 32.2376C28.195 32.2372 27.9458 32.3835 28.0514 32.4188L28.1934 32.1746C28.2421 32.1596 28.2451 32.2189 28.2489 32.2475C28.3935 32.1206 28.1823 32.0307 28.4058 31.8623C28.3939 31.7297 28.5575 31.7654 28.7572 31.7693C28.957 31.7732 29.1962 31.7467 29.2827 31.5341C29.3912 31.5435 29.3145 31.6748 29.3806 31.7405C29.6015 31.52 29.7679 31.2511 29.8669 30.9551C29.9981 30.9205 30.1264 30.8757 30.2506 30.821C29.9199 30.8915 30.0695 30.4956 30.0747 30.188C29.9574 30.2099 29.8608 30.2094 29.8055 30.2217C29.8553 30.1107 29.8853 29.9919 29.8942 29.8706C29.9396 29.8543 30.0038 29.9153 30.0625 30.0088C30.0591 29.9798 30.0525 29.9512 30.043 29.9235C30.1681 29.8351 30.2794 29.923 30.3562 30.1052C30.2913 30.1387 30.2225 30.164 30.1513 30.1805C30.2122 30.3447 30.2543 30.536 30.3685 30.598C30.3822 30.537 30.406 30.4786 30.4388 30.4253C30.4491 30.476 30.4649 30.5134 30.4922 30.5129C30.5195 30.5124 30.5233 30.4365 30.5113 30.3232C30.6087 30.3306 30.7066 30.3289 30.8037 30.3184L30.7256 30.244C30.9112 29.9769 31.0061 29.6572 30.9962 29.3321C30.8288 29.0583 30.5764 28.8467 30.2775 28.7298C30.1546 28.6797 30.0251 28.627 29.8989 28.5756C29.7727 28.5242 29.652 28.4403 29.5201 28.3555C29.7626 28.3304 29.7576 28.1619 29.9177 28.0064C29.9035 28.1555 30.0182 28.2255 30.1508 28.3182C30.3146 28.3982 30.4516 28.5239 30.5454 28.6801C30.4554 28.4925 30.5647 28.4712 30.6212 28.4942C30.4344 28.3532 30.2381 28.2254 30.0336 28.1117C30.1741 27.9947 30.0315 27.9172 29.9553 27.743C29.8201 28.0751 29.4342 27.5966 29.1501 27.5622C29.1934 27.456 29.333 27.3696 29.5693 27.5975C29.5121 27.3767 29.3462 27.3943 29.1874 27.442C29.0287 27.4896 28.8907 27.5147 28.7952 27.3403C28.8683 27.3701 28.892 27.4068 28.9455 27.3705C28.7417 27.3766 28.3924 27.1221 28.5233 27.067L28.5963 27.0967C28.3064 26.9437 27.9908 26.8454 27.6653 26.8067C27.3285 26.778 27.0459 26.8255 26.9983 26.9803C27.0301 26.8348 27.0785 26.6935 27.1428 26.5591C26.9732 26.7094 26.8115 26.8684 26.6584 27.0355C26.5187 27.2011 26.3876 27.3739 26.2657 27.5531C26.3339 27.2905 25.9915 26.6672 26.4126 26.5173C26.3247 26.4859 26.2311 26.4739 26.1382 26.4822C26.0453 26.4905 25.9552 26.5188 25.8743 26.5652C25.964 26.6017 26.1171 26.9196 26.0091 26.9569C25.6771 26.6979 25.7889 26.8131 25.3598 26.65C25.4974 26.6828 25.4415 27.1052 25.2688 27.1394C25.2945 27.0764 25.1441 26.7518 25.205 26.6876C25.0824 26.8586 24.9689 27.0359 24.8649 27.2189C24.9501 27.1142 24.7684 26.8853 24.6342 26.8346C24.7157 26.891 24.2204 26.9951 24.1317 27.1178C24.2083 27.1103 24.2863 27.0994 24.3649 27.0966C23.8228 27.3249 24.1705 27.8498 23.7839 28.1337C23.7698 28.0351 23.5746 27.6304 23.3265 27.7926C23.3491 27.918 23.4034 28.184 23.4821 28.4754C23.5192 28.6221 23.5529 28.7675 23.5727 28.8995C23.6 29.016 23.6061 29.1365 23.5905 29.2551L23.452 29.2529C23.4374 29.3586 23.429 29.4651 23.4268 29.5717C23.2884 29.346 23.1889 29.0987 23.1323 28.8401C23.0609 28.5535 23.0428 28.2561 23.0791 27.9629C22.8681 28.0628 22.9397 27.9061 22.7256 28.1751C22.5617 28.1974 22.7145 27.9267 22.7789 27.8445C22.6818 27.9405 22.586 28.0331 22.4976 28.1171L22.2419 28.4311C22.4512 28.5163 22.1581 29.0745 22.3455 29.1276L22.4246 28.7146C22.4588 28.5736 22.5062 28.4381 22.5517 28.2979C22.6646 28.3439 22.7292 28.556 22.7486 28.7652C22.7758 28.9973 22.7364 29.2324 22.6352 29.443C22.4982 29.5227 22.2759 29.1844 22.2015 29.158C22.2255 29.3452 22.1889 29.5352 22.0969 29.7C22.073 29.6177 22.0568 29.5333 22.0486 29.448C21.9453 29.5686 21.9936 29.716 22.0154 29.8526C22.0357 29.9255 22.0362 30.0025 22.0166 30.0755C21.9971 30.1486 21.9583 30.2151 21.9043 30.2681C21.8597 30.3777 21.5276 30.5754 21.6725 30.6189C22.113 30.4988 22.5814 30.5325 23.0002 30.7143C22.9881 30.7442 22.6824 31.1811 22.5571 31.3082C22.3363 31.4893 22.0481 31.0274 21.8601 31.1754C21.9325 31.209 21.9925 31.2646 22.0316 31.3342C21.9802 31.4604 21.8235 31.2844 21.8571 31.5536C22.1059 31.5891 21.8778 32.0924 22.0735 31.6688C22.1599 31.913 22.0398 31.9415 22.1013 32.2376C22.1722 32.1774 22.3171 32.2209 22.4617 32.303C22.598 32.3686 22.718 32.4638 22.8129 32.5815C22.7489 32.5996 22.6937 32.6405 22.6577 32.6964C22.7283 32.9226 22.7483 33.1205 22.8059 33.2833C22.8307 33.3747 22.8614 33.4607 22.8961 33.5562C22.9424 33.6502 22.9945 33.7413 23.0522 33.8288C23.0225 33.9018 23.1043 34.1287 22.9633 34.1139C23.0691 34.1277 23.1679 34.1747 23.2454 34.2481C23.2751 34.6125 23.0052 34.0109 22.9538 34.3462C23.0153 34.3093 23.1169 34.3545 23.2264 34.4185C23.3385 34.4835 23.4547 34.5411 23.5742 34.5911C23.6567 34.3885 23.2748 34.233 23.0692 34.1105C23.3173 33.929 23.7556 34.0029 24.1608 34.1679C24.482 34.3297 24.1539 34.4129 24.2218 34.4173C24.2988 34.4949 24.3957 34.5497 24.5019 34.5759C24.608 34.602 24.7193 34.5984 24.8235 34.5655C24.9092 34.5338 25.003 34.5319 25.0899 34.5602C25.1767 34.5886 25.2515 34.6454 25.3019 34.7216C25.4108 34.9866 25.1573 35.0769 25.1231 35.2179C24.8219 35.1494 24.7768 34.8988 24.607 34.8025C24.6591 34.8741 24.7187 34.937 24.7722 35.0053C24.6993 35.0136 24.6256 35.0035 24.5577 34.9758C24.4898 34.9482 24.43 34.9039 24.3836 34.8471C24.5281 35.056 24.7343 35.2145 24.9734 35.3002C25.2759 35.4405 25.5692 35.6 25.8514 35.7777C25.9621 35.7531 26.1413 35.7408 26.0919 35.6433L25.9237 35.6097C25.833 35.414 26.2945 35.5167 26.1196 35.3758C26.3858 35.2963 26.6721 35.3178 26.9235 35.4361L26.9154 35.6651C26.9398 35.6053 26.7595 35.4777 26.6547 35.5163C26.8048 35.4613 27.0302 35.9441 27.2514 35.7051L27.081 35.4963C27.3256 35.4565 27.6581 35.3054 27.9135 35.4482C27.8465 35.204 27.8416 35.4537 27.7189 35.156C27.796 35.5087 27.0304 34.9453 27.2151 35.338C27.1067 34.9957 26.9168 35.1197 26.749 34.7998C26.722 34.8662 26.792 34.9605 26.5909 34.8554C26.5693 34.8726 26.5463 34.8878 26.522 34.9009C26.5594 34.9394 26.5853 34.9875 26.597 35.0399C26.4345 35.1634 26.0983 35.0381 25.9549 35.0765C25.8423 34.9919 26.0372 35.0171 25.9959 34.919L25.7811 34.9709C25.8406 34.8248 25.5717 34.5914 25.8831 34.6253L25.6341 34.5239C25.5896 34.4511 25.5299 34.3888 25.459 34.3412C25.3882 34.2936 25.3079 34.262 25.2236 34.2484C25.1383 34.1633 24.8747 34.2495 25.0282 34.1959C24.902 34.1445 24.7691 34.1097 24.6462 34.0597L24.6611 34.0232C24.5133 33.9011 24.3213 33.8306 24.1576 33.7098C24.0746 33.652 24.0047 33.5774 23.9526 33.4908C23.8895 33.3983 23.861 33.2867 23.8719 33.1753C23.748 33.0908 23.6619 32.9613 23.6318 32.8143L23.7389 32.7224C23.6907 32.6602 23.6861 32.5383 23.6687 32.4383C23.6514 32.3383 23.6487 32.2404 23.5688 32.2273C23.6341 32.167 23.6789 32.0878 23.697 32.0007C23.7151 31.9137 23.7056 31.8232 23.6697 31.7419C23.6543 31.6466 23.629 31.5472 23.6089 31.4538C23.597 31.3736 23.5989 31.2918 23.6144 31.2122L23.4327 31.1924C23.4404 30.9809 23.4294 30.7692 23.4 30.5597L23.2452 30.5121C23.1562 30.2552 23.5027 29.9937 23.6277 29.6961C23.6667 29.743 23.6237 29.8106 23.5642 29.8522C23.6654 29.8088 23.7486 29.732 23.7999 29.6346C23.838 29.5385 23.868 29.4393 23.8896 29.3382C23.9282 29.1294 24.0048 28.9128 24.2174 28.8755C24.225 28.8385 24.244 28.8049 24.2717 28.7793C24.2995 28.7538 24.3346 28.7377 24.3721 28.7333L24.3626 28.7565C24.3679 28.7471 24.372 28.7371 24.3748 28.7266C24.4161 28.7202 24.4694 28.7225 24.5207 28.7202C24.4777 28.7073 24.4323 28.7047 24.3882 28.7127C24.4562 28.6508 24.5151 28.5797 24.5633 28.5014L24.6931 28.6201C24.6931 28.6201 24.6931 28.6201 24.7012 28.6001C24.8157 28.6042 24.7431 28.4972 24.6092 28.4078C24.6373 28.3576 24.6591 28.304 24.6741 28.2484C24.78 28.3496 24.8202 28.3079 24.8792 28.239C24.9382 28.1701 24.999 28.1445 25.1088 28.2551C25.1085 28.0846 25.5553 27.9762 25.5553 27.6626C25.571 27.7 25.6089 27.7115 25.5323 27.719C25.5944 27.7331 25.659 27.7325 25.7209 27.7174C25.7828 27.7023 25.8403 27.6731 25.889 27.632L25.9729 27.8443C26.0468 27.7388 26.1301 27.6295 26.2166 27.5215C26.3989 27.6538 26.4564 27.7314 26.3055 27.9022C26.69 27.633 26.6131 27.8029 26.978 27.5721L26.9452 27.7098C27.0617 27.7185 27.2917 27.5721 27.3382 27.6955C27.5653 27.8817 27.8262 28.0221 28.1067 28.1091C28.4624 28.2507 28.76 28.5083 28.9511 28.8401C29.0336 28.6375 29.0716 28.7343 29.0989 28.8383C29.1262 28.9424 29.1401 29.0796 29.2725 28.9826C29.2319 29.0822 29.2327 29.1754 29.1056 29.1547C29.1565 29.1861 29.2006 29.2273 29.2353 29.276C29.27 29.3247 29.2946 29.3799 29.3076 29.4382C29.3311 29.5136 29.3437 29.5303 29.4903 29.5126C29.3942 29.5393 29.347 29.5317 29.2909 29.5553L29.3862 29.5399C29.4062 29.548 29.363 29.5305 29.2816 29.5592C29.3185 29.5495 29.3562 29.5428 29.3942 29.5393L29.3776 29.5325C29.3776 29.5325 29.3145 29.5068 29.3942 29.5393C29.4739 29.5718 29.6366 29.638 29.7695 29.6921C29.5973 29.7536 29.5965 29.7842 29.6464 29.9943C29.5346 29.9836 29.4162 29.9702 29.501 29.8189C29.4848 29.8588 29.3431 29.9405 29.2154 30.0356C29.0876 30.1307 28.9537 30.2504 29.0171 30.342C28.9473 30.3136 28.8514 30.4255 28.8352 30.4654C28.5707 30.6016 28.5394 30.5927 28.2822 30.7396L28.3754 30.7388C28.3842 31.0405 28.1726 30.9041 27.9615 31.0233L27.971 31C27.381 31.0037 27.7774 31.1806 27.1818 31.1317L27.2581 31.2866C27.311 31.6605 26.7252 31.2167 26.4316 31.4147L26.5744 31.4728C26.4249 31.6403 25.9589 31.0828 25.8025 31.0772C25.756 31.0583 25.8508 31.0156 25.8963 30.9799C25.409 30.855 25.8822 31.2142 25.5566 31.3294C25.4694 31.2203 25.5805 31.0139 25.35 31.0285C25.2253 30.9545 24.7597 31.5275 24.402 31.3316C24.4807 31.4139 24.5628 31.4977 24.4124 31.5913C24.1643 31.649 23.715 31.3073 23.5167 31.6137C23.5039 31.6064 23.4929 31.5962 23.4844 31.5841C23.476 31.572 23.4703 31.5581 23.4679 31.5435C23.2868 31.6363 22.8596 31.7062 22.7534 31.872C22.5578 31.2969 21.5669 32.1903 21.5643 31.6356C21.3691 31.6491 21.17 31.6532 20.9776 31.66L20.9992 31.6069C20.8827 31.5819 20.7616 31.5876 20.648 31.6234C20.5343 31.6593 20.4319 31.724 20.3507 31.8113C20.2644 31.7761 20.3326 31.7226 20.3401 31.6947C20.1653 31.6204 19.9744 31.5923 19.7856 31.613C19.5968 31.6338 19.4165 31.7027 19.2621 31.8132L19.2272 31.6325C19.0915 31.7283 18.4596 31.2929 17.9014 31.4373C17.9068 31.4209 17.9157 31.4059 17.9275 31.3933C17.9393 31.3807 17.9538 31.3709 17.9698 31.3644C17.3431 31.4964 16.5916 30.6987 16.2816 31.3081L15.8548 31.4053C16.3647 31.5316 15.7439 31.6776 15.9288 31.8226C15.717 31.8293 15.4285 31.5492 15.6848 31.5567L15.7198 31.5942C15.855 31.2622 15.0966 31.3753 15.1466 31.1479C14.1854 30.9521 13.2417 30.6779 12.3252 30.3282L12.3534 30.6107L12.0479 30.4863C11.9851 30.4026 11.998 30.2569 12.2166 30.3382C12.1465 30.1586 11.8098 30.339 11.7848 30.3908C11.3862 30.1433 12.0466 30.1567 11.9038 30.0985L11.7189 30.0581L11.7513 30.1022C11.5719 30.1531 11.522 30.2566 11.2596 30.1498C11.1158 30.0371 11.2341 29.9652 11.1751 29.9296C11.1751 29.9296 11.1613 29.8969 11.0754 29.889L10.7116 29.7176L10.7793 29.9697C10.5721 29.9938 10.4207 29.8237 10.5095 30.0999C10.3437 29.8296 10.0876 29.6266 9.78661 29.5268C9.53554 29.423 9.29982 29.2853 9.08601 29.1177C8.80209 29.0989 8.53184 28.9889 8.31557 28.804C8.36171 28.8808 8.26841 29.1099 8.05979 28.9282C8.40814 28.5861 7.76232 28.4703 7.79889 28.0477C7.81432 28.3521 7.16494 27.627 7.20549 28.0693C7.04939 27.9012 7.30495 27.9201 7.24022 27.7273C6.97346 27.6038 6.74285 27.414 6.57046 27.1759C6.38478 26.9133 6.17203 26.671 5.93572 26.4528C5.88223 26.4891 5.89197 26.6363 5.72507 26.5993L5.71932 26.1286C5.61059 26.0533 5.36344 26.2895 5.3721 25.964C5.34912 26.0204 5.31261 26.1101 5.25566 26.0598C4.91002 25.4971 4.52461 24.9597 4.10236 24.452C3.67005 23.9258 3.41018 23.2793 3.35805 22.6003C3.32145 22.8139 3.2608 22.7156 3.20162 22.5947C3.21172 22.684 3.06007 22.6571 2.99183 22.7106L2.97621 22.1119C2.71118 22.1163 2.74649 21.5732 2.51258 21.6057L2.61555 21.7521C2.28346 21.6169 2.18016 22.2795 1.85391 22.3866C2.03987 22.4624 2.01999 22.6633 2.0332 22.8971C2.0464 23.1309 2.0862 23.4801 2.39392 23.5705C2.37919 23.6923 2.25691 23.5457 2.21044 23.6313C2.39333 23.6671 2.48522 23.7742 2.54885 24.0362L2.50568 24.0186C2.89603 24.6383 2.94259 24.9708 3.33014 25.721L3.43292 25.5731C3.48359 25.6685 3.51207 25.774 3.51625 25.8819C3.84044 25.8939 3.23047 25.4713 3.57347 25.4561C3.41392 25.848 4.32904 26.4529 4.12176 26.8098C4.2989 27.0213 4.22146 26.622 4.39528 26.8322L4.34661 26.9517L4.49664 26.916C4.53749 26.968 4.55989 27.032 4.56033 27.0981C4.56077 27.1641 4.53921 27.2285 4.49905 27.2809C4.45724 27.2407 4.40964 27.207 4.35784 27.1808C4.42418 27.4363 4.84311 27.6339 4.86588 27.7206L4.73485 27.4815C5.02096 27.7296 5.32282 28.0151 5.62136 28.2993C5.91035 28.5733 6.24348 28.7966 6.60673 28.9599L6.61532 28.8627C7.14001 29.0764 6.89948 29.2107 7.43637 29.499L7.41312 29.4895C7.56863 29.4994 7.71668 29.5597 7.83487 29.6613C7.65445 29.6575 7.97747 29.9671 7.75253 29.9491C8.34535 30.1285 8.07316 29.9983 8.5582 29.948L8.56586 30.1099C8.64738 30.0802 8.73452 30.0691 8.82089 30.0774C8.90725 30.0858 8.99064 30.1134 9.06494 30.1582C8.79535 30.1453 9.13251 30.4297 8.81349 30.443C9.2395 31.0036 9.77932 30.6001 9.85604 31.1153C10.2702 30.8968 9.45048 30.6946 9.63889 30.6978C9.57134 30.5309 9.97006 30.55 10.1285 30.6649C10.2869 30.7797 10.2522 31.2263 10.7318 31.4176C10.6819 31.3974 10.6725 31.4206 10.6227 31.4003C10.7702 31.561 11.0061 31.4093 11.1872 31.6302C11.3833 31.4623 11.4695 31.7451 11.597 31.4796L11.1315 31.3868C11.403 31.4045 11.7321 31.1668 12.0926 31.4414C12.0055 31.4948 11.9074 31.5277 11.8057 31.5375C11.9015 31.6539 12.0513 31.5523 12.1378 31.6727C12.0296 31.9384 11.5851 31.5754 11.2454 31.6965C11.3383 31.8582 11.8189 31.6667 11.5889 31.9177C11.8978 31.6059 12.0605 32.1097 12.4685 31.9158L12.405 32.0718C12.4949 32.0403 12.5907 32.0291 12.6855 32.0389L12.4574 32.2093C12.7704 32.0967 12.9383 32.5019 13.2229 32.4591C12.6763 32.3372 13.1491 32.2316 12.9491 32.0572C13.6612 31.991 13.2294 32.5856 14.004 32.661C13.8948 32.663 13.6429 32.483 13.8163 32.4374C13.9623 32.4969 14.093 32.5886 14.1988 32.7055C14.7052 32.7645 14.154 32.5208 14.3855 32.4563C14.5179 32.6921 14.6447 32.4186 14.8693 32.39L14.8423 32.561C15.3802 32.78 15.05 32.2313 15.5287 32.4533L15.2791 32.6575L15.5509 32.6366L15.4738 32.8259C15.5816 32.7842 15.6971 32.7665 15.8124 32.774C15.9277 32.7815 16.04 32.814 16.1414 32.8693C16.0929 32.7411 16.2225 32.5655 16.4707 32.593C16.6251 32.7178 16.3519 32.7421 16.7093 32.7676C16.6155 32.8649 16.5089 32.9841 16.3762 32.8061C16.3545 32.8593 16.2824 32.9034 16.2607 32.9566C16.4276 33.0981 16.7163 33.0453 16.846 33.0594C16.7971 33.0512 16.7506 33.0322 16.7099 33.004L17.2502 32.8368C17.325 32.9099 17.2562 32.9554 17.1853 32.9962C17.2926 32.9896 17.3742 32.9222 17.5287 32.9231C17.4733 33.0593 17.4637 33.2064 17.2384 33.2463L17.7484 33.1442C17.7759 33.2096 17.9855 33.3414 17.9134 33.3856C18.1823 33.4951 18.6151 33.1835 18.9698 33.3202C18.982 33.2903 19.0287 33.2706 19.108 33.2565C19.4472 33.3171 19.7423 33.5147 20.1642 33.3342L20.3823 33.5972C20.7069 33.5513 20.0834 33.2665 20.6165 33.1932C20.9972 33.1236 20.7523 33.4111 20.8851 33.4845C21.0769 33.3652 21.4213 33.1183 21.7484 33.3134C21.6571 33.3188 21.5641 33.2809 21.4595 33.3003ZM25.4117 32.9118C25.3401 32.964 25.2054 33.095 25.1321 32.9993C25.192 32.7953 25.268 32.8843 25.4117 32.9118ZM30.6148 29.6414C30.635 29.6981 30.6366 29.7599 30.6194 29.8176C30.6021 29.8753 30.5669 29.926 30.5189 29.9624C30.5384 29.8521 30.5705 29.7443 30.6148 29.6414ZM25.4212 34.4953C25.3053 34.39 25.3264 34.4334 25.4144 34.5119L25.4212 34.4953ZM25.6697 34.6932C25.6762 34.6912 25.6822 34.6877 25.6872 34.683C25.6922 34.6784 25.6962 34.6727 25.6988 34.6664C25.7014 34.66 25.7025 34.6532 25.7021 34.6464C25.7018 34.6395 25.6999 34.6328 25.6967 34.6268C25.6606 34.6585 25.5928 34.6348 25.5265 34.5885C25.5387 34.6631 25.5584 34.7099 25.6629 34.7098L25.6697 34.6932ZM11.1715 30.0714L11.2137 30.1389C11.062 30.1313 11.1161 30.103 11.1715 30.0714Z" fill="#505050"/>
<path d="M30.4775 30.6076C30.442 30.6045 30.4082 30.5907 30.3807 30.5681C30.3623 30.6229 30.4002 30.654 30.4775 30.6076Z" fill="#505050"/>
<path d="M19.002 33.2791C18.9964 33.2882 18.9923 33.2982 18.9899 33.3087L19.002 33.2791Z" fill="#505050"/>
<path d="M21.7607 31.3246C21.7746 31.2658 21.8058 31.2125 21.8502 31.1714C21.8096 31.1665 21.7721 31.2015 21.7607 31.3246Z" fill="#505050"/>
<path d="M27.3737 34.9962L27.1568 34.9775C27.2241 34.9933 27.2836 35.0326 27.3245 35.0884C27.3294 35.0478 27.3065 34.9804 27.3737 34.9962Z" fill="#505050"/>
<path d="M28.9217 36.5284C28.9577 36.516 28.9848 36.5541 29.0248 36.5317L29.0347 36.4505C28.9023 36.4238 28.7909 36.4597 28.9217 36.5284Z" fill="#505050"/>
<path d="M27.4046 35.6048C27.3817 35.7465 27.5289 35.7368 27.6846 35.7537L27.6581 35.7429C27.7551 35.5617 27.5698 35.5792 27.4046 35.6048Z" fill="#505050"/>
<path d="M27.7185 35.7559C27.7647 35.769 27.8092 35.7872 27.8514 35.81C27.8992 35.7211 27.8057 35.7604 27.7185 35.7559Z" fill="#505050"/>
<path d="M26.0754 34.7616C26.125 34.8205 26.179 34.6025 26.1938 34.6705C26.3238 34.5415 25.6934 34.73 26.0754 34.7616Z" fill="#505050"/>
<path d="M27.3975 36.0974L27.3927 35.9096L27.2682 36.0254L27.3975 36.0974Z" fill="#505050"/>
<path d="M26.2699 35.615L26.4902 35.7396C26.501 35.713 26.5291 35.7012 26.5677 35.7014C26.4255 35.6513 26.2822 35.5658 26.2699 35.615Z" fill="#505050"/>
<path d="M26.5663 35.7048C26.629 35.7331 26.6982 35.7439 26.7665 35.736C26.7016 35.7162 26.6342 35.7057 26.5663 35.7048Z" fill="#505050"/>
<path d="M27.0569 36.0595L26.996 35.9999L26.8305 35.9402L27.0569 36.0595Z" fill="#505050"/>
<path d="M23.995 34.3946L23.7688 34.2561C23.7067 34.285 23.7268 34.359 23.8224 34.4095C23.918 34.4601 23.9892 34.4658 23.995 34.3946Z" fill="#505050"/>
<path d="M24.3844 35.2732C24.3369 35.1997 24.3551 35.1645 24.3509 35.0892L24.2219 35.2729L24.3844 35.2732Z" fill="#505050"/>
<path d="M23.6699 34.8315C23.6078 34.8604 23.2268 34.6743 23.5223 34.9184C23.5842 34.9088 23.8465 35.035 23.6699 34.8315Z" fill="#505050"/>
<path d="M22.3925 30.9043L22.3867 30.9755L22.7515 30.9924L22.3925 30.9043Z" fill="#505050"/>
<path d="M23.6358 27.0902C23.2566 27.261 23.6877 27.3242 23.3393 27.4572C23.3226 27.5743 23.6236 27.3485 23.5942 27.4681C23.7227 27.2572 23.8601 27.2241 23.6358 27.0902Z" fill="#505050"/>
<path d="M23.5942 27.468C23.5747 27.5051 23.5588 27.544 23.5469 27.5842C23.5688 27.5483 23.5848 27.509 23.5942 27.468Z" fill="#505050"/>
<path d="M3.06126 21.8175L3.06454 21.6098L2.99496 21.7711L3.06126 21.8175Z" fill="#505050"/>
<path d="M2.68859 21.5728L2.87317 21.4428L2.63236 21.4067C2.65942 21.4448 2.71158 21.5163 2.68859 21.5728Z" fill="#505050"/>
<path d="M26.0813 33.2735L26.1029 33.2204C26.0586 33.1675 26.0066 33.1812 25.9054 33.1825L26.0813 33.2735Z" fill="#505050"/>
<path d="M23.1465 33.4451L23.1964 33.4461L23.0938 33.2417L23.1465 33.4451Z" fill="#505050"/>
<path d="M20.7084 33.7378C20.8075 33.751 20.9263 33.7065 21.0235 33.7151C20.8075 33.751 20.6834 33.4759 20.7084 33.7378Z" fill="#505050"/>
</svg>
