<svg width="33" height="20" viewBox="0 0 33 20" fill="none" xmlns="http://www.w3.org/2000/svg">
<path d="M15.5126 19.7995C15.5126 19.7995 15.6896 19.662 15.7238 19.6334C15.6496 19.6391 15.4727 19.8396 15.5126 19.7995Z" fill="#505050"/>
<path d="M14.8277 19.8739L14.9076 19.8109L14.6907 19.9369L14.8277 19.8739Z" fill="#505050"/>
<path d="M14.5652 19.599C14.3027 19.9141 14.7079 19.6506 14.6565 19.7995L14.5938 19.874L14.8506 19.6677C14.7536 19.6448 14.5253 19.7193 14.5652 19.599Z" fill="#505050"/>
<path d="M15.0332 18.8141C14.9305 18.9401 14.9076 18.8828 15.0332 18.8886V18.8485C15.0332 18.8485 15.0389 18.837 15.0332 18.8141Z" fill="#505050"/>
<path d="M15.056 18.8485C15.096 18.8485 15.1302 18.7339 15.056 18.8485V18.8485Z" fill="#505050"/>
<path d="M14.8392 18.7854L14.9761 18.7167C15.0332 18.6422 15.0104 18.5906 15.0732 18.5563C14.9876 18.5735 14.9362 18.6479 14.8392 18.7854Z" fill="#505050"/>
<path d="M14.6108 18.9631H14.6736C14.6964 18.9058 14.6965 18.9058 14.6108 18.9631Z" fill="#505050"/>
<path d="M14.8049 18.9058L14.6737 18.9573C14.6337 19.0089 14.5424 19.1063 14.725 18.9573C14.6337 19.0089 14.725 18.9344 14.8049 18.9058Z" fill="#505050"/>
<path d="M14.7878 18.9573C14.7743 19.0053 14.7504 19.0497 14.7179 19.0874C14.6853 19.125 14.6449 19.1549 14.5994 19.175C14.7136 19.2037 14.9019 18.986 14.7878 18.9573Z" fill="#505050"/>
<path d="M14.2684 19.8854L14.2114 20L14.3312 19.9255C14.2684 19.9599 14.3426 19.7938 14.2684 19.8854Z" fill="#505050"/>
<path d="M14.7364 18.3959C14.6794 18.4532 14.5938 18.5792 14.5253 18.6651L14.6223 18.6193C14.6412 18.5364 14.6804 18.4596 14.7364 18.3959Z" fill="#505050"/>
<path d="M14.5252 18.6652L14.3768 18.7339C14.4054 18.7797 14.4624 18.7339 14.5252 18.6652Z" fill="#505050"/>
<path d="M14.2912 19.2896L14.5766 19.1235L14.2741 19.2782L14.2912 19.2896Z" fill="#505050"/>
<path d="M14.5709 18.2297L14.7307 18.098L14.4796 18.287L14.5709 18.2297Z" fill="#505050"/>
<path d="M14.4282 18.1495C14.5595 18.0407 14.588 17.9089 14.6736 17.8516C14.6223 17.8516 14.5024 17.9318 14.394 18.0063C14.4682 17.9719 14.4853 18.012 14.4282 18.1495Z" fill="#505050"/>
<path d="M14.2342 18.1094L14.394 18.0063C14.3367 18.0339 14.283 18.0685 14.2342 18.1094Z" fill="#505050"/>
<path d="M14.3312 18.6308C14.3873 18.5665 14.4317 18.4928 14.4625 18.4131L14.3141 18.6136L14.3312 18.6308Z" fill="#505050"/>
<path d="M14.3369 18.6365C14.3369 18.6365 14.3141 18.6594 14.3369 18.6365V18.6365Z" fill="#505050"/>
<path d="M14.3255 19.0203C14.1732 19.0922 14.0473 19.2105 13.9659 19.3583C14.0793 19.2389 14.1993 19.126 14.3255 19.0203Z" fill="#505050"/>
<path d="M14.1543 18.9058V18.9917C14.2 18.9295 14.2538 18.8736 14.3141 18.8256L14.1543 18.9058Z" fill="#505050"/>
<path d="M14.0801 18.9229L14.1543 18.8828L14.1486 18.8542L14.0801 18.9229Z" fill="#505050"/>
<path d="M14.1657 18.3329C14.0743 18.3959 14.0458 18.3844 14.0116 18.373C14.0064 18.3961 14.0068 18.4201 14.0128 18.443C14.0188 18.4659 14.0301 18.4871 14.0458 18.5048C14.0972 18.4704 14.1999 18.3787 14.1657 18.3329Z" fill="#505050"/>
<path d="M14.2228 18.499C14.2228 18.499 14.1942 18.5334 14.2228 18.499V18.499Z" fill="#505050"/>
<path d="M13.7547 18.1782L13.7262 18.2183L13.7547 18.1839V18.1782Z" fill="#505050"/>
<path d="M14.0173 18.5677C14.0173 18.6193 14.063 18.5677 14.12 18.5677C14.0962 18.577 14.0697 18.577 14.0458 18.5677C14.0458 18.5677 14.0059 18.5677 14.0173 18.5677Z" fill="#505050"/>
<path d="M14.0858 18.1324C14.0858 18.1839 14.0515 18.224 14.0344 18.2698C14.0744 18.2011 14.1314 18.0865 14.0858 18.1324Z" fill="#505050"/>
<path d="M14.2684 18.4532C14.2245 18.4786 14.1825 18.5073 14.1429 18.5391C14.1732 18.5434 14.2039 18.5434 14.2342 18.5391L14.2684 18.4532Z" fill="#505050"/>
<path d="M12.6818 19.3354C12.8302 19.1636 13.0128 19.0432 12.9044 19.2667C13.2194 18.9517 13.4953 18.5997 13.7262 18.2183C13.6593 18.3068 13.5735 18.3793 13.4751 18.4302C13.4123 18.5391 13.3952 18.7396 13.224 18.8656C13.0527 18.9917 13.224 18.7625 13.2696 18.6422C13.1155 18.8828 12.9329 18.9 12.6989 19.2151L12.8416 19.1464C12.7794 19.2012 12.7255 19.2649 12.6818 19.3354Z" fill="#505050"/>
<path d="M13.8061 18.3328H13.8461C13.8733 18.2297 13.9156 18.1313 13.9716 18.0406C13.8912 18.0867 13.8181 18.1446 13.7548 18.2125L13.8347 18.3214L13.8061 18.3328Z" fill="#505050"/>
<path d="M13.9374 18.3787C13.7707 18.5042 13.6244 18.655 13.5037 18.8256C13.5722 18.8599 13.6749 18.6995 13.7776 18.648C13.6521 18.6136 13.8918 18.5678 13.9203 18.4016C13.9498 18.3906 13.9822 18.3906 14.0116 18.4016C14.007 18.3597 14.007 18.3175 14.0116 18.2756C14.0116 18.2756 14.0116 18.3157 14.0116 18.2756L13.9488 18.3443C13.9488 18.2813 13.9831 18.2928 14.0116 18.2756H13.829C13.8461 18.3329 13.8746 18.3615 13.9374 18.3787Z" fill="#505050"/>
<path d="M13.5664 19.7078L13.6007 19.6677C13.6007 19.6677 13.5607 19.6964 13.5664 19.7078Z" fill="#505050"/>
<path d="M13.6292 19.5703C13.6577 19.5703 13.7319 19.4787 13.7319 19.5188C13.7319 19.5589 13.652 19.6047 13.6006 19.6677C13.6921 19.6211 13.7647 19.5442 13.8061 19.45H13.7776C13.8308 19.3133 13.9018 19.1842 13.9887 19.0662C13.8461 19.2609 13.7547 19.387 13.6292 19.5703Z" fill="#505050"/>
<path d="M13.7433 19.0261H13.5949L13.4922 19.2208L13.5721 19.1235C13.5835 19.2208 13.6977 19.0948 13.7433 19.0261Z" fill="#505050"/>
<path d="M13.8233 18.0808L14.0002 17.886L13.7205 18.1323L13.8233 18.0808Z" fill="#505050"/>
<path d="M13.6977 18.0178L13.8404 17.8459L13.7319 17.9318L13.6977 18.0178Z" fill="#505050"/>
<path d="M6.27808 17.2272L6.23242 17.2845C6.25068 17.268 6.26611 17.2487 6.27808 17.2272Z" fill="#505050"/>
<path d="M6.44361 17.2959L6.47786 17.1871C6.45503 17.2444 6.4379 17.2845 6.44361 17.2959Z" fill="#505050"/>
<path d="M10.9639 16.1959C11.0267 15.9897 11.1408 15.6803 11.0209 15.9037L10.9182 16.1272C10.9639 16.1043 10.9696 16.1386 10.9639 16.1959Z" fill="#505050"/>
<path d="M8.37842 16.6141V16.6886L8.49257 16.4824L8.37842 16.6141Z" fill="#505050"/>
<path d="M7.99034 17.5365V17.3646C7.98173 17.4216 7.98173 17.4795 7.99034 17.5365Z" fill="#505050"/>
<path d="M5.22227 17.2272L5.13666 17.4678C5.18232 17.4792 5.18802 17.3475 5.22227 17.2272Z" fill="#505050"/>
<path d="M12.5562 17.2673C12.5562 17.1641 12.5562 17.1126 12.5562 17.0897C12.5106 17.2329 12.4193 17.4277 12.5562 17.2673Z" fill="#505050"/>
<path d="M7.08857 14.7178C7.05902 14.76 7.03594 14.8063 7.02008 14.8553C7.05521 14.8168 7.07893 14.7692 7.08857 14.7178Z" fill="#505050"/>
<path d="M12.4649 17.0267V17.0839C12.5106 17.0839 12.5562 17.0553 12.5733 17.0839C12.5905 16.9808 12.5905 16.9006 12.4649 17.0267Z" fill="#505050"/>
<path d="M1.62091 16.6142V16.5855C1.60949 16.6142 1.6152 16.6142 1.62091 16.6142Z" fill="#505050"/>
<path d="M0.353882 14.1793C0.353882 14.1793 0.382419 14.1793 0.399541 14.1793C0.416663 14.1793 0.376711 14.1392 0.353882 14.1793Z" fill="#505050"/>
<path d="M12.8473 18.4589C12.8181 18.485 12.7913 18.5138 12.7674 18.5449C12.7914 18.5138 12.8181 18.4851 12.8473 18.4589Z" fill="#505050"/>
<path d="M11.3805 18.1553C11.3634 18.2011 11.3634 18.1896 11.3805 18.1553V18.1553Z" fill="#505050"/>
<path d="M13.3039 17.7084C13.3087 17.6819 13.3087 17.6547 13.3039 17.6282C13.3039 17.6282 13.3096 17.674 13.3039 17.7084Z" fill="#505050"/>
<path d="M13.3724 17.6167V17.6511C13.4066 17.6167 13.418 17.5938 13.3724 17.6167Z" fill="#505050"/>
<path d="M13.3039 17.5823C13.3039 17.5823 13.3039 17.5823 13.3039 17.6282C13.3 17.617 13.3 17.6049 13.3039 17.5938V17.5823Z" fill="#505050"/>
<path d="M3.65843 16.0756C3.61847 16.1501 3.6356 16.1329 3.65843 16.0756V16.0756Z" fill="#505050"/>
<path d="M9.1546 18.1495L9.16031 18.1381V18.1323L9.1546 18.1495Z" fill="#505050"/>
<path d="M8.99481 18.2756C9.16603 18.0178 9.16603 18.0579 9.16033 18.1324L9.45711 17.4792L8.99481 18.2756Z" fill="#505050"/>
<path d="M5.81581 17.1871V17.4162C5.65029 17.7542 5.63317 17.6167 5.60463 17.9376C5.81581 17.1871 5.84434 17.9376 6.06122 17.1756V17.3417C6.06122 17.3417 6.06122 17.3761 6.02698 17.3417C6.02698 17.7199 6.23815 16.8147 6.30664 16.9522C6.32673 17.0419 6.31247 17.136 6.26669 17.2157L6.39796 17.0553C6.39796 17.0553 6.36942 17.2042 6.3523 17.1813L6.48357 17.1527C6.53494 17.0438 6.63196 16.872 6.67191 16.8032C6.67191 16.9178 6.63196 16.8777 6.60913 16.9693L6.73469 16.8089C6.70045 17.0095 6.5863 17.1813 6.55206 17.1412C6.38084 17.8974 6.6662 16.9636 6.65479 17.4449L6.56347 17.5193C6.46645 17.949 6.56347 17.8115 6.56347 18.0922C6.58958 17.7948 6.6608 17.503 6.77465 17.2272C6.77465 17.2902 6.77465 17.3245 6.87738 17.1871C6.79177 17.4506 6.84884 17.399 6.87738 17.399L6.75752 17.7485C6.8448 17.6185 6.91935 17.4804 6.98011 17.336C6.98519 17.5326 6.94821 17.7279 6.87167 17.9089C6.94016 17.9948 6.96299 17.462 7.08855 17.4277C7.08855 17.5881 7.21411 17.462 7.37392 17.2844C7.37392 17.4219 7.28831 17.4964 7.27119 17.5995L7.41387 17.3417C7.41387 17.3417 7.41387 17.4334 7.37392 17.4735C7.44811 17.3818 7.50519 17.1355 7.59651 17.061C7.75631 16.6886 7.5109 17.6339 7.75061 17.2615C7.75061 17.3647 7.65929 17.4678 7.61363 17.5995C7.76387 17.4452 7.896 17.2742 8.00744 17.0897V17.3417C8.08598 17.059 8.22201 16.7957 8.40695 16.5683L8.47544 16.2704L8.65237 16.1272C8.61454 16.2355 8.56477 16.3393 8.50398 16.4366L8.55534 16.3621C8.51519 16.5423 8.44161 16.7133 8.33846 16.8662L8.38983 16.6428C8.27602 16.8415 8.17682 17.0483 8.09305 17.2615C8.10832 17.2291 8.13197 17.2014 8.16154 17.1813C8.13527 17.2253 8.11238 17.2713 8.09305 17.3188C8.09305 17.3532 8.09305 17.2844 8.17295 17.2042L8.04168 17.5881L8.11017 17.4449V17.7256C8.35559 17.3818 8.68091 16.8548 8.88637 16.7688C8.75309 17.0173 8.63492 17.2737 8.53251 17.5365C8.64666 17.1699 8.36129 17.6339 8.32134 17.5365C8.32134 17.5881 8.26998 17.737 8.23573 17.7886L8.49827 17.5308C8.37842 17.7943 8.4412 17.737 8.42407 17.8631C8.62954 17.3303 8.66949 17.5594 8.79505 17.4219C8.71515 17.5995 8.62383 17.7771 8.57817 17.7027C8.46973 18.1266 8.94915 17.1298 8.86354 17.4964C8.86354 17.4964 8.86354 17.462 8.80076 17.548C8.9092 17.4105 8.93774 17.548 8.84642 17.7199C8.92062 17.8287 9.14891 17.8688 9.38291 17.4391L9.05759 18.0464L9.97648 16.6657C9.74858 17.1689 9.48538 17.6551 9.18886 18.1209C9.18886 18.1896 9.18886 18.2584 9.2973 18.1553C9.37387 17.9565 9.46744 17.7649 9.57696 17.5824C9.5025 17.7921 9.44149 18.0064 9.39433 18.224C9.39433 18.1323 9.73677 17.5652 9.77101 17.6053C9.80526 17.6454 9.46852 18.1782 9.42857 18.2297L9.82238 17.7141C9.69013 17.917 9.581 18.1342 9.49706 18.3615C9.54272 18.2469 9.56555 18.4188 9.62262 18.3615L9.65687 18.2125C9.70823 18.3558 10.1934 17.4735 10.2847 17.5652C10.1116 17.8111 9.97157 18.0789 9.86804 18.3615C10.2036 17.8337 10.5856 17.3371 11.0095 16.8777L10.9353 17.0496L11.118 16.9063C10.8155 17.3074 10.1705 18.1438 9.90228 18.4589C9.86804 18.6078 9.80526 18.6594 9.87374 18.6766C9.80526 18.8427 9.70823 18.8886 9.6854 18.8886L9.7596 19.0604C9.94794 18.7224 10.0564 18.7854 10.2105 18.4875L9.86804 18.7511C10.0507 18.4188 10.5016 17.8516 10.5643 17.9719C10.5073 18.1209 10.1991 18.5448 10.1363 18.6594C10.2105 18.5563 10.3532 18.499 10.3132 18.5849L10.1648 18.7396C10.1648 18.8943 10.513 18.3558 10.3874 18.7052C10.3874 18.7396 10.1877 19.1693 10.3132 18.9745C10.5073 18.5792 11.2093 17.4162 11.4033 17.1527C11.36 17.3693 11.2989 17.582 11.2207 17.7886C11.0723 18.1037 10.7299 18.4474 10.6043 18.7167C10.6556 18.6399 10.7149 18.5688 10.7812 18.5047C10.7527 18.5907 10.5986 18.774 10.6728 18.7625C10.8897 18.436 10.7527 18.8542 10.8725 18.499C10.981 18.436 10.8725 18.6021 10.9467 18.6193C11.1169 18.3387 11.3308 18.0872 11.5802 17.8745C11.5266 17.9541 11.4771 18.0363 11.4319 18.1209C11.5232 18.2125 11.4718 18.4073 11.5631 18.4704C11.5234 18.5922 11.4636 18.7064 11.3862 18.8084C11.4376 18.7568 11.5232 18.6594 11.5574 18.6709C11.4204 18.986 11.4661 18.6709 11.2778 19.0318C11.377 18.9067 11.5041 18.8066 11.6487 18.7396C11.8371 18.4417 11.5917 18.6193 11.4718 18.7052C11.6949 18.3558 11.9885 18.0572 12.3336 17.8287C12.482 17.7886 12.1909 18.1094 12.2423 18.0636C12.3393 18.2412 12.8644 17.4907 12.7845 17.8459C12.6427 18.0854 12.4824 18.3134 12.3051 18.5276C12.1738 18.5735 12.3051 18.2985 12.2708 18.2756L12.2423 18.436C12.1567 18.5047 12.0711 18.5334 12.0996 18.436C11.9798 18.6881 12.3222 18.648 12.2708 18.9401C12.3668 18.8803 12.4486 18.8001 12.5105 18.7052H12.4535C12.5676 18.4818 12.7217 18.4875 12.7503 18.3558C12.9044 18.2584 13.1212 18.0808 13.1041 18.2469L12.9044 18.5334C12.9614 18.4532 12.9843 18.3329 12.9044 18.4016C13.0242 18.3042 12.7103 18.8599 13.0242 18.5219L13.1269 18.2928C13.2868 18.1954 13.5778 17.949 13.5721 18.0865C13.7605 17.7943 13.5322 18.0865 13.7433 17.7542C13.4637 18.1782 13.5949 17.611 13.3267 18.075C13.5721 17.6683 13.3724 17.8573 13.5607 17.5021C13.4922 17.5995 13.4466 17.6969 13.4294 17.611L13.3552 17.6797C13.3332 17.7354 13.3065 17.7891 13.2753 17.8402C13.087 18.0292 13.0128 17.9547 12.9044 18.0464C12.9044 17.9777 12.9957 17.949 13.0528 17.8344L12.8872 17.9719C13.0356 17.76 13.0585 17.5652 13.224 17.5021L13.1612 17.4449C13.2068 17.2959 13.1612 17.21 13.087 17.273C13.087 17.2042 12.8416 17.4449 12.9843 17.3016L12.7845 17.3589L12.8245 17.3016C12.7331 17.1985 12.3622 17.5021 12.5048 17.0324C12.4364 17.061 12.3507 17.1011 12.3336 16.998L12.4478 16.8032C12.3565 16.8376 12.4478 16.5282 12.2765 16.7058C12.5505 16.173 12.1167 16.448 12.0882 16.3105L11.9341 16.5511C11.8827 16.5053 11.7857 16.5511 11.6544 16.5912L11.5232 16.8147C11.352 16.9579 11.4604 16.5626 11.352 16.5225C11.409 16.4423 11.4204 16.4824 11.409 16.5225C11.586 15.9496 10.9467 16.7459 11.0495 16.3162C10.981 16.385 10.9753 16.3449 10.9867 16.2761C10.9981 16.2074 10.9867 16.2761 10.9867 16.2761L11.0152 16.1386C11.0003 16.1835 10.9888 16.2295 10.981 16.2761C10.9331 16.2746 10.8863 16.2909 10.8497 16.322L10.9696 16.0699C10.9696 15.961 10.8782 16.1673 10.7983 16.3621C10.7526 16.396 10.7122 16.4365 10.6785 16.4824C10.8668 16.0814 10.5244 16.574 10.7184 16.1329C10.5872 16.3277 10.4844 16.2017 10.239 16.6256C10.2676 16.5683 10.2733 16.5397 10.2904 16.5454C10.3075 16.5511 10.2904 16.4079 10.1819 16.5454L10.3303 16.2246L10.0393 16.6027C10.0767 16.3935 10.1649 16.1967 10.2961 16.0298C9.99931 16.3506 10.1363 16.1272 9.86233 16.4537L9.96506 16.2475C9.93082 16.2475 9.74248 16.4881 9.80526 16.3105C9.9137 15.8866 9.46282 16.0814 9.43428 15.623C9.20028 16.2532 9.43428 15.3079 9.24594 15.7777C9.27328 15.653 9.32361 15.5344 9.39433 15.4282C9.22881 15.5256 9.33725 15.1303 9.09754 15.5027C9.14891 15.3538 9.20598 15.3022 9.23452 15.2105C9.23452 15.2392 9.14891 15.3194 9.17745 15.2105C9.19828 15.1448 9.23562 15.0857 9.28589 15.0387C9.16603 15.0387 8.97198 15.4683 8.78935 15.8866C8.81788 15.6631 8.78935 15.6803 8.62954 15.9439C8.66949 15.8006 8.69803 15.6402 8.78364 15.6173C8.78364 15.5829 8.64095 15.3251 8.50398 15.6631C8.50398 15.5715 8.46403 15.6173 8.4412 15.6631C8.41837 15.709 8.37271 15.5772 8.28139 15.5772V15.6402C8.09875 16.0412 8.18436 15.709 8.09875 15.7376V15.6918C8.06451 15.3423 7.98461 15.8178 7.96178 15.4225L7.87617 15.686C7.66499 16.259 7.87617 15.3137 7.70495 15.497V15.6517C7.5908 15.8293 7.83622 14.8496 7.80768 14.7637C7.77914 14.6777 7.85334 14.6892 7.87617 14.6606C7.87617 14.2824 7.7449 14.9928 7.63075 15.0387C7.6707 14.8496 7.80768 14.5803 7.75061 14.5231C7.75061 14.3626 7.37963 15.0559 7.40246 14.6777C7.39294 14.8159 7.34982 14.9497 7.27689 15.0673C7.19699 15.1017 7.27689 14.4944 7.06001 14.9126C7.05678 14.8726 7.05678 14.8324 7.06001 14.7923C6.9744 14.8954 6.83743 14.9413 6.7404 15.1762C6.94587 14.2538 6.30664 15.5371 6.53494 14.6892H6.36371L6.39225 14.6033C6.30664 14.5231 6.21532 14.7178 6.12971 14.9126C6.13231 14.8515 6.14584 14.7913 6.16966 14.735C6.06693 14.5288 6.03839 14.5574 5.81581 14.9585L5.86717 14.6777C5.79869 14.8324 5.74732 14.1908 5.53044 14.483C5.54156 14.4414 5.55686 14.4011 5.5761 14.3626C5.3478 14.6491 5.32497 13.5033 5.07385 14.5116L4.91975 14.7465C5.03961 14.8496 4.81702 15.1876 4.84555 15.3652C4.78277 15.4168 4.75994 15.0329 4.84555 14.9928V15.0444C4.9597 14.5173 4.70287 14.8267 4.76565 14.4715C4.48599 14.4715 4.2577 14.1048 3.99516 14.059V14.483L3.90955 14.4486C3.90955 14.3455 3.90955 14.1163 3.97803 14.1449C3.97803 13.9043 3.84106 14.3283 3.83535 14.4199C3.7212 14.2366 3.93808 13.9387 3.89813 13.9215L3.84106 13.9502V14.0017C3.77828 14.1621 3.75545 14.3455 3.68125 14.3168C3.60706 14.2882 3.68125 14.0533 3.68125 14.0361C3.68125 14.0189 3.68125 13.996 3.68125 14.0361L3.5671 13.9845V14.3225C3.49862 14.4772 3.45866 14.3225 3.47579 14.672C3.47579 14.0991 3.06486 14.4199 3.03061 14.2481C2.945 14.483 2.87651 14.4772 2.7909 14.4429C2.7909 14.5116 2.7909 14.884 2.72812 14.8382C2.79661 14.0705 2.60827 14.4944 2.56832 13.9387C2.61397 14.3111 2.35143 14.0189 2.41992 14.546C2.35714 14.4772 2.41992 14.2595 2.37997 14.0762C2.22587 14.3626 2.04894 13.8757 1.8606 13.9788C1.87714 14.112 1.87714 14.2467 1.8606 14.3798L1.75787 13.8814C1.71792 13.9272 1.75787 14.4543 1.65514 14.1106C1.67293 14.1917 1.67293 14.2758 1.65514 14.3569C1.26704 13.8642 0.936008 14.7751 0.513663 13.8871C0.582151 14.0762 0.547907 14.0991 0.513663 14.1106C0.537994 14.237 0.549468 14.3656 0.547907 14.4944L0.365271 14.1278C0.365271 14.5059 0.199758 14.1621 0.21688 14.5288L0.262539 14.46C0.262539 14.8897 0.439467 15.3996 0.473711 15.9439C0.502248 15.4569 0.707713 16.6485 0.75908 15.9439C0.793324 16.0527 0.75908 16.1215 0.75908 16.2475C0.75908 16.0126 0.799031 15.961 0.86752 16.0584V16.1215C1.03303 16.0527 1.12435 16.2704 1.3184 16.4194V16.1501C1.36406 16.1845 1.37548 16.2704 1.3983 16.3392C1.3983 15.9267 1.27845 16.3392 1.30699 15.8636C1.38118 16.4366 1.60377 15.8636 1.64943 16.4938C1.71221 16.4938 1.64943 16.1787 1.68938 16.1845V16.3506V16.1329C1.73962 16.2583 1.76108 16.3934 1.75216 16.5282C1.75216 16.5282 1.75216 16.5683 1.71792 16.5798C1.76928 16.7803 1.86631 16.511 1.88343 16.5798L1.71221 16.5225C1.88343 16.3621 2.0889 16.5798 2.28295 16.2475V16.1157C2.41992 15.8866 2.37997 16.2647 2.52836 16.1616V16.1902C2.56261 16.0642 2.60827 16.0011 2.64251 16.0183C2.60256 16.1673 2.69388 16.3105 2.64251 16.4767C2.7909 16.2303 2.71671 16.2819 2.84227 15.8121V16.0412C2.88793 15.8522 2.89934 15.7491 2.97354 15.6975C2.89934 15.8751 2.97354 16.0241 2.91076 16.2704C3.0249 16.7402 3.16759 15.8235 3.179 16.5053C3.29886 15.9324 3.08198 16.1673 3.12764 16.047C3.1733 15.9267 3.22466 15.6116 3.26461 15.6746C3.30457 15.7376 3.26461 16.4366 3.39588 16.4366C3.39588 16.4366 3.39588 16.4767 3.39588 16.4709C3.39588 16.6256 3.50432 16.2819 3.53286 16.5282C3.60135 16.1787 3.59564 16.5569 3.65842 16.1043L3.53857 16.1959C3.60706 16.0871 3.72691 15.5657 3.80681 15.835C3.78071 15.9269 3.74829 16.0169 3.70979 16.1043C3.70979 16.2418 3.77828 16.0241 3.7954 16.1616C3.73262 16.6084 3.65271 16.2475 3.54427 16.5798C3.54427 16.7746 3.70408 16.2704 3.61847 16.7516C3.73833 16.1386 3.7212 16.8433 3.85818 16.3793L3.76686 16.6142C3.76686 16.574 3.82964 16.448 3.85247 16.4595L3.76115 16.8032C3.86389 16.511 3.84677 17.0725 3.93238 16.9235C3.80681 16.9235 3.93238 16.5912 3.93238 16.3907C4.13784 16.0527 3.93238 17.1068 4.1093 17.0095C4.1093 17.0438 4.04652 16.8319 4.1093 16.7115C4.14432 16.8128 4.1617 16.9194 4.16067 17.0266C4.28053 16.9923 4.16067 16.7516 4.2577 16.5912C4.2577 16.9292 4.3376 16.4709 4.40609 16.3735L4.36043 16.6485C4.46316 16.8433 4.4917 16.0756 4.57731 16.3162L4.46316 16.6829L4.52594 16.6142L4.45745 16.9235C4.56589 16.7058 4.57731 16.7688 4.62867 16.8662C4.62867 16.6714 4.7257 16.3735 4.78848 16.3735C4.78848 16.5397 4.71429 16.6256 4.78848 16.6027C4.73712 16.7688 4.68004 16.9808 4.68575 16.723L4.61726 16.9808C4.61726 17.1699 4.71428 17.0381 4.74853 17.0381C4.74382 17.0273 4.74138 17.0156 4.74138 17.0037C4.74138 16.9919 4.74382 16.9802 4.74853 16.9693L4.93687 16.6142C4.93298 16.7052 4.91167 16.7947 4.87409 16.8777C4.90263 16.849 4.94258 16.7287 4.98253 16.7173C4.95374 16.9039 4.89798 17.0853 4.81702 17.2558L4.97682 17.0324C4.9796 17.1514 4.97004 17.2705 4.94829 17.3876C4.98253 17.5308 5.188 16.998 5.23366 17.1871C5.24673 17.1479 5.266 17.1112 5.29073 17.0782C5.35922 17.1469 5.35922 17.4277 5.52473 17.1469L5.47907 17.5537C5.57039 17.4792 5.53044 17.0438 5.68454 16.9235C5.83864 16.8032 5.63317 17.2615 5.63888 17.3761C5.72449 17.1928 5.90713 16.8032 5.90142 17.1527C5.85576 17.2157 5.85005 17.1527 5.81581 17.1871ZM6.74611 17.273C6.71186 17.3188 6.62055 17.4792 6.6605 17.3188C6.77465 17.0152 6.74611 17.1871 6.74611 17.2615V17.273ZM8.30993 17.1527C8.25856 17.2272 8.25856 17.1527 8.27568 17.0725C8.30422 17.0496 8.31563 17.0667 8.30993 17.1412V17.1527ZM12.9557 17.5995C12.9728 17.485 12.9614 17.5251 12.9557 17.5881V17.5995ZM12.9557 17.7485C12.9865 17.7258 13.0119 17.6964 13.0299 17.6626C12.9843 17.7141 12.9614 17.7027 12.9557 17.6626C12.9215 17.7256 12.9044 17.76 12.9614 17.76L12.9557 17.7485ZM3.57852 14.1965V14.271C3.54427 14.3225 3.5614 14.271 3.57852 14.1965Z" fill="#505050"/>
<path d="M7.9903 17.4276C8.00488 17.379 8.02202 17.3312 8.04166 17.2844C8.01532 17.3283 7.99787 17.377 7.9903 17.4276Z" fill="#505050"/>
<path d="M5.23935 17.1813H5.23364L5.22223 17.2272L5.23935 17.1813Z" fill="#505050"/>
<path d="M10.5073 18.9057C10.5166 18.8582 10.532 18.812 10.5529 18.7682C10.5187 18.8084 10.4901 18.8599 10.5073 18.9057Z" fill="#505050"/>
<path d="M13.652 17.6798H13.555C13.5892 17.6798 13.555 17.7428 13.555 17.7886C13.5835 17.76 13.6292 17.674 13.652 17.6798Z" fill="#505050"/>
<path d="M12.9786 19.3297C13.0071 19.3297 12.9786 19.3297 13.0242 19.3297L13.1041 19.2323C13.0699 19.2037 12.9843 19.2667 12.9786 19.3297Z" fill="#505050"/>
<path d="M13.127 18.436C12.9843 18.6193 13.0642 18.5849 13.127 18.5734C13.3267 18.3328 13.224 18.3787 13.127 18.436Z" fill="#505050"/>
<path d="M13.127 18.5735H13.1612C13.2525 18.499 13.1726 18.562 13.127 18.5735Z" fill="#505050"/>
<path d="M13.1555 17.6855C13.1555 17.7485 13.3438 17.4563 13.2924 17.5422C13.4922 17.3188 12.9728 17.76 13.1555 17.6855Z" fill="#505050"/>
<path d="M12.6761 19.0547L12.8416 18.8198L12.6818 18.9917L12.6761 19.0547Z" fill="#505050"/>
<path d="M12.5562 18.6938V18.7969C12.5744 18.7697 12.5976 18.7464 12.6247 18.7282C12.6076 18.6938 12.6076 18.625 12.5562 18.6938Z" fill="#505050"/>
<path d="M12.6304 18.7282C12.6304 18.7282 12.6647 18.7282 12.7046 18.7282C12.6931 18.7226 12.6804 18.7197 12.6675 18.7197C12.6547 18.7197 12.642 18.7226 12.6304 18.7282Z" fill="#505050"/>
<path d="M12.5562 19.0719L12.579 19.0089L12.5562 18.9631V19.0719Z" fill="#505050"/>
<path d="M12.0311 18.2355L11.9284 18.2641C11.8656 18.3386 11.8428 18.4016 11.8885 18.3844C11.947 18.3466 11.9958 18.2956 12.0311 18.2355Z" fill="#505050"/>
<path d="M11.7458 18.9974C11.7746 18.9297 11.809 18.8646 11.8485 18.8026L11.6373 19.0891L11.7458 18.9974Z" fill="#505050"/>
<path d="M11.5346 18.9516C11.4718 19.0261 11.2949 19.1292 11.3748 19.1578C11.4147 19.0834 11.5403 19.0547 11.5346 18.9516Z" fill="#505050"/>
<path d="M10.9353 18.0063L10.9524 18.012L11.2549 17.5193L10.9353 18.0063Z" fill="#505050"/>
<path d="M9.47424 18.7683C9.47424 18.9287 9.66259 18.4646 9.63976 18.648C9.71966 18.5334 9.63976 18.499 9.73107 18.4016C9.62263 18.5047 9.63976 18.4245 9.47424 18.7683Z" fill="#505050"/>
<path d="M9.73108 18.4016L9.79386 18.3329L9.73108 18.4016Z" fill="#505050"/>
<path d="M0.11988 13.8814L0.0513916 13.7611L0.102758 13.9559L0.11988 13.8814Z" fill="#505050"/>
<path d="M0.0513663 14.3225L0 13.9501V14.2881C0 14.2881 0.0342442 14.2366 0.0513663 14.3225Z" fill="#505050"/>
<path d="M6.6377 18.0178V17.9318C6.66623 17.8402 6.6377 17.8287 6.6377 17.8058V18.0178Z" fill="#505050"/>
<path d="M6.10687 17.5594L6.11258 17.5709L6.18678 17.2386L6.10687 17.5594Z" fill="#505050"/>
<path d="M5.47906 17.8287C5.47906 17.8287 5.54185 17.7771 5.55897 17.8C5.57609 17.8229 5.57609 17.4219 5.47906 17.8287Z" fill="#505050"/>
<path d="M23.9196 17.3016C23.9196 17.336 24.1308 17.2329 24.1707 17.2214C24.1022 17.1871 23.8625 17.3303 23.9196 17.3016Z" fill="#505050"/>
<path d="M23.2404 17.124L23.3317 17.0897L23.0863 17.1298L23.2404 17.124Z" fill="#505050"/>
<path d="M23.0692 16.7459C22.7153 16.9636 23.189 16.8548 23.0692 16.9808L22.9893 17.0324L23.2975 16.9235C23.2347 16.8662 22.995 16.8548 23.0692 16.7459Z" fill="#505050"/>
<path d="M23.7655 16.1558C23.6285 16.236 23.6228 16.1558 23.7655 16.2246L23.7997 16.1959C23.7912 16.1925 23.7837 16.1871 23.7777 16.1801C23.7718 16.1731 23.7676 16.1648 23.7655 16.1558Z" fill="#505050"/>
<path d="M23.7769 16.1959C23.8055 16.236 23.8796 16.11 23.7769 16.1959V16.1959Z" fill="#505050"/>
<path d="M23.6 16.0413H23.7541C23.834 15.9897 23.8226 15.9324 23.8968 15.921C23.7997 15.898 23.7198 15.9553 23.6 16.0413Z" fill="#505050"/>
<path d="M23.3089 16.1386H23.4002C23.4002 16.1386 23.4002 16.1043 23.3089 16.1386Z" fill="#505050"/>
<path d="M23.5201 16.1387H23.4002C23.3431 16.1788 23.229 16.2361 23.4516 16.1387C23.3203 16.196 23.4287 16.1559 23.5201 16.1387Z" fill="#505050"/>
<path d="M23.4801 16.2017C23.4544 16.2442 23.4184 16.2796 23.3756 16.3046C23.3327 16.3297 23.2843 16.3435 23.2347 16.3449C23.3317 16.4194 23.5828 16.2761 23.4801 16.2017Z" fill="#505050"/>
<path d="M22.6811 16.9121L22.5898 17.0037L22.7268 16.9751C22.6583 16.9923 22.7952 16.8548 22.6811 16.9121Z" fill="#505050"/>
<path d="M23.6114 15.6288C23.5372 15.6689 23.4173 15.7548 23.3203 15.8121H23.4288C23.4773 15.7397 23.5393 15.6775 23.6114 15.6288Z" fill="#505050"/>
<path d="M23.3203 15.8121H23.1605C23.1719 15.8808 23.2404 15.8579 23.3203 15.8121Z" fill="#505050"/>
<path d="M22.9037 16.3392L23.229 16.2876L22.8865 16.322L22.9037 16.3392Z" fill="#505050"/>
<path d="M23.5029 15.3996L23.697 15.3366L23.4002 15.4283L23.5029 15.3996Z" fill="#505050"/>
<path d="M23.4002 15.2736C23.56 15.2163 23.6285 15.1017 23.7312 15.0788C23.623 15.065 23.5131 15.0788 23.4116 15.1189C23.4858 15.1131 23.4915 15.159 23.4002 15.2736Z" fill="#505050"/>
<path d="M23.2176 15.159L23.4059 15.1189C23.3416 15.1233 23.2782 15.1368 23.2176 15.159Z" fill="#505050"/>
<path d="M23.1491 15.709C23.1891 15.6746 23.3089 15.6059 23.3432 15.5428L23.1377 15.6803L23.1491 15.709Z" fill="#505050"/>
<path d="M23.1491 15.7147C23.1491 15.7147 23.1206 15.7262 23.1491 15.7147V15.7147Z" fill="#505050"/>
<path d="M23.0178 16.0871C22.8499 16.0988 22.6909 16.1675 22.567 16.2819C22.7124 16.2062 22.8631 16.1411 23.0178 16.0871Z" fill="#505050"/>
<path d="M22.8923 15.8866V15.9725C22.9559 15.9291 23.025 15.8945 23.0977 15.8694L22.8923 15.8866Z" fill="#505050"/>
<path d="M22.8124 15.8923L22.8923 15.8865L22.9037 15.8522L22.8124 15.8923Z" fill="#505050"/>
<path d="M23.0749 15.3767C22.9664 15.3767 22.9436 15.3767 22.9094 15.3767C22.8996 15.3983 22.8945 15.4217 22.8945 15.4455C22.8945 15.4692 22.8996 15.4926 22.9094 15.5142C22.9721 15.4684 23.1034 15.4054 23.0749 15.3767Z" fill="#505050"/>
<path d="M23.0806 15.5371C23.0806 15.5371 23.0463 15.56 23.0806 15.5371V15.5371Z" fill="#505050"/>
<path d="M22.7324 15.0387L22.6982 15.0673H22.7324V15.0387Z" fill="#505050"/>
<path d="M22.8694 15.5199C22.8694 15.5715 22.8694 15.5543 22.9721 15.5199C22.9585 15.5188 22.9452 15.5146 22.9333 15.5077C22.9215 15.5008 22.9113 15.4912 22.9037 15.4798C22.8694 15.5084 22.8295 15.5199 22.8694 15.5199Z" fill="#505050"/>
<path d="M23.0692 15.1246C23.0353 15.1599 23.0047 15.1983 22.9778 15.2392C23.0406 15.1876 23.1262 15.096 23.0692 15.1246Z" fill="#505050"/>
<path d="M23.1205 15.497C23.1776 15.4684 23.1548 15.4684 23.1205 15.497V15.497Z" fill="#505050"/>
<path d="M23.1206 15.497L22.9722 15.5314C23.0039 15.5405 23.0375 15.5405 23.0692 15.5314L23.1206 15.497Z" fill="#505050"/>
<path d="M21.3284 15.7433C21.5225 15.6345 21.7451 15.5886 21.5681 15.7433C21.9776 15.5617 22.3614 15.3267 22.7096 15.0444C22.6146 15.1033 22.507 15.1387 22.3957 15.1475C22.2987 15.2334 22.2188 15.4225 22.0133 15.4798C21.8078 15.5371 22.0476 15.3767 22.1275 15.2793C21.9049 15.4511 21.7165 15.3938 21.3741 15.623H21.5339C21.4711 15.6688 21.3684 15.6975 21.3284 15.7433Z" fill="#505050"/>
<path d="M22.7438 15.1876H22.7838C22.8417 15.0971 22.9151 15.0176 23.0007 14.9528C22.9058 14.9602 22.814 14.9897 22.7324 15.0387L22.7781 15.1705L22.7438 15.1876Z" fill="#505050"/>
<path d="M22.8295 15.3079C22.627 15.3662 22.4345 15.455 22.2587 15.5715C22.3101 15.6345 22.4642 15.5199 22.5783 15.5085C22.4642 15.4225 22.7153 15.4741 22.7952 15.3194C22.827 15.3201 22.8574 15.3323 22.8808 15.3538C22.9007 15.3139 22.9236 15.2756 22.9493 15.2392L22.8637 15.2793C22.8637 15.2163 22.9151 15.2392 22.9493 15.2392L22.7667 15.1934C22.7667 15.2392 22.7895 15.2678 22.8295 15.3079Z" fill="#505050"/>
<path d="M22.0647 16.4709C22.0804 16.4575 22.0977 16.446 22.1161 16.4365C22.0818 16.448 22.0647 16.4537 22.0647 16.4709Z" fill="#505050"/>
<path d="M22.1731 16.3563C22.2073 16.3563 22.2987 16.3048 22.2872 16.3563C22.2758 16.4079 22.1845 16.4136 22.116 16.448C22.1664 16.4451 22.2157 16.4319 22.2608 16.4093C22.306 16.3866 22.346 16.355 22.3786 16.3162H22.3443C22.4358 16.1997 22.5457 16.0991 22.6696 16.0183C22.4813 16.1386 22.35 16.2246 22.1731 16.3563Z" fill="#505050"/>
<path d="M22.4585 15.8637L22.2987 15.8293L22.1389 15.9782L22.253 15.9152C22.2587 15.9897 22.3671 15.9038 22.4585 15.8637Z" fill="#505050"/>
<path d="M22.8295 14.9699L23.0635 14.8496L22.7153 14.9814L22.8295 14.9699Z" fill="#505050"/>
<path d="M22.7324 14.861L22.9265 14.7522L22.7895 14.7866L22.7324 14.861Z" fill="#505050"/>
<path d="M15.8722 11.0799L15.9464 10.9997C15.9007 11.0398 15.8665 11.0742 15.8722 11.0799Z" fill="#505050"/>
<path d="M20.6949 11.9966C20.8262 11.8247 21.043 11.5726 20.849 11.7388L20.6721 11.9107C20.7234 11.9107 20.7234 11.945 20.6949 11.9966Z" fill="#505050"/>
<path d="M18.0353 11.2805L17.9954 11.3435L18.178 11.1945L18.0353 11.2805Z" fill="#505050"/>
<path d="M17.299 11.9908L17.3675 11.8361C17.3399 11.8854 17.317 11.9372 17.299 11.9908Z" fill="#505050"/>
<path d="M14.6794 10.4669L14.5024 10.6502C14.5424 10.6789 14.5995 10.5643 14.6794 10.4669Z" fill="#505050"/>
<path d="M21.8706 13.6694C21.9277 13.5835 21.9391 13.5319 21.9334 13.5033C21.8421 13.6236 21.688 13.7783 21.8706 13.6694Z" fill="#505050"/>
<path d="M17.4531 8.95447C17.4074 8.97921 17.3683 9.01456 17.339 9.05759C17.3848 9.03304 17.424 8.99764 17.4531 8.95447Z" fill="#505050"/>
<path d="M21.8649 13.4059L21.8307 13.4574C21.8821 13.4574 21.9277 13.4574 21.9334 13.5033C22.0019 13.4116 22.0304 13.3371 21.8649 13.4059Z" fill="#505050"/>
<path d="M11.3063 8.2555V8.22113C11.2949 8.2555 11.2949 8.2555 11.3063 8.2555Z" fill="#505050"/>
<path d="M11.1066 5.45403C11.1252 5.44862 11.145 5.44862 11.1636 5.45403C11.1636 5.45403 11.1408 5.43112 11.1066 5.45403Z" fill="#505050"/>
<path d="M21.7679 14.9528L21.6595 15.0043L21.7679 14.9528Z" fill="#505050"/>
<path d="M22.4528 14.4085C22.4715 14.387 22.4852 14.3615 22.4927 14.334L22.4528 14.4085Z" fill="#505050"/>
<path d="M22.5498 14.3226V14.3569C22.5783 14.3569 22.6012 14.3226 22.5498 14.3226Z" fill="#505050"/>
<path d="M22.4927 14.2767C22.4984 14.2852 22.5014 14.2952 22.5014 14.3054C22.5014 14.3156 22.4984 14.3255 22.4927 14.334L22.527 14.3054C22.5129 14.2996 22.501 14.2896 22.4927 14.2767Z" fill="#505050"/>
<path d="M13.5664 8.68518C13.4979 8.73674 13.515 8.73101 13.5664 8.68518V8.68518Z" fill="#505050"/>
<path d="M18.2579 13.1031L18.2696 13.0971L18.2755 13.0851L18.2579 13.1031Z" fill="#505050"/>
<path d="M18.0581 13.1767C18.3149 12.9991 18.3035 13.045 18.275 13.108L18.7886 12.6096L18.0581 13.1767Z" fill="#505050"/>
<path d="M15.29 10.6846L15.2101 10.9081C14.919 11.1429 14.9533 11.0112 14.8106 11.2976C15.2957 10.6903 15.056 11.395 15.5469 10.7877L15.4784 10.9424C15.4784 10.9424 15.4441 10.9424 15.4384 10.9424C15.2729 11.2862 15.8379 10.5414 15.855 10.7018C15.8414 10.7934 15.7922 10.8758 15.7181 10.931L15.9064 10.8336C15.9064 10.8622 15.8265 10.9653 15.8208 10.9367L15.9635 10.9711C16.0548 10.8909 16.2089 10.7706 16.2774 10.7247C16.2317 10.8278 16.2089 10.7763 16.1575 10.8565L16.3345 10.7591C16.226 10.931 16.0548 11.0398 16.032 10.9883C15.5868 11.6242 16.2089 10.8737 16.032 11.3205L15.9178 11.3492C15.661 11.7158 15.8037 11.6299 15.6838 11.8877C15.7637 11.7674 16.0206 11.2575 16.2032 11.1659C16.2032 11.2231 16.2032 11.2633 16.3231 11.1659C16.1404 11.3778 16.2146 11.3549 16.266 11.3778L15.9806 11.6872C16.1116 11.6021 16.234 11.5042 16.3459 11.395C16.3459 11.4695 16.1918 11.6872 16.0434 11.8763C16.0776 11.9851 16.2945 11.4924 16.4258 11.5153C16.4258 11.6757 16.5399 11.607 16.7625 11.5153C16.7226 11.6471 16.6027 11.6757 16.5513 11.7674L16.7854 11.5841C16.7854 11.5841 16.7283 11.6643 16.694 11.6929C16.8025 11.6414 16.9452 11.4294 17.065 11.4007C17.3561 11.12 16.7682 11.9278 17.1392 11.6586C17.0603 11.7508 16.9764 11.8388 16.8881 11.9221C17.0882 11.8385 17.2794 11.7349 17.4588 11.6127L17.3504 11.8419C17.5239 11.5998 17.7529 11.4033 18.0181 11.269L18.1951 11.0112L18.4119 10.9539C18.3383 11.0407 18.2539 11.1177 18.1608 11.183L18.2407 11.1315C18.1347 11.2848 18.0012 11.4169 17.8469 11.5211L17.9782 11.332C17.7942 11.4676 17.6223 11.619 17.4645 11.7846C17.4924 11.7612 17.5258 11.7454 17.5616 11.7388C17.52 11.769 17.4817 11.8036 17.4474 11.8419C17.4474 11.8419 17.4874 11.8419 17.5673 11.7674L17.299 12.0768L17.4132 11.9622L17.339 12.2429C17.6681 11.9891 18.039 11.7952 18.4348 11.67C18.216 11.844 18.0118 12.0356 17.8241 12.2429C18.0638 11.945 17.6186 12.2429 17.6129 12.1512C17.6129 12.2085 17.4874 12.3231 17.4417 12.3518L17.7898 12.22C17.5787 12.4205 17.6586 12.3976 17.5958 12.5064C17.9896 12.0882 17.9439 12.3231 18.1152 12.2486C17.9782 12.3861 17.8241 12.5064 17.807 12.4205C17.5501 12.7814 18.3777 12.0367 18.1608 12.3518C18.1608 12.3518 18.1608 12.3117 18.0809 12.3518C18.235 12.2658 18.2065 12.4377 18.0809 12.5294C18.1152 12.6669 18.3263 12.8044 18.703 12.495L18.1779 12.9361L19.5363 12.0309C19.1403 12.4188 18.7148 12.7751 18.2636 13.0965C18.2636 13.1538 18.2122 13.2283 18.3606 13.1767C18.5006 13.0135 18.6575 12.8657 18.8286 12.7356C18.6854 12.904 18.5538 13.082 18.4348 13.2684C18.4804 13.1882 19.0055 12.7814 19.0055 12.833C18.9313 12.8903 18.5204 13.2569 18.4348 13.2913L19.0055 12.9648C18.7966 13.1036 18.605 13.2671 18.4348 13.4517C18.5204 13.3601 18.4919 13.5319 18.5546 13.5148L18.6402 13.383C18.6402 13.5434 19.4164 12.9018 19.4792 13.0278C19.2295 13.1891 19.0013 13.3816 18.8001 13.6007C19.3026 13.2367 19.8354 12.9166 20.3924 12.6439L20.2611 12.7814L20.4894 12.7184C20.0614 12.982 19.1482 13.509 18.7772 13.7038C18.6916 13.8356 18.6117 13.8528 18.6688 13.8986C18.6401 13.9388 18.6025 13.9717 18.5589 13.9945C18.5153 14.0174 18.4669 14.0297 18.4177 14.0304V14.2252C18.7144 13.9788 18.8001 14.0819 19.0455 13.8814L18.6174 13.9903C18.9085 13.7439 19.542 13.383 19.5591 13.5319C19.3506 13.7034 19.1334 13.864 18.9085 14.0132C19.0226 13.9444 19.1767 13.9502 19.1082 14.0132L18.9199 14.0991C18.84 14.2366 19.3822 13.87 19.1425 14.1621C19.1425 14.1965 18.8 14.5288 18.9827 14.3913C19.5168 13.9266 20.075 13.4906 20.6549 13.0851C20.5382 13.2734 20.4085 13.4534 20.2668 13.6236C20.0157 13.8642 19.5648 14.059 19.3537 14.2653C19.4293 14.2107 19.5118 14.1663 19.5991 14.1335C19.542 14.208 19.3308 14.3168 19.405 14.3397C19.7246 14.1163 19.4564 14.46 19.6904 14.1679C19.816 14.1679 19.6904 14.271 19.7246 14.3168C19.9839 14.1146 20.2753 13.9578 20.5865 13.8528C20.5073 13.9075 20.4328 13.9688 20.3639 14.0361C20.4152 14.1621 20.3068 14.3283 20.3639 14.4314C20.2844 14.5317 20.1877 14.6171 20.0785 14.6835C20.147 14.6548 20.2611 14.5975 20.2897 14.6205C20.0557 14.8725 20.2041 14.5804 19.9016 14.8553C20.0419 14.7774 20.198 14.7323 20.3582 14.7236C20.6378 14.5116 20.3582 14.5861 20.1984 14.6205C20.5345 14.3666 20.9256 14.1958 21.3398 14.122C21.4996 14.122 21.1058 14.334 21.1743 14.3111C21.2143 14.5231 21.9676 13.9903 21.7736 14.3111C21.5566 14.4863 21.3256 14.6435 21.083 14.7809C20.9403 14.7809 21.1743 14.5632 21.1344 14.5231L21.0488 14.6606C20.9517 14.6949 20.8547 14.6892 20.9118 14.6147C20.712 14.8152 21.0545 14.9184 20.9118 15.1876C21.0215 15.1649 21.1249 15.118 21.2143 15.0501H21.1572C21.3398 14.884 21.4939 14.947 21.5567 14.8324C21.7393 14.7923 22.0076 14.7121 21.9391 14.8668L21.648 15.0673C21.7336 15.01 21.7964 14.9069 21.6937 14.9413C21.8421 14.8897 21.3627 15.3079 21.7736 15.1074L21.9448 14.9241C22.1332 14.8897 22.5155 14.7637 22.4414 14.8954C22.7153 14.6835 22.3957 14.8954 22.7153 14.6376C22.3101 14.947 22.6183 14.4429 22.2131 14.7866C22.5783 14.4887 22.3272 14.5918 22.624 14.3111C22.527 14.3741 22.4528 14.4543 22.4642 14.3626L22.3672 14.4028C22.3276 14.449 22.2836 14.4912 22.2359 14.5288C21.9905 14.6376 21.9448 14.5288 21.8078 14.5804C21.8078 14.5173 21.9277 14.5231 22.019 14.4371L21.8192 14.5001C22.0304 14.3569 22.116 14.1793 22.2987 14.1793L22.2587 14.0991C22.35 13.9788 22.3557 13.8871 22.2587 13.9043C22.2587 13.8413 21.9619 13.9731 22.1503 13.9043L21.9391 13.8757L21.9905 13.8413C21.9391 13.7038 21.4825 13.8413 21.7736 13.4517C21.6937 13.4517 21.6024 13.4517 21.6195 13.3486L21.7907 13.2054C21.6994 13.2054 21.8649 12.9304 21.6651 13.045C22.1046 12.6439 21.591 12.7299 21.6138 12.5867L21.3798 12.7585C21.3512 12.6898 21.2428 12.684 21.0944 12.6783L20.8947 12.8387C20.6835 12.9075 20.8947 12.5752 20.8262 12.4893C20.9118 12.4377 20.9061 12.4893 20.8775 12.5294C21.2428 12.0539 20.3525 12.558 20.5979 12.1914C20.5066 12.2257 20.518 12.1914 20.5522 12.1283L20.6321 12.008C20.6005 12.0425 20.5737 12.081 20.5522 12.1226C20.5061 12.106 20.4556 12.106 20.4095 12.1226L20.6093 11.9335C20.6607 11.8362 20.4894 11.9908 20.341 12.1398L20.1812 12.2085C20.5066 11.8992 20.0043 12.2085 20.341 11.8934C20.1527 12.0252 20.0899 11.8591 19.7075 12.1627C19.7589 12.1226 19.7703 12.094 19.7874 12.1054C19.8045 12.1169 19.8217 11.9679 19.6904 12.0309L19.9472 11.7903L19.5306 12.0309C19.6369 11.8544 19.7887 11.7099 19.9701 11.6127C19.5705 11.7903 19.7817 11.6127 19.3993 11.8304L19.5763 11.6815C19.542 11.6815 19.2738 11.8132 19.3936 11.6815C19.6504 11.3263 19.1425 11.3205 19.2738 10.8737C18.8286 11.3721 19.4164 10.5872 19.0398 10.9424C19.1425 10.8221 19.1824 10.7362 19.308 10.6674C19.114 10.6961 19.3594 10.3638 18.9884 10.6159C19.0911 10.4956 19.171 10.4726 19.2281 10.3982C19.1996 10.3982 19.1082 10.4669 19.1653 10.3982C19.2106 10.3459 19.2672 10.3047 19.3308 10.2779C19.2224 10.2148 18.8742 10.5471 18.5489 10.8508C18.6574 10.656 18.6117 10.656 18.372 10.8508C18.4633 10.7305 18.5489 10.593 18.6345 10.6044C18.6345 10.5586 18.606 10.2664 18.3492 10.5299C18.4062 10.4555 18.3492 10.4669 18.2921 10.4898C18.2407 10.4096 18.2579 10.381 18.1665 10.3409V10.4039C17.8412 10.7018 18.0467 10.4039 17.9554 10.4039L17.9896 10.3695C18.0752 10.0258 17.8298 10.4325 17.9497 10.0544L17.7727 10.2664C17.3675 10.6903 17.8983 9.9112 17.6757 10.0143L17.5958 10.1518C17.4246 10.2721 18.0181 9.45288 18.0238 9.36122C18.0296 9.26955 18.0923 9.30966 18.1323 9.29247C18.2521 8.93727 17.8812 9.55027 17.7499 9.54455C17.8583 9.38413 18.0866 9.18935 18.0581 9.11487C18.1323 8.97164 17.4874 9.45288 17.6643 9.11487C17.6011 9.23998 17.5067 9.34655 17.3903 9.42424C17.299 9.42424 17.5958 8.85134 17.2419 9.18362C17.2601 9.14808 17.2831 9.11529 17.3104 9.08622C17.1408 9.11951 16.982 9.19428 16.8481 9.30393C17.4189 8.52478 16.2774 9.44142 16.8481 8.73103L16.6826 8.65655L16.7454 8.5878C16.6883 8.47322 16.5285 8.5878 16.3744 8.75967C16.3956 8.69281 16.4376 8.63455 16.4943 8.59353C16.4943 8.35291 16.4258 8.37583 16.0605 8.64509L16.2146 8.4102C16.0948 8.51905 16.2831 7.90605 15.9635 8.08365C15.987 8.04707 16.0159 8.01424 16.0491 7.98625C15.7181 8.15239 16.1347 7.0868 15.4784 7.90605L15.2387 8.055C15.3186 8.20396 14.9704 8.41593 14.9305 8.5878C14.8448 8.5878 14.9704 8.24979 15.0617 8.24406V8.28989C15.3813 7.86022 15.0104 8.03209 15.2101 7.71699C14.9476 7.57949 14.8563 7.14409 14.6394 6.99513L14.4567 7.37325L14.3825 7.3045C14.3825 7.20711 14.5195 7.00086 14.5709 7.05242C14.6622 6.82899 14.3654 7.167 14.3198 7.24148C14.2855 7.02951 14.6108 6.85191 14.5823 6.81753H14.4967V6.86337C14.3711 6.9894 14.2741 7.14409 14.2113 7.0868C14.1485 7.02951 14.3198 6.84618 14.3084 6.82326C14.2969 6.80035 14.3084 6.77743 14.3084 6.82326L14.217 6.72587L14.0972 7.04097C13.9716 7.15555 14.0059 6.96649 13.8689 7.32169C14.0801 6.74879 13.5721 6.91493 13.6063 6.74879C13.4237 6.92639 13.3609 6.88628 13.2924 6.81753C13.2924 6.88628 13.1212 7.22429 13.0699 7.14982C13.4465 6.47952 13.0699 6.78316 13.281 6.26182C13.1726 6.61702 13.0356 6.23317 12.8872 6.74306C12.853 6.65712 13.0128 6.48525 13.047 6.29619C12.7731 6.48525 12.8073 5.96964 12.579 5.97537C12.5343 6.10327 12.4729 6.22464 12.3964 6.3363L12.5105 5.83214C12.4535 5.83214 12.2366 6.34775 12.3108 5.99828C12.3108 6.07849 12.248 6.20453 12.2137 6.22172C12.0482 5.60298 11.3348 6.27901 11.2949 5.27643C11.2949 5.47694 11.2378 5.48267 11.1978 5.47694C11.1617 5.60068 11.1159 5.72136 11.0609 5.83787V5.41965C10.9011 5.76339 10.8839 5.37955 10.7412 5.71183L10.8154 5.67173C10.6043 6.04985 10.5757 6.59983 10.376 7.10971C10.6157 6.68004 10.2961 7.85449 10.6556 7.24721C10.6556 7.36179 10.57 7.40189 10.5358 7.52793C10.6499 7.31596 10.7013 7.28731 10.7298 7.40762L10.7013 7.45918C10.8953 7.45918 10.8839 7.71699 11.0152 7.94042L11.1065 7.68262C11.1262 7.74995 11.1262 7.82153 11.1065 7.88886C11.3177 7.53366 11.0038 7.81438 11.2207 7.41908C11.0609 7.95188 11.5117 7.55658 11.2949 8.14667C11.3576 8.18104 11.4033 7.85449 11.4661 7.88313L11.3576 8.02063L11.4604 7.82584C11.4605 7.96174 11.4272 8.09556 11.3634 8.21541C11.3634 8.21541 11.3177 8.21541 11.3063 8.24406C11.272 8.4503 11.4832 8.24406 11.4718 8.31854V8.1925C11.7115 8.12948 11.8256 8.42166 12.1338 8.1925L12.1795 8.07219C12.4135 7.92323 12.2195 8.24979 12.4021 8.22114C12.4877 8.12375 12.5562 8.08365 12.5847 8.11802C12.482 8.2326 12.5162 8.4102 12.3964 8.53624C12.6475 8.37583 12.5505 8.39301 12.8644 8.02063L12.7845 8.21541C12.9043 8.06073 12.9557 7.9748 13.0527 7.96334C12.91 8.0951 12.9443 8.2727 12.7674 8.4503C12.6875 8.92581 13.2011 8.15239 12.9386 8.78259C13.2867 8.30708 12.9728 8.42739 13.0699 8.34145C13.1326 8.1524 13.3381 7.98625 13.3552 8.06646C13.3723 8.14667 13.0641 8.7654 13.1783 8.82269C13.1783 8.82269 13.1498 8.82269 13.1383 8.82269C13.1041 8.97737 13.321 8.69665 13.2525 8.93727C13.458 8.64509 13.3096 8.99456 13.5436 8.60499L13.3895 8.63936C13.5036 8.57061 13.8289 8.14667 13.8004 8.42166C13.7397 8.49589 13.6728 8.56488 13.6006 8.6279C13.5607 8.75967 13.6977 8.5878 13.6577 8.71957C13.418 9.10341 13.4808 8.71957 13.2468 8.99456C13.1783 9.17789 13.5264 8.78259 13.2468 9.18362C13.6121 8.67374 13.3153 9.31539 13.6349 8.94873L13.4922 9.17789C13.5264 9.14924 13.6178 9.05758 13.6349 9.07477L13.4123 9.34976C13.6292 9.13206 13.4123 9.64194 13.5322 9.53882C13.4123 9.47007 13.6805 9.24664 13.7319 9.04612C14.0686 8.82842 13.4408 9.70496 13.6691 9.69923C13.6292 9.69923 13.6691 9.50444 13.7776 9.41851C13.7737 9.52741 13.7485 9.63447 13.7034 9.7336C13.8403 9.7336 13.8403 9.48726 13.9716 9.37841C13.8346 9.68204 14.0972 9.2982 14.2056 9.24091L14.0572 9.4758C14.0572 9.70496 14.4054 9.01175 14.3997 9.26955L14.1428 9.556L14.2513 9.51017L14.0686 9.76798C14.257 9.61329 14.2456 9.67631 14.257 9.76798C14.354 9.59611 14.5481 9.35549 14.6051 9.38413C14.5538 9.54455 14.4396 9.59038 14.5366 9.60757C14.4225 9.73933 14.2798 9.90547 14.394 9.67058L14.2227 9.87683C14.16 10.0602 14.2969 9.97422 14.3312 9.99141C14.3256 9.97979 14.3227 9.96706 14.3227 9.95417C14.3227 9.94128 14.3256 9.92855 14.3312 9.91693L14.6565 9.68204C14.617 9.76375 14.5606 9.83603 14.491 9.89402C14.5309 9.89402 14.6166 9.79089 14.6622 9.79662C14.5678 9.99392 14.4337 10.1695 14.2684 10.3122L14.5138 10.1805C14.4692 10.2907 14.4137 10.3963 14.3483 10.4956C14.3483 10.6445 14.7421 10.2435 14.7136 10.4383C14.7404 10.407 14.7735 10.3816 14.8106 10.3638C14.8506 10.4555 14.7478 10.7247 15.0161 10.5357L14.8391 10.8851C14.959 10.8851 15.0788 10.4383 15.2786 10.3924C15.4784 10.3466 15.1017 10.6903 15.0617 10.7992C15.2215 10.6674 15.5354 10.3924 15.4042 10.7075C15.3128 10.7419 15.33 10.6789 15.29 10.6846ZM16.1804 11.1888C16.129 11.1888 15.9863 11.3263 16.0833 11.1888C16.3002 10.9711 16.2203 11.0971 16.1804 11.1888ZM17.7727 11.7617C17.6985 11.8132 17.7157 11.7617 17.7727 11.67C17.8013 11.6757 17.807 11.6987 17.7727 11.7674V11.7617ZM22.156 14.1392C22.2073 14.0533 22.1788 14.0934 22.156 14.1449V14.1392ZM22.116 14.2939C22.1516 14.2784 22.1844 14.2571 22.2131 14.2309C22.1503 14.2653 22.1332 14.2309 22.1332 14.2309C22.1332 14.2309 22.0418 14.3225 22.116 14.3225V14.2939ZM14.2342 6.92639V7.00086C14.1371 7.04669 14.1828 6.9894 14.2342 6.92639Z" fill="#505050"/>
<path d="M17.3846 11.9106C17.4132 11.8705 17.4474 11.8361 17.4817 11.796C17.4393 11.8244 17.4058 11.8641 17.3846 11.9106Z" fill="#505050"/>
<path d="M14.7079 10.4325V10.4268L14.6736 10.4669L14.7079 10.4325Z" fill="#505050"/>
<path d="M19.3423 14.4027C19.3673 14.3605 19.3981 14.322 19.4336 14.2881C19.405 14.3225 19.3365 14.3684 19.3423 14.4027Z" fill="#505050"/>
<path d="M22.7952 14.5116H22.6982C22.6982 14.5116 22.6982 14.5746 22.6525 14.609C22.7096 14.5574 22.7781 14.5002 22.7952 14.5116Z" fill="#505050"/>
<path d="M21.6138 15.8637C21.648 15.8637 21.6138 15.8637 21.6594 15.8637L21.7736 15.7949C21.7736 15.7949 21.6423 15.8007 21.6138 15.8637Z" fill="#505050"/>
<path d="M22.0418 15.0444C21.8478 15.1647 21.9334 15.159 21.9962 15.1762C22.2587 15.0158 22.1617 15.0272 22.0418 15.0444Z" fill="#505050"/>
<path d="M22.0076 15.1819C22.0076 15.1819 22.0076 15.1819 22.0076 15.2105C22.1503 15.1532 22.0476 15.1876 22.0076 15.1819Z" fill="#505050"/>
<path d="M22.3101 14.3226C22.2758 14.3741 22.5726 14.1736 22.4984 14.2366C22.761 14.0991 22.1217 14.3226 22.3101 14.3226Z" fill="#505050"/>
<path d="M21.4083 15.4683L21.6423 15.3079L21.4369 15.4053L21.4083 15.4683Z" fill="#505050"/>
<path d="M21.4083 15.0616V15.1647C21.4355 15.1459 21.4668 15.1341 21.4996 15.1304C21.4597 15.0903 21.4825 15.0158 21.4083 15.0616Z" fill="#505050"/>
<path d="M21.4711 15.1304C21.4711 15.1304 21.4711 15.1705 21.5396 15.1304C21.5289 15.1253 21.5172 15.1226 21.5054 15.1226C21.4935 15.1226 21.4818 15.1253 21.4711 15.1304Z" fill="#505050"/>
<path d="M21.2885 15.434L21.3284 15.3824L21.317 15.3309L21.2885 15.434Z" fill="#505050"/>
<path d="M21.0488 14.4028H20.9346C20.849 14.4543 20.8148 14.5059 20.8604 14.5059C20.931 14.4884 20.9959 14.4528 21.0488 14.4028Z" fill="#505050"/>
<path d="M20.5465 15.0272C20.5948 14.9742 20.6484 14.9262 20.7063 14.884L20.4095 15.0788L20.5465 15.0272Z" fill="#505050"/>
<path d="M20.3353 14.8954C20.2497 14.947 20.0386 14.9699 20.1128 15.0329C20.1927 14.9871 20.3011 14.9986 20.3353 14.8954Z" fill="#505050"/>
<path d="M20.05 13.7267L20.0671 13.7382L20.5294 13.3887L20.05 13.7267Z" fill="#505050"/>
<path d="M18.3663 13.8413C18.3149 13.9903 18.6574 13.6236 18.5718 13.7955C18.6859 13.721 18.6403 13.658 18.743 13.595C18.6003 13.6465 18.646 13.5778 18.3663 13.8413Z" fill="#505050"/>
<path d="M18.743 13.595L18.8286 13.5606L18.743 13.595Z" fill="#505050"/>
<path d="M11.0038 5.08165L10.9924 4.94415L10.9581 5.14467L11.0038 5.08165Z" fill="#505050"/>
<path d="M10.747 5.44828L10.8611 5.09308L10.7127 5.39672C10.7127 5.39672 10.7698 5.36234 10.747 5.44828Z" fill="#505050"/>
<path d="M15.8037 11.8533L15.8665 11.7846C15.9236 11.7101 15.9179 11.6929 15.9122 11.67L15.8037 11.8533Z" fill="#505050"/>
<path d="M15.4384 11.183L15.4441 11.1945L15.6382 10.9195L15.4384 11.183Z" fill="#505050"/>
<path d="M14.7136 11.1429C14.7136 11.1716 14.7878 11.1429 14.7992 11.1429C14.8106 11.1429 14.959 10.8106 14.7136 11.1429Z" fill="#505050"/>
<path d="M32.7546 12.6325C32.7546 12.6611 32.96 12.558 33 12.5466C32.9143 12.5625 32.8315 12.5915 32.7546 12.6325Z" fill="#505050"/>
<path d="M32.121 12.5408L32.2124 12.5065L31.9727 12.558L32.121 12.5408Z" fill="#505050"/>
<path d="M32.0012 12.2487C31.6416 12.4377 32.1096 12.3289 32.0012 12.4377L31.9213 12.4835L32.2352 12.3747C32.1496 12.3346 31.9156 12.3403 32.0012 12.2487Z" fill="#505050"/>
<path d="M32.7489 11.7502C32.6062 11.819 32.6062 11.7502 32.7146 11.8018H32.7489C32.7437 11.7942 32.741 11.7852 32.741 11.776C32.741 11.7668 32.7437 11.7578 32.7489 11.7502Z" fill="#505050"/>
<path d="M32.7489 11.7789C32.7489 11.8075 32.863 11.7101 32.7489 11.7789V11.7789Z" fill="#505050"/>
<path d="M32.6062 11.6757H32.7546C32.8345 11.6299 32.8402 11.5898 32.9087 11.5726C32.8231 11.544 32.7375 11.5898 32.6062 11.6757Z" fill="#505050"/>
<path d="M32.3208 11.7559H32.3836C32.4178 11.733 32.4292 11.7216 32.3208 11.7559Z" fill="#505050"/>
<path d="M32.532 11.7445H32.4007C32.3436 11.7789 32.2181 11.8304 32.4521 11.7445C32.3208 11.8018 32.4292 11.7617 32.532 11.7445Z" fill="#505050"/>
<path d="M32.4692 11.796C32.4027 11.8693 32.3109 11.9144 32.2124 11.9221C32.298 11.9736 32.532 11.8476 32.4692 11.796Z" fill="#505050"/>
<path d="M31.6074 12.4033L31.5104 12.4778L31.6474 12.4492C31.5789 12.4664 31.7273 12.3518 31.6074 12.4033Z" fill="#505050"/>
<path d="M32.6975 11.3434C32.6119 11.3721 32.4863 11.4466 32.3893 11.4924H32.492C32.5495 11.429 32.6195 11.3783 32.6975 11.3434Z" fill="#505050"/>
<path d="M32.3893 11.4924H32.2295C32.2352 11.5555 32.298 11.5325 32.3893 11.4924Z" fill="#505050"/>
<path d="M31.8985 11.9278L32.2181 11.8763L31.8871 11.9164L31.8985 11.9278Z" fill="#505050"/>
<path d="M32.6347 11.1716L32.8288 11.1143L32.532 11.1888L32.6347 11.1716Z" fill="#505050"/>
<path d="M32.532 11.0742C32.6918 11.0227 32.7774 10.9367 32.8801 10.9138C32.774 10.9093 32.6679 10.9229 32.5662 10.9539C32.669 10.9482 32.6633 10.9826 32.532 11.0742Z" fill="#505050"/>
<path d="M32.4008 10.9882L32.5891 10.9539C32.5253 10.9584 32.4621 10.9699 32.4008 10.9882Z" fill="#505050"/>
<path d="M32.2409 11.418C32.3162 11.3824 32.3871 11.3382 32.4521 11.2862L32.2352 11.4008L32.2409 11.418Z" fill="#505050"/>
<path d="M32.2295 11.4008C32.2276 11.3855 32.2276 11.3701 32.2295 11.3549V11.4008Z" fill="#505050"/>
<path d="M32.241 11.4236C32.241 11.4236 32.2124 11.458 32.241 11.4236V11.4236Z" fill="#505050"/>
<path d="M32.0526 11.7216C31.8856 11.7349 31.7256 11.7944 31.5903 11.8934C31.7405 11.8262 31.8949 11.7688 32.0526 11.7216Z" fill="#505050"/>
<path d="M31.9612 11.5669V11.6356C32.0275 11.5977 32.0985 11.5688 32.1724 11.5497L31.9612 11.5669Z" fill="#505050"/>
<path d="M31.8871 11.5726L31.967 11.5612L31.9784 11.5383L31.8871 11.5726Z" fill="#505050"/>
<path d="M32.2295 11.1602C32.1211 11.1602 32.1039 11.1602 32.0754 11.1602C32.0469 11.1602 32.0297 11.2461 32.0469 11.269C32.064 11.2919 32.2466 11.1831 32.2295 11.1602Z" fill="#505050"/>
<path d="M32.2067 11.2862C32.2067 11.2862 32.1724 11.3034 32.2067 11.2862V11.2862Z" fill="#505050"/>
<path d="M32.0069 11.2747C31.9726 11.3148 32.0069 11.3034 32.1039 11.2747C32.1039 11.2747 32.0525 11.2747 32.0468 11.2403C32.0411 11.206 31.9898 11.2747 32.0069 11.2747Z" fill="#505050"/>
<path d="M32.2695 10.9653C32.23 10.9895 32.1936 11.0183 32.161 11.0513C32.2295 11.0112 32.3265 10.9424 32.2695 10.9653Z" fill="#505050"/>
<path d="M32.2523 11.2518C32.3094 11.2231 32.2866 11.2346 32.2523 11.2518V11.2518Z" fill="#505050"/>
<path d="M32.2523 11.2518L32.1039 11.2861C32.1341 11.292 32.1651 11.292 32.1953 11.2861L32.2523 11.2518Z" fill="#505050"/>
<path d="M30.5002 11.458C30.7114 11.3721 30.9282 11.3435 30.7228 11.458C31.1449 11.3098 31.5504 11.1178 31.9327 10.8851C31.8331 10.9288 31.7271 10.9559 31.6188 10.9653C31.4943 11.0786 31.3489 11.1661 31.1908 11.2231C31.0595 11.2231 31.2421 11.1372 31.3392 11.0627C31.0938 11.2002 30.9282 11.1487 30.5573 11.3263H30.7114C30.6356 11.3609 30.5646 11.4051 30.5002 11.458Z" fill="#505050"/>
<path d="M31.9612 11.0169C32.0371 10.9415 32.1237 10.8778 32.2181 10.8278C32.13 10.8336 32.0434 10.8529 31.9612 10.8851V10.9882V11.0169Z" fill="#505050"/>
<path d="M32.024 11.1086C31.8263 11.157 31.6348 11.2282 31.4533 11.3206C31.4933 11.3664 31.6588 11.2747 31.7729 11.269C31.6759 11.2002 31.9099 11.2403 32.0069 11.12C32.0326 11.1098 32.0612 11.1098 32.0868 11.12L32.1724 11.0284C32.1724 11.0284 32.1325 11.0284 32.1724 11.0284L32.0868 11.0627C32.1211 11.0169 32.1439 11.0341 32.1724 11.0284H32.2067L31.9613 11.0226C31.9613 11.057 31.9613 11.0742 32.024 11.1086Z" fill="#505050"/>
<path d="M31.0823 12.031L31.1337 12.0023L31.0823 12.031Z" fill="#505050"/>
<path d="M31.2022 11.9564C31.2364 11.9564 31.3277 11.9163 31.3163 11.9564C31.3049 11.9965 31.2079 12.0023 31.1337 12.0366C31.2351 12.0301 31.3316 11.9898 31.4076 11.9221H31.3734C31.4811 11.8234 31.6022 11.7405 31.7329 11.6757C31.5332 11.7731 31.3905 11.8476 31.2022 11.9564Z" fill="#505050"/>
<path d="M31.556 11.5554L31.3905 11.5268L31.2079 11.6471L31.3277 11.5955C31.322 11.6586 31.459 11.5898 31.556 11.5554Z" fill="#505050"/>
<path d="M32.0811 10.8393L32.3265 10.7476L31.967 10.845L32.0811 10.8393Z" fill="#505050"/>
<path d="M32.0126 10.7534L32.2181 10.6674L32.0868 10.6961L32.0126 10.7534Z" fill="#505050"/>
<path d="M27.1214 6.49097L27.2241 6.45087C27.1868 6.4543 27.1512 6.46819 27.1214 6.49097Z" fill="#505050"/>
<path d="M30.9568 8.35292C31.1394 8.23834 31.4248 8.0722 31.1908 8.17532L30.9682 8.28418C31.0196 8.2899 31.0024 8.31282 30.9568 8.35292Z" fill="#505050"/>
<path d="M28.8907 7.2873L28.8279 7.32168L29.0562 7.25293L28.8907 7.2873Z" fill="#505050"/>
<path d="M27.9661 7.66544L28.0917 7.56232C28.0463 7.59205 28.0042 7.62663 27.9661 7.66544Z" fill="#505050"/>
<path d="M26.4537 5.54572L26.2083 5.62019C26.2539 5.6603 26.3395 5.59155 26.4537 5.54572Z" fill="#505050"/>
<path d="M31.499 9.78515C31.545 9.75041 31.5821 9.70527 31.6074 9.65338C31.4876 9.73932 31.3049 9.8539 31.499 9.78515Z" fill="#505050"/>
<path d="M29.5128 5.34515C29.4615 5.35042 29.4114 5.36397 29.3644 5.38526C29.4164 5.3842 29.4673 5.37044 29.5128 5.34515Z" fill="#505050"/>
<path d="M31.5674 9.57321L31.5218 9.61331C31.5674 9.61331 31.6074 9.61331 31.6074 9.65341C31.693 9.59039 31.7387 9.5331 31.5674 9.57321Z" fill="#505050"/>
<path d="M27.1785 0.366653C27.1896 0.363134 27.2016 0.363134 27.2127 0.366653C27.2127 0.366653 27.2184 0.372382 27.1785 0.366653Z" fill="#505050"/>
<path d="M31.0823 10.8049L30.9682 10.845L31.0823 10.8049Z" fill="#505050"/>
<path d="M30.0673 9.97424C30.0203 9.99831 30.0321 9.99831 30.0673 9.97424V9.97424Z" fill="#505050"/>
<path d="M31.8528 10.3924C31.8733 10.3748 31.8924 10.3557 31.9099 10.3351L31.8528 10.3924Z" fill="#505050"/>
<path d="M31.9612 10.3409V10.3695C31.9612 10.3523 32.0069 10.3409 31.9612 10.3409Z" fill="#505050"/>
<path d="M31.9156 10.3123C31.9156 10.3123 31.9156 10.3409 31.9156 10.3581L31.9612 10.3123H31.9156Z" fill="#505050"/>
<path d="M26.6192 3.72961C26.5336 3.73534 26.5507 3.73534 26.6192 3.72961V3.72961Z" fill="#505050"/>
<path d="M28.1602 8.82268C28.4569 8.73675 28.4341 8.76539 28.3827 8.82268L29.0277 8.51904L28.1602 8.82268Z" fill="#505050"/>
<path d="M26.8246 5.96388L26.642 6.1071C26.2824 6.18731 26.3795 6.1071 26.1112 6.26179C26.8246 5.96388 26.271 6.43939 26.9844 6.13575L26.8532 6.23887H26.8132C26.4993 6.45085 27.3497 6.067 27.2869 6.19877C27.2281 6.26769 27.1475 6.31421 27.0586 6.33054H27.2641C27.2641 6.33054 27.1328 6.40501 27.1385 6.37637L27.2356 6.45657C27.3554 6.4222 27.5438 6.3821 27.6237 6.36491C27.5323 6.43366 27.5438 6.36491 27.4581 6.42793H27.6522C27.481 6.53105 27.2812 6.5597 27.2869 6.50813C26.602 6.86906 27.4867 6.47949 27.1214 6.77167H27.0073C26.6192 6.97791 26.7847 6.955 26.5564 7.12687C26.7975 6.95301 27.0629 6.81594 27.344 6.72011C27.2983 6.76021 27.2812 6.79459 27.441 6.76594C27.1842 6.87479 27.2641 6.88052 27.2926 6.9149L26.9559 7.05239C27.1092 7.03005 27.2601 6.99361 27.4068 6.94354C27.4068 7.00656 27.1385 7.12687 26.9217 7.22999C26.9217 7.33311 27.3155 7.00083 27.4182 7.06385C27.3212 7.18416 27.4753 7.1727 27.7093 7.16124C27.6122 7.25864 27.5038 7.24145 27.4125 7.29874L27.6979 7.22426C27.6979 7.22426 27.6122 7.27009 27.5723 7.28728C27.6864 7.28728 27.909 7.14406 28.0232 7.16124C28.3942 7.01802 27.5266 7.50498 27.9775 7.3904C27.8678 7.44219 27.7554 7.48809 27.6408 7.5279C27.8548 7.52256 28.0675 7.49179 28.2743 7.43624L28.0802 7.59665C28.335 7.45505 28.6136 7.36182 28.9021 7.32166L29.1646 7.16124H29.3815C29.2812 7.21193 29.1761 7.25224 29.0676 7.28155H29.1532C28.9949 7.37494 28.8238 7.44443 28.6453 7.4878L28.8393 7.36749C28.6282 7.43624 28.3942 7.51644 28.2001 7.60238C28.2342 7.5976 28.2688 7.5976 28.3028 7.60238L28.1602 7.65967C28.1259 7.65967 28.2058 7.65967 28.2971 7.65967L27.9319 7.83727L28.0802 7.77998L27.8919 7.98622C28.283 7.83914 28.6918 7.74474 29.1076 7.7055C28.841 7.79932 28.5799 7.90835 28.3257 8.03205C28.6567 7.84873 28.143 7.99768 28.183 7.90029C28.183 7.95185 28.0003 8.00914 27.9433 8.02632H28.3085C28.0403 8.14091 28.1202 8.14091 28.0232 8.21538C28.5368 7.96903 28.4056 8.15236 28.5939 8.12945C28.4227 8.20965 28.2343 8.27267 28.2515 8.1982C27.8862 8.43309 28.9078 8.01487 28.5939 8.1982C28.5939 8.1982 28.5939 8.16955 28.514 8.1982C28.6852 8.16382 28.5996 8.29559 28.4341 8.34715C28.4341 8.46173 28.5483 8.62787 29.0048 8.45027L28.3713 8.70235L29.9409 8.22111C29.4463 8.45751 28.9373 8.66225 28.417 8.83412C28.3713 8.87995 28.32 8.93724 28.4741 8.92578C28.6553 8.818 28.8464 8.72783 29.0448 8.65652C28.8468 8.76401 28.6561 8.88459 28.4741 9.01744C28.6873 8.90254 28.9161 8.81955 29.1532 8.7711C29.0619 8.80547 28.5825 9.0289 28.4969 9.04036L29.1247 8.87422C28.8959 8.95668 28.6745 9.05825 28.4626 9.17786C28.5768 9.12057 28.4626 9.25806 28.554 9.25806L28.6738 9.16067C28.6282 9.3039 29.547 8.90286 29.5585 9.01744C29.2733 9.11044 28.9996 9.23536 28.7423 9.38983C29.3206 9.17584 29.9115 8.9979 30.5116 8.85703L30.3461 8.9487H30.5687C30.095 9.10338 29.0905 9.39556 28.6909 9.49295C28.5711 9.59035 28.4912 9.59035 28.5311 9.64191C28.377 9.72784 28.2743 9.71639 28.2572 9.6992L28.2058 9.8768C28.554 9.72211 28.6053 9.82524 28.8964 9.69347H28.4684C28.8165 9.53306 29.5014 9.344 29.4843 9.46431C29.353 9.54452 28.845 9.71638 28.7309 9.76795C28.8565 9.72784 28.9991 9.76795 28.9192 9.80232L28.7138 9.84242C28.5996 9.95127 29.216 9.72784 28.9021 9.93409C28.9021 9.96273 28.4798 10.1919 28.6852 10.106C29.0733 9.89971 30.3175 9.35546 30.6314 9.2466C30.4632 9.38548 30.288 9.51551 30.1064 9.63618C29.8039 9.80805 29.3302 9.90544 29.0733 10.0544C29.1582 10.0197 29.2461 9.99289 29.3359 9.97419C29.2617 10.0315 29.0334 10.0945 29.0962 10.1231C29.4614 9.97419 29.0962 10.232 29.4101 10.0143C29.5356 10.0143 29.3587 10.0945 29.4101 10.1461C29.707 10.0119 30.0196 9.91566 30.3404 9.85961L30.0835 9.98565C30.0835 10.1002 29.9523 10.2205 29.9865 10.3122C29.8871 10.3914 29.7752 10.4533 29.6555 10.4955C29.724 10.4955 29.8495 10.444 29.8724 10.4669C29.587 10.6559 29.7982 10.4268 29.4443 10.6273C29.5928 10.5755 29.7496 10.5522 29.9066 10.5586C30.2262 10.4096 29.9066 10.4382 29.7868 10.4554C30.1576 10.2831 30.5554 10.1765 30.9625 10.1403C31.1052 10.169 30.6942 10.3007 30.7627 10.2836C30.7627 10.4612 31.5846 10.0716 31.3334 10.3294C31.0883 10.4591 30.8347 10.572 30.5744 10.6674C30.4431 10.6674 30.7113 10.4955 30.6828 10.4612L30.5744 10.57C30.4716 10.57 30.3803 10.57 30.4545 10.5242C30.2205 10.6731 30.5059 10.782 30.3232 10.994C30.4341 10.9814 30.5421 10.9505 30.6429 10.9023H30.5915C30.8027 10.7763 30.9339 10.8335 31.0195 10.7476C31.1965 10.7476 31.4704 10.6674 31.3734 10.7877L31.0538 10.9367C31.1508 10.8966 31.2307 10.8106 31.1223 10.8393C31.2764 10.8049 30.7285 11.1257 31.1622 10.971L31.3677 10.8335C31.5503 10.8335 31.9384 10.719 31.8357 10.8335C32.1439 10.6674 31.7957 10.8335 32.1496 10.633C31.7044 10.8679 32.1039 10.4783 31.6474 10.7419C32.0583 10.5127 31.7957 10.5929 32.1382 10.3752C32.0355 10.4268 31.9441 10.4841 31.9784 10.4153H31.8814C31.8343 10.4496 31.7847 10.4803 31.733 10.507C31.4761 10.5872 31.4533 10.507 31.3163 10.5356C31.3506 10.4841 31.4419 10.4955 31.5503 10.4325L31.3449 10.4726C31.5789 10.3695 31.6987 10.2263 31.8699 10.2377V10.169C31.9841 10.0773 32.0183 10.0028 31.9042 10.0143C31.9441 9.96846 31.6131 10.0544 31.8072 10.0143L31.6245 9.97992L31.6816 9.95128C31.6816 9.84815 31.2079 9.95127 31.5846 9.63618C31.5104 9.63618 31.4248 9.63618 31.4704 9.54451L31.6702 9.44712C31.5789 9.44712 31.8186 9.23515 31.6017 9.30962C32.1325 9.0289 31.6359 9.05755 31.7044 8.94297L31.4362 9.05755C31.4362 9.00026 31.3334 8.98307 31.1965 8.97161L30.9682 9.07473C30.7513 9.07473 31.0766 8.86849 31.0138 8.79401C31.1052 8.75964 31.0937 8.79401 31.0424 8.82839C31.5332 8.50183 30.5687 8.78256 30.9168 8.52475C30.8198 8.52475 30.8426 8.52475 30.9168 8.46746L31.0253 8.38152L30.9111 8.46173C30.9111 8.46173 30.8597 8.43309 30.7912 8.43309L31.0367 8.31278C31.1223 8.24976 30.9111 8.34715 30.7228 8.43881L30.5572 8.47319C30.9568 8.27267 30.3917 8.47319 30.8141 8.24403C30.5972 8.31851 30.5972 8.18674 30.1463 8.36434C30.2034 8.36434 30.2319 8.3185 30.2376 8.32996C30.2433 8.34142 30.3175 8.22684 30.1806 8.25549L30.4945 8.10653L30.0379 8.22684C30.2067 8.10059 30.4018 8.01441 30.6086 7.97476C30.1863 8.04351 30.4317 7.97476 30.0379 8.04351L30.249 7.95758C30.249 7.95758 29.9294 8.00914 30.0949 7.91747C30.4659 7.68258 30.0208 7.58519 30.3175 7.26437C29.7468 7.55655 30.5572 7.06958 30.0835 7.26437C30.1902 7.19233 30.3077 7.13815 30.4317 7.10395C30.2548 7.10395 30.6086 6.88625 30.1863 7.00083C30.3232 6.92635 30.4031 6.92635 30.4831 6.88052C30.4545 6.88052 30.3461 6.88052 30.4317 6.88052C30.4925 6.84998 30.5582 6.83058 30.6257 6.82323C30.5687 6.75448 30.1178 6.93781 29.6954 7.10968C29.8781 6.98364 29.8381 6.97219 29.5527 7.05812C29.684 6.98364 29.8153 6.89771 29.8838 6.93208C29.9523 6.96646 30.0093 6.66282 29.6726 6.80604C29.7525 6.76021 29.6726 6.75448 29.6384 6.76594C29.6384 6.69146 29.6384 6.66855 29.5984 6.61699L29.5527 6.66282C29.1361 6.81177 29.4386 6.66282 29.3701 6.61699H29.4101C29.6498 6.37064 29.2503 6.61699 29.5299 6.36491L29.2845 6.47949C28.7138 6.69719 29.5585 6.23314 29.3187 6.25606L29.1875 6.34199C28.9877 6.38783 29.8781 5.92378 29.9294 5.85503C29.9687 5.84458 30.01 5.84458 30.0493 5.85503C30.329 5.62014 29.7183 5.98107 29.6098 5.94096C29.781 5.85503 30.0664 5.76909 30.0778 5.70034C30.2148 5.61441 29.4386 5.8092 29.7525 5.59149C29.6381 5.66823 29.5103 5.72265 29.3758 5.7519C29.3016 5.72326 29.8324 5.39098 29.3758 5.52847L29.4786 5.47118C29.3187 5.43629 29.1533 5.43629 28.9934 5.47118C29.8438 5.05869 28.4626 5.40243 29.2674 5.05869L29.1704 4.95557L29.256 4.9212C29.256 4.8238 29.0676 4.87537 28.8679 4.9212C28.9176 4.88564 28.9738 4.86033 29.0334 4.84672C29.1475 4.65766 29.1076 4.66339 28.6681 4.73787L28.8108 4.58319C28.651 4.62329 29.1475 4.23944 28.8108 4.26236C28.8515 4.24559 28.8935 4.23218 28.9364 4.22226C28.5768 4.22226 29.5071 3.60925 28.5597 3.97018H28.2914C28.2914 4.10768 27.8748 4.13059 27.7207 4.24517C27.6465 4.24517 27.9547 4.01028 28.0289 4.04466H27.9832C28.4855 3.84987 28.1031 3.83268 28.4398 3.68946C28.3257 3.48894 28.5083 3.16239 28.4398 2.95614L28.0631 3.1452V3.09937C28.143 3.04208 28.3542 2.94469 28.3599 3.00198C28.5654 2.88167 28.143 3.00198 28.0574 3.00198C28.1716 2.86448 28.5368 2.86448 28.5368 2.86448H28.4912H28.4455C28.2743 2.89885 28.1088 2.9676 28.1031 2.89885C28.0974 2.83011 28.3314 2.77854 28.3371 2.75563C28.3428 2.73271 28.377 2.75563 28.3371 2.75563V2.6124L28.046 2.77282C27.8805 2.77282 28.046 2.68688 27.7036 2.87594C28.2058 2.58949 27.7549 2.46918 27.9033 2.36033C27.6579 2.40043 27.6408 2.36033 27.6408 2.26866C27.5837 2.30877 27.247 2.46918 27.2641 2.3947C27.9718 2.10825 27.5209 2.15408 28.0118 1.89055C27.6921 2.0796 27.8577 1.76451 27.4068 2.03377C27.4467 1.96502 27.6693 1.91919 27.8177 1.81034C27.4981 1.81034 27.8919 1.48379 27.7378 1.38639C27.6178 1.44929 27.4916 1.49922 27.3611 1.53535L27.7949 1.26036C27.7378 1.26036 27.2241 1.4666 27.5495 1.26036C27.4811 1.30487 27.4059 1.33777 27.3269 1.35775C27.6579 0.887969 26.7162 0.950989 27.441 0.309339C27.2755 0.423919 27.247 0.406732 27.2299 0.378087C27.1183 0.440928 27.0019 0.494575 26.8817 0.538499L27.1614 0.286423C26.8018 0.412461 27.0815 0.171842 26.7447 0.286423H26.8189C26.408 0.406732 25.9799 0.727557 25.472 0.93953C25.9457 0.802034 24.9012 1.36921 25.5519 1.18015C25.4606 1.2489 25.3864 1.23744 25.2722 1.29473C25.4948 1.22598 25.5519 1.23744 25.4777 1.3291H25.4263C25.5405 1.44941 25.3521 1.6041 25.2779 1.82753L25.5233 1.70722C25.5233 1.75305 25.432 1.79888 25.375 1.83899C25.7688 1.71868 25.375 1.73013 25.7859 1.59264C25.3008 1.85617 25.8829 1.83899 25.3236 2.11971C25.3236 2.17127 25.6033 1.97648 25.6204 2.03377L25.472 2.11398L25.6832 2.08533C25.5855 2.17845 25.4685 2.24886 25.3407 2.29158C25.3407 2.29158 25.2951 2.29158 25.2779 2.29158C25.1181 2.41189 25.3978 2.38897 25.3464 2.4348L25.4206 2.33741C25.6261 2.42335 25.5005 2.68688 25.8772 2.69261L25.9856 2.63532C26.2482 2.63532 25.8943 2.77282 26.0484 2.84729H26.0142C26.1455 2.81865 26.2139 2.84729 26.2139 2.84729C26.0655 2.84729 25.9742 3.01916 25.803 3.04208C26.0884 3.04208 26.0142 3.04208 26.4822 2.91031L26.2938 3.01343C26.4822 2.9676 26.5735 2.9275 26.6534 2.9676C26.4651 2.9676 26.3737 3.12802 26.1283 3.16812C25.7516 3.47749 26.6363 3.16812 26.037 3.49467C26.6077 3.3228 26.2881 3.25978 26.4194 3.2426C26.5849 3.13947 26.8417 3.11656 26.8018 3.17958C26.7618 3.2426 26.1455 3.5405 26.1968 3.6379C26.1968 3.6379 26.1569 3.6379 26.1512 3.6379C26.0313 3.73529 26.368 3.6379 26.1512 3.76967C26.4879 3.65508 26.1512 3.83841 26.5735 3.66654L26.4365 3.62071C26.5678 3.62071 27.0758 3.4603 26.876 3.64936C26.7862 3.67665 26.6947 3.69771 26.602 3.71237C26.4879 3.78685 26.7048 3.71237 26.602 3.80404C26.1797 3.97591 26.4594 3.72956 26.1226 3.80404C25.9571 3.90716 26.4651 3.80404 26.0028 3.94726C26.5735 3.74102 26.0028 4.07903 26.4422 3.94726L26.1911 4.05039C26.2311 4.05039 26.3623 4.01601 26.3623 4.05039L26.0256 4.15351C26.3224 4.09049 25.8258 4.36548 26.0256 4.35402C25.9685 4.24517 26.311 4.19934 26.4765 4.0733C26.8646 4.0733 25.8544 4.43423 26.0427 4.53162C25.9971 4.53162 26.1569 4.3884 26.2881 4.37121C26.215 4.4581 26.1258 4.53006 26.0256 4.58319C26.1226 4.66339 26.2767 4.45715 26.4479 4.43423C26.1626 4.60037 26.5963 4.43423 26.7105 4.43423L26.4594 4.58319C26.3452 4.76651 26.9958 4.38267 26.8475 4.58319L26.4765 4.69204H26.5906L26.2938 4.80089C26.5336 4.76651 26.4879 4.80089 26.4308 4.90401C26.602 4.81235 26.8931 4.71495 26.9217 4.76079C26.7904 4.85818 26.6762 4.84672 26.739 4.89828C26.5735 4.94984 26.368 5.01859 26.5906 4.89828L26.3395 4.98422C26.1854 5.09307 26.3395 5.09307 26.3395 5.12171C26.3428 5.10952 26.3485 5.09814 26.3564 5.08828C26.3642 5.07842 26.374 5.0703 26.3852 5.06442L26.8246 4.98422C26.7481 5.0329 26.6628 5.066 26.5735 5.08161C26.6135 5.08161 26.7333 5.08161 26.7676 5.08161C26.5973 5.16308 26.4168 5.2209 26.2311 5.25348H26.505C26.4087 5.32325 26.3054 5.38277 26.1968 5.43108C26.0998 5.53993 26.6534 5.39671 26.5278 5.5342C26.5674 5.52586 26.6082 5.52586 26.6477 5.5342C26.6477 5.62014 26.4023 5.79201 26.7219 5.7519L26.368 5.95815C26.4822 5.98679 26.8075 5.69461 26.9901 5.74045C27.1728 5.78628 26.6877 5.90659 26.5963 5.97534C26.8018 5.9295 27.207 5.83211 26.9331 6.03263C26.8246 6.01544 26.876 5.97534 26.8246 5.96388ZM27.3269 6.68001C27.2641 6.68001 27.0872 6.72584 27.2356 6.65136C27.5438 6.54251 27.3954 6.61699 27.3383 6.68001H27.3269ZM28.4684 7.60811C28.377 7.63675 28.4113 7.60811 28.5026 7.53936C28.5939 7.47061 28.5368 7.56227 28.4569 7.60811H28.4684ZM31.6474 10.1747C31.7101 10.1002 31.6759 10.1289 31.6359 10.1747H31.6474ZM31.5675 10.295L31.6759 10.2492C31.6131 10.2492 31.6017 10.2492 31.6131 10.2492C31.6245 10.2492 31.4933 10.3122 31.556 10.3122L31.5675 10.295ZM28.2286 2.77282L28.1659 2.81292C28.0802 2.81292 28.1487 2.79573 28.2286 2.77282Z" fill="#505050"/>
<path d="M28.0517 7.62533L28.1887 7.55658C28.1384 7.56882 28.0916 7.59233 28.0517 7.62533Z" fill="#505050"/>
<path d="M28.9478 10.1232C28.9835 10.0906 29.0239 10.0636 29.0676 10.043C29.0048 10.0659 28.9535 10.0945 28.9478 10.1232Z" fill="#505050"/>
<path d="M32.1496 10.4784H32.064C32.064 10.4784 32.064 10.5242 31.9955 10.5528C32.0583 10.5127 32.1382 10.4669 32.1496 10.4784Z" fill="#505050"/>
<path d="M30.7513 11.5497C30.7855 11.5497 30.7513 11.5497 30.7912 11.5497L30.9111 11.4981C30.9111 11.4981 30.7855 11.4981 30.7513 11.5497Z" fill="#505050"/>
<path d="M31.3278 10.8851C31.1166 10.9825 31.1965 10.9768 31.2536 10.994C31.5504 10.8851 31.4362 10.8851 31.3278 10.8851Z" fill="#505050"/>
<path d="M31.2593 10.994C31.3905 10.9768 31.2992 10.9997 31.2593 10.994V10.994Z" fill="#505050"/>
<path d="M31.7387 10.3122C31.6873 10.3466 32.0126 10.2034 31.9327 10.2492C32.2067 10.1575 31.5618 10.3122 31.7387 10.3122Z" fill="#505050"/>
<path d="M30.6371 11.2117L30.894 11.0856L30.6714 11.1601L30.6371 11.2117Z" fill="#505050"/>
<path d="M30.7228 10.8851L30.6714 10.9653C30.7015 10.9593 30.7326 10.9593 30.7627 10.9653C30.7627 10.8851 30.8198 10.845 30.7228 10.8851Z" fill="#505050"/>
<path d="M30.7627 10.9367C30.7627 10.9367 30.7627 10.9653 30.8255 10.9367C30.8883 10.908 30.8198 10.9367 30.7627 10.9367Z" fill="#505050"/>
<path d="M30.5287 11.1773L30.5743 11.1372L30.5801 11.0971L30.5287 11.1773Z" fill="#505050"/>
<path d="M30.5401 10.3123H30.4431C30.3461 10.3409 30.3004 10.381 30.3461 10.3867C30.4153 10.3763 30.4815 10.3509 30.5401 10.3123Z" fill="#505050"/>
<path d="M29.8895 10.7935C29.9509 10.7499 30.0158 10.7116 30.0835 10.6789L29.7525 10.8221L29.8895 10.7935Z" fill="#505050"/>
<path d="M29.7468 10.6617C29.6555 10.6961 29.4557 10.6961 29.5014 10.7591C29.5927 10.7247 29.6783 10.7476 29.7468 10.6617Z" fill="#505050"/>
<path d="M29.8039 9.65337L29.8153 9.67056L30.3461 9.43567L29.8039 9.65337Z" fill="#505050"/>
<path d="M28.2115 9.47582C28.1145 9.59612 28.5482 9.34978 28.417 9.47582C28.5482 9.43571 28.5254 9.37269 28.6395 9.33832C28.4912 9.3555 28.5368 9.30394 28.2115 9.47582Z" fill="#505050"/>
<path d="M27.4011 0.0916643L27.4924 0L27.3269 0.103122L27.4011 0.0916643Z" fill="#505050"/>
<path d="M26.973 0.1776L27.3041 0L26.9901 0.108851C26.9901 0.108851 27.0415 0.137496 26.973 0.1776Z" fill="#505050"/>
<path d="M26.6991 7.09255L26.7847 7.05817C26.8703 7.01234 26.8703 7.00088 26.876 6.97797L26.6991 7.09255Z" fill="#505050"/>
<path d="M26.7104 6.41075V6.42221L27.0072 6.27325L26.7104 6.41075Z" fill="#505050"/>
<path d="M26.1169 6.10141C26.1169 6.10141 26.1911 6.10141 26.1854 6.14724C26.1797 6.19307 26.4993 5.93527 26.1169 6.10141Z" fill="#505050"/>
</svg>
