<svg width="87" height="73" viewBox="0 0 87 73" fill="none" xmlns="http://www.w3.org/2000/svg">
<g clip-path="url(#clip0_401_951)">
<path d="M43.2661 59.8234C43.2661 59.8234 43.3038 59.4434 43.31 59.3711C43.3242 59.5235 43.3093 59.6769 43.2661 59.8234Z" fill="#EADAD1"/>
<path d="M43.8381 60.8637L43.8481 60.6969L43.8914 61.1187L43.8381 60.8637Z" fill="#EADAD1"/>
<path d="M44.5032 60.9587C44.3442 61.6547 44.2705 60.8055 44.1273 61.0385L44.0703 61.1872L44.1099 60.6054C44.2355 60.7281 44.3719 61.1322 44.5032 60.9587Z" fill="#EADAD1"/>
<path d="M45.0568 59.4864C44.9606 59.7373 45.1043 59.7284 44.9648 59.5577L44.9897 59.4926L45.0568 59.4864Z" fill="#EADAD1"/>
<path d="M44.9896 59.4926C44.9237 59.4674 45.0751 59.2695 44.9896 59.4926V59.4926Z" fill="#EADAD1"/>
<path d="M45.2811 59.6896L45.2278 59.4346C45.2883 59.2766 45.3532 59.2481 45.3454 59.1278C45.4096 59.2697 45.3714 59.4257 45.2811 59.6896Z" fill="#EADAD1"/>
<path d="M45.3074 60.2115L45.2736 60.1026C45.3034 59.9967 45.3128 60.0003 45.3074 60.2115Z" fill="#EADAD1"/>
<path d="M45.2003 59.8719L45.2737 60.1026C45.231 60.2141 45.2184 60.4439 45.2387 60.0252C45.2144 60.2291 45.2257 60.0309 45.2003 59.8719Z" fill="#EADAD1"/>
<path d="M45.1436 59.9354C45.0929 60.0047 45.0586 60.0845 45.043 60.1689C45.0274 60.2533 45.0311 60.3402 45.0537 60.4234C44.8785 60.3456 44.9649 59.8669 45.1436 59.9354Z" fill="#EADAD1"/>
<path d="M44.4382 61.6908L44.3598 61.8953L44.3253 61.6475C44.3273 61.7549 44.4695 61.4683 44.4382 61.6908Z" fill="#EADAD1"/>
<path d="M45.8919 59.3907C45.8855 59.5481 45.8152 59.7878 45.7851 59.9788L45.7445 59.8033C45.8166 59.6751 45.8665 59.5356 45.8919 59.3907Z" fill="#EADAD1"/>
<path d="M45.785 59.9788L45.8536 60.2503C45.7605 60.2679 45.755 60.1698 45.785 59.9788Z" fill="#EADAD1"/>
<path d="M45.2211 60.9994L45.1229 60.4393L45.2587 61.0138L45.2211 60.9994Z" fill="#EADAD1"/>
<path d="M46.2792 59.4219L46.2651 59.0646L46.3068 59.603L46.2792 59.4219Z" fill="#EADAD1"/>
<path d="M46.5236 59.5156C46.5163 59.225 46.6324 59.0349 46.6177 58.848C46.6827 59.0233 46.7214 59.207 46.7324 59.3931C46.6964 59.262 46.6315 59.2904 46.5236 59.5156Z" fill="#EADAD1"/>
<path d="M46.7854 59.7333L46.7324 59.3931C46.7666 59.5035 46.7845 59.6181 46.7854 59.7333Z" fill="#EADAD1"/>
<path d="M46.0375 60.1928C46.069 60.0529 46.1206 59.9183 46.1907 59.7931L46.1069 60.2088L46.0375 60.1928Z" fill="#EADAD1"/>
<path d="M46.0248 60.1986C46.0248 60.1986 46.0187 60.2694 46.0248 60.1986V60.1986Z" fill="#EADAD1"/>
<path d="M45.538 60.6517C45.6198 60.9355 45.6064 61.2372 45.4998 61.5113C45.5333 61.2262 45.5461 60.9389 45.538 60.6517Z" fill="#EADAD1"/>
<path d="M45.9203 60.7236L45.7929 60.8027C45.8259 60.6758 45.8398 60.5447 45.8342 60.4134L45.9203 60.7236Z" fill="#EADAD1"/>
<path d="M45.9528 60.8641L45.9109 60.72L45.957 60.6844L45.9528 60.8641Z" fill="#EADAD1"/>
<path d="M46.5665 60.1077C46.6 60.3018 46.647 60.3199 46.6999 60.3508C46.7528 60.3817 46.5582 60.4671 46.4982 60.4547C46.4382 60.4424 46.5006 60.0825 46.5665 60.1077Z" fill="#EADAD1"/>
<path d="M46.318 60.1937C46.318 60.1937 46.3119 60.2645 46.318 60.1937V60.1937Z" fill="#EADAD1"/>
<path d="M46.4697 60.5291C46.4376 60.6128 46.4038 60.5038 46.3901 60.3707C46.4017 60.3955 46.4195 60.4169 46.4417 60.4331C46.4862 60.5141 46.4814 60.5549 46.4697 60.5291Z" fill="#EADAD1"/>
<path d="M46.9203 59.9448C46.8955 60.0241 46.8658 60.1017 46.8312 60.1772C46.8529 60.0363 46.9313 59.8318 46.9203 59.9448Z" fill="#EADAD1"/>
<path d="M46.3533 60.1007C46.3831 59.9948 46.3689 60.032 46.3533 60.1007V60.1007Z" fill="#EADAD1"/>
<path d="M46.3533 60.1007C46.3751 60.1892 46.3875 60.2797 46.3901 60.3707C46.3635 60.3229 46.3431 60.2721 46.3293 60.2194L46.3533 60.1007Z" fill="#EADAD1"/>
<path d="M47.1625 63.1403C47.1944 62.7474 47.1015 62.3706 46.9541 62.7832C46.9535 62.0072 47.0502 61.2349 47.2421 60.4841C47.2148 60.6762 47.2319 60.8723 47.292 61.0576C47.2136 61.2621 47.0019 61.5328 47.0666 61.8988C47.1883 62.116 47.193 61.766 47.2808 61.5651C47.1779 62.0587 47.3973 62.3027 47.2948 63.0204L47.1944 62.7474C47.2032 62.8794 47.1924 63.0117 47.1625 63.1403Z" fill="#EADAD1"/>
<path d="M47.0314 60.4992L46.9844 60.4812C47.0767 60.3186 47.1439 60.1432 47.1839 59.9606C47.2285 60.1165 47.2467 60.2783 47.2376 60.4397L47.0103 60.4698L47.0314 60.4992Z" fill="#EADAD1"/>
<path d="M46.7985 60.4312C46.8342 60.7833 46.8251 61.138 46.7714 61.487C46.6397 61.4365 46.7161 61.1247 46.6602 60.9326C46.8494 61.0585 46.6258 60.6849 46.8349 60.4772C46.8155 60.4239 46.7809 60.3772 46.7352 60.343C46.785 60.2899 46.829 60.2317 46.8665 60.1694C46.8487 60.2159 46.8344 60.2531 46.8487 60.2159L46.7917 60.3647C46.8273 60.2717 46.8309 60.2624 46.8487 60.2159L46.8701 60.1601L47.0505 60.4212C46.9419 60.5075 46.8949 60.4895 46.7985 60.4312Z" fill="#EADAD1"/>
<path d="M45.5001 62.439C45.5172 62.4103 45.5292 62.3789 45.5358 62.3461C45.5274 62.3962 45.5261 62.4277 45.5001 62.439Z" fill="#EADAD1"/>
<path d="M45.5974 62.2417C45.6188 62.186 45.6006 62.0084 45.5451 62.0404C45.4897 62.0725 45.5209 62.2444 45.4992 62.3853C45.4561 62.2131 45.4759 62.0318 45.5551 61.8737L45.5373 61.9202C45.6611 61.6989 45.7522 61.461 45.8081 61.2137C45.7582 61.5603 45.6879 61.9036 45.5974 62.2417Z" fill="#EADAD1"/>
<path d="M46.2077 61.4095L46.3671 61.6412L46.2316 61.9944L46.2594 61.7812C46.1508 61.8675 46.2036 61.5892 46.2077 61.4095Z" fill="#EADAD1"/>
<path d="M47.2986 60.1965L47.3201 59.7463L47.3545 60.3885L47.2986 60.1965Z" fill="#EADAD1"/>
<path d="M47.5184 60.2701L47.5468 59.8865L47.5848 60.125L47.5184 60.2701Z" fill="#EADAD1"/>
<path d="M60.5844 65.3643L60.65 65.4747L60.5844 65.3643Z" fill="#EADAD1"/>
<path d="M60.1968 65.4183L60.1727 65.2278C60.1971 65.3331 60.2133 65.4033 60.1968 65.4183Z" fill="#EADAD1"/>
<path d="M53.0365 60.6796C53.1155 60.3048 53.2022 59.7409 53.2218 60.1963L53.1886 60.6207C53.1124 60.5381 53.0722 60.5867 53.0365 60.6796Z" fill="#EADAD1"/>
<path d="M56.9027 63.2599L56.8563 63.3807L56.7965 62.974L56.9027 63.2599Z" fill="#EADAD1"/>
<path d="M57.0145 65.0512L57.1214 64.7724C57.1002 64.8702 57.0642 64.9642 57.0145 65.0512Z" fill="#EADAD1"/>
<path d="M62.7898 65.634L62.9026 66.0717C62.7907 66.0822 62.8032 65.8524 62.7898 65.634Z" fill="#EADAD1"/>
<path d="M49.799 60.6539C49.8298 60.5541 49.8899 60.4658 49.9717 60.4003C49.8862 60.6234 49.7978 60.9946 49.799 60.6539Z" fill="#EADAD1"/>
<path d="M60.083 60.7901C60.1173 60.8726 60.1385 60.9599 60.1457 61.0487C60.103 60.969 60.0814 60.88 60.083 60.7901Z" fill="#EADAD1"/>
<path d="M50.1658 60.4001L50.1302 60.4931C50.0643 60.4678 50.04 60.3625 49.9609 60.4282C50.0464 60.2051 50.1209 60.095 50.1658 60.4001Z" fill="#EADAD1"/>
<path d="M48.0558 61.8515C48.062 61.923 48.0633 61.9947 48.0598 62.0663C48.0653 61.9948 48.064 61.9229 48.0558 61.8515Z" fill="#EADAD1"/>
<path d="M50.4948 63.1169C50.4851 63.1985 50.4828 63.1763 50.4948 63.1169V63.1169Z" fill="#EADAD1"/>
<path d="M48.3457 60.3634C48.3563 60.3179 48.3731 60.2742 48.3956 60.2332C48.3865 60.2791 48.3696 60.3231 48.3457 60.3634Z" fill="#EADAD1"/>
<path d="M48.3701 60.1594L48.3523 60.2059C48.3409 60.0949 48.3315 60.0913 48.3701 60.1594Z" fill="#EADAD1"/>
<path d="M48.4923 60.2063C48.4923 60.2063 48.4923 60.2063 48.4145 60.2405C48.3366 60.2746 48.4358 60.1847 48.4394 60.1754L48.4923 60.2063Z" fill="#EADAD1"/>
<path d="M66.1449 63.7216L66.1627 63.6752C66.2387 63.8429 66.2082 63.8099 66.1449 63.7216Z" fill="#EADAD1"/>
<path d="M54.2637 65.1902L54.2615 65.1685L54.265 65.1594L54.2637 65.1902Z" fill="#EADAD1"/>
<path d="M54.4508 65.5185C54.3678 64.9749 54.3299 65.0457 54.2648 65.1593L54.3349 63.9068L54.4508 65.5185Z" fill="#EADAD1"/>
<path d="M61.5345 65.4193L61.4484 65.8127C61.6582 66.4476 61.7473 66.2152 61.6771 66.764C61.5345 65.4193 61.1653 66.6638 61.032 65.3226L60.9287 65.5922C60.9287 65.5922 60.9851 65.6138 60.9946 65.6174C60.8852 66.2685 60.7953 64.6455 60.5956 64.8568C60.522 65.0005 60.5084 65.1674 60.5576 65.322L60.3703 64.9943C60.3525 65.0408 60.3529 65.2648 60.3989 65.2292L60.1449 65.1318C60.0955 64.9359 60.0364 64.7425 59.9679 64.5522C59.8931 64.7474 60.0098 64.6962 60.0093 64.8665L59.8502 64.5497C59.8195 64.9111 59.9527 65.2393 60.0506 65.1809C60.0142 66.5423 59.9081 64.8491 59.6875 65.6495L59.8271 65.8202C59.7927 66.5854 59.6418 66.3036 59.5554 66.7823C59.5786 66.5246 59.7773 65.556 59.5995 65.2319C59.5603 65.3341 59.5353 65.3992 59.4019 65.1562C59.4333 65.6373 59.3489 65.5196 59.2665 65.5094L59.3138 66.1459C59.1872 65.9694 59.1848 65.638 59.0975 65.3593C58.9866 65.4234 58.9884 65.9252 58.9669 66.3754C58.784 66.4866 59.0567 65.5782 58.8192 65.4659C58.7159 65.7354 58.5484 65.4687 58.3378 65.0894C58.2487 65.3218 58.3824 65.4796 58.3429 65.6671L58.2233 65.1628C58.2233 65.1628 58.2133 65.3296 58.226 65.409C58.129 65.2119 58.1881 64.7761 58.0486 64.6054C57.9815 63.908 57.8428 65.5926 57.631 64.8504C57.6263 65.0619 57.6389 65.2736 57.6689 65.4833C57.4779 65.1458 57.3372 64.783 57.251 64.4062L57.0906 64.8245C57.1446 64.3132 57.0728 63.7955 56.8814 63.3157L56.9668 62.7833L56.7513 62.4448C56.7463 62.6445 56.7638 62.8443 56.8035 63.0406L56.7651 62.8873C56.7172 63.2049 56.7321 63.5293 56.809 63.8423L56.8633 63.4473C56.939 63.8398 56.9814 64.2377 56.99 64.6367C56.9781 64.5758 56.9521 64.5184 56.9141 64.469C56.9356 64.5531 56.946 64.6395 56.945 64.726C56.92 64.7911 56.945 64.726 56.8716 64.4953L56.8492 65.2011L56.8254 64.9254L56.5778 65.3743C56.3647 64.6635 56.1752 63.61 55.8747 63.3242C55.9319 63.8123 55.9491 64.3038 55.9263 64.794C55.9944 64.1378 56.1667 65.0674 56.312 64.9418C56.2329 65.0075 56.259 65.3053 56.2833 65.4106L55.9921 64.8192C56.0296 65.0256 55.9868 65.2378 55.8724 65.413C55.9183 64.3645 55.6545 64.7431 55.5331 64.4407C55.5355 64.7721 55.5661 65.1144 55.7029 65.0389C55.558 65.7829 55.4761 63.8857 55.3492 64.4981C55.3492 64.4981 55.3706 64.4423 55.4076 64.6271C55.3274 64.3298 55.1536 64.5298 55.1914 64.8534C54.9732 64.9724 54.5097 64.8586 54.4396 64.0002L54.4897 65.1922L54.1732 62.3308C54.1148 63.2888 54.1396 64.2506 54.2471 65.2058C54.2044 65.3173 54.1545 65.4475 54.0094 65.1786C54.0693 64.8085 54.0867 64.4325 54.0614 64.0578C53.9998 64.4384 53.91 64.8137 53.7927 65.1809C53.8579 64.7506 53.8434 64.3115 53.75 63.8851C53.7588 64.059 53.7391 65.0111 53.7694 65.1293L53.5707 63.9869C53.605 64.411 53.5865 64.8372 53.5158 65.2559C53.5378 65.0298 53.3274 65.269 53.2712 65.1622L53.3674 64.9112C53.122 65.073 53.155 63.3264 52.8829 63.3607C52.9259 63.8851 52.898 64.4123 52.7999 64.9282C52.7479 63.853 52.6213 62.7821 52.421 61.723L52.3692 62.055L52.2257 61.6695C52.2922 62.5373 52.5204 64.3626 52.6806 65.0424C52.5844 65.2934 52.6428 65.4224 52.5416 65.4049C52.4876 65.7147 52.6118 65.869 52.6459 65.8927L52.3262 66.0793C52.3567 65.4087 52.0989 65.4058 52.1314 64.8425L52.4528 65.5521C52.4833 64.8815 52.3073 63.6519 52.068 63.7414C52.0362 64.2159 52.0338 64.6921 52.0608 65.1673C52.0322 64.9324 51.8599 64.7064 51.8275 64.8753L51.9146 65.2392C51.8148 65.4995 51.741 64.341 51.5752 64.9705C51.5539 65.0263 51.3781 65.8225 51.3971 65.4353C51.5338 64.2067 51.5969 62.9706 51.5861 61.7335C51.4423 62.0878 51.3212 62.4508 51.2234 62.8205C51.113 63.4179 51.2856 64.2624 51.1886 64.7689C51.1878 64.6066 51.1742 64.4446 51.1478 64.2842C51.0872 64.4422 51.1435 64.8583 51.0296 64.7613C51.0413 64.0835 50.7858 64.8064 51.0021 64.1857C50.8957 63.985 50.8721 64.3278 50.7369 64.2866C50.7768 63.717 50.7271 63.1441 50.5895 62.5882C50.5814 62.7558 50.5608 62.9225 50.5278 63.087C50.2934 63.1357 50.1569 63.4352 49.9345 63.4246C49.8557 63.6312 49.8155 63.8506 49.8157 64.0721C49.7891 63.9446 49.7792 63.7169 49.7098 63.701C49.496 64.2587 49.8697 63.7623 49.7095 64.4898C49.6952 64.2255 49.6208 63.9674 49.4919 63.7347C49.561 63.1322 49.7218 63.6416 49.8117 63.8573C49.8762 63.1335 49.7889 62.4031 49.5552 61.7119C49.3887 61.4988 49.4439 62.2556 49.3984 62.1209C49.0589 62.2467 49.2233 60.6358 48.8999 61.2261C48.8149 61.7019 48.7707 62.1843 48.7679 62.6682C48.8896 62.8854 49.0103 62.3453 49.1079 62.3721L49.0082 62.6323C49.0358 62.8135 49.1319 62.957 49.1889 62.8082C49.0649 63.2725 48.62 62.8567 48.3196 63.2746C48.2641 63.0831 48.2527 62.8819 48.2862 62.6861L48.3625 62.7686C48.5157 62.3689 48.2503 62.1606 48.3758 61.9741C48.2932 61.6546 48.2113 61.1647 48.0363 61.3962L47.9542 62.0044C47.9713 61.819 48.0896 61.6512 48.1137 61.8416C48.071 61.5588 47.8072 62.6411 47.8017 61.8393L47.9584 61.4303C47.8759 61.1108 47.804 60.4542 47.6597 60.6334C47.7701 60.036 47.6383 60.6892 47.8443 60.0112C47.6754 60.874 48.1823 60.0021 47.9731 60.9135C48.1431 60.1044 48.165 60.5819 48.3616 59.9003C48.3373 60.1042 48.2884 60.2881 48.41 60.1961L48.4153 60.3793C48.3697 60.4718 48.3327 60.5683 48.3048 60.6675C48.3173 61.1414 48.5022 61.1377 48.5461 61.389C48.5853 61.2868 48.5304 61.1485 48.5865 60.9461L48.6512 61.312C48.6951 60.8597 48.9255 60.5963 48.7535 60.2851L48.8489 60.2897C48.9415 60.048 49.0725 59.9596 49.1284 60.1516C49.1676 60.0493 49.2574 60.6595 49.2209 60.3043L49.4224 60.5948L49.4616 60.4926C49.6831 60.4495 49.8664 61.2661 50.1693 60.476C50.2313 60.5957 50.2956 60.7376 50.4243 60.6271L50.475 60.2414C50.5617 60.3812 50.7706 59.8642 50.7987 60.2695C50.9387 59.257 51.2562 60.0611 51.4287 59.8926L51.4176 60.4001C51.5272 60.3675 51.6433 60.4867 51.7638 60.7354L51.7458 61.1763C51.8517 61.5474 52.0671 60.873 52.2588 60.9358C52.2499 60.7619 52.2039 60.7975 52.1647 60.8998C52.4176 59.9305 52.6308 61.6542 52.8581 60.9204C52.9117 61.0902 52.9461 61.0287 52.971 60.9636L53.0565 60.7405C53.0173 60.8428 52.9853 60.9265 52.971 60.9636C53.0414 61.0049 53.0969 61.0672 53.1294 61.1416L53.1616 60.6635C53.2293 60.4869 53.2032 60.8927 53.1631 61.2505C53.1984 61.3472 53.2252 61.4467 53.2434 61.5478C53.3037 60.7713 53.392 61.8074 53.4607 60.9808C53.4982 61.3897 53.7635 61.2888 53.7723 62.1664C53.8079 62.0735 53.8293 62.0177 53.7599 62.0017C53.6905 61.9858 53.8983 61.8096 53.948 62.0739L53.9854 61.4698L54.1239 62.2905C54.225 61.9491 54.2376 61.5873 54.1604 61.2384C54.3793 61.962 54.3337 61.518 54.515 62.2272L54.5732 61.7378C54.639 61.763 54.7515 62.2859 54.7903 61.9596C54.9258 61.2119 55.5076 61.8614 55.8738 61.1595C55.8169 62.3212 56.0698 60.6483 56.0621 61.5409C56.077 61.3208 56.0481 61.0997 55.9771 60.89C56.1764 61.1582 56.2529 60.4519 56.407 61.204C56.415 60.9299 56.3566 60.8008 56.3665 60.6341C56.3665 60.6341 56.4364 60.8741 56.4606 60.6701C56.4682 60.5524 56.4468 60.4345 56.3982 60.3264C56.5769 60.3949 56.6295 61.2147 56.6704 62.0086C56.7623 61.6281 56.7987 61.674 56.8981 62.2026C56.9249 61.9356 56.9741 61.6666 56.8473 61.5754C56.9157 61.5376 57.2548 61.1878 57.2833 61.8171C57.3367 61.6777 57.3776 61.768 57.3962 61.8604C57.5447 61.8107 57.5566 61.7513 57.7072 61.809L57.668 61.9113C57.7607 62.6825 57.7981 62.0785 57.9249 62.1697L57.9499 62.1047C58.1744 61.519 58.0891 62.3606 58.3256 61.7156L58.3381 62.1895C58.4171 63.222 58.5698 61.5853 58.7357 61.9688L58.6394 62.2197C58.7525 62.5723 58.802 60.8107 58.8836 60.6821C58.9653 60.5535 58.8417 60.5381 58.8125 60.4736C59.0442 59.8694 58.8858 61.0987 59.0619 61.2302C59.0725 60.8931 58.9695 60.3738 59.0709 60.3061C59.1107 60.0335 59.4758 61.3889 59.5887 60.7285C59.5506 60.968 59.5712 61.2136 59.6487 61.4445C59.7898 61.4986 59.8922 60.4717 60.0674 61.2532C60.0755 61.1831 60.0774 61.1125 60.0728 61.042C60.1851 61.2556 60.4002 61.3701 60.4999 61.8135C60.4431 60.1604 61.1379 62.5698 61.0052 61.0583L61.278 61.1629L61.2527 61.0039C61.4226 60.8984 61.5262 61.2473 61.6262 61.6055C61.6393 61.4982 61.6297 61.3892 61.5979 61.2855C61.8345 60.9497 61.8637 61.0142 62.165 61.7481L62.1372 61.2577C62.2246 61.5364 62.4472 60.4489 62.7562 60.9939C62.7434 60.9182 62.7251 60.8435 62.7016 60.7704C63.0612 61.324 63.2468 59.3481 63.5577 61.0985L63.8082 61.5144C63.5816 61.6834 63.9458 62.2815 63.8752 62.6063C64.0069 62.6568 64.0926 62.0393 63.9304 61.9557L63.8983 62.0394C63.7354 61.1134 64.1586 61.6701 64.0759 61.0413C64.5669 61.027 64.9692 60.4562 65.4193 60.3515L65.6229 61.0586L65.775 60.9997C65.8356 60.8416 65.7381 60.4205 65.6308 60.4753C65.6322 60.0493 65.8794 60.7838 65.9047 60.9428C66.0366 60.5988 65.6838 60.1118 65.7487 60.0833L65.8239 60.1122L65.7919 60.1958C65.9204 60.4797 65.9747 60.7884 66.1044 60.7315C66.2341 60.6746 66.0718 60.2818 66.1049 60.2519C66.1379 60.2219 66.1298 60.1868 66.1049 60.2519L66.29 60.1629L66.3045 60.7442C66.4402 61.0095 66.4884 60.6868 66.4968 61.3403C66.4707 60.3388 67.1812 60.8777 67.22 60.5514C67.4141 60.9457 67.5367 60.9074 67.683 60.8355C67.6366 60.9563 67.7569 61.5995 67.8691 61.5039C67.5851 60.1902 68.0089 60.8858 67.9368 59.92C67.9582 60.5678 68.3403 60.0213 68.3573 60.9341C68.4107 60.7946 68.2753 60.4442 68.2953 60.1107C68.6552 60.5792 68.7972 59.674 69.1523 59.7889C69.1739 60.0241 69.2266 60.2558 69.309 60.4779L69.3073 59.5817C69.3919 59.6142 69.5665 60.566 69.5568 59.9439C69.5764 60.09 69.5862 60.3177 69.6449 60.3615C70.0671 59.4572 71.0893 60.7873 71.3471 59.0736C71.3423 59.4236 71.4082 59.4489 71.4753 59.4426C71.5047 59.6645 71.5544 59.8834 71.6238 60.0966L71.7322 59.3918C71.942 60.0267 72.0289 59.3776 72.2082 59.9795L72.0765 59.929C72.3109 60.7557 72.501 61.5937 72.6462 62.4396C72.3156 61.6412 72.6029 63.7344 72.0981 62.6027C72.0963 62.8045 72.2137 62.8922 72.2365 63.1142C72.093 62.7287 72.0096 62.6647 71.9218 62.8656L71.9591 62.9652C71.6037 62.9356 71.5445 63.3713 71.2077 63.7433L71.128 63.2757C71.0772 63.385 71.0569 63.506 71.0692 63.6262C70.8136 62.9419 71.2861 63.5388 71.0367 62.7822C71.1312 63.746 70.4581 62.9122 70.577 63.9813C70.4544 64.0196 70.5035 63.4414 70.3809 63.4797L70.4105 63.7682L70.2917 63.4028C70.2419 63.633 70.2463 63.8718 70.3046 64.1008C70.3046 64.1008 70.3893 64.1333 70.4175 64.1441C70.3739 64.5112 70.0821 64.0901 70.0711 64.2032L70.1495 63.9987C69.7262 63.8364 69.3904 64.2621 68.9377 63.7261L68.9902 63.5329C68.6547 63.1698 68.8291 63.8124 68.507 63.6676C68.4041 63.4575 68.3126 63.3585 68.2442 63.3962C68.3552 63.6414 68.1941 63.9208 68.3392 64.1896C67.9791 63.8064 68.139 63.8677 67.8108 63.0915L67.8307 63.4616C67.7164 63.1406 67.6758 62.9651 67.5194 62.8945C67.6892 63.1835 67.5281 63.4629 67.7316 63.8608C67.5663 64.7143 67.1501 63.1261 67.2132 64.3124C66.9128 63.323 67.3777 63.7144 67.2619 63.5101C67.2724 63.173 67.0277 62.77 66.9532 62.88C66.8786 62.99 67.0076 64.2016 66.765 64.2152C66.765 64.2152 66.7436 64.271 66.8308 64.2404C66.7346 64.4914 66.5988 63.9169 66.562 64.3506C66.4051 63.7467 66.4229 64.4039 66.2795 63.624L66.5118 63.8623C66.3477 63.6714 66.0975 62.7759 65.9606 63.2458C66.0105 63.406 66.0733 63.562 66.1485 63.7123C66.1324 63.9514 66.0171 63.5767 65.988 63.8214C66.122 64.5978 66.2891 63.9368 66.5073 64.5215C66.4932 64.868 66.1688 63.9973 66.3825 64.8469C66.1236 63.7774 66.1689 65.0102 65.8796 64.217L65.9297 64.7053C65.8947 64.6279 65.8141 64.4158 65.7623 64.4385L65.9357 65.0274C65.7266 64.5315 65.7468 65.5201 65.5794 65.2533C65.8443 65.2376 65.5613 64.6813 65.6202 64.3307C65.2077 63.7461 65.6077 65.5734 65.2104 65.3997C65.2762 65.425 65.3315 65.0837 65.2474 64.8809C65.1645 65.0546 65.1178 65.2434 65.1102 65.436C64.8656 65.3422 65.0824 64.9455 64.9408 64.6674C64.933 65.2508 64.7873 64.4486 64.6572 64.2814L64.7203 64.7641C64.4837 65.0999 64.5188 63.7699 64.3208 64.1738L64.5141 64.8236L64.358 64.6679L64.4539 65.2057C64.2657 64.8244 64.2359 64.9302 64.1247 65.0795C64.1164 64.7352 63.9946 64.2087 63.8769 64.2062C63.8264 64.5067 63.9731 64.6589 63.7966 64.6126C63.8674 64.9063 63.9639 65.2738 63.9855 64.8236L64.0817 65.2762C64.0299 65.6082 63.8612 65.373 63.8034 65.3828C63.8328 65.3493 63.8492 65.3065 63.8498 65.262L63.5222 64.6247C63.5103 64.7817 63.5389 64.9394 63.6055 65.083C63.5396 65.0578 63.4792 64.8214 63.4039 64.7925C63.4213 65.1225 63.5022 65.4466 63.6421 65.7474L63.3432 65.345C63.3097 65.5468 63.3035 65.7524 63.3247 65.9563C63.2284 66.2072 62.9079 65.2421 62.7644 65.5602C62.7461 65.4891 62.7178 65.4208 62.6803 65.3574C62.5198 65.4665 62.4451 65.9709 62.1643 65.4368L62.1195 66.1446C61.9469 66.0038 62.1908 65.2551 61.9115 64.9987C61.6321 64.7424 61.8965 65.6007 61.8534 65.7974C61.7275 65.4506 61.5014 64.7456 61.3852 65.3301C61.446 65.4813 61.4793 65.3661 61.5345 65.4193ZM59.5959 65.2412C59.6427 65.3444 59.7417 65.6489 59.7438 65.3619C59.6739 64.8126 59.6565 65.0831 59.5959 65.2412ZM56.6642 64.1919C56.6896 64.3509 56.7489 64.2244 56.7705 64.0834C56.74 64.0504 56.7011 64.0675 56.6642 64.1919ZM48.922 60.6056C49.0237 60.4527 48.9858 60.5234 48.922 60.6056V60.6056ZM48.7482 60.8055C48.7377 60.7385 48.7383 60.6703 48.7501 60.6036C48.7579 60.7239 48.7955 60.7383 48.838 60.712C48.8141 60.8307 48.7914 60.918 48.7482 60.8055ZM66.1585 60.4217L66.1121 60.5425C66.2529 60.6818 66.2169 60.5507 66.1679 60.4253L66.1585 60.4217Z" fill="#EADAD1"/>
<path d="M57.0069 64.8458C57.0354 64.7714 57.0074 64.6754 57.0113 64.5809C57.0321 64.6684 57.0306 64.7594 57.0069 64.8458Z" fill="#EADAD1"/>
<path d="M62.7514 65.5659L62.7644 65.5602L62.7771 65.6397L62.7514 65.5659Z" fill="#EADAD1"/>
<path d="M51.0816 65.0478C51.1259 64.9731 51.1572 64.8914 51.1742 64.8061C51.1915 64.93 51.1558 65.023 51.0816 65.0478Z" fill="#EADAD1"/>
<path d="M47.9457 59.9435L48.0418 60.0869C47.9853 60.0653 47.9626 60.1526 47.9341 60.2269C47.9594 60.0767 47.9833 59.9579 47.9457 59.9435Z" fill="#EADAD1"/>
<path d="M46.7729 62.7777C46.7729 62.7777 46.7729 62.7777 46.707 62.7524L46.7348 62.5392C46.822 62.5087 46.839 62.7177 46.7729 62.7777Z" fill="#EADAD1"/>
<path d="M47.7204 61.4883C47.6755 61.8869 47.6206 61.7486 47.5538 61.6697C47.5992 61.1007 47.6645 61.2963 47.7204 61.4883Z" fill="#EADAD1"/>
<path d="M47.5383 61.6532C47.5383 61.6532 47.4913 61.6351 47.4725 61.6279C47.4909 61.4111 47.5091 61.5887 47.5383 61.6532Z" fill="#EADAD1"/>
<path d="M48.5653 60.5222C48.5261 60.6245 48.58 60.0054 48.5512 60.165C48.5565 59.6446 48.7257 60.8076 48.5653 60.5222Z" fill="#EADAD1"/>
<path d="M47.5358 62.8142L47.6069 62.3191L47.6162 62.7171L47.5358 62.8142Z" fill="#EADAD1"/>
<path d="M48.1631 62.5004L48.0272 62.6295C48.0326 62.5715 48.0296 62.5129 48.0184 62.4556C48.0855 62.4493 48.1753 62.3558 48.1631 62.5004Z" fill="#EADAD1"/>
<path d="M48.0185 62.4556C48.0185 62.4556 47.9433 62.4267 47.9057 62.4123C47.9474 62.4117 47.9879 62.4272 48.0185 62.4556Z" fill="#EADAD1"/>
<path d="M47.6881 62.9793L47.7367 62.8807L47.824 62.8501L47.6881 62.9793Z" fill="#EADAD1"/>
<path d="M49.443 62.5112L49.5673 62.6655C49.5667 62.8358 49.5275 62.9381 49.4889 62.87C49.4484 62.7547 49.4328 62.6324 49.443 62.5112Z" fill="#EADAD1"/>
<path d="M48.9523 63.8477C48.998 63.7284 49.0277 63.6036 49.0406 63.4764L48.9997 64.0898L48.9523 63.8477Z" fill="#EADAD1"/>
<path d="M49.3308 64.0141C49.3267 64.1938 49.4916 64.5235 49.3281 64.4715C49.2816 64.2831 49.2008 64.1562 49.3308 64.0141Z" fill="#EADAD1"/>
<path d="M51.3604 63.3635L51.3228 63.3491L51.3768 62.3356L51.3604 63.3635Z" fill="#EADAD1"/>
<path d="M53.0616 65.8495C52.8924 66.0938 53.0331 65.2202 52.8837 65.5254C52.8457 65.2869 52.9799 65.2744 52.9724 65.069C53.0575 65.3255 53.1109 65.1861 53.0616 65.8495Z" fill="#EADAD1"/>
<path d="M52.9725 65.069L52.9247 64.9121C52.9539 64.9766 52.9443 65.0582 52.9725 65.069Z" fill="#EADAD1"/>
<path d="M71.8541 58.8202L71.8984 58.592L71.9255 58.9435L71.8541 58.8202Z" fill="#EADAD1"/>
<path d="M72.2238 59.5163L72.0905 58.8789L72.2876 59.4342C72.2876 59.4342 72.2043 59.3703 72.2238 59.5163Z" fill="#EADAD1"/>
<path d="M59.3923 66.5599L59.3764 66.4045C59.4334 66.2558 59.4441 66.2279 59.4583 66.1907L59.3923 66.5599Z" fill="#EADAD1"/>
<path d="M60.766 65.9883L60.7494 66.0033L60.7479 65.4163L60.766 65.9883Z" fill="#EADAD1"/>
<path d="M62.0165 66.6383C61.9987 66.6848 61.8848 66.5878 61.8566 66.577C61.9705 66.6739 61.9601 65.913 62.0165 66.6383Z" fill="#EADAD1"/>
<path d="M26.5095 43.6976C26.4881 43.7534 26.2042 43.4526 26.1454 43.4088C26.2726 43.4149 26.5893 43.7708 26.5095 43.6976Z" fill="#EADAD1"/>
<path d="M27.7429 43.8293L27.6138 43.7158L27.9898 43.9452L27.7429 43.8293Z" fill="#EADAD1"/>
<path d="M28.2497 43.3518C28.6787 43.9214 27.9822 43.4305 28.1072 43.7236L28.2068 43.8578L27.7701 43.4771C27.8998 43.4202 28.2985 43.5624 28.2497 43.3518Z" fill="#EADAD1"/>
<path d="M27.4878 41.9616C27.6507 42.184 27.723 42.0518 27.4451 42.0732C27.4634 42.0618 27.4776 42.0447 27.4853 42.0246C27.493 42.0045 27.4939 41.9824 27.4878 41.9616Z" fill="#EADAD1"/>
<path d="M27.4442 42.0195C27.3664 42.0536 27.3189 41.8115 27.4442 42.0195V42.0195Z" fill="#EADAD1"/>
<path d="M27.8083 41.9139L27.5543 41.8165C27.4641 41.6859 27.5092 41.5966 27.407 41.5254C27.5753 41.5367 27.6749 41.6708 27.8083 41.9139Z" fill="#EADAD1"/>
<path d="M28.2216 42.2429L28.1181 42.2032C28.0759 42.1444 28.0643 42.1186 28.2216 42.2429Z" fill="#EADAD1"/>
<path d="M27.8866 42.1038L28.1218 42.1939C28.1815 42.2915 28.334 42.4565 28.0277 42.1579C28.1673 42.3286 28.017 42.1858 27.8866 42.1038Z" fill="#EADAD1"/>
<path d="M27.9168 42.222C27.9334 42.3077 27.9704 42.3883 28.0246 42.4573C28.0789 42.5263 28.1488 42.5817 28.2286 42.6187C28.0117 42.7062 27.7047 42.2686 27.9168 42.222Z" fill="#EADAD1"/>
<path d="M28.7694 43.8816L28.8571 44.0751L28.6313 43.9886C28.7371 44.0504 28.6205 43.7072 28.7694 43.8816Z" fill="#EADAD1"/>
<path d="M28.0273 41.2301C28.1341 41.3457 28.2652 41.5666 28.3895 41.7208L28.2108 41.6523C28.1834 41.4996 28.1206 41.3551 28.0273 41.2301Z" fill="#EADAD1"/>
<path d="M28.3894 41.7208L28.6528 41.8218C28.5877 41.9354 28.4998 41.8271 28.3894 41.7208Z" fill="#EADAD1"/>
<path d="M28.7612 42.8336L28.2607 42.5351L28.7872 42.8222L28.7612 42.8336Z" fill="#EADAD1"/>
<path d="M28.3343 40.964L28.0572 40.7299L28.4858 41.0754L28.3343 40.964Z" fill="#EADAD1"/>
<path d="M28.5747 40.843C28.3599 40.6434 28.3054 40.4199 28.1539 40.3085C28.3339 40.3769 28.5003 40.4768 28.645 40.6034C28.5169 40.5436 28.4919 40.6087 28.5747 40.843Z" fill="#EADAD1"/>
<path d="M28.9271 40.7968L28.6451 40.6034C28.7442 40.6602 28.8385 40.7249 28.9271 40.7968Z" fill="#EADAD1"/>
<path d="M28.7287 41.6803C28.6335 41.5661 28.559 41.4366 28.5086 41.2974L28.7524 41.6467L28.7287 41.6803Z" fill="#EADAD1"/>
<path d="M28.7155 41.686C28.7155 41.686 28.7931 41.737 28.7155 41.686V41.686Z" fill="#EADAD1"/>
<path d="M28.7133 42.3674C28.9794 42.4957 29.1942 42.7097 29.3223 42.9741C29.136 42.756 28.9324 42.5531 28.7133 42.3674Z" fill="#EADAD1"/>
<path d="M29.0321 42.1271L28.9787 42.2665C28.9056 42.1545 28.8176 42.0526 28.7171 41.9637L29.0321 42.1271Z" fill="#EADAD1"/>
<path d="M29.1567 42.1962L29.0227 42.1235L29.0311 42.0734L29.1567 42.1962Z" fill="#EADAD1"/>
<path d="M28.9926 41.2165C29.1714 41.285 29.209 41.2994 29.256 41.3174C29.2596 41.3553 29.2544 41.3934 29.2408 41.4289C29.2272 41.4643 29.2056 41.4962 29.1776 41.5219C29.1497 41.4259 28.9748 41.2629 28.9926 41.2165Z" fill="#EADAD1"/>
<path d="M28.9001 41.4581C28.9001 41.4581 28.9705 41.5278 28.9001 41.4581V41.4581Z" fill="#EADAD1"/>
<path d="M29.7553 40.9438L29.794 41.0119L29.7375 40.9902L29.7553 40.9438Z" fill="#EADAD1"/>
<path d="M29.2798 41.5931C29.2984 41.6855 29.202 41.6272 29.1105 41.5282C29.1577 41.5384 29.207 41.5307 29.2483 41.5064C29.2483 41.5064 29.3081 41.6039 29.2798 41.5931Z" fill="#EADAD1"/>
<path d="M29.1389 40.8353L29.2311 41.0732C29.1973 40.9643 29.0967 40.7765 29.1389 40.8353Z" fill="#EADAD1"/>
<path d="M28.925 41.3931C28.8241 41.2904 28.8452 41.3198 28.925 41.3931V41.3931Z" fill="#EADAD1"/>
<path d="M28.9251 41.3931L29.1412 41.5612L28.8966 41.4674L28.9251 41.3931Z" fill="#EADAD1"/>
<path d="M31.6039 43.0171C31.3424 42.7143 31.017 42.4936 31.2182 42.8693C30.6613 42.3091 30.1765 41.6827 29.7752 41.0047C29.8869 41.1642 30.0387 41.2922 30.2154 41.376C30.3219 41.5767 30.349 41.9283 30.6426 42.1475C30.9362 42.3666 30.6467 41.9678 30.5756 41.7593C30.8356 42.1788 31.1592 42.2069 31.5905 42.7987L31.3271 42.6978C31.4304 42.7944 31.5232 42.9014 31.6039 43.0171Z" fill="#EADAD1"/>
<path d="M29.6461 41.2004L29.5897 41.1788C29.5347 41.0002 29.4595 40.8283 29.3654 40.6663C29.5113 40.7441 29.6393 40.8513 29.7411 40.9809L29.6004 41.1509L29.6461 41.2004Z" fill="#EADAD1"/>
<path d="M29.4292 41.2879C29.7258 41.5138 29.9865 41.7827 30.2025 42.0854C30.0822 42.1459 29.8994 41.8626 29.7184 41.7719C29.9529 41.7232 29.5176 41.6203 29.488 41.3317C29.4681 41.3124 29.4446 41.2973 29.4187 41.2873C29.3928 41.2774 29.3651 41.2729 29.3374 41.274C29.3331 41.1981 29.3223 41.1226 29.3052 41.0484C29.3052 41.0484 29.3497 41.1294 29.3523 41.0664L29.4555 41.1913C29.4911 41.0983 29.3957 41.0938 29.3523 41.0664L29.2958 41.0448L29.5897 41.1788C29.6001 41.2361 29.5447 41.2681 29.4292 41.2879Z" fill="#EADAD1"/>
<path d="M30.0161 43.6132L29.9493 43.5342C30.0022 43.5652 30.0268 43.5853 30.0161 43.6132Z" fill="#EADAD1"/>
<path d="M29.9087 43.3587C29.8522 43.3371 29.7338 43.1957 29.7205 43.2866C29.7073 43.3775 29.8578 43.4352 29.9422 43.5528C29.7822 43.4663 29.6598 43.3244 29.5985 43.1545L29.655 43.1762C29.5731 42.9308 29.4548 42.6986 29.3041 42.4872C29.5397 42.8015 29.699 43.0331 29.9087 43.3587Z" fill="#EADAD1"/>
<path d="M29.7434 42.4105L30.0152 42.4614L30.1859 42.804L30.037 42.6296C30.0189 42.7613 29.8595 42.5296 29.7434 42.4105Z" fill="#EADAD1"/>
<path d="M29.6289 40.7673L29.3274 40.4278L29.8063 40.8673L29.6289 40.7673Z" fill="#EADAD1"/>
<path d="M29.8494 40.6706L29.5914 40.3584L29.7922 40.5101L29.8494 40.6706Z" fill="#EADAD1"/>
<path d="M42.6287 37.5626L42.5044 37.4083C42.5842 37.4816 42.6358 37.544 42.6287 37.5626Z" fill="#EADAD1"/>
<path d="M34.3096 37.4227C34.1482 37.0837 33.8698 36.5718 34.1287 36.9376L34.3689 37.2962C34.2842 37.2637 34.2816 37.3267 34.3096 37.4227Z" fill="#EADAD1"/>
<path d="M38.8651 37.3886L38.9176 37.5047L38.6373 37.1946L38.8651 37.3886Z" fill="#EADAD1"/>
<path d="M39.9565 38.8198L39.8727 38.5318C39.914 38.6236 39.9422 38.7205 39.9565 38.8198Z" fill="#EADAD1"/>
<path d="M44.8032 36.5623L45.1117 36.8832C45.0304 36.9266 44.9333 36.7295 44.8032 36.5623Z" fill="#EADAD1"/>
<path d="M31.7835 39.3969C31.7335 39.2178 31.7338 39.1326 31.761 39.0898C31.8685 39.3442 32.0239 39.6704 31.7835 39.3969Z" fill="#EADAD1"/>
<path d="M40.087 33.6668C40.1644 33.713 40.2287 33.778 40.2735 33.8556C40.1989 33.8061 40.1354 33.7418 40.087 33.6668Z" fill="#EADAD1"/>
<path d="M31.9084 38.9864L31.9457 39.086C31.861 39.0535 31.7858 39.0247 31.7608 39.0898C31.6884 38.9127 31.6747 38.7796 31.9084 38.9864Z" fill="#EADAD1"/>
<path d="M50.421 31.8712C50.421 31.8712 50.4433 31.869 50.421 31.8712V31.8712Z" fill="#EADAD1"/>
<path d="M49.0273 27.2321C49.0273 27.2321 49.0273 27.2321 48.9531 27.2569C48.8788 27.2817 48.9579 27.2161 49.0273 27.2321Z" fill="#EADAD1"/>
<path d="M31.3266 41.4608C31.3838 41.503 31.4334 41.5544 31.4733 41.613L31.3266 41.4608Z" fill="#EADAD1"/>
<path d="M33.9142 40.8748C33.9622 40.9465 33.9469 40.93 33.9142 40.8748V40.8748Z" fill="#EADAD1"/>
<path d="M30.4821 40.1455C30.4632 40.1009 30.4522 40.0534 30.4496 40.0051L30.4821 40.1455Z" fill="#EADAD1"/>
<path d="M30.3992 39.9964C30.345 39.997 30.3181 39.9547 30.3992 39.9964V39.9964Z" fill="#EADAD1"/>
<path d="M30.5571 39.9503C30.5571 39.9503 30.5571 39.9503 30.5251 40.034L30.478 40.016L30.5571 39.9503Z" fill="#EADAD1"/>
<path d="M46.6023 33.3606C46.7327 33.4425 46.6951 33.4281 46.6023 33.3606V33.3606Z" fill="#EADAD1"/>
<path d="M37.9568 40.3769L37.942 40.3608L37.9398 40.339L37.9568 40.3769Z" fill="#EADAD1"/>
<path d="M38.2846 40.5351C37.9057 40.1446 37.9183 40.2241 37.9392 40.3387L37.2586 39.2995L38.2846 40.5351Z" fill="#EADAD1"/>
<path d="M43.6929 36.9257L43.8234 37.3169C44.3153 37.7507 44.2844 37.4936 44.5016 38.0247C43.6929 36.9257 44.043 38.1794 43.2343 37.0804L43.3441 37.357L43.4099 37.3823C43.668 38.0036 42.7389 36.6559 42.6897 36.9249C42.7075 37.0851 42.7857 37.2331 42.9085 37.3393L42.5818 37.1501C42.564 37.1966 42.7094 37.3803 42.7366 37.3374L42.4798 37.3882C42.3331 37.236 42.0748 37.0091 41.961 36.9121C42.0262 37.1077 42.0748 37.0091 42.1579 37.1582L41.8666 36.9612C42.0257 37.2781 42.3193 37.4973 42.3549 37.4043C43.0586 38.5803 42.0707 37.1887 42.3282 37.9805L42.5258 38.0562C42.9156 38.7281 42.6713 38.5491 42.8463 39.0214C42.7152 38.8005 42.3545 37.8839 42.055 37.6518C42.0794 37.7571 42.0733 37.8294 41.8513 37.6484C42.1314 38.0436 41.9997 37.9931 41.9125 38.0237L42.3003 38.5881C42.0843 38.4191 41.8861 38.2288 41.7088 38.0202C41.6625 38.1411 41.9354 38.5549 42.1568 38.9063C42.0819 39.1015 41.7848 38.1879 41.548 38.2145C41.5682 38.4994 41.3356 38.3463 40.9655 38.1298C41.0129 38.3718 41.2141 38.4383 41.2865 38.6153L40.9098 38.247C40.9098 38.247 41.0023 38.3997 41.0444 38.4585C40.8563 38.3864 40.6706 37.9421 40.4731 37.8663C40.0275 37.3117 40.8724 38.8511 40.3091 38.2939C40.4247 38.4723 40.5495 38.6447 40.683 38.8104C40.3532 38.6163 40.0473 38.3845 39.7716 38.1199L39.9009 38.5426C39.6518 38.0945 39.308 37.7045 38.8934 37.3994L38.649 36.9112L38.2821 36.7706C38.3845 36.9427 38.5086 37.1014 38.6514 37.2426L38.5316 37.1328C38.6768 37.4224 38.872 37.6849 39.1083 37.9082L38.9317 37.5527C39.197 37.8379 39.4411 38.1418 39.6622 38.4617C39.6128 38.425 39.5541 38.4025 39.4928 38.3968C39.5589 38.4566 39.6161 38.5252 39.6629 38.6006C39.7099 38.6186 39.597 38.5754 39.475 38.4433L39.858 39.0486L39.6857 38.8226L39.7511 39.3274C39.2528 38.7981 38.6761 38.3469 38.0413 37.9896C38.3613 38.367 38.6558 38.7648 38.9227 39.1805C38.5962 38.5968 39.2519 39.3067 39.3021 39.0914C39.2665 39.1843 39.467 39.4211 39.5374 39.4908L38.9746 39.1577C39.2829 39.5638 39.1583 39.4947 39.2294 39.7032C38.6777 38.8626 38.6798 39.2793 38.3921 39.073C38.5878 39.3506 38.8094 39.6168 38.8628 39.4774C39.1878 40.1777 38.0251 38.6231 38.2796 39.2538C38.2796 39.2538 38.301 39.198 38.4113 39.3043C38.1741 39.1067 38.1684 39.4031 38.3796 39.612C38.2941 39.8351 37.8709 39.9821 37.341 39.3098L38.0572 40.256L36.0734 38.1415C36.6446 38.9261 37.272 39.669 37.9509 40.3645C37.9717 40.4791 37.9984 40.6066 37.7622 40.4628C37.5846 40.1298 37.3721 39.8161 37.1284 39.5268C37.3079 39.8679 37.4649 40.2201 37.5981 40.5811C37.3799 40.2131 37.1016 39.883 36.7749 39.6045C36.8875 39.733 37.4346 40.5291 37.5333 40.6096L36.7529 39.8307C37.0204 40.1468 37.25 40.4924 37.4371 40.8606C37.327 40.6691 37.3142 40.9841 37.2084 40.9222L37.1139 40.6621C37.0142 40.9224 36.0052 39.5014 35.861 39.6806C36.2135 40.0752 36.5136 40.5127 36.7538 40.9825C36.0622 40.1432 35.3063 39.3579 34.4928 38.6337L34.6626 38.9227L34.2701 38.7083C34.8648 39.3521 36.1614 40.6701 36.6955 41.1627C36.79 41.4228 36.9145 41.4919 36.7884 41.5395C36.9393 41.8212 37.1216 41.8805 37.1664 41.8763L37.0416 42.2016C36.6503 41.6465 36.4567 41.7855 36.138 41.3221L36.8008 41.7042C36.4188 41.1526 35.5281 40.2674 35.4238 40.4833C35.5442 40.732 36.1436 41.4202 36.2948 41.6168C36.1364 41.4388 35.8812 41.3729 35.9655 41.4906L36.2485 41.7376C36.3076 42.0055 35.5665 41.1244 35.8447 41.7214C35.8197 41.7865 36.2459 42.5043 36.0009 42.1865C35.5981 41.5203 34.1988 39.5978 33.8152 39.1629C33.9204 39.5314 34.0571 39.8905 34.2237 40.2364C34.5233 40.7778 35.1761 41.3265 35.4383 41.7682C35.3398 41.6374 35.226 41.5186 35.0992 41.4144C35.1564 41.5749 35.4568 41.8606 35.3203 41.8509C34.8994 41.3164 35.1761 42.0302 34.9332 41.4253C34.7262 41.346 34.9291 41.605 34.8405 41.667C34.4944 41.1978 34.0786 40.7831 33.6072 40.4373C33.7108 40.5725 33.804 40.7151 33.886 40.864C33.7453 41.0339 33.8373 41.3571 33.6544 41.4682C33.7312 41.6795 33.8462 41.8754 33.9939 42.0461C33.881 42.0029 33.7334 41.797 33.6721 41.8161C33.9269 42.3616 33.8381 41.8052 34.1916 42.4311C34.008 42.2182 33.7755 42.0523 33.5139 41.9474C33.1588 41.4381 33.5994 41.7243 33.8226 41.8738C33.4006 41.277 32.8596 40.772 32.2334 40.3904C31.9794 40.293 32.5002 40.8765 32.411 40.7996C32.2392 41.1069 31.29 39.7835 31.4703 40.439C31.7236 40.8548 32.0134 41.2477 32.3364 41.6133C32.5716 41.7035 32.2954 41.2138 32.3862 41.1739L32.4512 41.4547C32.5933 41.5625 32.7532 41.6238 32.696 41.4633C32.9265 41.9035 32.3261 41.8653 32.3397 42.3929C32.1707 42.2874 32.0256 42.1482 31.9137 41.9843L32.0077 42.0204C31.8006 41.6318 31.5204 41.631 31.4752 41.4111C31.205 41.2436 30.8163 40.9346 30.8638 41.1767L31.2224 41.6767C31.1133 41.5389 31.074 41.3319 31.222 41.4526C30.9965 41.2809 31.5525 42.251 31.0035 41.6567L30.8223 41.2568C30.5462 41.0763 29.9849 40.6266 30.0477 40.8852C29.7186 40.3645 30.1135 40.9104 29.7435 40.2995C30.2355 41.0425 29.9951 40.0654 30.4715 40.8771C30.0324 40.165 30.388 40.5039 30.0511 39.863C30.1718 40.0265 30.2572 40.1979 30.2824 40.0476L30.4138 40.1833C30.4539 40.28 30.5058 40.3715 30.5683 40.4557C30.8922 40.7931 31.0387 40.6361 31.2253 40.8249C31.2609 40.7319 31.0504 40.6619 30.9533 40.4647L31.2434 40.6932C30.9808 40.3367 30.9278 39.9965 30.6362 39.8847L30.739 39.7855C30.6539 39.529 30.6791 39.3787 30.853 39.488C30.8922 39.3858 31.29 39.7835 31.0223 39.5529L31.3694 39.6327L31.3061 39.5444C31.4468 39.3745 32.1245 39.8582 31.8281 39.0835C31.9503 39.1304 32.1009 39.1881 32.1202 39.0249L31.9012 38.6957C32.0517 38.7534 31.8922 38.2125 32.1726 38.5226C31.6234 37.619 32.3543 38.0485 32.4398 37.8254L32.7481 38.2314C32.7873 38.1292 32.9978 38.1992 33.2366 38.2801L33.4955 38.6459C33.808 38.8723 33.5547 38.2101 33.6987 38.1161C33.5861 37.9876 33.567 38.0656 33.6079 38.1559C33.1849 37.2048 34.4357 38.4732 34.1626 37.7502C34.3225 37.8115 34.2943 37.8007 34.2641 37.6825L34.1813 37.4481L34.2677 37.6732C34.3495 37.6802 34.4278 37.7103 34.4934 37.7597L34.2299 37.3495C34.1705 37.1668 34.3954 37.5089 34.5898 37.818L35.0027 37.9229C34.574 37.2682 35.2849 38.0311 34.8387 37.3376C35.1096 37.6441 35.2623 37.4147 35.7922 38.087C35.7195 37.9952 35.7055 37.9472 35.6796 37.9585C35.6536 37.9699 35.6733 37.7216 35.8576 37.8882L35.5155 37.3732L36.1223 37.9577C36.0002 37.6188 35.7934 37.3157 35.5212 37.0769C36.1201 37.541 35.8223 37.1923 36.3729 37.6699L36.1373 37.3557C36.1373 37.3557 36.5847 37.7084 36.4279 37.4138C36.0994 36.7228 36.9382 36.927 36.8172 36.145C37.4484 37.144 36.647 35.632 37.1909 36.3522C37.0941 36.1495 36.9651 35.9632 36.8089 35.8007C37.1193 35.9197 36.7788 35.288 37.3363 35.8322C37.1899 35.5949 37.0653 35.5258 36.9787 35.386C37.0351 35.4076 37.1665 35.5433 37.0821 35.4256C37.0142 35.3251 36.9254 35.2401 36.8216 35.1765C37.0126 35.1004 37.5166 35.7841 38.003 36.429C37.8524 36.0621 37.9218 36.078 38.2914 36.4649C38.1638 36.2348 38.0469 35.9767 37.8974 35.9727C37.7479 35.9687 37.9993 35.4254 38.3826 35.9455C38.3089 35.8 38.4182 35.8525 38.4864 35.9C38.5362 35.7698 38.5541 35.7233 38.7143 35.6995L38.748 35.8084C39.2429 36.4032 38.9456 35.8841 39.0951 35.8881L39.0293 35.8629C38.9265 35.2584 39.2842 36.0139 39.1299 35.347L39.4006 35.7387C40.023 36.5637 39.232 35.109 39.5573 35.3297L39.6742 35.5877C39.9477 35.8311 39.0899 34.2975 39.035 34.1592C38.9801 34.0209 38.9341 34.0565 38.8718 34.022C38.6902 33.398 39.2563 34.5106 39.4847 34.5341C39.3055 34.2416 38.9454 33.8583 39.0011 33.741C38.8807 33.4923 39.9053 34.4502 39.6436 33.8381C39.7438 34.0613 39.8923 34.2602 40.0785 34.4206C40.228 34.4246 39.7557 33.4332 40.3199 34.044C40.295 33.9795 40.2598 33.9192 40.2157 33.8655C40.4975 33.9586 40.7555 34.1122 40.9713 34.3151C40.0671 32.9023 41.912 34.6757 40.9955 33.4075L41.2666 33.3195L41.1634 33.1946C41.2347 33.0087 41.5199 33.278 41.7863 33.54C41.7419 33.4381 41.6787 33.3452 41.6 33.266C41.6225 32.8695 41.7319 32.9221 42.3048 33.3976L42.0319 32.9838C42.2467 33.1834 41.8687 32.1429 42.4163 32.4595L42.2638 32.2944C42.8373 32.5996 41.9875 30.7918 43.1437 32.1945L43.5667 32.442C43.4669 32.7023 44.0638 33.0591 44.1664 33.3543C44.2981 33.4048 44.0342 32.7705 43.8847 32.7665L43.9291 32.8475C43.3252 32.1149 43.9695 32.4045 43.5827 31.8937C43.9873 31.6544 44.0237 30.9966 44.3745 30.6726L44.7762 31.2851L44.8297 31.1457C44.7596 30.9909 44.5311 30.658 44.4637 30.7495C44.2589 30.3831 44.8305 30.8901 44.9136 31.0393C44.9125 30.6763 44.3341 30.412 44.3779 30.3541L44.4625 30.3865L44.4976 30.464C44.7442 30.6651 44.9412 30.9112 45.0251 30.8048C45.1091 30.6984 44.7862 30.4147 44.7911 30.3739C44.7959 30.3331 44.7346 30.3523 44.7911 30.3739L44.8623 30.188L45.1632 30.6978C45.3981 30.8731 45.2802 30.5614 45.6103 31.1357C45.0952 30.2559 45.9613 30.4173 45.8256 30.1521C46.1779 30.4151 46.2677 30.3216 46.3552 30.2059C46.3948 30.3277 46.7875 30.8514 46.841 30.7119C45.9626 29.6822 46.6617 30.1101 46.1346 29.2897C46.4589 29.8511 46.5046 29.197 46.947 29.9849C46.9969 29.8548 46.6352 29.5882 46.5008 29.2914C47.0192 29.5435 46.7288 28.6965 47.0528 28.6395C47.1894 28.8353 47.3489 29.0146 47.5279 29.1734L47.0819 28.3947C47.1854 28.4344 47.787 29.1448 47.4744 28.6092C47.5588 28.7268 47.6818 28.9126 47.7512 28.9285C47.6929 28.4051 48.0357 28.3552 48.3152 28.2172C48.5947 28.0791 48.8262 27.8693 48.4438 27.0937C48.6324 27.3898 48.6901 27.38 48.7455 27.3479C48.8864 27.5254 49.044 27.6894 49.216 27.8375L48.9109 27.1981C49.4216 27.6391 49.1268 27.057 49.607 27.4649L49.4847 27.4181C50.1002 27.8672 50.5731 28.6882 51.269 29.3495C50.5702 28.8364 51.9068 30.5003 50.8884 29.7793C50.9868 29.945 51.1292 29.9676 51.2651 30.1477C50.941 29.8955 50.8398 29.878 50.8756 30.0943L50.9603 30.1267C50.6441 30.3041 50.8042 30.6746 50.6896 31.1424L50.393 30.7622C50.3573 30.8552 50.4664 30.9929 50.5096 31.1054C49.9625 30.6185 50.6574 30.9169 50.0646 30.3804C50.6212 31.1802 49.6477 30.7644 50.3029 31.6446C50.2131 31.7381 49.9735 31.2091 49.8873 31.2933L50.0489 31.5472L49.7767 31.2723C49.741 31.3652 49.9637 31.6851 50.1278 31.876C50.1278 31.876 50.2125 31.9085 50.2313 31.9157C50.3833 32.2511 49.9249 32.0114 49.9681 32.1239L49.9417 31.9113C49.5026 31.9028 49.4253 32.4703 48.7551 32.192L48.6357 31.997C48.1841 31.8239 48.6417 32.3191 48.3002 32.3375C48.1181 32.1931 47.9959 32.1462 47.9521 32.2041C48.1682 32.3722 48.1683 32.6814 48.4256 32.8547C47.9364 32.6672 48.0989 32.6655 47.4461 32.1167L47.6405 32.4258C47.3823 32.1988 47.2732 32.0611 47.1072 32.0721C47.3927 32.2561 47.3928 32.5654 47.7451 32.8284C48.0179 33.6366 46.9046 32.4315 47.5099 33.4419C46.7789 32.7032 47.3624 32.8416 47.1639 32.7122C47.0107 32.4082 46.6065 32.168 46.6072 32.3069C46.6079 32.4457 47.2557 33.4297 47.0974 33.561C47.0974 33.561 47.1633 33.5862 47.1727 33.5898C47.2672 33.8499 46.8236 33.4027 46.9918 33.8084C46.5742 33.3497 46.9455 33.9292 46.4143 33.2884L46.6932 33.3207C46.4675 33.2342 45.8234 32.5501 45.9313 33.0286C46.0535 33.1466 46.1855 33.2543 46.3258 33.3505C46.4122 33.5755 46.1471 33.2819 46.2581 33.5271C46.7517 34.1534 46.5642 33.5165 47.035 33.9209C47.1882 34.2248 46.4874 33.6043 47.0692 34.2538C46.3067 33.4284 46.973 34.5048 46.3345 33.9189L46.6311 34.2991C46.5652 34.2739 46.3939 34.1016 46.3608 34.1315L46.8044 34.5788C46.3852 34.2368 46.8886 35.0908 46.6618 34.9506C46.8742 34.8188 46.3632 34.463 46.2373 34.1161C45.6073 33.7893 46.8857 35.239 46.4265 35.2549C46.5018 35.2837 46.3923 34.9219 46.2067 34.7868C46.2174 34.9765 46.2719 35.1616 46.3662 35.3277C46.1188 35.3821 46.1027 34.9175 45.849 34.7349C46.1275 35.2469 45.6044 34.6412 45.4247 34.519L45.7177 34.9085C45.6916 35.3143 45.0515 34.1414 45.0877 34.5817L45.5712 35.0656L45.3736 34.9899L45.716 35.4196C45.3695 35.1695 45.3867 35.2934 45.379 35.4824C45.1999 35.1898 44.8504 34.7786 44.7431 34.8334C44.8528 35.1101 45.0539 35.1765 44.8772 35.2153C45.0907 35.4465 45.35 35.7271 45.1406 35.3163L45.4514 35.6594C45.5787 35.9747 45.373 35.8639 45.2706 35.8779C45.2775 35.856 45.2799 35.8329 45.2775 35.81C45.2752 35.7871 45.2682 35.7649 45.2569 35.7447L44.6648 35.3472C44.7414 35.4861 44.8446 35.6089 44.9685 35.7088C44.9027 35.6836 44.7431 35.5371 44.6393 35.5826C44.8256 35.8601 45.0554 36.1065 45.3197 36.3126L44.8588 36.1359C44.941 36.3276 45.0401 36.5118 45.1548 36.6865C45.1857 36.9436 44.4499 36.2456 44.5029 36.5858C44.4533 36.531 44.3935 36.4863 44.3267 36.4543C44.2626 36.6216 44.4282 37.0903 43.9607 36.7618L44.5181 37.306C44.3112 37.2267 44.1016 36.5066 43.7734 36.4341C43.4452 36.3616 44.0801 36.9568 44.1454 37.1525C43.8683 36.9183 43.3472 36.42 43.5349 36.9717C43.6443 37.0243 43.5774 36.9454 43.6929 36.9257ZM42.0596 37.6962C42.163 37.7359 42.3954 37.9742 42.2289 37.7611C41.8878 37.2999 42.0154 37.53 42.0596 37.6962ZM39.1883 38.2907C39.308 38.4006 39.2917 38.3304 39.2417 38.1513C39.1917 37.9722 39.1522 38.1596 39.1883 38.2907ZM31.1175 39.9519C31.0769 39.7764 31.1026 39.8502 31.1175 39.9519V39.9519ZM31.1131 40.2168C31.0633 40.1726 31.0213 40.1204 30.9888 40.0625C31.0709 40.158 31.1111 40.1094 31.1017 40.1058C31.0923 40.1022 31.2189 40.2786 31.1131 40.2168ZM44.9851 30.4589L45.0377 30.575C45.2093 30.6621 45.1236 30.576 44.9851 30.4589Z" fill="#EADAD1"/>
<path d="M39.8085 38.6991C39.7703 38.6193 39.7232 38.544 39.6679 38.4746C39.7353 38.5348 39.7841 38.6127 39.8085 38.6991Z" fill="#EADAD1"/>
<path d="M44.7421 36.4963L44.7457 36.487L44.7937 36.5587L44.7421 36.4963Z" fill="#EADAD1"/>
<path d="M35.5645 42.0299C35.5395 41.9484 35.5042 41.8704 35.4593 41.7977C35.532 41.8895 35.5859 41.9741 35.5645 42.0299Z" fill="#EADAD1"/>
<path d="M29.9209 40.0902L30.0714 40.1479C30.0714 40.1479 30.0358 40.2409 30.0991 40.3291C30.1624 40.4174 29.9563 40.0825 29.9209 40.0902Z" fill="#EADAD1"/>
<path d="M31.086 42.9891C31.0295 42.9675 31.086 42.9891 31.0107 42.9603L30.8712 42.7895C30.936 42.7611 31.0781 42.8689 31.086 42.9891Z" fill="#EADAD1"/>
<path d="M30.8476 41.4158C31.0926 41.7336 30.9551 41.6702 30.8539 41.6527C30.4833 41.2121 30.6701 41.3158 30.8476 41.4158Z" fill="#EADAD1"/>
<path d="M30.8316 41.6548C30.6178 41.5089 30.7563 41.626 30.8316 41.6548V41.6548Z" fill="#EADAD1"/>
<path d="M30.7883 40.135C30.8257 40.2346 30.4483 39.7274 30.5313 39.8765C30.1841 39.4875 31.1059 40.2354 30.7883 40.135Z" fill="#EADAD1"/>
<path d="M31.628 42.5039L31.3421 42.0958L31.6202 42.3836L31.628 42.5039Z" fill="#EADAD1"/>
<path d="M31.8481 41.8739L31.844 42.0536C31.8117 42.0041 31.7688 41.9621 31.7184 41.9308C31.7622 41.8729 31.7544 41.7527 31.8481 41.8739Z" fill="#EADAD1"/>
<path d="M31.7183 41.9308C31.7183 41.9308 31.6969 41.9866 31.6054 41.8875C31.5139 41.7885 31.6524 41.9056 31.7183 41.9308Z" fill="#EADAD1"/>
<path d="M31.8471 42.5239L31.8098 42.4243L31.8513 42.3442L31.8471 42.5239Z" fill="#EADAD1"/>
<path d="M32.7667 41.0533L32.9455 41.1219C33.0581 41.2503 33.0918 41.3592 33.0166 41.3304C32.9102 41.2614 32.8239 41.1658 32.7667 41.0533Z" fill="#EADAD1"/>
<path d="M33.3051 42.3792C33.2546 42.2585 33.1898 42.1442 33.112 42.0386L33.4966 42.5272L33.3051 42.3792Z" fill="#EADAD1"/>
<path d="M33.6788 42.2772C33.7914 42.4056 34.1194 42.5633 33.9767 42.6259C33.8923 42.5083 33.6747 42.4568 33.6788 42.2772Z" fill="#EADAD1"/>
<path d="M34.6983 40.5463L34.663 40.5541L34.0594 39.7363L34.6983 40.5463Z" fill="#EADAD1"/>
<path d="M37.4877 41.573C37.5209 41.8523 37.0937 41.0808 37.149 41.4432C36.9777 41.2709 37.0899 41.1753 36.9397 41.0324C37.1547 41.1468 37.1034 40.9992 37.4877 41.573Z" fill="#EADAD1"/>
<path d="M36.9351 40.988L36.8118 40.8874L36.9351 40.988Z" fill="#EADAD1"/>
<path d="M48.8575 26.6339L48.7604 26.4367L48.9691 26.7086L48.8575 26.6339Z" fill="#EADAD1"/>
<path d="M49.5282 27.051L49.0658 26.5965L49.5567 26.9766C49.5567 26.9766 49.4214 26.9354 49.5282 27.051Z" fill="#EADAD1"/>
<path d="M42.6183 38.9126L42.5151 38.7878C42.432 38.6386 42.4391 38.62 42.4664 38.5772L42.6183 38.9126Z" fill="#EADAD1"/>
<path d="M43.378 37.7752L43.3673 37.8031L43.0629 37.3025L43.378 37.7752Z" fill="#EADAD1"/>
<path d="M44.7002 37.7597C44.6823 37.8061 44.5685 37.7092 44.5435 37.7742C44.5186 37.8393 44.264 37.2086 44.7002 37.7597Z" fill="#EADAD1"/>
<path d="M12.4492 26.505C12.4492 26.505 12.0594 26.5368 11.9793 26.5488C12.1314 26.5044 12.291 26.4895 12.4492 26.505Z" fill="#EADAD1"/>
<path d="M13.3934 25.8434L13.2179 25.8508L13.6421 25.7575L13.3934 25.8434Z" fill="#EADAD1"/>
<path d="M13.3766 25.2399C14.0969 25.3029 13.2875 25.4723 13.5227 25.5625L13.6732 25.6202L13.0914 25.6744C13.2002 25.5029 13.58 25.3286 13.3766 25.2399Z" fill="#EADAD1"/>
<path d="M11.8236 24.9005C12.0967 24.9199 12.0558 24.8296 11.9271 24.9401L11.8518 24.9113C11.8435 24.9054 11.8337 24.9017 11.8236 24.9005Z" fill="#EADAD1"/>
<path d="M11.8306 24.9671C11.8092 25.0228 11.6142 24.8841 11.8306 24.9671V24.9671Z" fill="#EADAD1"/>
<path d="M11.9988 24.669L11.7442 24.742C11.6031 24.688 11.5373 24.6627 11.4254 24.6731C11.5658 24.5883 11.7305 24.6089 11.9988 24.669Z" fill="#EADAD1"/>
<path d="M12.5242 24.5932L12.4204 24.6388C12.351 24.6228 12.3228 24.612 12.5242 24.5932Z" fill="#EADAD1"/>
<path d="M12.1939 24.7226L12.4202 24.6388C12.5237 24.6784 12.7699 24.6555 12.3389 24.6822C12.5497 24.6671 12.3483 24.6858 12.1939 24.7226Z" fill="#EADAD1"/>
<path d="M12.2998 24.7845C12.3787 24.8225 12.4645 24.8444 12.552 24.8485C12.6394 24.8527 12.7266 24.8392 12.8083 24.8088C12.703 24.971 12.2052 24.9188 12.2998 24.7845Z" fill="#EADAD1"/>
<path d="M14.1197 25.2156L14.3267 25.2949L14.0792 25.3493C14.2054 25.3017 13.8972 25.2049 14.1197 25.2156Z" fill="#EADAD1"/>
<path d="M11.6391 24.1154C11.7886 24.1194 12.0416 24.1631 12.2417 24.1758L12.0614 24.224C11.9276 24.1645 11.7848 24.1278 11.6391 24.1154Z" fill="#EADAD1"/>
<path d="M12.2417 24.1758L12.5034 24.0842C12.5349 24.1709 12.4136 24.1777 12.2417 24.1758Z" fill="#EADAD1"/>
<path d="M13.3235 24.5905L12.7697 24.7407L13.3342 24.5626L13.3235 24.5905Z" fill="#EADAD1"/>
<path d="M11.6284 23.7488L11.2763 23.7951L11.811 23.7229L11.6284 23.7488Z" fill="#EADAD1"/>
<path d="M11.6954 23.5185C11.4045 23.5456 11.1988 23.4348 11.0221 23.4737C11.1872 23.3896 11.3679 23.3393 11.5536 23.3256C11.4274 23.3732 11.4602 23.4284 11.6954 23.5185Z" fill="#EADAD1"/>
<path d="M11.8845 23.2499L11.5534 23.3256C11.6603 23.2874 11.7714 23.262 11.8845 23.2499Z" fill="#EADAD1"/>
<path d="M12.4297 23.9387C12.279 23.9326 12.1298 23.9042 11.9873 23.8544L12.4109 23.9315L12.4297 23.9387Z" fill="#EADAD1"/>
<path d="M12.9357 24.3353C13.2137 24.2403 13.5145 24.2295 13.8 24.3041C13.5114 24.2942 13.2226 24.3046 12.9357 24.3353Z" fill="#EADAD1"/>
<path d="M12.9405 23.9853L13.0414 24.0879C12.9095 24.0664 12.7753 24.0653 12.6434 24.0846L12.9405 23.9853Z" fill="#EADAD1"/>
<path d="M13.1042 23.9521L12.9687 23.9961L12.9324 23.9502L13.1042 23.9521Z" fill="#EADAD1"/>
<path d="M12.2842 23.4458C12.4703 23.4105 12.4881 23.3641 12.5189 23.3119C12.5497 23.2597 12.6481 23.4254 12.6455 23.4883C12.6429 23.5513 12.2628 23.5016 12.2842 23.4458Z" fill="#EADAD1"/>
<path d="M12.3965 23.6594C12.3965 23.6594 12.4695 23.6661 12.3965 23.6594V23.6594Z" fill="#EADAD1"/>
<path d="M12.728 23.4986C12.8127 23.531 12.7031 23.5637 12.5652 23.5855C12.4274 23.6073 12.5973 23.5018 12.608 23.4739C12.6187 23.446 12.7445 23.4836 12.728 23.4986Z" fill="#EADAD1"/>
<path d="M12.0876 23.1145L12.3228 23.2047C12.1745 23.1692 11.9793 23.1156 12.0876 23.1145Z" fill="#EADAD1"/>
<path d="M12.2988 23.6327C12.1941 23.6245 12.2388 23.6203 12.2988 23.6327V23.6327Z" fill="#EADAD1"/>
<path d="M12.2989 23.6327L12.5652 23.5855L12.4225 23.648L12.2989 23.6327Z" fill="#EADAD1"/>
<path d="M15.3113 22.783C14.9075 22.7668 14.5281 22.8559 14.9598 22.9681C14.1765 22.9935 13.392 22.9358 12.6197 22.7961C12.8145 22.8087 13.0097 22.786 13.1957 22.729C13.465 22.8527 13.7587 22.9142 14.0546 22.909C14.2634 22.7865 13.916 22.7919 13.7149 22.7255C14.2021 22.8056 14.443 22.5994 15.1692 22.6752L14.9075 22.7668C15.0422 22.7628 15.1772 22.7682 15.3113 22.783Z" fill="#EADAD1"/>
<path d="M12.6544 22.9586C12.4898 22.8735 12.3163 22.8069 12.137 22.7603C12.2923 22.7185 12.4528 22.6976 12.614 22.698L12.6534 22.905L12.6544 22.9586Z" fill="#EADAD1"/>
<path d="M12.5804 23.2075C12.9398 23.1533 13.3053 23.1464 13.6672 23.187C13.6245 23.2986 13.2985 23.2483 13.1111 23.315C13.1895 23.1105 12.8708 23.3508 12.6252 23.2034C12.5991 23.211 12.5751 23.2244 12.5551 23.2426C12.5351 23.2608 12.5195 23.2832 12.5095 23.3083L12.3025 23.2289C12.3025 23.2289 12.3872 23.2614 12.3025 23.2289L12.465 23.2273C12.3709 23.1912 12.3615 23.1876 12.3025 23.2289L12.2461 23.2073L12.4892 23.0233C12.6563 23.066 12.6384 23.1125 12.5804 23.2075Z" fill="#EADAD1"/>
<path d="M14.7363 24.2259L14.6517 24.1935C14.6517 24.1935 14.7246 24.2001 14.7363 24.2259Z" fill="#EADAD1"/>
<path d="M14.4754 24.1471C14.4754 24.1471 14.2423 24.1644 14.2916 24.2046C14.3409 24.2448 14.4953 24.2081 14.6412 24.2214C14.4702 24.2743 14.286 24.271 14.1161 24.212C13.8774 24.1221 13.6283 24.0625 13.375 24.0345C13.8199 24.0558 14.0989 24.0881 14.4754 24.1471Z" fill="#EADAD1"/>
<path d="M13.641 23.678L13.8569 23.5369L14.2322 23.6275L14.0097 23.6168C14.1236 23.7138 13.8128 23.68 13.641 23.678Z" fill="#EADAD1"/>
<path d="M12.322 22.7565L11.8698 22.7538L12.5188 22.6934L12.322 22.7565Z" fill="#EADAD1"/>
<path d="M12.3909 22.5484L11.9965 22.5358L12.2404 22.4907L12.3909 22.5484Z" fill="#EADAD1"/>
<path d="M19.1363 12.3828L19.2576 12.376C19.2187 12.3895 19.1766 12.3918 19.1363 12.3828Z" fill="#EADAD1"/>
<path d="M19.0728 12.689L18.8941 12.6205C18.9573 12.6323 19.0179 12.6555 19.0728 12.689Z" fill="#EADAD1"/>
<path d="M12.9743 17.4519C12.6169 17.3149 12.0628 17.1558 12.4852 17.2644L12.9146 17.3544C12.8475 17.3606 12.8838 17.4065 12.9743 17.4519Z" fill="#EADAD1"/>
<path d="M16.1795 14.6078L16.3018 14.6547L15.8898 14.6034L16.1795 14.6078Z" fill="#EADAD1"/>
<path d="M17.9477 14.9765L17.6749 14.8719C17.7692 14.897 17.8607 14.9321 17.9477 14.9765Z" fill="#EADAD1"/>
<path d="M20.0994 10.9396L20.5217 11.0482C20.5003 11.104 20.3054 10.9653 20.0994 10.9396Z" fill="#EADAD1"/>
<path d="M12.7065 20.4305C12.5371 20.3655 12.4619 20.3367 12.4622 20.2515C12.7032 20.3546 13.0785 20.4451 12.7065 20.4305Z" fill="#EADAD1"/>
<path d="M14.6193 11.163C14.7092 11.1638 14.7986 11.1766 14.8853 11.201C14.795 11.2124 14.703 11.1993 14.6193 11.163Z" fill="#EADAD1"/>
<path d="M12.4816 20.0884L12.5757 20.1244C12.5073 20.1622 12.4389 20.1999 12.4622 20.2515C12.2459 20.1686 12.1719 20.1082 12.4816 20.0884Z" fill="#EADAD1"/>
<path d="M22.0773 5.24644C22.1074 5.19531 22.1074 5.19531 22.0773 5.24644V5.24644Z" fill="#EADAD1"/>
<path d="M19.0635 1.51192C19.0635 1.51192 19.0635 1.51192 19.0385 1.57699C19.0136 1.64206 18.9869 1.51456 19.0635 1.51192Z" fill="#EADAD1"/>
<path d="M13.9596 22.0304C14.0317 22.0249 14.104 22.0241 14.1763 22.0281L13.9596 22.0304Z" fill="#EADAD1"/>
<path d="M12.2488 21.737C12.205 21.7948 12.1638 21.7897 12.2488 21.737V21.737Z" fill="#EADAD1"/>
<path d="M12.2786 21.6311C12.2786 21.6311 12.2786 21.6311 12.3231 21.7121L12.2573 21.6869L12.2786 21.6311Z" fill="#EADAD1"/>
<path d="M19.6606 7.72209C19.8066 7.7354 19.7748 7.73388 19.6606 7.72209V7.72209Z" fill="#EADAD1"/>
<path d="M17.6238 17.1446L17.6014 17.1466L17.5826 17.1394L17.6238 17.1446Z" fill="#EADAD1"/>
<path d="M17.9678 17.0632C17.4216 17.0244 17.4803 17.0683 17.5825 17.1394L16.3519 16.8596L17.9678 17.0632Z" fill="#EADAD1"/>
<path d="M19.4694 11.7109L19.8207 11.9202C20.4668 12.008 20.2884 11.8543 20.822 12.1228C19.507 11.7253 20.5796 12.4457 19.2704 12.0611L19.5338 12.1621C19.5338 12.1621 19.5997 12.1873 19.5903 12.1837C20.1732 12.4925 18.5925 11.9718 18.7519 12.2035C18.8708 12.3099 19.025 12.369 19.1846 12.3694L18.8266 12.4027C18.8266 12.4027 19.0711 12.4965 19.0429 12.4857L18.8834 12.6484C18.6681 12.6192 18.3256 12.5838 18.1855 12.5834C18.3642 12.6519 18.3172 12.6339 18.4771 12.6952L18.1262 12.7099C18.4554 12.8362 18.805 12.8529 18.7829 12.7698C20.0623 13.2603 18.4203 12.7588 19.1383 13.1939L19.3315 13.14C20.0559 13.4177 19.7663 13.4133 20.2117 13.6587C19.7547 13.4042 19.2636 13.2159 18.7536 13.0997C18.8476 13.1358 18.8791 13.2225 18.5931 13.2088C19.0446 13.3819 18.9411 13.3422 18.8867 13.428L19.5101 13.603C19.2398 13.5933 18.9705 13.5614 18.7051 13.5076C18.7389 13.6165 19.2105 13.7653 19.6458 13.8682C19.7088 14.0417 18.8932 13.5797 18.7386 13.7017C18.9381 13.8848 18.6638 13.8969 18.2574 13.9437C18.4488 14.0917 18.6457 14.0286 18.7936 14.1493L18.2769 14.0898C18.3479 14.1364 18.4282 14.1672 18.5121 14.18C18.3013 14.1951 17.8815 14.0235 17.6847 14.0867C16.987 13.9365 18.6404 14.549 17.8282 14.4722C18.0356 14.5352 18.2461 14.5874 18.4588 14.6286C18.0967 14.6784 17.7302 14.6915 17.3649 14.6677L17.7444 14.8879C17.2578 14.7203 16.7441 14.6464 16.231 14.6702L15.723 14.4755L15.353 14.5682C15.531 14.5923 15.7104 14.6041 15.8898 14.6034L15.7309 14.5957C16.0462 14.7294 16.3832 14.8044 16.725 14.8169L16.3487 14.6727C16.7412 14.7136 17.131 14.7775 17.5161 14.8643C17.4529 14.8577 17.3891 14.8621 17.3277 14.8774L17.59 14.9246C17.6559 14.9499 17.5242 14.8994 17.3416 14.9254L18.0345 15.1163L17.7805 15.019L18.1691 15.3279C17.4427 15.2338 16.7067 15.2539 15.9884 15.3875C16.4779 15.4558 16.9631 15.5528 17.4415 15.678C16.8207 15.44 17.7551 15.5636 17.6532 15.4073C17.7071 15.4919 18.0012 15.5407 18.0859 15.5732L17.458 15.663C17.6636 15.6763 17.8606 15.7519 18.0225 15.8794C17.0426 15.621 17.3336 15.9032 17.0109 15.9287C17.3214 16.0477 17.684 16.0588 17.6255 15.9298C18.3404 16.2038 16.432 15.8347 17.0457 16.0913C17.0457 16.0913 16.9987 16.0733 17.1741 16.0659C16.8715 16.0672 17.0922 16.2797 17.3688 16.2898C17.4529 16.4926 17.2704 16.8279 16.4255 16.6959L17.6117 16.8947L14.7254 16.6838C15.6701 16.8998 16.6277 17.0532 17.592 17.143C17.6955 17.1827 17.7999 17.2761 17.5243 17.3196C17.1636 17.2046 16.7922 17.1265 16.416 17.0867C16.7849 17.202 17.1463 17.3405 17.4978 17.5014C17.0829 17.3924 16.6548 17.3432 16.2267 17.3553C16.3866 17.4166 17.3457 17.5604 17.4764 17.5572L16.3309 17.5338C16.755 17.5805 17.1746 17.6629 17.5851 17.7801C17.3782 17.7008 17.5352 17.9102 17.5103 17.9753L17.2563 17.8779C17.4004 18.0931 15.6541 17.8075 15.684 18.0109C16.199 18.0493 16.7081 18.1479 17.2007 18.3044C16.1247 18.1638 15.0402 18.1044 13.9564 18.1269L14.2668 18.2459L13.878 18.3314C14.7492 18.3668 16.6011 18.4051 17.3276 18.3957C17.5816 18.4931 17.7158 18.4806 17.6672 18.5792C17.7463 18.6151 17.8324 18.6327 17.9191 18.6309C18.0058 18.629 18.0908 18.6077 18.1676 18.5685L18.3221 18.8409C17.6514 18.7331 17.6177 18.9334 17.0706 18.8409L17.8035 18.6741C17.1363 18.5569 15.8695 18.5404 15.9724 18.7504C16.2264 18.8478 17.1611 18.8863 17.3858 18.9191C17.1539 18.9049 16.9228 19.0295 17.0898 19.0722L17.4573 19.0425C17.7112 19.1398 16.5482 19.0778 17.1703 19.2843C17.2268 19.306 18.0172 19.5237 17.6313 19.461C16.8771 19.2892 14.5023 18.9545 13.9302 18.9271C14.2793 19.085 14.6374 19.2222 15.0026 19.3382C15.5919 19.4895 16.4481 19.4233 16.9622 19.5457C16.798 19.5331 16.6333 19.5305 16.4689 19.5379C16.6194 19.5956 17.0398 19.5968 16.9299 19.7146C16.2449 19.6439 16.9598 19.9179 16.3448 19.6928C16.1479 19.756 16.4739 19.8063 16.4347 19.9086C15.863 19.8285 15.2836 19.8252 14.7122 19.8986C14.89 19.9134 15.117 19.9685 15.2182 19.986C15.2481 20.1894 15.5608 20.3306 15.5437 20.5159C15.7536 20.5899 15.9726 20.6343 16.1944 20.6481C16.0695 20.6642 15.8435 20.6628 15.8127 20.715C16.3949 20.8849 15.919 20.6065 16.6261 20.7602C16.3469 20.7512 16.0691 20.7969 15.8085 20.8946C15.1942 20.8084 15.7079 20.7068 15.9119 20.6251C15.1781 20.5134 14.4304 20.5495 13.7133 20.7311C13.488 20.8686 14.2498 20.8515 14.1272 20.8898C14.2487 21.1922 12.6292 20.9979 13.2157 21.2974C13.6982 21.389 14.1871 21.441 14.6775 21.4526C14.8922 21.343 14.3522 21.2319 14.3748 21.1446L14.6382 21.2456C14.8208 21.2196 14.9576 21.1442 14.8071 21.0865C15.2859 21.2167 14.8537 21.5841 15.2861 21.8352C15.096 21.8854 14.8972 21.8963 14.702 21.8671L14.7341 21.7835C14.2953 21.6899 14.1286 21.8712 13.9194 21.7697C13.6107 21.8432 13.1301 21.9149 13.3627 22.068L13.9841 22.1357C13.797 22.1172 13.6266 21.9986 13.8115 21.9949C13.5264 22.0349 14.6111 22.3014 13.8165 22.2633L13.412 22.1083C13.0939 22.1782 12.4342 22.2665 12.6234 22.3923C12.022 22.3004 12.6798 22.414 11.9892 22.2452C12.8695 22.3694 11.9703 21.9287 12.8928 22.1118C12.0773 21.9591 12.5531 21.9283 11.8674 21.7187C12.0733 21.7443 12.2592 21.7943 12.1619 21.6823L12.4463 21.8127C12.5384 21.8623 12.6364 21.8998 12.738 21.9245C13.2066 21.9122 13.1942 21.7476 13.4439 21.7154C13.3405 21.6757 13.2049 21.7197 12.9967 21.6718L13.3618 21.6199C12.9052 21.5728 12.6291 21.3923 12.3249 21.5103L12.3677 21.3987C12.1231 21.305 12.0293 21.1837 12.232 21.1335C12.1285 21.0938 12.7398 21.019 12.3854 21.043L12.6804 20.8363L12.5769 20.7966C12.5412 20.5803 13.3646 20.4588 12.5685 20.143C12.6888 20.0825 12.8374 20.0328 12.7248 19.9044L12.3294 19.8381C12.4756 19.7662 11.9725 19.5307 12.4363 19.5592C11.435 19.3566 12.2541 19.1056 12.0922 18.9369L12.5995 18.9927C12.6351 18.8998 12.7379 18.8006 12.9584 18.7039L13.4079 18.7696C13.7861 18.712 13.1253 18.4373 13.1894 18.27C13.0211 18.2588 13.0575 18.3047 13.1574 18.3537C12.2167 17.993 13.9638 18.0231 13.2502 17.7176C13.4198 17.6973 13.3705 17.6571 13.2894 17.6153L13.0542 17.5251L13.28 17.6117C13.333 17.5516 13.4055 17.5116 13.4852 17.4985L13.0087 17.3904C12.8394 17.3255 13.2478 17.3861 13.6042 17.4695C13.7034 17.4529 13.8039 17.4451 13.9046 17.446C13.141 17.2706 14.1792 17.3487 13.3722 17.146C13.7783 17.1843 13.7156 16.9257 14.5641 17.0484C14.4606 17.0088 14.4135 16.9907 14.3957 17.0372C14.3779 17.0837 14.2173 16.8835 14.4599 16.8699L13.854 16.7336L14.6583 16.6901C14.3434 16.5493 14.0012 16.4801 13.657 16.4875C14.4143 16.4259 13.967 16.3824 14.7006 16.3545L14.3146 16.2918C14.336 16.236 14.8835 16.2433 14.5624 16.1522C13.8474 15.8781 14.5858 15.5001 13.9246 15.0015C15.055 15.3175 13.4415 14.7416 14.3322 14.9232C14.1264 14.8304 13.9046 14.7779 13.6793 14.7688C13.9834 14.6509 13.3084 14.4134 14.0771 14.4629C13.8231 14.3655 13.6781 14.4059 13.5147 14.3539C13.5711 14.3755 13.7631 14.3532 13.609 14.3048C13.4943 14.2673 13.3725 14.2571 13.2535 14.2751C13.3212 14.0985 14.1766 14.2878 14.9661 14.4518C14.5992 14.3112 14.6747 14.2548 15.2044 14.3086C14.9504 14.2113 14.6964 14.1139 14.5819 14.1873C14.5998 14.1408 14.2915 13.7348 14.9162 13.8783C14.7657 13.8206 14.8882 13.7823 14.9518 13.7853C15.0154 13.7884 14.8982 13.6155 14.9857 13.4998L15.0892 13.5395C15.8576 13.6741 15.2861 13.4763 15.4041 13.3936L15.3288 13.3648C14.8474 12.9883 15.6139 13.3248 15.063 12.9324L15.5051 13.1019C16.4922 13.3416 14.9754 12.7388 15.3876 12.7049L15.651 12.8059C16.0194 12.8299 14.3401 12.2288 14.2428 12.1168C14.1454 12.0049 14.1111 12.0663 14.0203 12.1062C13.4905 11.7431 14.645 12.2497 14.8279 12.1385C14.4986 12.0123 13.9761 11.94 13.953 11.8032C13.6896 11.7022 15.0927 11.8136 14.5003 11.5012C14.7193 11.6119 14.9581 11.6781 15.2026 11.6958C15.3206 11.6131 14.3403 11.1307 15.1593 11.274L14.9617 11.1983C15.2421 11.1115 15.5388 11.087 15.8309 11.1264C14.2693 10.5277 16.7454 10.8799 15.2834 10.4154L15.4325 10.1954L15.2914 10.1413C15.245 9.95286 15.6121 10.0083 15.9887 10.0674C15.8912 10.0135 15.7867 9.97348 15.6783 9.94838C15.4556 9.62847 15.5322 9.62583 16.3197 9.68249L15.8493 9.50218C16.147 9.54169 15.2237 8.91054 15.849 8.8837C15.7831 8.84981 15.7137 8.82321 15.6421 8.80436C16.2745 8.75893 14.5554 7.72677 16.3009 8.26794L16.7789 8.25929C16.8322 8.51428 17.5127 8.54058 17.7949 8.64876C17.9304 8.60477 17.3653 8.24952 17.2414 8.31932L17.3261 8.35177C16.424 8.05927 17.1025 7.97818 16.4816 7.74017C16.6384 7.33116 16.3437 6.74906 16.4745 6.35143L17.1398 6.67045L17.1897 6.54031C17.0298 6.47901 16.6785 6.26969 16.6818 6.34558C16.321 6.13265 17.0716 6.31377 17.2221 6.37147C17.0241 6.07168 16.3917 6.11711 16.4037 6.05773L16.4886 6.005L16.5639 6.03385C16.8675 6.08626 17.1471 6.25743 17.183 6.07929C17.219 5.90115 16.7811 5.86124 16.7636 5.82253C16.746 5.78383 16.6883 5.79368 16.7814 5.77606L16.6932 5.7529L17.2031 6.05501C17.5009 6.09452 17.2637 5.89698 17.8078 6.22282C16.9276 5.70418 17.7468 5.45312 17.4966 5.26127C17.9238 5.32907 17.963 5.22682 17.9753 5.08226C18.0881 5.12553 18.664 5.45289 18.6243 5.33108C17.3638 4.84785 18.1866 4.89675 17.3442 4.39253C17.8905 4.74056 17.6311 4.15068 18.4064 4.66115C18.348 4.53213 17.9361 4.48084 17.6944 4.23891C18.2642 4.24412 17.6175 3.62307 17.909 3.42562C18.1187 3.54144 18.3435 3.62763 18.5769 3.68166L17.8534 3.14843C17.9559 3.13441 18.7941 3.50905 18.2819 3.18473C18.423 3.23883 18.6014 3.39253 18.6864 3.3398C18.1726 2.4285 19.8391 2.64087 18.7037 1.35268C18.9584 1.58893 19.0138 1.55687 19.0706 1.49333C19.2567 1.61858 19.4524 1.72924 19.6558 1.82429L19.1902 1.29395C19.811 1.53196 19.3581 1.08111 19.9258 1.37337L19.7821 1.38226C20.497 1.65633 21.18 2.32331 22.0309 2.77744C21.2219 2.46731 22.9958 3.63779 21.8634 3.21434C22.0208 3.33863 22.155 3.32613 22.3312 3.45764C21.9455 3.30978 21.8609 3.27733 21.9673 3.47807L22.0614 3.51413C21.8464 3.70894 22.1433 4.004 22.2385 4.40299L21.8214 4.16843C21.8881 4.26715 21.9719 4.35344 22.0689 4.42326C21.3916 4.16362 22.1402 4.23735 21.3759 3.92305C22.2454 4.46958 21.2013 4.37854 22.1285 4.91522C22.0893 5.01747 21.649 4.64612 21.6205 4.72048L21.8719 4.88083L21.411 4.70413C21.5727 4.87315 21.7663 5.00898 21.9807 5.10377C21.9807 5.10377 22.0465 5.12902 22.0867 5.08046C22.3638 5.31461 21.8695 5.25306 21.9869 5.34073L21.8698 5.16788C21.4855 5.29777 21.6453 5.75351 21.0271 5.76175L20.8202 5.68242C20.3515 5.69468 20.9688 5.94198 20.6741 6.06354L20.7681 6.0996C20.5612 6.02027 20.4162 6.06065 20.4137 6.12364C20.6677 6.22101 20.8341 6.43409 21.1341 6.4958C20.6302 6.51582 20.7634 6.44963 19.9376 6.23967L20.2643 6.42888C19.9444 6.30627 19.7751 6.24135 19.6312 6.33543C19.9701 6.38007 20.1223 6.63033 20.5719 6.69605C21.2152 7.24122 19.6676 6.69059 20.7206 7.26485C19.755 6.9693 20.2758 6.8491 20.051 6.81625C19.8263 6.78339 19.3053 6.59434 19.3709 6.70477C19.4365 6.8152 20.5355 7.3538 20.4396 7.5196C20.4396 7.5196 20.5148 7.54845 20.5054 7.54484C20.7215 7.71297 20.1204 7.53586 20.4857 7.79318C19.8931 7.56599 20.4465 7.89543 19.7352 7.61207L19.9745 7.52256C19.7355 7.52688 18.8415 7.26948 19.1913 7.59547C19.3529 7.63966 19.5178 7.67077 19.6843 7.68852C19.8793 7.82723 19.5017 7.71448 19.7061 7.8568C20.4492 8.14169 19.9503 7.7265 20.5562 7.86282C20.8452 8.0376 19.9464 7.82098 20.7661 8.10323C19.7313 7.70655 20.8207 8.32673 19.9877 8.13536L20.4299 8.30485C20.364 8.2796 20.1263 8.25243 20.1344 8.28753L20.7082 8.50751C20.1776 8.40004 21.0567 8.865 20.7612 8.84769C20.8361 8.65248 20.225 8.64213 19.9492 8.37648C19.2639 8.39098 21.0551 8.98167 20.7296 9.1554C20.786 9.17704 20.5102 8.91139 20.2819 8.88783C20.4023 9.03271 20.5514 9.15158 20.7199 9.23698C20.5581 9.37754 20.2589 9.06028 19.9861 8.9557C20.5068 9.22993 19.7341 8.96571 19.5269 8.97156L19.9784 9.14466C20.1917 9.46096 19.0164 8.83982 19.2932 9.15916L19.9519 9.32641L19.7564 9.35806L20.2738 9.5564C19.8489 9.5108 19.9381 9.58765 20.0436 9.7347C19.7237 9.61209 19.2252 9.42096 19.16 9.53459C19.4114 9.69494 19.5927 9.70047 19.4913 9.76819C19.7735 9.87637 20.1594 9.93904 19.7634 9.73389L20.2103 9.86259C20.4958 10.0467 20.2214 10.0588 20.2036 10.1052C20.1835 10.0653 20.1498 10.0335 20.1086 10.0155L19.3905 9.97478C19.5253 10.0598 19.6756 10.1174 19.8326 10.1443C19.8148 10.1907 19.5501 10.1213 19.4911 10.1626C19.8067 10.2883 20.1374 10.3721 20.4746 10.4117L19.9988 10.4425C20.1767 10.5463 20.3613 10.6385 20.5512 10.7183C20.7449 10.8885 19.7459 10.7081 19.9912 10.9407C19.924 10.9165 19.8516 10.9109 19.7817 10.9244C19.8236 11.0684 20.2489 11.338 19.6392 11.2962L20.2892 11.5987C20.0924 11.6619 19.477 11.2127 19.1576 11.3142C18.8381 11.4156 19.722 11.5305 19.8852 11.6677C19.5274 11.6159 18.7989 11.5179 19.3089 11.82C19.4973 11.8069 19.414 11.743 19.4694 11.7109ZM18.7455 13.0646C18.8395 13.1007 19.1645 13.0973 18.8917 12.9927C18.3516 12.8817 18.5962 12.9754 18.7419 13.0739L18.7455 13.0646ZM17.0375 15.0433C17.1964 15.0509 17.1282 15.0035 16.9625 14.9293C16.7967 14.8551 16.9152 14.9964 17.0375 15.0433ZM12.6767 21.24C12.5275 21.1508 12.5898 21.1853 12.6767 21.24V21.24ZM12.8834 21.4045C12.8125 21.4132 12.7406 21.4108 12.6703 21.3974C12.801 21.3942 12.8117 21.3664 12.7753 21.3204C12.8765 21.3379 12.993 21.3719 12.8551 21.3937L12.8834 21.4045ZM16.8182 6.04603L16.931 6.08931C17.0734 6.11191 16.9534 6.08722 16.8182 6.04603Z" fill="#EADAD1"/>
<path d="M17.749 14.9323L17.5044 14.8385C17.5909 14.8548 17.6737 14.8866 17.749 14.9323Z" fill="#EADAD1"/>
<path d="M20.0113 10.9165L20.0019 10.9128L20.0901 10.936L20.0113 10.9165Z" fill="#EADAD1"/>
<path d="M17.1937 19.6452C17.1194 19.6055 17.0404 19.5752 16.9585 19.555C17.0727 19.5668 17.1703 19.5936 17.1937 19.6452Z" fill="#EADAD1"/>
<path d="M12.0095 22.1357L12.1405 22.0473C12.1191 22.1031 12.2346 22.0834 12.3098 22.1123C12.1814 22.1377 12.0202 22.1078 12.0095 22.1357Z" fill="#EADAD1"/>
<path d="M14.9626 23.1292C14.9062 23.1076 14.9626 23.1292 14.9413 23.185L14.7094 23.1707C14.6837 23.0969 14.8699 23.0616 14.9626 23.1292Z" fill="#EADAD1"/>
<path d="M13.5784 22.3213C13.988 22.3504 13.8418 22.4223 13.7698 22.4694C13.2259 22.4528 13.4227 22.3896 13.5784 22.3213Z" fill="#EADAD1"/>
<path d="M13.7815 22.4952C13.7815 22.4952 13.7815 22.4952 13.7601 22.5509C13.5 22.5258 13.7166 22.5236 13.7815 22.4952Z" fill="#EADAD1"/>
<path d="M12.5932 21.5705C12.6966 21.6101 12.0716 21.5518 12.2328 21.5816C11.722 21.535 12.848 21.4123 12.5932 21.5705Z" fill="#EADAD1"/>
<path d="M14.9544 22.4756L14.4471 22.4198L14.8616 22.4081L14.9544 22.4756Z" fill="#EADAD1"/>
<path d="M14.61 21.9385L14.7579 22.0591C14.7005 22.0495 14.6416 22.0566 14.5883 22.0794C14.5532 22.002 14.464 21.9252 14.61 21.9385Z" fill="#EADAD1"/>
<path d="M14.5693 22.0722C14.5693 22.0722 14.548 22.128 14.5337 22.1652C14.5194 22.2023 14.508 22.0914 14.5693 22.0722Z" fill="#EADAD1"/>
<path d="M15.1124 22.3444L15.0089 22.3047L14.9739 22.2273L15.1124 22.3444Z" fill="#EADAD1"/>
<path d="M14.6042 20.8275L14.7611 20.7277C14.9116 20.7854 15.0151 20.8251 14.968 20.807C14.8495 20.838 14.7258 20.8449 14.6042 20.8275Z" fill="#EADAD1"/>
<path d="M15.9484 21.2895C15.8245 21.2524 15.6978 21.2252 15.5696 21.2082L16.1946 21.2665L15.9484 21.2895Z" fill="#EADAD1"/>
<path d="M16.1166 20.9914C16.2979 20.997 16.6339 20.8805 16.584 21.0107C16.4121 21.0087 16.1975 21.1184 16.1166 20.9914Z" fill="#EADAD1"/>
<path d="M15.5186 19.2588L15.5114 19.2774L14.4946 19.1435L15.5186 19.2588Z" fill="#EADAD1"/>
<path d="M18.1475 18.1983C18.3672 18.3572 17.5167 18.1271 17.7999 18.289C17.5586 18.2711 17.5553 18.1952 17.3672 18.1231C17.6286 18.1167 17.491 18.0533 18.1475 18.1983Z" fill="#EADAD1"/>
<path d="M17.3379 18.1438L17.1812 18.1583C17.2321 18.1444 17.2851 18.1395 17.3379 18.1438Z" fill="#EADAD1"/>
<path d="M18.7356 0.959784L18.5902 0.77611L18.865 0.988072L18.7356 0.959784Z" fill="#EADAD1"/>
<path d="M19.519 1.19611L18.9221 0.83934L19.4771 1.05211C19.4771 1.05211 19.3639 1.09401 19.519 1.19611Z" fill="#EADAD1"/>
<path d="M19.948 13.6429L19.8069 13.5888C19.647 13.5275 19.6282 13.5203 19.6178 13.463L19.948 13.6429Z" fill="#EADAD1"/>
<path d="M19.7787 12.4799L19.7845 12.4928L19.2354 12.2929L19.7787 12.4799Z" fill="#EADAD1"/>
<path d="M20.7571 11.842C20.7571 11.842 20.6309 11.8896 20.6485 11.9283C20.666 11.967 20.0597 11.6067 20.7571 11.842Z" fill="#EADAD1"/>
</g>
<defs>
<clipPath id="clip0_401_951">
<rect width="73" height="49" fill="white" transform="matrix(-0.93374 -0.357951 -0.357951 0.93374 86.3513 26.6885)"/>
</clipPath>
</defs>
</svg>
