<svg width="58" height="35" viewBox="0 0 58 35" fill="none" xmlns="http://www.w3.org/2000/svg">
<g clip-path="url(#clip0_401_709)">
<path d="M27.1801 34.56C27.1801 34.56 27.4901 34.32 27.5501 34.27C27.4201 34.28 27.1101 34.63 27.1801 34.56Z" fill="#EADAD1"/>
<path d="M25.98 34.69L26.12 34.58L25.74 34.8L25.98 34.69Z" fill="#EADAD1"/>
<path d="M25.5199 34.21C25.0599 34.76 25.7699 34.3 25.6799 34.56L25.5699 34.69L26.0199 34.33C25.8499 34.29 25.4499 34.42 25.5199 34.21Z" fill="#EADAD1"/>
<path d="M26.3401 32.84C26.1601 33.06 26.1201 32.96 26.3401 32.97V32.9C26.3401 32.9 26.3501 32.88 26.3401 32.84Z" fill="#EADAD1"/>
<path d="M26.3799 32.9C26.4499 32.9 26.5099 32.7 26.3799 32.9V32.9Z" fill="#EADAD1"/>
<path d="M26 32.79L26.24 32.67C26.34 32.54 26.3 32.45 26.41 32.39C26.26 32.42 26.17 32.55 26 32.79Z" fill="#EADAD1"/>
<path d="M25.6001 33.1H25.7101C25.7501 33 25.7501 33 25.6001 33.1Z" fill="#EADAD1"/>
<path d="M25.94 33L25.71 33.09C25.64 33.18 25.48 33.35 25.8 33.09C25.64 33.18 25.8 33.05 25.94 33Z" fill="#EADAD1"/>
<path d="M25.9101 33.09C25.8865 33.1738 25.8447 33.2513 25.7876 33.317C25.7306 33.3827 25.6597 33.4349 25.5801 33.47C25.7801 33.52 26.1101 33.14 25.9101 33.09Z" fill="#EADAD1"/>
<path d="M24.9999 34.71L24.8999 34.91L25.1099 34.78C24.9999 34.84 25.1299 34.55 24.9999 34.71Z" fill="#EADAD1"/>
<path d="M25.82 32.11C25.72 32.21 25.57 32.43 25.45 32.58L25.62 32.5C25.6531 32.3553 25.7218 32.2213 25.82 32.11Z" fill="#EADAD1"/>
<path d="M25.4499 32.58L25.1899 32.7C25.2399 32.78 25.3399 32.7 25.4499 32.58Z" fill="#EADAD1"/>
<path d="M25.04 33.67L25.54 33.38L25.01 33.65L25.04 33.67Z" fill="#EADAD1"/>
<path d="M25.5301 31.82L25.8101 31.59L25.3701 31.92L25.5301 31.82Z" fill="#EADAD1"/>
<path d="M25.28 31.68C25.51 31.49 25.56 31.26 25.71 31.16C25.62 31.16 25.41 31.3 25.22 31.43C25.35 31.37 25.38 31.44 25.28 31.68Z" fill="#EADAD1"/>
<path d="M24.9399 31.61L25.2199 31.43C25.1195 31.4782 25.0255 31.5387 24.9399 31.61Z" fill="#EADAD1"/>
<path d="M25.1101 32.52C25.2083 32.4077 25.2861 32.2791 25.3401 32.14L25.0801 32.49L25.1101 32.52Z" fill="#EADAD1"/>
<path d="M25.1201 32.53C25.1201 32.53 25.0801 32.57 25.1201 32.53V32.53Z" fill="#EADAD1"/>
<path d="M25.1 33.2C24.8331 33.3254 24.6126 33.5319 24.47 33.79C24.6685 33.5815 24.8789 33.3845 25.1 33.2Z" fill="#EADAD1"/>
<path d="M24.8 33V33.15C24.8802 33.0414 24.9743 32.9439 25.08 32.86L24.8 33Z" fill="#EADAD1"/>
<path d="M24.6699 33.03L24.7999 32.96L24.7899 32.91L24.6699 33.03Z" fill="#EADAD1"/>
<path d="M24.8199 32C24.6599 32.11 24.6099 32.09 24.5499 32.07C24.5409 32.1103 24.5417 32.1523 24.5521 32.1923C24.5626 32.2323 24.5824 32.2692 24.6099 32.3C24.6999 32.24 24.8799 32.08 24.8199 32Z" fill="#EADAD1"/>
<path d="M24.9199 32.29C24.9199 32.29 24.8699 32.35 24.9199 32.29V32.29Z" fill="#EADAD1"/>
<path d="M24.1 31.73L24.05 31.8L24.1 31.74V31.73Z" fill="#EADAD1"/>
<path d="M24.56 32.41C24.56 32.5 24.64 32.41 24.74 32.41C24.6982 32.4262 24.6518 32.4262 24.61 32.41C24.61 32.41 24.54 32.41 24.56 32.41Z" fill="#EADAD1"/>
<path d="M24.6801 31.65C24.6801 31.74 24.6201 31.81 24.5901 31.89C24.6601 31.77 24.7601 31.57 24.6801 31.65Z" fill="#EADAD1"/>
<path d="M25 32.21C24.923 32.2543 24.8494 32.3045 24.78 32.36C24.8331 32.3674 24.887 32.3674 24.94 32.36L25 32.21Z" fill="#EADAD1"/>
<path d="M22.22 33.75C22.48 33.45 22.8 33.24 22.61 33.63C23.1619 33.0802 23.6454 32.4658 24.05 31.8C23.9328 31.9546 23.7824 32.081 23.61 32.17C23.5 32.36 23.47 32.71 23.17 32.93C22.87 33.15 23.17 32.75 23.25 32.54C22.98 32.96 22.66 32.99 22.25 33.54L22.5 33.42C22.391 33.5157 22.2966 33.6269 22.22 33.75Z" fill="#EADAD1"/>
<path d="M24.1901 32H24.2601C24.3078 31.82 24.3819 31.6482 24.4801 31.49C24.3391 31.5704 24.211 31.6715 24.1001 31.79L24.2401 31.98L24.1901 32Z" fill="#EADAD1"/>
<path d="M24.4199 32.08C24.1278 32.2991 23.8714 32.5623 23.6599 32.86C23.7799 32.92 23.9599 32.64 24.1399 32.55C23.9199 32.49 24.3399 32.41 24.3899 32.12C24.4415 32.1009 24.4983 32.1009 24.5499 32.12C24.5418 32.0469 24.5418 31.9731 24.5499 31.9C24.5499 31.9 24.5499 31.97 24.5499 31.9L24.4399 32.02C24.4399 31.91 24.4999 31.93 24.5499 31.9H24.2299C24.2599 32 24.3099 32.05 24.4199 32.08Z" fill="#EADAD1"/>
<path d="M23.77 34.4L23.83 34.33C23.83 34.33 23.76 34.38 23.77 34.4Z" fill="#EADAD1"/>
<path d="M23.8801 34.16C23.9301 34.16 24.0601 34 24.0601 34.07C24.0601 34.14 23.9201 34.22 23.8301 34.33C23.9903 34.2486 24.1174 34.1144 24.1901 33.95H24.1401C24.2334 33.7114 24.3578 33.4861 24.5101 33.28C24.2601 33.62 24.1001 33.84 23.8801 34.16Z" fill="#EADAD1"/>
<path d="M24.0799 33.21H23.8199L23.6399 33.55L23.7799 33.38C23.7999 33.55 23.9999 33.33 24.0799 33.21Z" fill="#EADAD1"/>
<path d="M24.22 31.56L24.53 31.22L24.04 31.65L24.22 31.56Z" fill="#EADAD1"/>
<path d="M24 31.45L24.25 31.15L24.06 31.3L24 31.45Z" fill="#EADAD1"/>
<path d="M10.9999 30.07L10.9199 30.17C10.9519 30.1413 10.9789 30.1075 10.9999 30.07Z" fill="#EADAD1"/>
<path d="M11.29 30.19L11.35 30C11.31 30.1 11.28 30.17 11.29 30.19Z" fill="#EADAD1"/>
<path d="M19.2099 28.27C19.3199 27.91 19.5199 27.37 19.3099 27.76L19.1299 28.15C19.2099 28.11 19.2199 28.17 19.2099 28.27Z" fill="#EADAD1"/>
<path d="M14.6799 29V29.13L14.8799 28.77L14.6799 29Z" fill="#EADAD1"/>
<path d="M14.0001 30.61V30.31C13.985 30.4094 13.985 30.5106 14.0001 30.61Z" fill="#EADAD1"/>
<path d="M9.15 30.07L9 30.49C9.08 30.51 9.09 30.28 9.15 30.07Z" fill="#EADAD1"/>
<path d="M22 30.14C22 29.96 22 29.87 22 29.83C21.92 30.08 21.76 30.42 22 30.14Z" fill="#EADAD1"/>
<path d="M12.42 25.69C12.3683 25.7636 12.3278 25.8445 12.3 25.93C12.3616 25.8627 12.4032 25.7796 12.42 25.69Z" fill="#EADAD1"/>
<path d="M21.8401 29.72V29.82C21.9201 29.82 22.0001 29.77 22.0301 29.82C22.0601 29.64 22.0601 29.5 21.8401 29.72Z" fill="#EADAD1"/>
<path d="M2.83992 29V28.95C2.81992 29 2.82992 29 2.83992 29Z" fill="#EADAD1"/>
<path d="M0.620117 24.75C0.620117 24.75 0.670117 24.75 0.700117 24.75C0.730117 24.75 0.660117 24.68 0.620117 24.75Z" fill="#EADAD1"/>
<path d="M22.5101 32.22C22.4589 32.2655 22.412 32.3157 22.3701 32.37C22.4121 32.3158 22.459 32.2656 22.5101 32.22Z" fill="#EADAD1"/>
<path d="M19.94 31.69C19.91 31.77 19.91 31.75 19.94 31.69V31.69Z" fill="#EADAD1"/>
<path d="M23.3101 30.91C23.3185 30.8637 23.3185 30.8163 23.3101 30.77C23.3101 30.77 23.3201 30.85 23.3101 30.91Z" fill="#EADAD1"/>
<path d="M23.4299 30.75V30.81C23.4899 30.75 23.5099 30.71 23.4299 30.75Z" fill="#EADAD1"/>
<path d="M23.3101 30.69C23.3101 30.69 23.3101 30.69 23.3101 30.77C23.3032 30.7506 23.3032 30.7294 23.3101 30.71V30.69Z" fill="#EADAD1"/>
<path d="M6.40991 28.06C6.33991 28.19 6.36991 28.16 6.40991 28.06V28.06Z" fill="#EADAD1"/>
<path d="M16.04 31.68L16.05 31.66V31.65L16.04 31.68Z" fill="#EADAD1"/>
<path d="M15.76 31.9C16.06 31.45 16.06 31.52 16.05 31.65L16.57 30.51L15.76 31.9Z" fill="#EADAD1"/>
<path d="M10.1901 30V30.4C9.90011 30.99 9.87011 30.75 9.82011 31.31C10.1901 30 10.2401 31.31 10.6201 29.98V30.27C10.6201 30.27 10.6201 30.33 10.5601 30.27C10.5601 30.93 10.9301 29.35 11.0501 29.59C11.0853 29.7467 11.0603 29.9109 10.9801 30.05L11.2101 29.77C11.2101 29.77 11.1601 30.03 11.1301 29.99L11.3601 29.94C11.4501 29.75 11.6201 29.45 11.6901 29.33C11.6901 29.53 11.6201 29.46 11.5801 29.62L11.8001 29.34C11.7401 29.69 11.5401 29.99 11.4801 29.92C11.1801 31.24 11.6801 29.61 11.6601 30.45L11.5001 30.58C11.3301 31.33 11.5001 31.09 11.5001 31.58C11.5459 31.0607 11.6706 30.5515 11.8701 30.07C11.8701 30.18 11.8701 30.24 12.0501 30C11.9001 30.46 12.0001 30.37 12.0501 30.37L11.8401 30.98C11.993 30.7531 12.1236 30.512 12.2301 30.26C12.239 30.6031 12.1742 30.9441 12.0401 31.26C12.1601 31.41 12.2001 30.48 12.4201 30.42C12.4201 30.7 12.6401 30.48 12.9201 30.17C12.9201 30.41 12.7701 30.54 12.7401 30.72L12.9901 30.27C12.9901 30.27 12.9901 30.43 12.9201 30.5C13.0501 30.34 13.1501 29.91 13.3101 29.78C13.5901 29.13 13.1601 30.78 13.5801 30.13C13.5801 30.31 13.4201 30.49 13.3401 30.72C13.6033 30.4506 13.8349 30.152 14.0301 29.83V30.27C14.1677 29.7765 14.4061 29.3168 14.7301 28.92L14.8501 28.4L15.1601 28.15C15.0938 28.3391 15.0066 28.5202 14.9001 28.69L14.9901 28.56C14.9197 28.8745 14.7908 29.1731 14.6101 29.44L14.7001 29.05C14.5007 29.3968 14.3269 29.7578 14.1801 30.13C14.2069 30.0734 14.2483 30.0251 14.3001 29.99C14.2541 30.0668 14.214 30.1471 14.1801 30.23C14.1801 30.29 14.1801 30.17 14.3201 30.03L14.0901 30.7L14.2101 30.45V30.94C14.6401 30.34 15.2101 29.42 15.5701 29.27C15.3366 29.7037 15.1295 30.1512 14.9501 30.61C15.1501 29.97 14.6501 30.78 14.5801 30.61C14.5801 30.7 14.4901 30.96 14.4301 31.05L14.8901 30.6C14.6801 31.06 14.7901 30.96 14.7601 31.18C15.1201 30.25 15.1901 30.65 15.4101 30.41C15.2701 30.72 15.1101 31.03 15.0301 30.9C14.8401 31.64 15.6801 29.9 15.5301 30.54C15.5301 30.54 15.5301 30.48 15.4201 30.63C15.6101 30.39 15.6601 30.63 15.5001 30.93C15.6301 31.12 16.0301 31.19 16.4401 30.44L15.8701 31.5L17.4801 29.09C17.0808 29.9682 16.6196 30.817 16.1001 31.63C16.1001 31.75 16.1001 31.87 16.2901 31.69C16.4243 31.3431 16.5882 31.0085 16.7801 30.69C16.6496 31.0561 16.5427 31.4302 16.4601 31.81C16.4601 31.65 17.0601 30.66 17.1201 30.73C17.1801 30.8 16.5901 31.73 16.5201 31.82L17.2101 30.92C16.9784 31.2741 16.7872 31.6532 16.6401 32.05C16.7201 31.85 16.7601 32.15 16.8601 32.05L16.9201 31.79C17.0101 32.04 17.8601 30.5 18.0201 30.66C17.7169 31.0893 17.4715 31.5567 17.2901 32.05C17.8781 31.1287 18.5474 30.2619 19.2901 29.46L19.1601 29.76L19.4801 29.51C18.9501 30.21 17.8201 31.67 17.3501 32.22C17.2901 32.48 17.1801 32.57 17.3001 32.6C17.1801 32.89 17.0101 32.97 16.9701 32.97L17.1001 33.27C17.4301 32.68 17.6201 32.79 17.8901 32.27L17.2901 32.73C17.6101 32.15 18.4001 31.16 18.5101 31.37C18.4101 31.63 17.8701 32.37 17.7601 32.57C17.8901 32.39 18.1401 32.29 18.0701 32.44L17.8101 32.71C17.8101 32.98 18.4201 32.04 18.2001 32.65C18.2001 32.71 17.8501 33.46 18.0701 33.12C18.4101 32.43 19.6401 30.4 19.9801 29.94C19.9042 30.3182 19.7972 30.6894 19.6601 31.05C19.4001 31.6 18.8001 32.2 18.5801 32.67C18.6699 32.5359 18.7739 32.4119 18.8901 32.3C18.8401 32.45 18.5701 32.77 18.7001 32.75C19.0801 32.18 18.8401 32.91 19.0501 32.29C19.2401 32.18 19.0501 32.47 19.1801 32.5C19.4783 32.0102 19.8531 31.5713 20.2901 31.2C20.1962 31.3388 20.1094 31.4823 20.0301 31.63C20.1901 31.79 20.1001 32.13 20.2601 32.24C20.1905 32.4526 20.0857 32.652 19.9501 32.83C20.0401 32.74 20.1901 32.57 20.2501 32.59C20.0101 33.14 20.0901 32.59 19.7601 33.22C19.934 33.0016 20.1566 32.827 20.4101 32.71C20.7401 32.19 20.3101 32.5 20.1001 32.65C20.4909 32.04 21.0053 31.5188 21.6101 31.12C21.8701 31.05 21.3601 31.61 21.4501 31.53C21.6201 31.84 22.5401 30.53 22.4001 31.15C22.1517 31.568 21.8709 31.9659 21.5601 32.34C21.3301 32.42 21.5601 31.94 21.5001 31.9L21.4501 32.18C21.3001 32.3 21.1501 32.35 21.2001 32.18C20.9901 32.62 21.5901 32.55 21.5001 33.06C21.6683 32.9555 21.8116 32.8156 21.9201 32.65H21.8201C22.0201 32.26 22.2901 32.27 22.3401 32.04C22.6101 31.87 22.9901 31.56 22.9601 31.85L22.6101 32.35C22.7101 32.21 22.7501 32 22.6101 32.12C22.8201 31.95 22.2701 32.92 22.8201 32.33L23.0001 31.93C23.2801 31.76 23.7901 31.33 23.7801 31.57C24.1101 31.06 23.7101 31.57 24.0801 30.99C23.5901 31.73 23.8201 30.74 23.3501 31.55C23.7801 30.84 23.4301 31.17 23.7601 30.55C23.6401 30.72 23.5601 30.89 23.5301 30.74L23.4001 30.86C23.3616 30.9572 23.3147 31.0508 23.2601 31.14C22.9301 31.47 22.8001 31.34 22.6101 31.5C22.6101 31.38 22.7701 31.33 22.8701 31.13L22.5801 31.37C22.8401 31 22.8801 30.66 23.1701 30.55L23.0601 30.45C23.1401 30.19 23.0601 30.04 22.9301 30.15C22.9301 30.03 22.5001 30.45 22.7501 30.2L22.4001 30.3L22.4701 30.2C22.3101 30.02 21.6601 30.55 21.9101 29.73C21.7901 29.78 21.6401 29.85 21.6101 29.67L21.8101 29.33C21.6501 29.39 21.8101 28.85 21.5101 29.16C21.9901 28.23 21.2301 28.71 21.1801 28.47L20.9101 28.89C20.8201 28.81 20.6501 28.89 20.4201 28.96L20.1901 29.35C19.8901 29.6 20.0801 28.91 19.8901 28.84C19.9901 28.7 20.0101 28.77 19.9901 28.84C20.3001 27.84 19.1801 29.23 19.3601 28.48C19.2401 28.6 19.2301 28.53 19.2501 28.41C19.2701 28.29 19.2501 28.41 19.2501 28.41L19.3001 28.17C19.2739 28.2483 19.2539 28.3286 19.2401 28.41C19.1562 28.4073 19.0743 28.4358 19.0101 28.49L19.2201 28.05C19.2201 27.86 19.0601 28.22 18.9201 28.56C18.84 28.6191 18.7693 28.6899 18.7101 28.77C19.0401 28.07 18.4401 28.93 18.7801 28.16C18.5501 28.5 18.3701 28.28 17.9401 29.02C17.9901 28.92 18.0001 28.87 18.0301 28.88C18.0601 28.89 18.0301 28.64 17.8401 28.88L18.1001 28.32L17.5901 28.98C17.6557 28.6148 17.8103 28.2713 18.0401 27.98C17.5201 28.54 17.7601 28.15 17.2801 28.72L17.4601 28.36C17.4001 28.36 17.0701 28.78 17.1801 28.47C17.3701 27.73 16.5801 28.07 16.5301 27.27C16.1201 28.37 16.5301 26.72 16.2001 27.54C16.248 27.3222 16.3362 27.1153 16.4601 26.93C16.1701 27.1 16.3601 26.41 15.9401 27.06C16.0301 26.8 16.1301 26.71 16.1801 26.55C16.1801 26.6 16.0301 26.74 16.0801 26.55C16.1166 26.4353 16.182 26.332 16.2701 26.25C16.0601 26.25 15.7201 27 15.4001 27.73C15.4501 27.34 15.4001 27.37 15.1201 27.83C15.1901 27.58 15.2401 27.3 15.3901 27.26C15.3901 27.2 15.1401 26.75 14.9001 27.34C14.9001 27.18 14.8301 27.26 14.7901 27.34C14.7501 27.42 14.6701 27.19 14.5101 27.19V27.3C14.1901 28 14.3401 27.42 14.1901 27.47V27.39C14.1301 26.78 13.9901 27.61 13.9501 26.92L13.8001 27.38C13.4301 28.38 13.8001 26.73 13.5001 27.05V27.32C13.3001 27.63 13.7301 25.92 13.6801 25.77C13.6301 25.62 13.7601 25.64 13.8001 25.59C13.8001 24.93 13.5701 26.17 13.3701 26.25C13.4401 25.92 13.6801 25.45 13.5801 25.35C13.5801 25.07 12.9301 26.28 12.9701 25.62C12.9534 25.8612 12.8779 26.0947 12.7501 26.3C12.6101 26.36 12.7501 25.3 12.3701 26.03C12.3644 25.9601 12.3644 25.8899 12.3701 25.82C12.2201 26 11.9801 26.08 11.8101 26.49C12.1701 24.88 11.0501 27.12 11.4501 25.64H11.1501L11.2001 25.49C11.0501 25.35 10.8901 25.69 10.7401 26.03C10.7447 25.9233 10.7684 25.8183 10.8101 25.72C10.6301 25.36 10.5801 25.41 10.1901 26.11L10.2801 25.62C10.1601 25.89 10.0701 24.77 9.69011 25.28C9.7096 25.2075 9.73641 25.1371 9.77011 25.07C9.37011 25.57 9.33011 23.57 8.89011 25.33L8.62011 25.74C8.83011 25.92 8.44011 26.51 8.49011 26.82C8.38011 26.91 8.34011 26.24 8.49011 26.17V26.26C8.69011 25.34 8.24011 25.88 8.35011 25.26C7.86011 25.26 7.46011 24.62 7.00011 24.54V25.28L6.85011 25.22C6.85011 25.04 6.85011 24.64 6.97011 24.69C6.97011 24.27 6.73011 25.01 6.72011 25.17C6.52011 24.85 6.90011 24.33 6.83011 24.3L6.73011 24.35V24.44C6.62011 24.72 6.58011 25.04 6.45011 24.99C6.32011 24.94 6.45011 24.53 6.45011 24.5C6.45011 24.47 6.45011 24.43 6.45011 24.5L6.25011 24.41V25C6.13011 25.27 6.06011 25 6.09011 25.61C6.09011 24.61 5.37011 25.17 5.31011 24.87C5.16011 25.28 5.04011 25.27 4.89011 25.21C4.89011 25.33 4.89011 25.98 4.78011 25.9C4.90011 24.56 4.57011 25.3 4.50011 24.33C4.58011 24.98 4.12011 24.47 4.24011 25.39C4.13011 25.27 4.24011 24.89 4.17011 24.57C3.90011 25.07 3.59011 24.22 3.26011 24.4C3.28908 24.6324 3.28908 24.8675 3.26011 25.1L3.08011 24.23C3.01011 24.31 3.08011 25.23 2.90011 24.63C2.93129 24.7716 2.93129 24.9183 2.90011 25.06C2.22011 24.2 1.64011 25.79 0.900106 24.24C1.02011 24.57 0.960106 24.61 0.900106 24.63C0.942739 24.8507 0.962842 25.0752 0.960106 25.3L0.640106 24.66C0.640106 25.32 0.350107 24.72 0.380107 25.36L0.460107 25.24C0.460107 25.99 0.770106 26.88 0.830106 27.83C0.880107 26.98 1.24011 29.06 1.33011 27.83C1.39011 28.02 1.33011 28.14 1.33011 28.36C1.33011 27.95 1.40011 27.86 1.52011 28.03V28.14C1.81011 28.02 1.97011 28.4 2.31011 28.66V28.19C2.39011 28.25 2.41011 28.4 2.45011 28.52C2.45011 27.8 2.24011 28.52 2.29011 27.69C2.42011 28.69 2.81011 27.69 2.89011 28.79C3.00011 28.79 2.89011 28.24 2.96011 28.25V28.54V28.16C3.04814 28.3788 3.08573 28.6146 3.07011 28.85C3.07011 28.85 3.07011 28.92 3.01011 28.94C3.10011 29.29 3.27011 28.82 3.30011 28.94L3.00011 28.84C3.30011 28.56 3.66011 28.94 4.00011 28.36V28.13C4.24011 27.73 4.17011 28.39 4.43011 28.21V28.26C4.49011 28.04 4.57011 27.93 4.63011 27.96C4.56011 28.22 4.72011 28.47 4.63011 28.76C4.89011 28.33 4.76011 28.42 4.98011 27.6V28C5.06011 27.67 5.08011 27.49 5.21011 27.4C5.08011 27.71 5.21011 27.97 5.10011 28.4C5.30011 29.22 5.55011 27.62 5.57011 28.81C5.78011 27.81 5.40011 28.22 5.48011 28.01C5.56011 27.8 5.65011 27.25 5.72011 27.36C5.79011 27.47 5.72011 28.69 5.95011 28.69C5.95011 28.69 5.95011 28.76 5.95011 28.75C5.95011 29.02 6.14011 28.42 6.19011 28.85C6.31011 28.24 6.30011 28.9 6.41011 28.11L6.20011 28.27C6.32011 28.08 6.53011 27.17 6.67011 27.64C6.62437 27.8004 6.56756 27.9574 6.50011 28.11C6.50011 28.35 6.62011 27.97 6.65011 28.21C6.54011 28.99 6.40011 28.36 6.21011 28.94C6.21011 29.28 6.49011 28.4 6.34011 29.24C6.55011 28.17 6.52011 29.4 6.76011 28.59L6.60011 29C6.60011 28.93 6.71011 28.71 6.75011 28.73L6.59011 29.33C6.77011 28.82 6.74011 29.8 6.89011 29.54C6.67011 29.54 6.89011 28.96 6.89011 28.61C7.25011 28.02 6.89011 29.86 7.20011 29.69C7.20011 29.75 7.09011 29.38 7.20011 29.17C7.26146 29.3468 7.2919 29.5328 7.29011 29.72C7.50011 29.66 7.29011 29.24 7.46011 28.96C7.46011 29.55 7.60011 28.75 7.72011 28.58L7.64011 29.06C7.82011 29.4 7.87011 28.06 8.02011 28.48L7.82011 29.12L7.93011 29L7.81011 29.54C8.00011 29.16 8.02011 29.27 8.11011 29.44C8.11011 29.1 8.28011 28.58 8.39011 28.58C8.39011 28.87 8.26011 29.02 8.39011 28.98C8.30011 29.27 8.20011 29.64 8.21011 29.19L8.09011 29.64C8.09011 29.97 8.26011 29.74 8.32011 29.74C8.31185 29.7211 8.30758 29.7006 8.30758 29.68C8.30758 29.6593 8.31185 29.6389 8.32011 29.62L8.65011 29C8.64329 29.159 8.60595 29.3151 8.54011 29.46C8.59011 29.41 8.66011 29.2 8.73011 29.18C8.67966 29.5057 8.58196 29.8224 8.44011 30.12L8.72011 29.73C8.72497 29.9378 8.70821 30.1456 8.67011 30.35C8.73011 30.6 9.09011 29.67 9.17011 30C9.19301 29.9317 9.22678 29.8675 9.27011 29.81C9.39011 29.93 9.39011 30.42 9.68011 29.93L9.60011 30.64C9.76011 30.51 9.69011 29.75 9.96011 29.54C10.2301 29.33 9.87011 30.13 9.88011 30.33C10.0301 30.01 10.3501 29.33 10.3401 29.94C10.2601 30.05 10.2501 29.94 10.1901 30ZM11.8201 30.15C11.7601 30.23 11.6001 30.51 11.6701 30.23C11.8701 29.7 11.8201 30 11.8201 30.13V30.15ZM14.5601 29.94C14.4701 30.07 14.4701 29.94 14.5001 29.8C14.5501 29.76 14.5701 29.79 14.5601 29.92V29.94ZM22.7001 30.72C22.7301 30.52 22.7101 30.59 22.7001 30.7V30.72ZM22.7001 30.98C22.7541 30.9403 22.7985 30.889 22.8301 30.83C22.7501 30.92 22.7101 30.9 22.7001 30.83C22.6401 30.94 22.6101 31 22.7101 31L22.7001 30.98ZM6.27011 24.78V24.91C6.21011 25 6.24011 24.91 6.27011 24.78Z" fill="#EADAD1"/>
<path d="M14 30.42C14.0255 30.3351 14.0556 30.2517 14.09 30.17C14.0439 30.2466 14.0133 30.3315 14 30.42Z" fill="#EADAD1"/>
<path d="M9.1799 29.99H9.1699L9.1499 30.07L9.1799 29.99Z" fill="#EADAD1"/>
<path d="M18.4101 33C18.4265 32.9169 18.4534 32.8363 18.4901 32.76C18.4301 32.83 18.3801 32.92 18.4101 33Z" fill="#EADAD1"/>
<path d="M23.92 30.86H23.75C23.81 30.86 23.75 30.97 23.75 31.05C23.8 31 23.88 30.85 23.92 30.86Z" fill="#EADAD1"/>
<path d="M22.74 33.74C22.79 33.74 22.74 33.74 22.82 33.74L22.96 33.57C22.9 33.52 22.75 33.63 22.74 33.74Z" fill="#EADAD1"/>
<path d="M22.9999 32.18C22.7499 32.5 22.8899 32.44 22.9999 32.42C23.3499 32 23.1699 32.08 22.9999 32.18Z" fill="#EADAD1"/>
<path d="M23 32.42H23.06C23.22 32.29 23.08 32.4 23 32.42Z" fill="#EADAD1"/>
<path d="M23.0499 30.87C23.0499 30.98 23.3799 30.47 23.2899 30.62C23.6399 30.23 22.7299 31 23.0499 30.87Z" fill="#EADAD1"/>
<path d="M22.21 33.26L22.5 32.85L22.22 33.15L22.21 33.26Z" fill="#EADAD1"/>
<path d="M22 32.63V32.81C22.0318 32.7626 22.0726 32.7219 22.12 32.69C22.09 32.63 22.09 32.51 22 32.63Z" fill="#EADAD1"/>
<path d="M22.1299 32.69C22.1299 32.69 22.1899 32.69 22.2599 32.69C22.2396 32.6802 22.2174 32.6752 22.1949 32.6752C22.1724 32.6752 22.1502 32.6802 22.1299 32.69Z" fill="#EADAD1"/>
<path d="M22 33.29L22.04 33.18L22 33.1V33.29Z" fill="#EADAD1"/>
<path d="M21.0799 31.83L20.8999 31.88C20.7899 32.01 20.7499 32.12 20.8299 32.09C20.9324 32.0241 21.018 31.935 21.0799 31.83Z" fill="#EADAD1"/>
<path d="M20.5799 33.16C20.6305 33.0419 20.6907 32.9282 20.7599 32.82L20.3899 33.32L20.5799 33.16Z" fill="#EADAD1"/>
<path d="M20.2099 33.08C20.0999 33.21 19.7899 33.39 19.9299 33.44C19.9999 33.31 20.2199 33.26 20.2099 33.08Z" fill="#EADAD1"/>
<path d="M19.1599 31.43L19.1899 31.44L19.7199 30.58L19.1599 31.43Z" fill="#EADAD1"/>
<path d="M16.6001 32.76C16.6001 33.04 16.9301 32.23 16.8901 32.55C17.0301 32.35 16.8901 32.29 17.0501 32.12C16.8601 32.3 16.8901 32.16 16.6001 32.76Z" fill="#EADAD1"/>
<path d="M17.05 32.12L17.16 32L17.05 32.12Z" fill="#EADAD1"/>
<path d="M0.210088 24.23L0.0900879 24.02L0.180088 24.36L0.210088 24.23Z" fill="#EADAD1"/>
<path d="M0.09 25L0 24.35V24.94C0 24.94 0.06 24.85 0.09 25Z" fill="#EADAD1"/>
<path d="M11.6299 31.45V31.3C11.6799 31.14 11.6299 31.12 11.6299 31.08V31.45Z" fill="#EADAD1"/>
<path d="M10.7 30.65L10.71 30.67L10.84 30.09L10.7 30.65Z" fill="#EADAD1"/>
<path d="M9.6001 31.12C9.6001 31.12 9.7101 31.03 9.7401 31.07C9.7701 31.11 9.7701 30.41 9.6001 31.12Z" fill="#EADAD1"/>
<path d="M41.91 30.2C41.91 30.26 42.28 30.08 42.35 30.06C42.23 30 41.81 30.25 41.91 30.2Z" fill="#EADAD1"/>
<path d="M40.72 29.89L40.88 29.83L40.45 29.9L40.72 29.89Z" fill="#EADAD1"/>
<path d="M40.42 29.23C39.8 29.61 40.63 29.42 40.42 29.64L40.28 29.73L40.82 29.54C40.71 29.44 40.29 29.42 40.42 29.23Z" fill="#EADAD1"/>
<path d="M41.6401 28.2C41.4001 28.34 41.3901 28.2 41.6401 28.32L41.7001 28.27C41.6852 28.264 41.672 28.2545 41.6615 28.2423C41.6511 28.2302 41.6437 28.2156 41.6401 28.2Z" fill="#EADAD1"/>
<path d="M41.6599 28.27C41.7099 28.34 41.8399 28.12 41.6599 28.27V28.27Z" fill="#EADAD1"/>
<path d="M41.3501 28H41.6201C41.7601 27.91 41.7401 27.81 41.8701 27.79C41.7001 27.75 41.5601 27.85 41.3501 28Z" fill="#EADAD1"/>
<path d="M40.8401 28.17H41.0001C41.0001 28.17 41.0001 28.11 40.8401 28.17Z" fill="#EADAD1"/>
<path d="M41.2101 28.17H41.0001C40.9001 28.24 40.7001 28.34 41.0901 28.17C40.8601 28.27 41.0501 28.2 41.2101 28.17Z" fill="#EADAD1"/>
<path d="M41.14 28.28C41.0949 28.3543 41.0319 28.4161 40.9568 28.4598C40.8817 28.5034 40.7968 28.5276 40.71 28.53C40.88 28.66 41.32 28.41 41.14 28.28Z" fill="#EADAD1"/>
<path d="M39.7401 29.52L39.5801 29.68L39.8201 29.63C39.7001 29.66 39.9401 29.42 39.7401 29.52Z" fill="#EADAD1"/>
<path d="M41.3701 27.28C41.2401 27.35 41.0301 27.5 40.8601 27.6H41.0501C41.1351 27.4737 41.2438 27.3651 41.3701 27.28Z" fill="#EADAD1"/>
<path d="M40.8601 27.6H40.5801C40.6001 27.72 40.7201 27.68 40.8601 27.6Z" fill="#EADAD1"/>
<path d="M40.1301 28.52L40.7001 28.43L40.1001 28.49L40.1301 28.52Z" fill="#EADAD1"/>
<path d="M41.18 26.88L41.52 26.77L41 26.93L41.18 26.88Z" fill="#EADAD1"/>
<path d="M41 26.66C41.28 26.56 41.4 26.36 41.58 26.32C41.3904 26.296 41.1978 26.3201 41.02 26.39C41.15 26.38 41.16 26.46 41 26.66Z" fill="#EADAD1"/>
<path d="M40.6799 26.46L41.0099 26.39C40.8972 26.3977 40.7861 26.4213 40.6799 26.46Z" fill="#EADAD1"/>
<path d="M40.56 27.42C40.63 27.36 40.84 27.24 40.9 27.13L40.54 27.37L40.56 27.42Z" fill="#EADAD1"/>
<path d="M40.5601 27.43C40.5601 27.43 40.5101 27.45 40.5601 27.43V27.43Z" fill="#EADAD1"/>
<path d="M40.33 28.08C40.0358 28.1004 39.7572 28.2203 39.54 28.42C39.7949 28.2879 40.0589 28.1743 40.33 28.08Z" fill="#EADAD1"/>
<path d="M40.1101 27.73V27.88C40.2216 27.8043 40.3427 27.7438 40.4701 27.7L40.1101 27.73Z" fill="#EADAD1"/>
<path d="M39.97 27.74L40.11 27.73L40.13 27.67L39.97 27.74Z" fill="#EADAD1"/>
<path d="M40.43 26.84C40.24 26.84 40.2 26.84 40.14 26.84C40.1229 26.8777 40.114 26.9186 40.114 26.96C40.114 27.0014 40.1229 27.0423 40.14 27.08C40.25 27 40.48 26.89 40.43 26.84Z" fill="#EADAD1"/>
<path d="M40.44 27.12C40.44 27.12 40.38 27.16 40.44 27.12V27.12Z" fill="#EADAD1"/>
<path d="M39.83 26.25L39.77 26.3H39.83V26.25Z" fill="#EADAD1"/>
<path d="M40.07 27.09C40.07 27.18 40.07 27.15 40.25 27.09C40.226 27.0881 40.2028 27.0808 40.182 27.0687C40.1613 27.0566 40.1435 27.04 40.13 27.02C40.07 27.07 40 27.09 40.07 27.09Z" fill="#EADAD1"/>
<path d="M40.42 26.4C40.3607 26.4616 40.3071 26.5286 40.26 26.6C40.37 26.51 40.52 26.35 40.42 26.4Z" fill="#EADAD1"/>
<path d="M40.51 27.05C40.61 27 40.57 27 40.51 27.05V27.05Z" fill="#EADAD1"/>
<path d="M40.51 27.05L40.25 27.11C40.3056 27.1258 40.3644 27.1258 40.42 27.11L40.51 27.05Z" fill="#EADAD1"/>
<path d="M37.3701 27.48C37.7101 27.29 38.1001 27.21 37.7901 27.48C38.5075 27.163 39.18 26.7528 39.7901 26.26C39.6237 26.3629 39.4352 26.4246 39.2401 26.44C39.0701 26.59 38.9301 26.92 38.5701 27.02C38.2101 27.12 38.6301 26.84 38.7701 26.67C38.3801 26.97 38.0501 26.87 37.4501 27.27H37.7301C37.6201 27.35 37.4401 27.4 37.3701 27.48Z" fill="#EADAD1"/>
<path d="M39.8501 26.51H39.9201C40.0215 26.3519 40.1502 26.2131 40.3001 26.1C40.1339 26.113 39.9731 26.1644 39.8301 26.25L39.9101 26.48L39.8501 26.51Z" fill="#EADAD1"/>
<path d="M40 26.72C39.6452 26.8216 39.308 26.9767 39 27.18C39.09 27.29 39.36 27.09 39.56 27.07C39.36 26.92 39.8 27.01 39.94 26.74C39.9956 26.7412 40.0489 26.7625 40.09 26.8C40.1248 26.7304 40.1649 26.6635 40.21 26.6L40.06 26.67C40.06 26.56 40.15 26.6 40.21 26.6L39.89 26.52C39.89 26.6 39.93 26.65 40 26.72Z" fill="#EADAD1"/>
<path d="M38.6599 28.75C38.6875 28.7266 38.7177 28.7065 38.7499 28.69C38.6899 28.71 38.6599 28.72 38.6599 28.75Z" fill="#EADAD1"/>
<path d="M38.85 28.55C38.91 28.55 39.07 28.46 39.05 28.55C39.03 28.64 38.87 28.65 38.75 28.71C38.8383 28.705 38.9246 28.682 39.0037 28.6425C39.0828 28.6029 39.153 28.5476 39.21 28.48H39.15C39.3103 28.2767 39.5029 28.1011 39.72 27.96C39.39 28.17 39.16 28.32 38.85 28.55Z" fill="#EADAD1"/>
<path d="M39.35 27.69L39.07 27.63L38.79 27.89L38.99 27.78C39 27.91 39.19 27.76 39.35 27.69Z" fill="#EADAD1"/>
<path d="M40 26.13L40.41 25.92L39.8 26.15L40 26.13Z" fill="#EADAD1"/>
<path d="M39.8301 25.94L40.1701 25.75L39.9301 25.81L39.8301 25.94Z" fill="#EADAD1"/>
<path d="M27.8099 19.34L27.9399 19.2C27.8599 19.27 27.7999 19.33 27.8099 19.34Z" fill="#EADAD1"/>
<path d="M36.26 20.94C36.49 20.64 36.87 20.2 36.53 20.49L36.22 20.79C36.31 20.79 36.31 20.85 36.26 20.94Z" fill="#EADAD1"/>
<path d="M31.6 19.69L31.53 19.8L31.85 19.54L31.6 19.69Z" fill="#EADAD1"/>
<path d="M30.3101 20.93L30.4301 20.66C30.3818 20.7461 30.3416 20.8364 30.3101 20.93Z" fill="#EADAD1"/>
<path d="M25.7199 18.27L25.4099 18.59C25.4799 18.64 25.5799 18.44 25.7199 18.27Z" fill="#EADAD1"/>
<path d="M38.32 23.86C38.42 23.71 38.44 23.62 38.43 23.57C38.27 23.78 38 24.05 38.32 23.86Z" fill="#EADAD1"/>
<path d="M30.5799 15.63C30.4998 15.6732 30.4312 15.7349 30.3799 15.81C30.4602 15.7672 30.5288 15.7054 30.5799 15.63Z" fill="#EADAD1"/>
<path d="M38.31 23.4L38.25 23.49C38.34 23.49 38.42 23.49 38.43 23.57C38.55 23.41 38.6 23.28 38.31 23.4Z" fill="#EADAD1"/>
<path d="M19.8099 14.41V14.35C19.7899 14.41 19.7899 14.41 19.8099 14.41Z" fill="#EADAD1"/>
<path d="M19.46 9.51998C19.4926 9.51053 19.5273 9.51053 19.56 9.51998C19.56 9.51998 19.52 9.47998 19.46 9.51998Z" fill="#EADAD1"/>
<path d="M38.1399 26.1L37.95 26.19L38.1399 26.1Z" fill="#EADAD1"/>
<path d="M39.3401 25.15C39.3729 25.1125 39.3969 25.0681 39.4101 25.02L39.3401 25.15Z" fill="#EADAD1"/>
<path d="M39.51 25V25.06C39.56 25.06 39.6 25 39.51 25Z" fill="#EADAD1"/>
<path d="M39.4099 24.92C39.4198 24.9348 39.4251 24.9522 39.4251 24.97C39.4251 24.9878 39.4198 25.0052 39.4099 25.02L39.4699 24.97C39.4453 24.9599 39.4243 24.9424 39.4099 24.92Z" fill="#EADAD1"/>
<path d="M23.7701 15.16C23.6501 15.25 23.6801 15.24 23.7701 15.16V15.16Z" fill="#EADAD1"/>
<path d="M31.99 22.87L32.01 22.86L32.02 22.84L31.99 22.87Z" fill="#EADAD1"/>
<path d="M31.6399 23C32.0899 22.69 32.0699 22.77 32.0199 22.88L32.9199 22.01L31.6399 23Z" fill="#EADAD1"/>
<path d="M26.7899 18.65L26.6499 19.04C26.1399 19.45 26.1999 19.22 25.9499 19.72C26.7999 18.66 26.3799 19.89 27.2399 18.83L27.1199 19.1C27.1199 19.1 27.0599 19.1 27.0499 19.1C26.7599 19.7 27.7499 18.4 27.7799 18.68C27.7561 18.8399 27.6698 18.9838 27.5399 19.08L27.8699 18.91C27.8699 18.96 27.7299 19.14 27.7199 19.09L27.9699 19.15C28.1299 19.01 28.3999 18.8 28.5199 18.72C28.4399 18.9 28.3999 18.81 28.3099 18.95L28.6199 18.78C28.4299 19.08 28.1299 19.27 28.0899 19.18C27.3099 20.29 28.3999 18.98 28.0899 19.76L27.8899 19.81C27.4399 20.45 27.6899 20.3 27.4799 20.75C27.6199 20.54 28.0699 19.65 28.3899 19.49C28.3899 19.59 28.3899 19.66 28.5999 19.49C28.2799 19.86 28.4099 19.82 28.4999 19.86L27.9999 20.4C28.2295 20.2514 28.4438 20.0806 28.6399 19.89C28.6399 20.02 28.3699 20.4 28.1099 20.73C28.1699 20.92 28.5499 20.06 28.7799 20.1C28.7799 20.38 28.9799 20.26 29.3699 20.1C29.2999 20.33 29.0899 20.38 28.9999 20.54L29.4099 20.22C29.4099 20.22 29.3099 20.36 29.2499 20.41C29.4399 20.32 29.6899 19.95 29.8999 19.9C30.4099 19.41 29.3799 20.82 30.0299 20.35C29.8916 20.5111 29.7447 20.6647 29.5899 20.81C29.9406 20.6642 30.2756 20.4832 30.5899 20.27L30.3999 20.67C30.7039 20.2476 31.1053 19.9045 31.5699 19.67L31.8799 19.22L32.2599 19.12C32.1309 19.2716 31.9831 19.406 31.8199 19.52L31.9599 19.43C31.7742 19.6976 31.5402 19.9282 31.2699 20.11L31.4999 19.78C31.1775 20.0167 30.8764 20.281 30.5999 20.57C30.6488 20.5292 30.7073 20.5016 30.7699 20.49C30.6971 20.5428 30.6301 20.6032 30.5699 20.67C30.5699 20.67 30.6399 20.67 30.7799 20.54L30.3099 21.08L30.5099 20.88L30.3799 21.37C30.9566 20.927 31.6064 20.5886 32.2999 20.37C31.9167 20.6737 31.5588 21.0082 31.2299 21.37C31.6499 20.85 30.8699 21.37 30.8599 21.21C30.8599 21.31 30.6399 21.51 30.5599 21.56L31.1699 21.33C30.7999 21.68 30.9399 21.64 30.8299 21.83C31.5199 21.1 31.4399 21.51 31.7399 21.38C31.4999 21.62 31.2299 21.83 31.1999 21.68C30.7499 22.31 32.1999 21.01 31.8199 21.56C31.8199 21.56 31.8199 21.49 31.6799 21.56C31.9499 21.41 31.8999 21.71 31.6799 21.87C31.7399 22.11 32.1099 22.35 32.7699 21.81L31.8499 22.58L34.2299 21C33.5361 21.677 32.7905 22.2989 31.9999 22.86C31.9999 22.96 31.9099 23.09 32.1699 23C32.4153 22.7152 32.6902 22.457 32.9899 22.23C32.739 22.5239 32.5084 22.8346 32.2999 23.16C32.3799 23.02 33.2999 22.31 33.2999 22.4C33.1699 22.5 32.4499 23.14 32.2999 23.2L33.2999 22.63C32.9339 22.8724 32.5981 23.1578 32.2999 23.48C32.4499 23.32 32.3999 23.62 32.5099 23.59L32.6599 23.36C32.6599 23.64 34.0199 22.52 34.1299 22.74C33.6924 23.0215 33.2926 23.3575 32.9399 23.74C33.8205 23.1047 34.7539 22.5459 35.7299 22.07L35.4999 22.31L35.8999 22.2C35.1499 22.66 33.5499 23.58 32.8999 23.92C32.7499 24.15 32.6099 24.18 32.7099 24.26C32.6598 24.3302 32.5938 24.3875 32.5174 24.4275C32.4409 24.4674 32.3562 24.4889 32.2699 24.49V24.83C32.7899 24.4 32.9399 24.58 33.3699 24.23L32.6199 24.42C33.1299 23.99 34.2399 23.36 34.2699 23.62C33.9045 23.9193 33.524 24.1997 33.1299 24.46C33.3299 24.34 33.5999 24.35 33.4799 24.46L33.1499 24.61C33.0099 24.85 33.9599 24.21 33.5399 24.72C33.5399 24.78 32.9399 25.36 33.2599 25.12C34.1957 24.3089 35.1738 23.5479 36.1899 22.84C35.9854 23.1688 35.7581 23.4829 35.5099 23.78C35.0699 24.2 34.2799 24.54 33.9099 24.9C34.0425 24.8047 34.1871 24.7274 34.3399 24.67C34.2399 24.8 33.8699 24.99 33.9999 25.03C34.5599 24.64 34.0899 25.24 34.4999 24.73C34.7199 24.73 34.4999 24.91 34.5599 24.99C35.0142 24.6371 35.5247 24.3633 36.0699 24.18C35.9312 24.2755 35.8007 24.3826 35.6799 24.5C35.7699 24.72 35.5799 25.01 35.6799 25.19C35.5406 25.3651 35.3713 25.5141 35.1799 25.63C35.2999 25.58 35.4999 25.48 35.5499 25.52C35.1399 25.96 35.3999 25.45 34.8699 25.93C35.1158 25.7939 35.3893 25.7153 35.6699 25.7C36.1599 25.33 35.6699 25.46 35.3899 25.52C35.979 25.0769 36.6642 24.7788 37.3899 24.65C37.6699 24.65 36.9799 25.02 37.0999 24.98C37.1699 25.35 38.4899 24.42 38.1499 24.98C37.7697 25.2859 37.365 25.5602 36.9399 25.8C36.6899 25.8 37.0999 25.42 37.0299 25.35L36.8799 25.59C36.7099 25.65 36.5399 25.64 36.6399 25.51C36.2899 25.86 36.8899 26.04 36.6399 26.51C36.8322 26.4704 37.0133 26.3884 37.1699 26.27H37.0699C37.3899 25.98 37.6599 26.09 37.7699 25.89C38.0899 25.82 38.5599 25.68 38.4399 25.95L37.9299 26.3C38.0799 26.2 38.1899 26.02 38.0099 26.08C38.2699 25.99 37.4299 26.72 38.1499 26.37L38.4499 26.05C38.7799 25.99 39.4499 25.77 39.3199 26C39.7999 25.63 39.2399 26 39.7999 25.55C39.0899 26.09 39.6299 25.21 38.9199 25.81C39.5599 25.29 39.1199 25.47 39.6399 24.98C39.4699 25.09 39.3399 25.23 39.3599 25.07L39.1899 25.14C39.1206 25.2207 39.0436 25.2944 38.9599 25.36C38.5299 25.55 38.4499 25.36 38.2099 25.45C38.2099 25.34 38.4199 25.35 38.5799 25.2L38.2299 25.31C38.5999 25.06 38.7499 24.75 39.0699 24.75L38.9999 24.61C39.1599 24.4 39.1699 24.24 38.9999 24.27C38.9999 24.16 38.4799 24.39 38.8099 24.27L38.4399 24.22L38.5299 24.16C38.4399 23.92 37.6399 24.16 38.1499 23.48C38.0099 23.48 37.8499 23.48 37.8799 23.3L38.1799 23.05C38.0199 23.05 38.3099 22.57 37.9599 22.77C38.7299 22.07 37.8299 22.22 37.8699 21.97L37.4599 22.27C37.4099 22.15 37.2199 22.14 36.9599 22.13L36.6099 22.41C36.2399 22.53 36.6099 21.95 36.4899 21.8C36.6399 21.71 36.6299 21.8 36.5799 21.87C37.2199 21.04 35.6599 21.92 36.0899 21.28C35.9299 21.34 35.9499 21.28 36.0099 21.17L36.1499 20.96C36.0946 21.0202 36.0475 21.0874 36.0099 21.16C35.9291 21.131 35.8407 21.131 35.7599 21.16L36.1099 20.83C36.1999 20.66 35.8999 20.93 35.6399 21.19L35.3599 21.31C35.9299 20.77 35.0499 21.31 35.6399 20.76C35.3099 20.99 35.1999 20.7 34.5299 21.23C34.6199 21.16 34.6399 21.11 34.6699 21.13C34.6999 21.15 34.7299 20.89 34.4999 21L34.9499 20.58L34.2199 21C34.4062 20.6918 34.6722 20.4396 34.9899 20.27C34.2899 20.58 34.6599 20.27 33.9899 20.65L34.2999 20.39C34.2399 20.39 33.7699 20.62 33.9799 20.39C34.4299 19.77 33.5399 19.76 33.7699 18.98C32.9899 19.85 34.0199 18.48 33.3599 19.1C33.5399 18.89 33.6099 18.74 33.8299 18.62C33.4899 18.67 33.9199 18.09 33.2699 18.53C33.4499 18.32 33.5899 18.28 33.6899 18.15C33.6399 18.15 33.4799 18.27 33.5799 18.15C33.6593 18.0587 33.7585 17.9869 33.8699 17.94C33.6799 17.83 33.0699 18.41 32.4999 18.94C32.6899 18.6 32.6099 18.6 32.1899 18.94C32.3499 18.73 32.4999 18.49 32.6499 18.51C32.6499 18.43 32.5999 17.92 32.1499 18.38C32.2499 18.25 32.1499 18.27 32.0499 18.31C31.9599 18.17 31.9899 18.12 31.8299 18.05V18.16C31.2599 18.68 31.6199 18.16 31.4599 18.16L31.5199 18.1C31.6699 17.5 31.2399 18.21 31.4499 17.55L31.1399 17.92C30.4299 18.66 31.3599 17.3 30.9699 17.48L30.8299 17.72C30.5299 17.93 31.5699 16.5 31.5799 16.34C31.5899 16.18 31.6999 16.25 31.7699 16.22C31.9799 15.6 31.3299 16.67 31.0999 16.66C31.2899 16.38 31.6899 16.04 31.6399 15.91C31.7699 15.66 30.6399 16.5 30.9499 15.91C30.8392 16.1284 30.6738 16.3144 30.4699 16.45C30.3099 16.45 30.8299 15.45 30.2099 16.03C30.2417 15.968 30.2821 15.9108 30.3299 15.86C30.0328 15.9181 29.7546 16.0486 29.5199 16.24C30.5199 14.88 28.5199 16.48 29.5199 15.24L29.2299 15.11L29.3399 14.99C29.2399 14.79 28.9599 14.99 28.6899 15.29C28.727 15.1733 28.8006 15.0716 28.8999 15C28.8999 14.58 28.7799 14.62 28.1399 15.09L28.4099 14.68C28.1999 14.87 28.5299 13.8 27.9699 14.11C28.0111 14.0462 28.0617 13.9889 28.1199 13.94C27.5399 14.23 28.2699 12.37 27.1199 13.8L26.6999 14.06C26.8399 14.32 26.2299 14.69 26.1599 14.99C26.0099 14.99 26.2299 14.4 26.3899 14.39V14.47C26.9499 13.72 26.2999 14.02 26.6499 13.47C26.1899 13.23 26.0299 12.47 25.6499 12.21L25.3299 12.87L25.1999 12.75C25.1999 12.58 25.4399 12.22 25.5299 12.31C25.6899 11.92 25.1699 12.51 25.0899 12.64C25.0299 12.27 25.5999 11.96 25.5499 11.9H25.3999V11.98C25.1799 12.2 25.0099 12.47 24.8999 12.37C24.7899 12.27 25.0899 11.95 25.0699 11.91C25.0499 11.87 25.0699 11.83 25.0699 11.91L24.9099 11.74L24.6999 12.29C24.4799 12.49 24.5399 12.16 24.2999 12.78C24.6699 11.78 23.7799 12.07 23.8399 11.78C23.5199 12.09 23.4099 12.02 23.2899 11.9C23.2899 12.02 22.9899 12.61 22.8999 12.48C23.5599 11.31 22.8999 11.84 23.2699 10.93C23.0799 11.55 22.8399 10.88 22.5799 11.77C22.5199 11.62 22.7999 11.32 22.8599 10.99C22.3799 11.32 22.4399 10.42 22.0399 10.43C21.9616 10.6533 21.854 10.8651 21.7199 11.06L21.9199 10.18C21.8199 10.18 21.4399 11.08 21.5699 10.47C21.5699 10.61 21.4599 10.83 21.3999 10.86C21.1099 9.78002 19.8599 10.96 19.7899 9.21002C19.7899 9.56002 19.6899 9.57002 19.6199 9.56002C19.5566 9.77601 19.4764 9.98666 19.3799 10.19V9.46002C19.0999 10.06 19.0699 9.39002 18.8199 9.97002L18.9499 9.90002C18.5799 10.56 18.5299 11.52 18.1799 12.41C18.5999 11.66 18.0399 13.71 18.6699 12.65C18.6699 12.85 18.5199 12.92 18.4599 13.14C18.6599 12.77 18.7499 12.72 18.7999 12.93L18.7499 13.02C19.0899 13.02 19.0699 13.47 19.2999 13.86L19.4599 13.41C19.4944 13.5275 19.4944 13.6525 19.4599 13.77C19.8299 13.15 19.2799 13.64 19.6599 12.95C19.3799 13.88 20.1699 13.19 19.7899 14.22C19.8999 14.28 19.9799 13.71 20.0899 13.76L19.8999 14L20.0799 13.66C20.0801 13.8972 20.0217 14.1308 19.9099 14.34C19.9099 14.34 19.8299 14.34 19.8099 14.39C19.7499 14.75 20.1199 14.39 20.0999 14.52V14.3C20.5199 14.19 20.7199 14.7 21.2599 14.3L21.3399 14.09C21.7499 13.83 21.4099 14.4 21.7299 14.35C21.8799 14.18 21.9999 14.11 22.0499 14.17C21.8699 14.37 21.9299 14.68 21.7199 14.9C22.1599 14.62 21.9899 14.65 22.5399 14L22.3999 14.34C22.6099 14.07 22.6999 13.92 22.8699 13.9C22.6199 14.13 22.6799 14.44 22.3699 14.75C22.2299 15.58 23.1299 14.23 22.6699 15.33C23.2799 14.5 22.7299 14.71 22.8999 14.56C23.0099 14.23 23.3699 13.94 23.3999 14.08C23.4299 14.22 22.8899 15.3 23.0899 15.4C23.0899 15.4 23.0399 15.4 23.0199 15.4C22.9599 15.67 23.3399 15.18 23.2199 15.6C23.5799 15.09 23.3199 15.7 23.7299 15.02L23.4599 15.08C23.6599 14.96 24.2299 14.22 24.1799 14.7C24.0735 14.8296 23.9565 14.95 23.8299 15.06C23.7599 15.29 23.9999 14.99 23.9299 15.22C23.5099 15.89 23.6199 15.22 23.2099 15.7C23.0899 16.02 23.6999 15.33 23.2099 16.03C23.8499 15.14 23.3299 16.26 23.8899 15.62L23.6399 16.02C23.6999 15.97 23.8599 15.81 23.8899 15.84L23.4999 16.32C23.8799 15.94 23.4999 16.83 23.7099 16.65C23.4999 16.53 23.9699 16.14 24.0599 15.79C24.6499 15.41 23.5499 16.94 23.9499 16.93C23.8799 16.93 23.9499 16.59 24.1399 16.44C24.1331 16.6301 24.0889 16.817 24.0099 16.99C24.2499 16.99 24.2499 16.56 24.4799 16.37C24.2399 16.9 24.6999 16.23 24.8899 16.13L24.6299 16.54C24.6299 16.94 25.2399 15.73 25.2299 16.18L24.7799 16.68L24.9699 16.6L24.6499 17.05C24.9799 16.78 24.9599 16.89 24.9799 17.05C25.1499 16.75 25.4899 16.33 25.5899 16.38C25.4999 16.66 25.2999 16.74 25.4699 16.77C25.2699 17 25.0199 17.29 25.2199 16.88L24.9199 17.24C24.8099 17.56 25.0499 17.41 25.1099 17.44C25.1002 17.4197 25.0951 17.3975 25.0951 17.375C25.0951 17.3525 25.1002 17.3303 25.1099 17.31L25.6799 16.9C25.6108 17.0426 25.5119 17.1688 25.3899 17.27C25.4599 17.27 25.6099 17.09 25.6899 17.1C25.5245 17.4444 25.2895 17.7508 24.9999 18L25.4299 17.77C25.3517 17.9625 25.2546 18.1467 25.1399 18.32C25.1399 18.58 25.8299 17.88 25.7799 18.22C25.827 18.1654 25.8849 18.1211 25.9499 18.09C26.0199 18.25 25.8399 18.72 26.3099 18.39L25.9999 19C26.2099 19 26.4199 18.22 26.7699 18.14C27.1199 18.06 26.4599 18.66 26.3899 18.85C26.6699 18.62 27.2199 18.14 26.9899 18.69C26.8299 18.75 26.8599 18.64 26.7899 18.65ZM28.3499 19.53C28.2599 19.53 28.0099 19.77 28.1799 19.53C28.5599 19.15 28.4199 19.37 28.3499 19.53ZM31.1399 20.53C31.0099 20.62 31.0399 20.53 31.1399 20.37C31.1899 20.38 31.1999 20.42 31.1399 20.54V20.53ZM38.8199 24.68C38.9099 24.53 38.8599 24.6 38.8199 24.69V24.68ZM38.7499 24.95C38.8122 24.9229 38.8697 24.8858 38.9199 24.84C38.8099 24.9 38.7799 24.84 38.7799 24.84C38.7799 24.84 38.6199 25 38.7499 25V24.95ZM24.9399 12.09V12.22C24.7699 12.3 24.8499 12.2 24.9399 12.09Z" fill="#EADAD1"/>
<path d="M30.46 20.79C30.51 20.72 30.57 20.66 30.63 20.59C30.5558 20.6396 30.4969 20.7089 30.46 20.79Z" fill="#EADAD1"/>
<path d="M25.77 18.21V18.2L25.71 18.27L25.77 18.21Z" fill="#EADAD1"/>
<path d="M33.89 25.14C33.934 25.0663 33.9878 24.9991 34.05 24.94C34 25 33.88 25.08 33.89 25.14Z" fill="#EADAD1"/>
<path d="M39.9399 25.33H39.7699C39.7699 25.33 39.7699 25.44 39.6899 25.5C39.7899 25.41 39.9099 25.31 39.9399 25.33Z" fill="#EADAD1"/>
<path d="M37.8701 27.69C37.9301 27.69 37.8701 27.69 37.9501 27.69L38.1501 27.57C38.1501 27.57 37.9201 27.58 37.8701 27.69Z" fill="#EADAD1"/>
<path d="M38.6199 26.26C38.2799 26.47 38.4299 26.46 38.5399 26.49C38.9999 26.21 38.8299 26.23 38.6199 26.26Z" fill="#EADAD1"/>
<path d="M38.5601 26.5C38.5601 26.5 38.5601 26.5 38.5601 26.55C38.8101 26.45 38.6301 26.51 38.5601 26.5Z" fill="#EADAD1"/>
<path d="M39.0899 25C39.0299 25.09 39.5499 24.74 39.4199 24.85C39.8799 24.61 38.7599 25 39.0899 25Z" fill="#EADAD1"/>
<path d="M37.51 27L37.92 26.72L37.56 26.89L37.51 27Z" fill="#EADAD1"/>
<path d="M37.51 26.29V26.47C37.5576 26.4371 37.6125 26.4165 37.67 26.41C37.6 26.34 37.64 26.21 37.51 26.29Z" fill="#EADAD1"/>
<path d="M37.6201 26.41C37.6201 26.41 37.6201 26.48 37.7401 26.41C37.7214 26.4011 37.7009 26.3965 37.6801 26.3965C37.6594 26.3965 37.6389 26.4011 37.6201 26.41Z" fill="#EADAD1"/>
<path d="M37.3 26.94L37.37 26.85L37.35 26.76L37.3 26.94Z" fill="#EADAD1"/>
<path d="M36.88 25.14H36.68C36.53 25.23 36.47 25.32 36.55 25.32C36.6736 25.2894 36.7873 25.2274 36.88 25.14Z" fill="#EADAD1"/>
<path d="M36 26.23C36.0847 26.1374 36.1785 26.0537 36.28 25.98L35.76 26.32L36 26.23Z" fill="#EADAD1"/>
<path d="M35.6301 26C35.4801 26.09 35.1101 26.13 35.2401 26.24C35.3801 26.16 35.5701 26.18 35.6301 26Z" fill="#EADAD1"/>
<path d="M35.1299 23.96L35.1599 23.98L35.9699 23.37L35.1299 23.96Z" fill="#EADAD1"/>
<path d="M32.1799 24.16C32.0899 24.42 32.6899 23.78 32.5399 24.08C32.7399 23.95 32.6599 23.84 32.8399 23.73C32.5899 23.82 32.6699 23.7 32.1799 24.16Z" fill="#EADAD1"/>
<path d="M32.8401 23.73L32.9901 23.67L32.8401 23.73Z" fill="#EADAD1"/>
<path d="M19.28 8.87L19.26 8.63L19.2 8.98L19.28 8.87Z" fill="#EADAD1"/>
<path d="M18.83 9.51001L19.03 8.89001L18.77 9.42001C18.77 9.42001 18.87 9.36001 18.83 9.51001Z" fill="#EADAD1"/>
<path d="M27.6899 20.69L27.7999 20.57C27.8999 20.44 27.8899 20.41 27.8799 20.37L27.6899 20.69Z" fill="#EADAD1"/>
<path d="M27.05 19.52L27.06 19.54L27.4 19.06L27.05 19.52Z" fill="#EADAD1"/>
<path d="M25.78 19.45C25.78 19.5 25.91 19.45 25.93 19.45C25.95 19.45 26.21 18.87 25.78 19.45Z" fill="#EADAD1"/>
<path d="M57.3899 22.05C57.3899 22.1 57.7499 21.92 57.8199 21.9C57.6698 21.9278 57.5248 21.9784 57.3899 22.05Z" fill="#EADAD1"/>
<path d="M56.28 21.89L56.44 21.83L56.02 21.92L56.28 21.89Z" fill="#EADAD1"/>
<path d="M56.0699 21.38C55.4399 21.71 56.2599 21.52 56.0699 21.71L55.9299 21.79L56.4799 21.6C56.3299 21.53 55.9199 21.54 56.0699 21.38Z" fill="#EADAD1"/>
<path d="M57.3801 20.51C57.1301 20.63 57.1301 20.51 57.3201 20.6H57.3801C57.3711 20.5867 57.3662 20.5711 57.3662 20.555C57.3662 20.539 57.3711 20.5233 57.3801 20.51Z" fill="#EADAD1"/>
<path d="M57.3799 20.56C57.3799 20.61 57.5799 20.44 57.3799 20.56V20.56Z" fill="#EADAD1"/>
<path d="M57.1299 20.38H57.3899C57.5299 20.3 57.5399 20.23 57.6599 20.2C57.5099 20.15 57.3599 20.23 57.1299 20.38Z" fill="#EADAD1"/>
<path d="M56.6299 20.52H56.7399C56.7999 20.48 56.8199 20.46 56.6299 20.52Z" fill="#EADAD1"/>
<path d="M57 20.5H56.77C56.67 20.56 56.45 20.65 56.86 20.5C56.63 20.6 56.82 20.53 57 20.5Z" fill="#EADAD1"/>
<path d="M56.8899 20.59C56.7734 20.7179 56.6125 20.7966 56.4399 20.81C56.5899 20.9 56.9999 20.68 56.8899 20.59Z" fill="#EADAD1"/>
<path d="M55.38 21.65L55.21 21.78L55.45 21.73C55.33 21.76 55.59 21.56 55.38 21.65Z" fill="#EADAD1"/>
<path d="M57.29 19.8C57.14 19.85 56.92 19.98 56.75 20.06H56.93C57.0307 19.9493 57.1533 19.8608 57.29 19.8Z" fill="#EADAD1"/>
<path d="M56.75 20.06H56.47C56.48 20.17 56.59 20.13 56.75 20.06Z" fill="#EADAD1"/>
<path d="M55.8901 20.82L56.4501 20.73L55.8701 20.8L55.8901 20.82Z" fill="#EADAD1"/>
<path d="M57.18 19.5L57.52 19.4L57 19.53L57.18 19.5Z" fill="#EADAD1"/>
<path d="M57 19.33C57.28 19.24 57.43 19.09 57.61 19.05C57.424 19.0421 57.2381 19.0658 57.06 19.12C57.24 19.11 57.23 19.17 57 19.33Z" fill="#EADAD1"/>
<path d="M56.77 19.18L57.1 19.12C56.9882 19.1279 56.8775 19.148 56.77 19.18Z" fill="#EADAD1"/>
<path d="M56.49 19.93C56.6219 19.868 56.746 19.7908 56.86 19.7L56.48 19.9L56.49 19.93Z" fill="#EADAD1"/>
<path d="M56.47 19.9C56.4667 19.8734 56.4667 19.8466 56.47 19.82V19.9Z" fill="#EADAD1"/>
<path d="M56.49 19.94C56.49 19.94 56.44 20 56.49 19.94V19.94Z" fill="#EADAD1"/>
<path d="M56.1601 20.46C55.8676 20.4834 55.5872 20.5872 55.3501 20.76C55.6133 20.6426 55.8839 20.5424 56.1601 20.46Z" fill="#EADAD1"/>
<path d="M56 20.19V20.31C56.1162 20.2438 56.2406 20.1934 56.37 20.16L56 20.19Z" fill="#EADAD1"/>
<path d="M55.8701 20.2L56.0101 20.18L56.0301 20.14L55.8701 20.2Z" fill="#EADAD1"/>
<path d="M56.4699 19.48C56.2799 19.48 56.2499 19.48 56.1999 19.48C56.1499 19.48 56.1199 19.63 56.1499 19.67C56.1799 19.71 56.4999 19.52 56.4699 19.48Z" fill="#EADAD1"/>
<path d="M56.43 19.7C56.43 19.7 56.37 19.73 56.43 19.7V19.7Z" fill="#EADAD1"/>
<path d="M56.08 19.68C56.02 19.75 56.08 19.73 56.25 19.68C56.25 19.68 56.16 19.68 56.15 19.62C56.14 19.56 56.05 19.68 56.08 19.68Z" fill="#EADAD1"/>
<path d="M56.5401 19.14C56.4709 19.1821 56.4071 19.2325 56.3501 19.29C56.4701 19.22 56.6401 19.1 56.5401 19.14Z" fill="#EADAD1"/>
<path d="M56.51 19.64C56.61 19.59 56.57 19.61 56.51 19.64V19.64Z" fill="#EADAD1"/>
<path d="M56.51 19.64L56.25 19.7C56.3028 19.7103 56.3572 19.7103 56.41 19.7L56.51 19.64Z" fill="#EADAD1"/>
<path d="M53.4399 20C53.8099 19.85 54.1899 19.8 53.8299 20C54.5695 19.7413 55.28 19.4062 55.9499 19C55.7754 19.0763 55.5897 19.1236 55.3999 19.14C55.1818 19.3376 54.927 19.4905 54.6499 19.59C54.4199 19.59 54.7399 19.44 54.9099 19.31C54.4799 19.55 54.1899 19.46 53.5399 19.77H53.8099C53.6772 19.8304 53.5528 19.9077 53.4399 20Z" fill="#EADAD1"/>
<path d="M56 19.23C56.1329 19.0985 56.2846 18.9873 56.45 18.9C56.2958 18.9101 56.144 18.9439 56 19V19.18V19.23Z" fill="#EADAD1"/>
<path d="M56.1101 19.39C55.7637 19.4746 55.4282 19.5987 55.1101 19.76C55.1801 19.84 55.4701 19.68 55.6701 19.67C55.5001 19.55 55.9101 19.62 56.0801 19.41C56.1251 19.3922 56.1751 19.3922 56.2201 19.41L56.3701 19.25C56.3701 19.25 56.3001 19.25 56.3701 19.25L56.2201 19.31C56.2801 19.23 56.3201 19.26 56.3701 19.25H56.4301L56.0001 19.24C56.0001 19.3 56.0001 19.33 56.1101 19.39Z" fill="#EADAD1"/>
<path d="M54.46 21L54.55 20.95L54.46 21Z" fill="#EADAD1"/>
<path d="M54.67 20.87C54.73 20.87 54.89 20.8 54.87 20.87C54.85 20.94 54.68 20.95 54.55 21.01C54.7279 20.9987 54.8968 20.9283 55.03 20.81H54.9701C55.1588 20.6378 55.3709 20.493 55.6 20.38C55.25 20.55 55 20.68 54.67 20.87Z" fill="#EADAD1"/>
<path d="M55.2899 20.17L54.9999 20.12L54.6799 20.33L54.8899 20.24C54.8799 20.35 55.1199 20.23 55.2899 20.17Z" fill="#EADAD1"/>
<path d="M56.21 18.92L56.64 18.76L56.01 18.93L56.21 18.92Z" fill="#EADAD1"/>
<path d="M56.0901 18.77L56.4501 18.62L56.2201 18.67L56.0901 18.77Z" fill="#EADAD1"/>
<path d="M47.52 11.33L47.7 11.26C47.6346 11.266 47.5723 11.2903 47.52 11.33Z" fill="#EADAD1"/>
<path d="M54.24 14.58C54.56 14.38 55.06 14.09 54.65 14.27L54.26 14.46C54.35 14.47 54.32 14.51 54.24 14.58Z" fill="#EADAD1"/>
<path d="M50.62 12.72L50.51 12.78L50.91 12.66L50.62 12.72Z" fill="#EADAD1"/>
<path d="M49 13.38L49.22 13.2C49.1404 13.2519 49.0666 13.3123 49 13.38Z" fill="#EADAD1"/>
<path d="M46.3499 9.67999L45.9199 9.80999C45.9999 9.87999 46.1499 9.75999 46.3499 9.67999Z" fill="#EADAD1"/>
<path d="M55.1899 17.08C55.2705 17.0193 55.3356 16.9405 55.3799 16.85C55.1699 17 54.8499 17.2 55.1899 17.08Z" fill="#EADAD1"/>
<path d="M51.7099 9.33002C51.6201 9.33922 51.5323 9.36285 51.45 9.40002C51.541 9.39818 51.6303 9.37415 51.7099 9.33002Z" fill="#EADAD1"/>
<path d="M55.31 16.71L55.23 16.78C55.31 16.78 55.38 16.78 55.38 16.85C55.53 16.74 55.61 16.64 55.31 16.71Z" fill="#EADAD1"/>
<path d="M47.6201 0.639982C47.6396 0.633841 47.6606 0.633841 47.6801 0.639982C47.6801 0.639982 47.6901 0.649982 47.6201 0.639982Z" fill="#EADAD1"/>
<path d="M54.46 18.86L54.26 18.93L54.46 18.86Z" fill="#EADAD1"/>
<path d="M52.68 17.41C52.6 17.45 52.62 17.45 52.68 17.41V17.41Z" fill="#EADAD1"/>
<path d="M55.8101 18.14C55.8459 18.1092 55.8793 18.0758 55.9101 18.04L55.8101 18.14Z" fill="#EADAD1"/>
<path d="M56 18.05V18.1C56 18.07 56.08 18.05 56 18.05Z" fill="#EADAD1"/>
<path d="M55.9199 18C55.9199 18 55.9199 18.05 55.9199 18.08L55.9999 18H55.9199Z" fill="#EADAD1"/>
<path d="M46.6399 6.51001C46.4899 6.52001 46.5199 6.52001 46.6399 6.51001V6.51001Z" fill="#EADAD1"/>
<path d="M49.3401 15.4C49.8601 15.25 49.8201 15.3 49.7301 15.4L50.8601 14.87L49.3401 15.4Z" fill="#EADAD1"/>
<path d="M47.0001 10.41L46.6801 10.66C46.0501 10.8 46.2201 10.66 45.7501 10.93C47.0001 10.41 46.0301 11.24 47.2801 10.71L47.0501 10.89H46.9801C46.4301 11.26 47.9201 10.59 47.8101 10.82C47.7071 10.9403 47.5659 11.0215 47.4101 11.05H47.7701C47.7701 11.05 47.5401 11.18 47.5501 11.13L47.7201 11.27C47.9301 11.21 48.2601 11.14 48.4001 11.11C48.2401 11.23 48.2601 11.11 48.1101 11.22H48.4501C48.1501 11.4 47.8001 11.45 47.8101 11.36C46.6101 11.99 48.1601 11.31 47.5201 11.82H47.3201C46.6401 12.18 46.9301 12.14 46.5301 12.44C46.9525 12.1366 47.4176 11.8973 47.9101 11.73C47.8301 11.8 47.8001 11.86 48.0801 11.81C47.6301 12 47.7701 12.01 47.8201 12.07L47.2301 12.31C47.4987 12.271 47.7631 12.2074 48.0201 12.12C48.0201 12.23 47.5501 12.44 47.1701 12.62C47.1701 12.8 47.8601 12.22 48.0401 12.33C47.8701 12.54 48.1401 12.52 48.5501 12.5C48.3801 12.67 48.1901 12.64 48.0301 12.74L48.5301 12.61C48.5301 12.61 48.3801 12.69 48.3101 12.72C48.5101 12.72 48.9001 12.47 49.1001 12.5C49.7501 12.25 48.2301 13.1 49.0201 12.9C48.8278 12.9904 48.6309 13.0705 48.4301 13.14C48.8051 13.1307 49.1777 13.077 49.5401 12.98L49.2001 13.26C49.6465 13.0129 50.1346 12.8501 50.6401 12.78L51.1001 12.5H51.4801C51.3043 12.5885 51.1201 12.6589 50.9301 12.71H51.0801C50.8027 12.873 50.5028 12.9943 50.1901 13.07L50.5301 12.86C50.1601 12.98 49.7501 13.12 49.4101 13.27C49.4698 13.2617 49.5304 13.2617 49.5901 13.27L49.3401 13.37C49.2801 13.37 49.4201 13.37 49.5801 13.37L48.9401 13.68L49.2001 13.58L48.8701 13.94C49.5553 13.6833 50.2715 13.5185 51.0001 13.45C50.5329 13.6138 50.0755 13.8041 49.6301 14.02C50.2101 13.7 49.3101 13.96 49.3801 13.79C49.3801 13.88 49.0601 13.98 48.9601 14.01H49.6001C49.1301 14.21 49.2701 14.21 49.1001 14.34C50.0001 13.91 49.7701 14.23 50.1001 14.19C49.8001 14.33 49.4701 14.44 49.5001 14.31C48.8601 14.72 50.6501 13.99 50.1001 14.31C50.1001 14.31 50.1001 14.26 49.9601 14.31C50.2601 14.25 50.1101 14.48 49.8201 14.57C49.8201 14.77 50.0201 15.06 50.8201 14.75L49.7101 15.19L52.4601 14.35C51.5935 14.7627 50.7018 15.12 49.7901 15.42C49.7101 15.5 49.6201 15.6 49.8901 15.58C50.2077 15.3919 50.5425 15.2345 50.8901 15.11C50.5432 15.2977 50.2091 15.5081 49.8901 15.74C50.2637 15.5395 50.6646 15.3946 51.0801 15.31C50.9201 15.37 50.0801 15.76 49.9301 15.78L51.0301 15.49C50.6293 15.634 50.2413 15.8113 49.8701 16.02C50.0701 15.92 49.8701 16.16 50.0301 16.16L50.2401 15.99C50.1601 16.24 51.7701 15.54 51.7901 15.74C51.2905 15.9024 50.8108 16.1204 50.3601 16.39C51.3733 16.0165 52.4086 15.7059 53.4601 15.46L53.1701 15.62H53.5601C52.7301 15.89 50.9701 16.4 50.2701 16.57C50.0601 16.74 49.9201 16.74 49.9901 16.83C49.7201 16.98 49.5401 16.96 49.5101 16.93L49.4201 17.24C50.0301 16.97 50.1201 17.15 50.6301 16.92H49.8801C50.4901 16.64 51.6901 16.31 51.6601 16.52C51.4301 16.66 50.5401 16.96 50.3401 17.05C50.5601 16.98 50.8101 17.05 50.6701 17.11L50.3101 17.18C50.1101 17.37 51.1901 16.98 50.6401 17.34C50.6401 17.39 49.9001 17.79 50.2601 17.64C50.9401 17.28 53.1201 16.33 53.6701 16.14C53.3754 16.3824 53.0683 16.6094 52.7501 16.82C52.2201 17.12 51.3901 17.29 50.9401 17.55C51.0888 17.4895 51.2428 17.4427 51.4001 17.41C51.2701 17.51 50.8701 17.62 50.9801 17.67C51.6201 17.41 50.9801 17.86 51.5301 17.48C51.7501 17.48 51.4401 17.62 51.5301 17.71C52.0504 17.4758 52.598 17.3079 53.1601 17.21L52.7101 17.43C52.7101 17.63 52.4801 17.84 52.5401 18C52.3659 18.1382 52.1699 18.2463 51.9601 18.32C52.0801 18.32 52.3001 18.23 52.3401 18.27C51.8401 18.6 52.2101 18.2 51.5901 18.55C51.8502 18.4597 52.1249 18.419 52.4001 18.43C52.9601 18.17 52.4001 18.22 52.1901 18.25C52.8399 17.9493 53.5368 17.7632 54.2501 17.7C54.5001 17.75 53.7801 17.98 53.9001 17.95C53.9001 18.26 55.3401 17.58 54.9001 18.03C54.4705 18.2564 54.0262 18.4535 53.5701 18.62C53.3401 18.62 53.8101 18.32 53.7601 18.26L53.5701 18.45C53.3901 18.45 53.2301 18.45 53.3601 18.37C52.9501 18.63 53.4501 18.82 53.1301 19.19C53.3243 19.1682 53.5136 19.1141 53.6901 19.03H53.6001C53.9701 18.81 54.2001 18.91 54.3501 18.76C54.6601 18.76 55.1401 18.62 54.9701 18.83L54.4101 19.09C54.5801 19.02 54.7201 18.87 54.5301 18.92C54.8001 18.86 53.8401 19.42 54.6001 19.15L54.9601 18.91C55.2801 18.91 55.9601 18.71 55.7801 18.91C56.3201 18.62 55.7101 18.91 56.3301 18.56C55.5501 18.97 56.2501 18.29 55.4501 18.75C56.1701 18.35 55.7101 18.49 56.3101 18.11C56.1301 18.2 55.9701 18.3 56.0301 18.18H55.8601C55.7776 18.2399 55.6907 18.2934 55.6001 18.34C55.1501 18.48 55.1101 18.34 54.8701 18.39C54.9301 18.3 55.0901 18.32 55.2801 18.21L54.9201 18.28C55.3301 18.1 55.5401 17.85 55.8401 17.87V17.75C56.0401 17.59 56.1001 17.46 55.9001 17.48C55.9701 17.4 55.3901 17.55 55.7301 17.48L55.4101 17.42L55.5101 17.37C55.5101 17.19 54.6801 17.37 55.3401 16.82C55.2101 16.82 55.0601 16.82 55.1401 16.66L55.4901 16.49C55.3301 16.49 55.7501 16.12 55.3701 16.25C56.3001 15.76 55.4301 15.81 55.5501 15.61L55.0801 15.81C55.0801 15.71 54.9001 15.68 54.6601 15.66L54.2601 15.84C53.8801 15.84 54.4501 15.48 54.3401 15.35C54.5001 15.29 54.4801 15.35 54.3901 15.41C55.2501 14.84 53.5601 15.33 54.1701 14.88C54.0001 14.88 54.0401 14.88 54.1701 14.78L54.3601 14.63L54.1601 14.77C54.1601 14.77 54.0701 14.72 53.9501 14.72L54.3801 14.51C54.5301 14.4 54.1601 14.57 53.8301 14.73L53.5401 14.79C54.2401 14.44 53.2501 14.79 53.9901 14.39C53.6101 14.52 53.6101 14.29 52.8201 14.6C52.9201 14.6 52.9701 14.52 52.9801 14.54C52.9901 14.56 53.1201 14.36 52.8801 14.41L53.4301 14.15L52.6301 14.36C52.9259 14.1397 53.2678 13.9892 53.6301 13.92C52.8901 14.04 53.3201 13.92 52.6301 14.04L53.0001 13.89C53.0001 13.89 52.4401 13.98 52.7301 13.82C53.3801 13.41 52.6001 13.24 53.1201 12.68C52.1201 13.19 53.5401 12.34 52.7101 12.68C52.8969 12.5543 53.1029 12.4597 53.3201 12.4C53.0101 12.4 53.6301 12.02 52.8901 12.22C53.1301 12.09 53.2701 12.09 53.4101 12.01C53.3601 12.01 53.1701 12.01 53.3201 12.01C53.4266 11.9567 53.5417 11.9229 53.6601 11.91C53.5601 11.79 52.7701 12.11 52.0301 12.41C52.3501 12.19 52.2801 12.17 51.7801 12.32C52.0101 12.19 52.2401 12.04 52.3601 12.1C52.4801 12.16 52.5801 11.63 51.9901 11.88C52.1301 11.8 51.9901 11.79 51.9301 11.81C51.9301 11.68 51.9301 11.64 51.8601 11.55L51.7801 11.63C51.0501 11.89 51.5801 11.63 51.4601 11.55H51.5301C51.9501 11.12 51.2501 11.55 51.7401 11.11L51.3101 11.31C50.3101 11.69 51.7901 10.88 51.3701 10.92L51.1401 11.07C50.7901 11.15 52.3501 10.34 52.4401 10.22C52.5089 10.2018 52.5813 10.2018 52.6501 10.22C53.1401 9.81003 52.0701 10.44 51.8801 10.37C52.1801 10.22 52.6801 10.07 52.7001 9.95003C52.9401 9.80003 51.5801 10.14 52.1301 9.76003C51.9296 9.89397 51.7057 9.98896 51.4701 10.04C51.3401 9.99003 52.2701 9.41003 51.4701 9.65003L51.6501 9.55003C51.37 9.48912 51.0801 9.48912 50.8001 9.55003C52.2901 8.83003 49.8701 9.43003 51.2801 8.83003L51.1101 8.65003L51.2601 8.59003C51.2601 8.42003 50.9301 8.51003 50.5801 8.59003C50.6672 8.52797 50.7658 8.48379 50.8701 8.46003C51.0701 8.13003 51.0001 8.14003 50.2301 8.27003L50.4801 8.00003C50.2001 8.07003 51.0701 7.40003 50.4801 7.44003C50.5514 7.41076 50.625 7.38735 50.7001 7.37003C50.0701 7.37003 51.7001 6.30003 50.0401 6.93003H49.5701C49.5701 7.17003 48.8401 7.21003 48.5701 7.41003C48.4401 7.41003 48.9801 7.00003 49.1101 7.06003H49.0301C49.9101 6.72003 49.2401 6.69003 49.8301 6.44003C49.6301 6.09003 49.9501 5.52003 49.8301 5.16003L49.1701 5.49003V5.41003C49.3101 5.31003 49.6801 5.14003 49.6901 5.24003C50.0501 5.03003 49.3101 5.24003 49.1601 5.24003C49.3601 5.00003 50.0001 5.00003 50.0001 5.00003H49.9201H49.8401C49.5401 5.06003 49.2501 5.18003 49.2401 5.06003C49.2301 4.94003 49.6401 4.85003 49.6501 4.81003C49.6601 4.77003 49.7201 4.81003 49.6501 4.81003V4.56003L49.1401 4.84003C48.8501 4.84003 49.1401 4.69003 48.5401 5.02003C49.4201 4.52003 48.6301 4.31003 48.8901 4.12003C48.4601 4.19003 48.4301 4.12003 48.4301 3.96003C48.3301 4.03003 47.7401 4.31003 47.7701 4.18003C49.0101 3.68003 48.2201 3.76003 49.0801 3.30003C48.5201 3.63003 48.8101 3.08003 48.0201 3.55003C48.0901 3.43003 48.4801 3.35003 48.7401 3.16003C48.1801 3.16003 48.8701 2.59003 48.6001 2.42003C48.3899 2.52981 48.1687 2.61696 47.9401 2.68003L48.7001 2.20003C48.6001 2.20003 47.7001 2.56003 48.2701 2.20003C48.1503 2.27773 48.0185 2.33516 47.8801 2.37003C48.4601 1.55003 46.8101 1.66003 48.0801 0.540028C47.7901 0.740028 47.7401 0.710028 47.7101 0.660028C47.5147 0.769717 47.3107 0.863358 47.1001 0.940028L47.5901 0.500028C46.9601 0.720028 47.4501 0.300028 46.8601 0.500028H46.9901C46.2701 0.710028 45.5201 1.27003 44.6301 1.64003C45.4601 1.40003 43.6301 2.39003 44.7701 2.06003C44.6101 2.18003 44.4801 2.16003 44.2801 2.26003C44.6701 2.14003 44.7701 2.16003 44.6401 2.32003H44.5501C44.7501 2.53003 44.4201 2.80003 44.2901 3.19003L44.7201 2.98003C44.7201 3.06003 44.5601 3.14003 44.4601 3.21003C45.1501 3.00003 44.4601 3.02003 45.1801 2.78003C44.3301 3.24003 45.3501 3.21003 44.3701 3.70003C44.3701 3.79003 44.8601 3.45003 44.8901 3.55003L44.6301 3.69003L45.0001 3.64003C44.8289 3.80256 44.624 3.92546 44.4001 4.00003C44.4001 4.00003 44.3201 4.00003 44.2901 4.00003C44.0101 4.21003 44.5001 4.17003 44.4101 4.25003L44.5401 4.08003C44.9001 4.23003 44.6801 4.69003 45.3401 4.70003L45.5301 4.60003C45.9901 4.60003 45.3701 4.84003 45.6401 4.97003H45.5801C45.8101 4.92003 45.9301 4.97003 45.9301 4.97003C45.6701 4.97003 45.5101 5.27003 45.2101 5.31003C45.7101 5.31003 45.5801 5.31003 46.4001 5.08003L46.0701 5.26003C46.4001 5.18003 46.5601 5.11003 46.7001 5.18003C46.3701 5.18003 46.2101 5.46003 45.7801 5.53003C45.1201 6.07003 46.6701 5.53003 45.6201 6.10003C46.6201 5.80003 46.0601 5.69003 46.2901 5.66003C46.5801 5.48003 47.0301 5.44003 46.9601 5.55003C46.8901 5.66003 45.8101 6.18003 45.9001 6.35003C45.9001 6.35003 45.8301 6.35003 45.8201 6.35003C45.6101 6.52003 46.2001 6.35003 45.8201 6.58003C46.4101 6.38003 45.8201 6.70003 46.5601 6.40003L46.3201 6.32003C46.5501 6.32003 47.4401 6.04003 47.0901 6.37003C46.9328 6.41767 46.7724 6.45442 46.6101 6.48003C46.4101 6.61003 46.7901 6.48003 46.6101 6.64003C45.8701 6.94003 46.3601 6.51003 45.7701 6.64003C45.4801 6.82003 46.3701 6.64003 45.5601 6.89003C46.5601 6.53003 45.5601 7.12003 46.3301 6.89003L45.8901 7.07003C45.9601 7.07003 46.1901 7.01003 46.1901 7.07003L45.6001 7.25003C46.1201 7.14003 45.2501 7.62003 45.6001 7.60003C45.5001 7.41003 46.1001 7.33003 46.3901 7.11003C47.0701 7.11003 45.3001 7.74003 45.6301 7.91003C45.5501 7.91003 45.8301 7.66003 46.0601 7.63003C45.9319 7.78169 45.7757 7.9073 45.6001 8.00003C45.7701 8.14003 46.0401 7.78003 46.3401 7.74003C45.8401 8.03003 46.6001 7.74003 46.8001 7.74003L46.3601 8.00003C46.1601 8.32003 47.3001 7.65003 47.0401 8.00003L46.3901 8.19003H46.5901L46.0701 8.38003C46.4901 8.32003 46.4101 8.38003 46.3101 8.56003C46.6101 8.40003 47.1201 8.23003 47.1701 8.31003C46.9401 8.48003 46.7401 8.46003 46.8501 8.55003C46.5601 8.64003 46.2001 8.76003 46.5901 8.55003L46.1501 8.70003C45.8801 8.89003 46.1501 8.89003 46.1501 8.94003C46.1558 8.91875 46.1659 8.89888 46.1796 8.88167C46.1934 8.86447 46.2106 8.85029 46.2301 8.84003L47.0001 8.70003C46.866 8.78501 46.7165 8.84277 46.5601 8.87003C46.6301 8.87003 46.8401 8.87003 46.9001 8.87003C46.6018 9.01223 46.2856 9.11316 45.9601 9.17003H46.4401C46.2713 9.29181 46.0903 9.3957 45.9001 9.48003C45.7301 9.67003 46.7001 9.42003 46.4801 9.66003C46.5493 9.64546 46.6208 9.64546 46.6901 9.66003C46.6901 9.81003 46.2601 10.11 46.8201 10.04L46.2001 10.4C46.4001 10.45 46.9701 9.94003 47.2901 10.02C47.6101 10.1 46.7601 10.31 46.6001 10.43C46.9601 10.35 47.6701 10.18 47.1901 10.53C47.0001 10.5 47.0901 10.43 47.0001 10.41ZM47.8801 11.66C47.7701 11.66 47.4601 11.74 47.7201 11.61C48.2601 11.42 48.0001 11.55 47.9001 11.66H47.8801ZM49.8801 13.28C49.7201 13.33 49.7801 13.28 49.9401 13.16C50.1001 13.04 50.0001 13.2 49.8601 13.28H49.8801ZM55.4501 17.76C55.5601 17.63 55.5001 17.68 55.4301 17.76H55.4501ZM55.3101 17.97L55.5001 17.89C55.3901 17.89 55.3701 17.89 55.3901 17.89C55.4101 17.89 55.1801 18 55.2901 18L55.3101 17.97ZM49.4601 4.84003L49.3501 4.91003C49.2001 4.91003 49.3201 4.88003 49.4601 4.84003Z" fill="#EADAD1"/>
<path d="M49.1499 13.31L49.3899 13.19C49.3019 13.2114 49.2198 13.2524 49.1499 13.31Z" fill="#EADAD1"/>
<path d="M50.72 17.67C50.7826 17.6132 50.8534 17.566 50.93 17.53C50.82 17.57 50.73 17.62 50.72 17.67Z" fill="#EADAD1"/>
<path d="M56.3301 18.29H56.1801C56.1801 18.29 56.1801 18.37 56.0601 18.42C56.1701 18.35 56.3101 18.27 56.3301 18.29Z" fill="#EADAD1"/>
<path d="M53.8799 20.16C53.9399 20.16 53.8799 20.16 53.9499 20.16L54.1599 20.07C54.1599 20.07 53.9399 20.07 53.8799 20.16Z" fill="#EADAD1"/>
<path d="M54.89 19C54.52 19.17 54.66 19.16 54.76 19.19C55.28 19 55.08 19 54.89 19Z" fill="#EADAD1"/>
<path d="M54.77 19.19C55 19.16 54.84 19.2 54.77 19.19V19.19Z" fill="#EADAD1"/>
<path d="M55.6099 18C55.5199 18.06 56.0899 17.81 55.9499 17.89C56.4299 17.73 55.2999 18 55.6099 18Z" fill="#EADAD1"/>
<path d="M53.6799 19.57L54.1299 19.35L53.7399 19.48L53.6799 19.57Z" fill="#EADAD1"/>
<path d="M53.83 19L53.74 19.14C53.7928 19.1295 53.8472 19.1295 53.9 19.14C53.9 19 54 18.93 53.83 19Z" fill="#EADAD1"/>
<path d="M53.8999 19.09C53.8999 19.09 53.8999 19.14 54.0099 19.09C54.1199 19.04 53.9999 19.09 53.8999 19.09Z" fill="#EADAD1"/>
<path d="M53.49 19.51L53.57 19.44L53.58 19.37L53.49 19.51Z" fill="#EADAD1"/>
<path d="M53.5101 18H53.3401C53.1701 18.05 53.0901 18.12 53.1701 18.13C53.2915 18.1117 53.4075 18.0674 53.5101 18Z" fill="#EADAD1"/>
<path d="M52.3699 18.84C52.4774 18.764 52.5912 18.6971 52.7099 18.64L52.1299 18.89L52.3699 18.84Z" fill="#EADAD1"/>
<path d="M52.1199 18.61C51.9599 18.67 51.6099 18.67 51.6899 18.78C51.8499 18.72 51.9999 18.76 52.1199 18.61Z" fill="#EADAD1"/>
<path d="M52.22 16.85L52.24 16.88L53.17 16.47L52.22 16.85Z" fill="#EADAD1"/>
<path d="M49.4301 16.54C49.2601 16.75 50.0201 16.32 49.7901 16.54C50.0201 16.47 49.9801 16.36 50.1801 16.3C49.9201 16.33 50.0001 16.24 49.4301 16.54Z" fill="#EADAD1"/>
<path d="M48.0099 0.16L48.1699 0L47.8799 0.18L48.0099 0.16Z" fill="#EADAD1"/>
<path d="M47.26 0.31L47.84 0L47.29 0.19C47.29 0.19 47.38 0.24 47.26 0.31Z" fill="#EADAD1"/>
<path d="M46.78 12.38L46.93 12.32C47.08 12.24 47.08 12.22 47.09 12.18L46.78 12.38Z" fill="#EADAD1"/>
<path d="M46.8 11.19V11.21L47.32 10.95L46.8 11.19Z" fill="#EADAD1"/>
<path d="M45.76 10.65C45.76 10.65 45.89 10.65 45.88 10.73C45.87 10.81 46.43 10.36 45.76 10.65Z" fill="#EADAD1"/>
</g>
<defs>
<clipPath id="clip0_401_709">
<rect width="57.82" height="34.91" fill="white"/>
</clipPath>
</defs>
</svg>
