<svg xmlns="http://www.w3.org/2000/svg" viewBox="0 0 99.18 215.22"><defs><style>.cls-1{fill:#222221;}</style></defs><g id="Layer_2" data-name="Layer 2"><g id="Graphic_Elements" data-name="Graphic Elements"><path class="cls-1" d="M78.77,185.91c-.45.29-1,0-1.48.05a1.23,1.23,0,0,0-.74.23c-.19.18-.35.39-.54.57a4.83,4.83,0,0,1-2.39,1.31,2.42,2.42,0,0,1-2.26-.79,12,12,0,0,1-1.11-1.63l-1.14-1.8c-1.47-2.32-2.91-4.65-4.38-7-.75-1.19-1.52-2.38-2.29-3.55s-1.65-2.31-2.38-3.51c-.63-1-.88-2.24-1.71-3.16a7,7,0,0,0-2.6-1.91,4.79,4.79,0,0,0-3.19-.13,3.48,3.48,0,0,0-2,2.34,9,9,0,0,0-.23,3.77,19.79,19.79,0,0,0,.78,3.73c.37,1.23.83,2.42,1.3,3.62.23.59.45,1.2.7,1.79a8.42,8.42,0,0,0,.83,1.38,6.79,6.79,0,0,1,.57,1.68c.19.6.41,1.2.64,1.79.46,1.13,1,2.23,1.46,3.35a22.13,22.13,0,0,1,1.2,3.37,4.22,4.22,0,0,0,.59,1.34c.26.37.58.71.84,1.08a2.75,2.75,0,0,1,.54,1.25.5.5,0,0,0,1-.27,5.41,5.41,0,0,0-1.36-2.39,10.4,10.4,0,0,1-1.12-2.92c-.82-2.26-2-4.39-2.74-6.69-.09-.28-.18-.56-.25-.84a5.08,5.08,0,0,0-.28-.94c-.24-.45-.58-.84-.82-1.28a14.45,14.45,0,0,1-.69-1.68c-.23-.58-.45-1.15-.67-1.74A19.74,19.74,0,0,1,51.23,169a4.22,4.22,0,0,1,1-3.08,3.09,3.09,0,0,1,2.85-.36,5.72,5.72,0,0,1,2.46,1.71c.82.9,1,2.13,1.69,3.13.76,1.17,1.58,2.31,2.35,3.47s1.51,2.32,2.26,3.49c1.44,2.28,2.86,4.58,4.3,6.86l1.14,1.8c.36.55.69,1.14,1.1,1.66a3.56,3.56,0,0,0,2.42,1.4,4.47,4.47,0,0,0,2.64-.68,6.84,6.84,0,0,0,1.18-.88c.17-.16.32-.34.48-.49s.38-.08.59-.05a2.19,2.19,0,0,0,1.55-.22c.55-.35,0-1.22-.5-.87Z"/><path class="cls-1" d="M50.82,100.18c1.92-.26,3.6.82,5.11,1.86s3.19,2.21,4.76,3.35c3,2.2,6,4.48,8.84,6.91s5.78,5.29,8.64,8a74.47,74.47,0,0,0,9.2,7.81c3.58,2.42,7.43,4.41,11.06,6.75l-.25-.43V135l.25-.43a5.33,5.33,0,0,1-3.89,1.07,9.79,9.79,0,0,1-3.84-1.41l-.51.86a1.55,1.55,0,0,1,.75.65l.57-.73c-.3-.11-.52-.47-.71-.71l-.71.71c1.83,1.66,4.94,2.62,5.23,5.44l.24-.44c-2.36,1.27-5.18,0-6.78-1.93-.42-.5-1.1.22-.71.71a6.19,6.19,0,0,0,.58.67c.4.38,1.15-.14.79-.61a9.58,9.58,0,0,0-.66-.77l-.71.71c.82.64,1.7,1.17,2.56,1.73a2.91,2.91,0,0,1,1.42,1.59,1.72,1.72,0,0,1-.19,1.67,3,3,0,0,1-2.47.57,7.88,7.88,0,0,1-2.56-.93c-.89-.45-1.82-.83-2.73-1.26-1.81-.84-3.6-1.72-5.38-2.62a191.08,191.08,0,0,1-21-12.37l-2.61-1.8a5.76,5.76,0,0,0-2.22-1.3c-1.76-.25-2.79,1.47-3,3a8.53,8.53,0,0,0,1.14,4.77c.38.77.84,1.5,1.2,2.27.45,1,.91,1.95,1.37,2.91,3.63,7.7,7.39,15.32,11,23q1.35,2.91,2.67,5.85c.44,1,.88,2,1.31,3A22.49,22.49,0,0,0,70,171.66l.82,1.32a3.2,3.2,0,0,1,.58,1.29,2.3,2.3,0,0,0,.29,1.18c.23.38.47.76.68,1.14.85,1.53,1.52,3.15,2.47,4.62a10.53,10.53,0,0,0,1.6,1.92c.48.43,1.19-.27.71-.71a14,14,0,0,1-2.82-4.21c-.4-.79-.79-1.59-1.22-2.35a5.75,5.75,0,0,1-.68-1.17,7.6,7.6,0,0,0-.17-1.15,22.4,22.4,0,0,0-1.6-2.71A28.79,28.79,0,0,1,69.3,168q-1.29-3-2.64-5.89c-3.56-7.75-7.33-15.41-11-23.11-.46-1-.92-1.93-1.37-2.9s-.86-1.94-1.36-2.87a16.65,16.65,0,0,1-2-4.61,4,4,0,0,1,.2-2.3c.29-.69.76-1.36,1.59-1.24a2,2,0,0,1,.91.49l1.37,1,2.6,1.79a192.23,192.23,0,0,0,20.93,12.28q2.67,1.35,5.38,2.61c.89.41,1.83.77,2.69,1.25a7.39,7.39,0,0,0,2.5.88c1.5.21,3.63-.13,4-1.89a3.26,3.26,0,0,0-.25-2,3.63,3.63,0,0,0-1.47-1.63c-.87-.59-1.79-1.1-2.62-1.75-.5-.38-1.17.23-.71.71.17.19.35.37.51.57l.78-.61a6.19,6.19,0,0,1-.58-.67l-.71.71c1.9,2.26,5.24,3.57,8,2.09a.5.5,0,0,0,.25-.43,5.34,5.34,0,0,0-2.1-3.68c-1.1-.88-2.37-1.52-3.42-2.47a.5.5,0,0,0-.71.71,2.67,2.67,0,0,0,1.15,1c.46.17.73-.37.57-.73a2.32,2.32,0,0,0-1.11-1,.5.5,0,0,0-.51.86A9.44,9.44,0,0,0,96,136.61a6,6,0,0,0,2.78-1.11c.37-.27.36-.51.36-.92s-.36-.68-.77-.94c-4.08-2.59-8.41-4.79-12.3-7.67a69.63,69.63,0,0,1-5.73-5c-1.81-1.68-3.59-3.4-5.39-5.1a129.91,129.91,0,0,0-10.92-9.23c-2.13-1.61-4.29-3.16-6.48-4.68s-4.3-3.13-7-2.76a.5.5,0,0,0,.27,1Z"/><path class="cls-1" d="M54.72,207.1c-.79-.23-1.08-1.41-1.29-2.1a27.17,27.17,0,0,0-1-2.79,36.13,36.13,0,0,0-1.86-3.54c-.67-1.17-1.16-2.42-1.82-3.6s-1.45-2.22-2.12-3.35-1.19-2.27-1.75-3.43-1.29-2-1.85-3.08a31.29,31.29,0,0,1-1.8-4c-.45-1.23-.86-2.44-1.42-3.62S38.62,175.21,38,174c-1.31-2.44-3-4.78-3.85-7.42-.4-1.19-.7-2.41-1.13-3.59a25.1,25.1,0,0,0-1.58-3.26c-1.28-2.44-2.29-5-3.36-7.57s-2.26-4.92-3.44-7.38-2.38-5.15-3.54-7.74a128.2,128.2,0,0,0-7.39-14.61c-1.33-2.18-2.69-4.34-3.9-6.58a65,65,0,0,1-3.17-7.27A37.45,37.45,0,0,1,5.28,105a33,33,0,0,1-.77-4.08C4.1,98,3.84,95.16,3.42,92.3a57.26,57.26,0,0,1-.66-8.68c0-2.88.07-5.77.11-8.65s.16-5.82.44-8.72A4.22,4.22,0,0,1,4,63.93c.71-.84,1.34.18,1.64.8A3.54,3.54,0,0,0,6.9,66.46a.51.51,0,0,0,.74-.3c.12-.53-.17-2.75.33-2.92.25-.09.66.35.79.51A5.64,5.64,0,0,1,9.41,65c.32.81.55,1.65.79,2.49a.5.5,0,0,0,1-.13,7.58,7.58,0,0,1,.05-2.81c.18-.53.73-1.1,1.34-.93a2,2,0,0,1,1.09,1.07,27.22,27.22,0,0,1,2.42,7c1.16,5,1.46,10.23,2.38,15.31a49.43,49.43,0,0,0,2,7.26c.69,2,.92,4.35,2.15,6.13a6.23,6.23,0,0,0,2.28,1.92,9.1,9.1,0,0,0,2.76,1.18,20.23,20.23,0,0,0,3.39.11,10.6,10.6,0,0,0,3.41-.45,75.13,75.13,0,0,1,7.69-1.92c1.39-.32,2.73-.84,4.14-1.08a21.28,21.28,0,0,1,3.91,0,.5.5,0,0,0,0-1,33.16,33.16,0,0,0-3.45-.07,20,20,0,0,0-3.58.85c-2.44.69-5,1-7.42,1.72a16.05,16.05,0,0,1-3.67.92,35.7,35.7,0,0,1-3.73,0,7.4,7.4,0,0,1-3.14-1.22,5.1,5.1,0,0,1-2.36-2.63,30,30,0,0,1-.92-3.24c-.37-1.26-.86-2.48-1.27-3.73A46.8,46.8,0,0,1,19,84c-.79-5.2-1.14-10.54-2.75-15.57a30.92,30.92,0,0,0-1.54-3.94,3,3,0,0,0-2.14-1.9,2.27,2.27,0,0,0-2.21,1.51,7.79,7.79,0,0,0-.15,3.26l1-.13A18.79,18.79,0,0,0,10,64c-.38-.79-1-1.72-2-1.72-1.72,0-1.08,2.65-1.32,3.66l.74-.3c-.66-.37-.83-1.39-1.22-2a1.85,1.85,0,0,0-1.83-1c-1.86.27-2,2.91-2.12,4.33-.26,3-.36,6-.38,9s-.14,6-.1,9.05a72.2,72.2,0,0,0,.87,8.81c.38,2.91.65,5.83,1.13,8.72a22.69,22.69,0,0,0,1,4.13c.47,1.27,1,2.51,1.46,3.79a46.19,46.19,0,0,0,3.35,7.12c1.33,2.33,2.78,4.59,4.14,6.89s2.73,4.94,3.94,7.49c2.52,5.34,4.77,10.79,7.43,16.07,1.26,2.51,2.27,5.13,3.37,7.72.54,1.29,1.11,2.57,1.74,3.82a34.65,34.65,0,0,1,1.83,3.72c.44,1.22.75,2.49,1.17,3.71A22,22,0,0,0,35,170.7c1.39,2.47,2.82,4.93,4,7.5.62,1.31,1,2.7,1.56,4A32.65,32.65,0,0,0,42.34,186c.67,1.17,1.43,2.23,2,3.46A29.07,29.07,0,0,0,46.22,193a41.3,41.3,0,0,1,2.16,3.54c.62,1.26,1.24,2.49,1.93,3.71a22.67,22.67,0,0,1,1.78,3.84,25,25,0,0,0,.8,2.4,2.63,2.63,0,0,0,1.57,1.62.5.5,0,0,0,.26-1Z"/><path class="cls-1" d="M27.75,101.65c0-1.56-.36-3.22.08-4.75A3.62,3.62,0,0,1,30,94.48a9.75,9.75,0,0,1,2-.57,6,6,0,0,1,2.43-.06,2.08,2.08,0,0,1,1.33,1.06c.34.54.7,1.07,1,1.62a5.91,5.91,0,0,1,.26,2.18c.1.87.33,1.72.45,2.58a.51.51,0,0,0,.62.36.52.52,0,0,0,.35-.62c-.12-.86-.37-1.69-.44-2.55a6.57,6.57,0,0,0-.28-2.25,16.36,16.36,0,0,0-1.08-1.79A3.26,3.26,0,0,0,35.13,93a5.45,5.45,0,0,0-2.57-.19,11.4,11.4,0,0,0-2.46.56,4.79,4.79,0,0,0-2.93,2.46c-.84,1.85-.43,3.86-.42,5.81a.5.5,0,0,0,1,0Z"/><path class="cls-1" d="M10.18,61.13c-.13-1.62.92-3.16,1.53-4.6a15.9,15.9,0,0,0,.78-2.63c.24-1,.46-2,.68-3,.45-2,.94-4.07,1.5-6.08.28-1,.52-2,.75-3,.2-.85.44-1.7.62-2.55,0-.12.05-.25.08-.37s.06-.15,0-.05.09-.06,0,0c.08,0-.08,0,0,0-.09,0,.09,0,.12,0a1.72,1.72,0,0,1,.39,0,11.68,11.68,0,0,1,3.07.06c-.12-.12-.23-.24-.35-.35a5.32,5.32,0,0,1,.12,2,12.1,12.1,0,0,1-.24,2.25,21.47,21.47,0,0,1-.91,2.47,17.32,17.32,0,0,0-.75,2.67,50.15,50.15,0,0,1-1.18,5.41c-.59,1.83-1.22,3.64-1.79,5.48a46.07,46.07,0,0,0-1.55,6.2c-.1.64.86.91,1,.27.68-4.15,2.22-8.07,3.46-12.07.6-1.93.78-4,1.26-5.92s1.54-3.63,1.66-5.62a22.19,22.19,0,0,0,.1-2.31,4.11,4.11,0,0,0-.16-1c-.17-.52-.73-.51-1.19-.55a16.1,16.1,0,0,0-2.69,0,1.41,1.41,0,0,0-1.26.65,2.41,2.41,0,0,0-.18.65c-.09.4-.2.8-.3,1.2-.25,1-.47,2-.72,3-.5,2-1.1,4.07-1.56,6.12-.25,1.13-.49,2.25-.75,3.37a21.28,21.28,0,0,1-.83,3.16c-.65,1.69-1.88,3.39-1.73,5.28.05.64,1.05.65,1,0Z"/><path class="cls-1" d="M9.18,63.57V65a.5.5,0,0,0,1,0V63.57a.5.5,0,0,0-1,0Z"/><path class="cls-1" d="M3.33,75.79a16,16,0,0,0,2.92-.41,5.48,5.48,0,0,1,1.46-.13,10.41,10.41,0,0,0,1.48.09c.91,0,1.76-.47,2.67-.52,1.06,0,2.13,0,3.19,0a.5.5,0,0,0,0-1c-1.06,0-2.13,0-3.19,0s-1.76.47-2.67.52a11.16,11.16,0,0,1-1.42-.08,5.61,5.61,0,0,0-1.53.1,16,16,0,0,1-2.91.43.5.5,0,0,0,0,1Z"/><path class="cls-1" d="M76.57,136.8a2.78,2.78,0,0,1,.62-1.22,12.68,12.68,0,0,1,.88-1.06c.89-1,2-1.84,2.85-2.83a6.69,6.69,0,0,0,1-1.44,5.53,5.53,0,0,1,1-1.5A4.86,4.86,0,0,0,84,127.5a12.7,12.7,0,0,1,.76-1.68c.38-.52-.49-1-.86-.5a12.75,12.75,0,0,0-.77,1.68A6.37,6.37,0,0,1,82,128.27a7.33,7.33,0,0,0-1,1.58,6.16,6.16,0,0,1-1.13,1.5c-.92.93-1.9,1.78-2.76,2.78a5.16,5.16,0,0,0-1.51,2.67c-.06.64.94.64,1,0Z"/><path class="cls-1" d="M34.08,163.78c.17-.69,1-1,1.62-1.29,1-.45,2.06-.8,3.09-1.22s2-.9,3-1.25,2.13-.6,3.19-.89,2-.81,3.07-1.14a18.67,18.67,0,0,1,3.15-.53,13.54,13.54,0,0,0,3.2-.81c1-.38,1.93-.8,2.89-1.21a6.48,6.48,0,0,1,1.52-.51c.34-.05.69-.07,1-.13a1.68,1.68,0,0,0,1.6-1.27.52.52,0,0,0-.35-.62.51.51,0,0,0-.62.35c-.07.55-.77.57-1.22.62a8.21,8.21,0,0,0-2.46.69c-1,.42-1.92.84-2.89,1.21a13.29,13.29,0,0,1-3.23.74,14.75,14.75,0,0,0-3.24.63c-1,.36-1.94.81-3,1.08s-2.14.55-3.18.91-2,.87-3,1.27-2.24.82-3.31,1.32a3,3,0,0,0-1.84,1.78c-.16.63.81.9,1,.27Z"/><path class="cls-1" d="M41.17,164.68c-1.11-.49-2.82-1.73-3.91-.5a3.56,3.56,0,0,0-.71,1.71,2.86,2.86,0,0,0,.13,1.76.51.51,0,0,0,.79.11,1.93,1.93,0,0,0,.6-2.36,3.62,3.62,0,0,0-1.88-1.67,2.18,2.18,0,0,0-2-.1,1.38,1.38,0,0,0-.22,2A10.86,10.86,0,0,0,35.52,167c.37.34.68.74,1,1.11A13.88,13.88,0,0,0,38,169.61a3.77,3.77,0,0,0,1.57.91,1.37,1.37,0,0,0,1.2-2.39A4.64,4.64,0,0,0,39.23,167a2.59,2.59,0,0,0-.66-.23c-.48-.07-.84.45-1,.82-.85,1.5-.15,3.5,1,4.65a5.08,5.08,0,0,0,5,1,2.32,2.32,0,0,0,1.46-1.1,4.22,4.22,0,0,0,.37-1.79c0-.77,0-1.53.16-2.3a9.73,9.73,0,0,0,.11-2.64,2.85,2.85,0,0,0-.42-1.16.5.5,0,0,0-.56-.23,2,2,0,0,0-1.23,1.59,8.86,8.86,0,0,0-.16,2.57,9.49,9.49,0,0,0,.34,2.25,4,4,0,0,0,1.71,2.11,2.67,2.67,0,0,0,3.25,0,.5.5,0,0,0-.1-.78c-1.51-.66-2.82.34-3.58,1.62a7.74,7.74,0,0,0-1,5,3.78,3.78,0,0,0,.92,2,2.35,2.35,0,0,0,1,.64c.4.09.87-.32,1.09-.62.9-1.27-.6-2.9-1.48-3.7a10.65,10.65,0,0,0-2.38-1.65,3.29,3.29,0,0,0-2.22-.45.48.48,0,0,0-.35.35,7.78,7.78,0,0,0,2.44,7.12c.87.67,2.07,1.17,3,.37a3.53,3.53,0,0,0,1-2.68A4.58,4.58,0,0,0,45.45,177a7.22,7.22,0,0,0-2.82-2c-.8-.29-1.22.61-1.23,1.28a5.24,5.24,0,0,0,.52,2.09,28,28,0,0,0,2.51,4.43c.38.57.75,1.14,1.14,1.7s.91,1.27,1.4,1.87.83.88,1.21,1.36a8.48,8.48,0,0,0,2,2.3.86.86,0,0,0,1.29-.2,3.57,3.57,0,0,0,.69-1.27,11.4,11.4,0,0,0,.47-2.84,4.41,4.41,0,0,0-.83-3.15,2.79,2.79,0,0,0-1.41-1,1.53,1.53,0,0,0-1.27.7,3.69,3.69,0,0,0-.4,2.65c.06.45.14.9.23,1.35a4.61,4.61,0,0,1,.13,1,4.44,4.44,0,0,0,.47,2.47,1.45,1.45,0,0,0,1.14.6.52.52,0,0,0,.49-.37,10.71,10.71,0,0,0-.66-6.44,14.36,14.36,0,0,0-2.42-4.17A4,4,0,0,0,46.07,178a.51.51,0,0,0-.62.35,9.17,9.17,0,0,0,.29,4.62c.5,1.58,1.13,3.13,1.69,4.69.41,1.16.81,2.31,1.19,3.48a20.18,20.18,0,0,0,1.14,2.91,4.21,4.21,0,0,0,2.17,2.26.52.52,0,0,0,.62-.35,1.21,1.21,0,0,0-.66-1.71.5.5,0,0,0-.62.35c-.27,1-.36,2.64.54,3.42,1.12,1,2.55-.27,3.26-1.15a4,4,0,0,0,1-3.3,5.75,5.75,0,0,0-2-3,18.23,18.23,0,0,0-3.19-2.19,18.1,18.1,0,0,1-1.71-1,23.47,23.47,0,0,1-1.94-1.65,4.22,4.22,0,0,0-1.65-1.12c-.65-.14-1,.42-1.18,1a5.49,5.49,0,0,0,.07,2.58c.32,1.62,1.55,5.17,3.83,3.65a.53.53,0,0,0,.23-.56,17,17,0,0,0-1.78-3.82c-.49-1-.86-2.29-1.92-2.9-.35-.21-.9.14-.73.56a45.47,45.47,0,0,0,3.73,7.49c.73,1.18,1.52,2.33,2.36,3.44.43.55.86,1.1,1.31,1.63s.91.92,1.37,1.37A5.74,5.74,0,0,1,54,200.69a5.67,5.67,0,0,0,1.15,1.78.51.51,0,0,0,.79-.1,2.26,2.26,0,0,0-.36-2.4c-.24-.28-.73-.65-1.14-.55a1.64,1.64,0,0,0-.86.72,2.17,2.17,0,0,0,1.71,3.13c1.29.07,2.24-1.07,2.7-2.14a9.4,9.4,0,0,0,.64-4.1,6.15,6.15,0,0,0-1.16-3.8.51.51,0,0,0-.84.22,2.48,2.48,0,0,0,.56,2.72.51.51,0,0,0,.68-.18,3.08,3.08,0,0,0,0-1.92,25.44,25.44,0,0,0-.85-2.95c-.39-1.14-.82-2.26-1.31-3.36a17.75,17.75,0,0,0-1.4-2.66c-.38-.57-1-1.4-1.74-1.24a.51.51,0,0,0-.37.49,14,14,0,0,0,1.67,7.27.5.5,0,0,0,.68.18,2.69,2.69,0,0,0,1.15-2.61,14.47,14.47,0,0,0-.64-3.8c-.29-1.08-.64-2.14-1-3.21-.45-1.41-.77-2.86-1.2-4.28a17.07,17.07,0,0,0-2.67-5.61c-.34-.42-.94.05-.84.49a59.83,59.83,0,0,0,1.82,7.84c.18.49,1.06.47,1-.13-.5-4.39-1.83-8.64-2.45-13-.08-.58-1-.41-1,.13a9.16,9.16,0,0,1-.92,3.11,9.87,9.87,0,0,0-.5,1.57,7.59,7.59,0,0,1-.46,1.63l.93.25a5.25,5.25,0,0,0-.4-1.65.5.5,0,0,0-.91-.12c-.64.85-.44,2.15-.29,3.12s.48,2.08.63,3.14c.07.56,1,.43,1-.13,0-.9-.12-1.78-.24-2.67a24.91,24.91,0,0,1-.29-2.6,8.37,8.37,0,0,1,.3-2.44,3.2,3.2,0,0,0-.07-2.22c-.28-.6-.7-1.13-1-1.72a3.29,3.29,0,0,1-.29-1.38,3.49,3.49,0,0,0-.31-1.47,1.52,1.52,0,0,0-1-.65,18.44,18.44,0,0,0-2.09-.43,3.9,3.9,0,0,0-2.27.14.5.5,0,0,0,0,.87,2.11,2.11,0,0,0,1.67.08.5.5,0,0,0,.22-.83,5.23,5.23,0,0,0-2.66-1.09c-1-.2-2-.3-2.92-.52l.3.73s0-.07.06-.09,0,0,0,0a.63.63,0,0,1,.17-.13,3,3,0,0,1,.65-.3,14.56,14.56,0,0,1,1.86-.5c1.19-.26,2.4-.43,3.57-.76a51,51,0,0,0,6-2.12l.5-.22c.12-.05-.08,0,0,0l.45-.18c.44-.17.9-.33,1.36-.47a5.65,5.65,0,0,1,1.6-.3h.21a.28.28,0,0,1,.13,0c.13,0,0,0,.07,0s-.06,0,0,0,0,0,0,0,0,0,0,0,0,.15,0,0v.19c.08-.15.16-.29.25-.43a26.57,26.57,0,0,1-3.6,2c-1,.48-2,1-3,1.4A21,21,0,0,0,45,161.71a3.1,3.1,0,0,0-1.57,1.77.51.51,0,0,0,.49.63c1.73.08,3.47.15,5.2.08.58,0,1.17,0,1.74-.12a2.73,2.73,0,0,0,1.58-.58.51.51,0,0,0-.35-.86c-1.78,0-3.56-.16-5.34-.11a9.84,9.84,0,0,0-3.61.63,13.11,13.11,0,0,0-2.33,1.26,4.85,4.85,0,0,0-1.92,2c-.31.77.07,2.32,1.15,2a34.79,34.79,0,0,0,4.93-1.84,42.48,42.48,0,0,0,4.76-2.53c.77-.46,1.52-1,2.27-1.46a5,5,0,0,1,1.77-.8c1-.22,3.22.08,3.09-1.6,0-.43-.54-.61-.89-.76a7.75,7.75,0,0,0-1.16-.35,4.26,4.26,0,0,1-2.06-.84c0,.26-.07.52-.1.78a1.33,1.33,0,0,1,1-.22l-.35-.35c.09.23-.13.24-.35.2l.35.61c0-.05,0-.06-.05,0s-.06,0,0,0l.05,0,.3.15.3.22a11.16,11.16,0,0,1,1.36,1.39l.23.28.07.09a10.41,10.41,0,0,1,.9,1.46c.55,1.08,1,2.21,1.63,3.24.24.38,1,.27.93-.25-.24-2-1.69-3.47-2.32-5.33l-.83.48A23,23,0,0,1,58,163.93a.5.5,0,0,0,.84-.22c.5-2.08-.71-4.12-1-6.14l-.48.64-.14,0,.07,0c0,.08-.07-.06,0,0l.12.11a3.5,3.5,0,0,1,.44.5,11.1,11.1,0,0,1,1,1.51,8.52,8.52,0,0,1,.77,1.68,2.82,2.82,0,0,1,.12.61.81.81,0,0,1,0,.16s0-.05,0,.05,0-.09,0,0,0,0,0,0l.48-.13c-2-.37-2.32-3-2.3-4.65l-.25.44a.45.45,0,0,1,.23,0,1.19,1.19,0,0,1,.44.17,4.21,4.21,0,0,1,.95.79,13.69,13.69,0,0,1,1.43,1.79l.79-.61a5,5,0,0,1-1-1.45c-.18-.38-.45-1,0-1.27l-.61-.08a12.25,12.25,0,0,1,2.52,5.82,11.88,11.88,0,0,1,.26,1.47c.05.51.05,1,.07,1.54a6.26,6.26,0,0,0,.65,3,.5.5,0,0,0,.91-.12,1.73,1.73,0,0,0-.08-1.44,3.35,3.35,0,0,0-.42-.57,3,3,0,0,1-.46-.84c-.5-1.12-.94-2.26-1.38-3.4-.87-2.26-1.86-4.46-2.94-6.62l-.18.69a1.28,1.28,0,0,1,1.13-.15,2.77,2.77,0,0,1,1.13.79,12.12,12.12,0,0,1,2,3.13c.46.94.85,1.91,1.28,2.86A63.25,63.25,0,0,1,66.83,170c.39,1.19.71,2.39,1,3.6a8.54,8.54,0,0,1,.45,3.5l.91-.12c-2.75-3.91-5.36-8-8.7-11.44a.5.5,0,0,0-.83.49,46.81,46.81,0,0,0,4.92,9.57,45.09,45.09,0,0,1,2.34,4c.48,1,.93,2,1.49,3s1.35,2.27,2.54,2.56a.51.51,0,0,0,.57-.74c-.66-1.37-1.45-2.67-2.23-4a.51.51,0,0,0-.57-.23c-1.21.48-.5,2.4-.2,3.27A11.65,11.65,0,0,0,70.16,187a2.45,2.45,0,0,0,2.54.94.52.52,0,0,0,.37-.48,12.59,12.59,0,0,0-.94-5.76c-.39-.91-.89-1.75-1.34-2.63a8.6,8.6,0,0,0-1.58-2.44c-.35-.32-1,0-.84.49a19.27,19.27,0,0,0,2,4,8.55,8.55,0,0,0,3.39,3.38,3.43,3.43,0,0,0,2.46.18.5.5,0,0,0,.3-.73,79,79,0,0,0-4.42-6.6c-.33-.49-.7-1-1-1.49-.18-.32-.32-.67-.5-1-.36-.69-.93-1.51-1.82-1.41a.51.51,0,0,0-.5.5.5.5,0,0,0,.5.5c.61-.07.94.87,1.16,1.32a17.81,17.81,0,0,0,1.59,2.52,71.85,71.85,0,0,1,4.11,6.17l.3-.73a3.35,3.35,0,0,1-3.29-1.26,14.44,14.44,0,0,1-2.49-3.74,18.12,18.12,0,0,1-.8-1.87l-.83.49a7.71,7.71,0,0,1,1.43,2.24c.42.84.91,1.65,1.29,2.52a11.55,11.55,0,0,1,.84,5.36l.37-.48c-.9.18-1.44-.43-1.85-1.15a12.87,12.87,0,0,1-.72-1.53,15.47,15.47,0,0,1-.65-1.92,4.19,4.19,0,0,1-.14-.85.63.63,0,0,1,0-.26c0-.1,0-.06,0-.06s0,0-.11.07l-.57-.23c.78,1.31,1.57,2.61,2.23,4l.57-.74c-.85-.2-1.47-1.29-1.9-2-.56-1-1-2-1.48-3-.61-1.28-1.39-2.49-2.13-3.71-.91-1.49-1.83-3-2.69-4.51a30.81,30.81,0,0,1-2.4-5.26l-.83.49c3.27,3.4,5.83,7.39,8.54,11.24.22.31.83.34.91-.12A8.18,8.18,0,0,0,69,174c-.28-1.13-.55-2.25-.89-3.36a55.72,55.72,0,0,0-2.64-6.74c-1-2.27-1.87-4.79-3.63-6.63a2.8,2.8,0,0,0-3.5-.82.52.52,0,0,0-.18.69c1,2,2,4.12,2.79,6.25.42,1.07.83,2.14,1.29,3.2a5,5,0,0,0,.77,1.52,1,1,0,0,1,.34,1.13l.91-.12a6.13,6.13,0,0,1-.52-2.91,17,17,0,0,0-.43-3.17,12.64,12.64,0,0,0-2.7-5.92.5.5,0,0,0-.61-.08c-1.65.95-.1,3.39.82,4.3.4.39,1.13-.12.79-.6a14.09,14.09,0,0,0-1.83-2.24c-.69-.65-1.64-1.32-2.6-.84a.51.51,0,0,0-.24.43,8.51,8.51,0,0,0,.57,3.43,4.07,4.07,0,0,0,.95,1.43,2.63,2.63,0,0,0,1.65.77c.48,0,.68-.6.7-1a3.17,3.17,0,0,0-.22-1.18,11.31,11.31,0,0,0-1.39-2.67,9.2,9.2,0,0,0-.91-1.15,1.3,1.3,0,0,0-.88-.53.51.51,0,0,0-.49.63,25.84,25.84,0,0,0,.72,2.85,5.78,5.78,0,0,1,.28,2.76l.83-.23a20.61,20.61,0,0,0-2.19-2.9c-.34-.33-1,0-.83.48A13.57,13.57,0,0,0,57,163.33a6.93,6.93,0,0,1,1,2.54l.94-.26c-1-1.61-1.54-3.48-2.75-5a7.51,7.51,0,0,0-2.41-2.22,1,1,0,0,0-1.49.61.49.49,0,0,0,.35.61c.7.14,1.64-.14,1.65-1,0-1.2-1.5-.89-2.17-.46a.5.5,0,0,0-.1.78,4.34,4.34,0,0,0,2,1,6.5,6.5,0,0,1,2.07.7l-.25-.44c0,.34-.27.4-.57.44s-.83,0-1.24.1a6.88,6.88,0,0,0-3,1.31A46.44,46.44,0,0,1,43.89,166a33.26,33.26,0,0,1-4.33,1.54l.49.13a1,1,0,0,1-.28-.35.49.49,0,0,1,0-.26c0-.08,0,0,0-.11a1.46,1.46,0,0,1,.07-.19l.07-.14.14-.21a6.44,6.44,0,0,1,1.78-1.45c.34-.2.7-.39,1.05-.57l.48-.23.33-.14a9.33,9.33,0,0,1,3.19-.48c1.74,0,3.47.13,5.21.11l-.36-.85a2.17,2.17,0,0,1-1.25.33c-.59,0-1.18.07-1.77.09-1.6.05-3.2,0-4.79-.09l.48.63c.15-.81,1.39-1.35,2.08-1.69,1-.48,2-.89,3-1.36a44,44,0,0,0,4.37-2.26,2.76,2.76,0,0,0,.93-.68,1,1,0,0,0,0-.69,1.09,1.09,0,0,0-.76-.73,4.27,4.27,0,0,0-2.37.22,16,16,0,0,0-1.91.67c-1.26.52-2.51,1-3.79,1.48a28.57,28.57,0,0,1-4,1.17c-1.08.21-2.17.39-3.25.66a9.34,9.34,0,0,0-1.54.53,1.73,1.73,0,0,0-.91.77.5.5,0,0,0,.3.73c.9.21,1.82.31,2.73.49a4.85,4.85,0,0,1,2.4.87c.08-.28.15-.56.23-.84a1.15,1.15,0,0,1-.91,0V164a3.18,3.18,0,0,1,1.73,0c.57.11,1.15.22,1.71.36a2.69,2.69,0,0,1,.45.14c.09,0,.1.06.14.16a4.85,4.85,0,0,1,.17,1.35,3.41,3.41,0,0,0,.35,1.33c.28.57.67,1.07,1,1.63a2.47,2.47,0,0,1,0,1.87,8.21,8.21,0,0,0-.28,2.27,23.15,23.15,0,0,0,.29,2.74c.12.9.21,1.81.25,2.73l1-.14c-.13-1-.41-1.9-.58-2.86-.14-.78-.37-1.94.14-2.63l-.91-.12a5.18,5.18,0,0,1,.36,1.39c0,.45.7.75.93.26a7.71,7.71,0,0,0,.54-1.75,9.76,9.76,0,0,1,.53-1.69,10,10,0,0,0,.95-3.38l-1,.14c.6,4.28,1.92,8.44,2.41,12.74l1-.13a58.06,58.06,0,0,1-1.82-7.85l-.84.49c2.05,2.6,2.58,6,3.51,9.12a34.27,34.27,0,0,1,1.65,6.29,5.67,5.67,0,0,1,0,1.65,1.56,1.56,0,0,1-.22.58s-.08.1,0,0l-.13.14c-.11.1.07-.05,0,0l-.16.09.68.18a13.12,13.12,0,0,1-1.53-6.77l-.37.48h-.1c.11.06,0,0,0,0l.11.06h0l.09.09a1.73,1.73,0,0,1,.26.28l.1.12.18.27a16.89,16.89,0,0,1,1.27,2.42,32.67,32.67,0,0,1,2.06,5.84c0,.2.09.41.13.62s0,.2.05.3a.36.36,0,0,1,0,.11c0-.13,0,0,0,.06s0,.27,0,.41,0,.05,0,.08,0-.09,0,0-.08.19,0,0l.68-.18c-.18-.14-.2-.51-.21-.71a2.32,2.32,0,0,1,.12-.87l-.84.22c.09.09,0,0,.1.11l.13.21c.08.16.15.31.2.44a7.19,7.19,0,0,1,.31,1.19,9.8,9.8,0,0,1,.07,2.86,6,6,0,0,1-.77,2.52c-.33.53-.95,1.16-1.65,1a1.24,1.24,0,0,1-.8-.92.82.82,0,0,1,.48-1l-.39,0a1.15,1.15,0,0,1,.63,1.47l.79-.1a4.63,4.63,0,0,1-1-1.48,6.37,6.37,0,0,0-1-1.55c-.41-.47-.89-.87-1.33-1.32a17,17,0,0,1-1.28-1.51A43.9,43.9,0,0,1,46.92,189,44.52,44.52,0,0,1,45,184.82l-.73.56c.89.52,1.18,1.77,1.61,2.64a14.87,14.87,0,0,1,1.62,3.48l.23-.56a1.13,1.13,0,0,1-.4.19.61.61,0,0,1-.3,0,1.35,1.35,0,0,1-.58-.45,6.22,6.22,0,0,1-.94-2.19,7.64,7.64,0,0,1-.29-2.12,1.09,1.09,0,0,1,0-.18c0-.13,0,.09,0-.05a5.47,5.47,0,0,1,.2-.61c0,.05-.13,0-.14,0a.75.75,0,0,1,.18.09,5.08,5.08,0,0,1,.7.52,21.13,21.13,0,0,0,3.44,2.67,24.53,24.53,0,0,1,2.65,1.6c1.47,1,3.38,2.75,2.63,4.76a4.09,4.09,0,0,1-.85,1.28c-.32.35-.81.87-1.32.88s-.59-.59-.63-.94a4.1,4.1,0,0,1,.11-1.56l-.62.35c.09,0,.06,0,.07.09a.88.88,0,0,1-.11.39l.62-.35a3.27,3.27,0,0,1-1.53-1.72A16.13,16.13,0,0,1,49.61,191c-.82-2.51-1.74-5-2.64-7.47a9,9,0,0,1-.55-4.86l-.62.35a3.54,3.54,0,0,1,1.93,1.48A13.25,13.25,0,0,1,49.2,183a10.33,10.33,0,0,1,1,6.78l.48-.36c-.72-.05-.59-1.56-.61-2.1,0-1-.35-1.86-.41-2.81a2.75,2.75,0,0,1,.16-1.36.91.91,0,0,1,.34-.39l.13-.07c-.08,0-.17-.07,0,.05s.3.16.44.27c1,.78,1,2.1.87,3.24a11,11,0,0,1-.31,1.81,2.18,2.18,0,0,1-.75,1.34l.38,0c-.51-.11-.92-.71-1.22-1.1s-.71-1-1.13-1.45a29.78,29.78,0,0,1-2.84-3.7,28,28,0,0,1-3-5.19,6.33,6.33,0,0,1-.26-.77,2.83,2.83,0,0,1-.11-.57,1,1,0,0,1,0-.44s.06-.14,0,0,0-.07.06-.09-.08.07,0,0,0,0,.05,0l-.39,0a6.08,6.08,0,0,1,2.64,1.86,3.18,3.18,0,0,1,1,2.53c-.1.73-.5,1.83-1.43,1.58a4.12,4.12,0,0,1-2.24-2.14,6.48,6.48,0,0,1-.81-4.47l-.35.35s.14,0,.07,0h.24c.11,0,0,0,.09,0a3.3,3.3,0,0,1,.74.22,7.91,7.91,0,0,1,1.61.93,8.79,8.79,0,0,1,1.48,1.31,3.56,3.56,0,0,1,.8,1.27.71.71,0,0,1,0,.26c0,.14,0,0,0,.07a.75.75,0,0,1,0,.16c0-.11,0,.05-.06.08l0,0-.08.08a1.91,1.91,0,0,1-.3.18h.51c-1.24-.56-1.43-2.09-1.3-3.39A5.86,5.86,0,0,1,46.47,173a1.71,1.71,0,0,1,.7-.38,1.31,1.31,0,0,1,.73.06c0-.26-.07-.52-.1-.78a1.76,1.76,0,0,1-2-.21,3,3,0,0,1-1.26-1.55,9.56,9.56,0,0,1-.25-3.8,3.77,3.77,0,0,1,.25-.92,1,1,0,0,1,.18-.3.51.51,0,0,1,.18-.12l-.56-.23c.65,1,.26,2.5.12,3.63a20,20,0,0,1-.24,3,1.19,1.19,0,0,1-.51.71,3.4,3.4,0,0,1-1.54.37,3.57,3.57,0,0,1-3.28-1.38c-.7-1-1.1-2.56-.06-3.5l-.49.13a3,3,0,0,1,1.19.56,2.9,2.9,0,0,1,.56.49,1.66,1.66,0,0,1,.16.21.53.53,0,0,1,.08.2c0,.26-.36.36-.55.31a3.51,3.51,0,0,1-1.23-.81c-.8-.72-1.44-1.58-2.2-2.34-.37-.37-.84-.63-1.23-1-.2-.18-.83-.82-.26-1a1.61,1.61,0,0,1,.86.18,3.17,3.17,0,0,1,1,.59,1.62,1.62,0,0,1,.6.92,1.08,1.08,0,0,1-.5.94l.79.1a2,2,0,0,1,0-1.08,2.76,2.76,0,0,1,.43-1.18c.56-.73,2.09.38,2.7.65s1.09-.6.5-.86Z"/><path class="cls-1" d="M52.62,163.65c-.17,1.92,1.12,3.32,2.42,4.53a13.79,13.79,0,0,1,1.87,1.95,25.87,25.87,0,0,1,1.88,3.06c.57,1.05,1.09,2.13,1.61,3.2a16.25,16.25,0,0,0,2,2.91,9,9,0,0,1,1,1.41,12.27,12.27,0,0,1,.62,1.66,12.32,12.32,0,0,0,1.52,3,11.81,11.81,0,0,1,1,1.71c.22.51.4,1,.63,1.55a4.67,4.67,0,0,0,2.19,2.44.51.51,0,0,0,.61-.08,2.91,2.91,0,0,0,.4-2,21.92,21.92,0,0,0-.21-2.43A17.9,17.9,0,0,0,68,181.46c-1.75-3.3-3.05-6.87-5.17-10-.27-.38-.56-.74-.81-1.13s-.45-.78-.67-1.17a6.22,6.22,0,0,0-1.63-2.07c-.53-.38-1,.49-.51.87a5.16,5.16,0,0,1,1.28,1.71,18.44,18.44,0,0,0,1.15,1.85,30.7,30.7,0,0,1,2.66,4.58c.78,1.59,1.5,3.21,2.3,4.8a34.19,34.19,0,0,1,2.21,4.66,10.29,10.29,0,0,1,.43,2.7c0,.37.06.74.06,1.1a1.7,1.7,0,0,1-.12.87l.6-.08a3.79,3.79,0,0,1-1.79-2,21.75,21.75,0,0,0-1.34-2.85A14.07,14.07,0,0,1,65,182.49a11.34,11.34,0,0,0-1.38-3.12,30.9,30.9,0,0,1-2-2.71c-.58-1-1-2.06-1.55-3.08a19.77,19.77,0,0,0-3.59-5.38c-1.3-1.27-3.09-2.52-2.9-4.55.06-.65-1-.64-1,0Z"/><path class="cls-1" d="M49.84,166.57c.95-.15,1.69-1,2.65-1l-.25-.94a9.14,9.14,0,0,0-1.9,1.3,6,6,0,0,0-1.47,1.67.52.52,0,0,0,.18.69,3.28,3.28,0,0,0,1.57.38,8.52,8.52,0,0,0,1.82-.09A3.28,3.28,0,0,0,54,168c.44-.33.84-.69,1.42-.47.94.37,1.53,1.52,2,2.35.62,1.12,1.21,2.22,1.92,3.28,1.09,1.61,2.25,3.18,3.18,4.89.3.56,1.17.06.86-.51a48.49,48.49,0,0,0-2.84-4.4,37.62,37.62,0,0,1-2.11-3.49,7.33,7.33,0,0,0-2.14-2.78,2.15,2.15,0,0,0-1.59-.39c-.67.13-1.07.7-1.68.95a4.78,4.78,0,0,1-1.68.24,3.26,3.26,0,0,1-1.72-.26l.18.69a5.25,5.25,0,0,1,1.31-1.47,8,8,0,0,1,1.69-1.14c.47-.22.22-.94-.25-.94-1.11,0-1.86.87-2.91,1-.64.11-.37,1.07.26,1Z"/><path class="cls-1" d="M64.35,178.79a.5.5,0,0,0,0-1,.5.5,0,0,0,0,1Z"/><path class="cls-1" d="M64,178.16c.92.92,1.86,1.82,2.78,2.74.43.43.85.88,1.29,1.31.28.27.65.54.66,1a.51.51,0,0,0,1,0,2,2,0,0,0-.69-1.41l-1.34-1.35c-1-1-2-2-3-3a.5.5,0,0,0-.71.71Z"/><path class="cls-1" d="M28.1,100.67a6,6,0,0,1,1.47.68,2.81,2.81,0,0,0,1.9.42c1.46-.46.24-2.39-.2-3.16-.6-1-1.59-2.35-1-3.64a.52.52,0,0,1,.43-.37,1.38,1.38,0,0,1,.79.31,3.21,3.21,0,0,1,1.2,1.65,17.17,17.17,0,0,0,.81,2.21,3.4,3.4,0,0,0,1.91,1.66.52.52,0,0,0,.62-.35,1.8,1.8,0,0,0-1.29-2.33.5.5,0,0,0-.27,1A.78.78,0,0,1,35,99.81l.62-.35c-1.41-.51-1.6-2-2.07-3.27a4.27,4.27,0,0,0-1.2-1.84,2.33,2.33,0,0,0-2.12-.68c-1.45.48-1.31,2.62-.81,3.72.29.64.67,1.23,1,1.84.17.3.34.61.48.92.05.11.1.21.14.32a1.46,1.46,0,0,1,.05.2s0,.18,0,.09a.15.15,0,0,1,0,.07s0,0,0,0,0,0,0-.06-.05,0,0,0,0,0-.11,0a2.34,2.34,0,0,1-.85-.27c-.35-.16-.69-.35-1-.52a2.66,2.66,0,0,0-.82-.33.51.51,0,0,0-.61.35.5.5,0,0,0,.35.62Z"/><path class="cls-1" d="M34.44,98.59l.3-.3a.39.39,0,0,0,.11-.17.47.47,0,0,0,0-.38.36.36,0,0,0-.11-.16l-.1-.08a.45.45,0,0,0-.25-.07l-.13,0a.38.38,0,0,0-.22.13l-.31.3a.34.34,0,0,0-.1.16.31.31,0,0,0,0,.19.34.34,0,0,0,0,.2.39.39,0,0,0,.1.16l.1.08a.58.58,0,0,0,.26.06h.13a.54.54,0,0,0,.22-.13l.3-.3a.39.39,0,0,0,.11-.17.47.47,0,0,0,0-.38.36.36,0,0,0-.11-.16l-.1-.08a.45.45,0,0,0-.25-.07l-.13,0a.38.38,0,0,0-.22.13l-.31.3a.34.34,0,0,0-.1.16.31.31,0,0,0,0,.19.34.34,0,0,0,0,.2.39.39,0,0,0,.1.16l.1.08a.58.58,0,0,0,.26.06h.13a.54.54,0,0,0,.22-.13Z"/><path class="cls-1" d="M30.67,97.76c2.08-.18,3.94-1.18,6-1.48a.5.5,0,0,0,.35-.62.51.51,0,0,0-.61-.35c-2,.29-3.75,1.28-5.73,1.45-.64,0-.64,1,0,1Z"/><path class="cls-1" d="M28.24,97.26a5.79,5.79,0,0,1,1.07-3.5,1.58,1.58,0,0,1,1.34-.88,8.51,8.51,0,0,0,1,0,4,4,0,0,0,1.12-.31,3.85,3.85,0,0,1,1.71-.28,1.53,1.53,0,0,1,.71.09c-.09-.06.06.12.07.14s.18.31.26.46A4.05,4.05,0,0,0,37,94.41a6.61,6.61,0,0,0,1.78.57c.44.12.87.35.77.88s-.53.69-.8.94A1.92,1.92,0,0,0,38,98.14a.87.87,0,0,0,.38.86c.24.14.5.24.72.4a.74.74,0,0,1,.25.33,3.17,3.17,0,0,1,.2.86,2.26,2.26,0,0,1-.54,2,2.58,2.58,0,0,1-1.9.56c-.86,0-1.71,0-2.57,0h-3A9,9,0,0,1,30,103c-1-.18-2.21-.61-2.21-1.81a.5.5,0,0,0-1,0c0,2.57,3.13,3,5.08,2.94h3c.86,0,1.73.05,2.59,0a3.52,3.52,0,0,0,2.06-.64,3,3,0,0,0,1.09-2,4.31,4.31,0,0,0-.39-2.35,3.23,3.23,0,0,0-1.38-1.06l.23.3c-.14-.53.42-.87.76-1.19a1.9,1.9,0,0,0,.72-1.81A1.79,1.79,0,0,0,39.08,94a4.67,4.67,0,0,1-2-.78,3,3,0,0,1-.71-.84,2.28,2.28,0,0,0-.67-.89,3.66,3.66,0,0,0-2-.2c-.81.08-1.51.58-2.33.58a7.11,7.11,0,0,0-1.22,0,2.08,2.08,0,0,0-1.1.63,6.43,6.43,0,0,0-1.32,2.28,5.59,5.59,0,0,0-.43,2.42c.07.63,1.07.64,1,0Z"/><path class="cls-1" d="M32.13,101.66a5.52,5.52,0,0,0,1.72-.2,4.1,4.1,0,0,0,1.57-.92.5.5,0,0,0-.71-.71l-.15.13-.09.08c-.06,0,.05,0,0,0a2.92,2.92,0,0,1-.32.21l-.16.09-.08,0-.06,0c.06,0,0,0,0,0l-.09,0-.18.06-.33.08-.19,0c-.08,0,.08,0,0,0h-.09a5.3,5.3,0,0,1-.8,0,.5.5,0,0,0,0,1Z"/><path class="cls-1" d="M30.2,101.65a.87.87,0,0,0-.38-.88.71.71,0,0,0-1,.25,2,2,0,0,0,.11,1.75,3.36,3.36,0,0,0,2.92,1.86c.52,0,.73-.9.13-1a3.63,3.63,0,0,1-1.43-.77,2.39,2.39,0,0,0-1.67-.48c-.61.09-.72.8-.64,1.32a1.78,1.78,0,0,0,.6,1,5.45,5.45,0,0,0,3.87.86,3.16,3.16,0,0,0,1.46-.76,6.31,6.31,0,0,1,1.93-1.22,5.46,5.46,0,0,0,2.13-1,.51.51,0,0,0-.22-.84c-2.15-.62-4.31.26-6.47,0-.9-.13-1.39-.83-2.07-1.35-.48-.36-1.42-.9-2-.4s-.08,1.38.19,1.91a9.49,9.49,0,0,0,1.06,1.83,2.2,2.2,0,0,0,1.92.5c.39,0,.78-.07,1.17-.09a8.7,8.7,0,0,1,1.35,0,12.31,12.31,0,0,0,1.92,0,2.66,2.66,0,0,0,1.26-.39c.69-.48.64-1.36.64-2.11a.5.5,0,0,0-1,0,6.62,6.62,0,0,1,0,.89.76.76,0,0,1-.14.38,1.58,1.58,0,0,1-.79.23,8.68,8.68,0,0,1-1.53,0,15.91,15.91,0,0,0-2.29,0,8.71,8.71,0,0,1-1,0,2.17,2.17,0,0,1-.44,0,1.17,1.17,0,0,1-.2-.06h0a5.26,5.26,0,0,1-.84-1.4c-.1-.2-.21-.4-.3-.61s-.1-.36-.18-.49,0-.06,0,0-.27.28-.24.2.46.14.55.19a4.57,4.57,0,0,1,.89.7,3.47,3.47,0,0,0,2,1c2.08.26,4.22-.58,6.27,0-.07-.28-.15-.56-.22-.84-.67.62-1.69.69-2.5,1.08s-1.37,1.23-2.21,1.57a3,3,0,0,1-1.43.1,4.27,4.27,0,0,1-1.6-.46c-.51-.29-.67-.6-.46-1.13l-.35.35a1.68,1.68,0,0,1,1.29.5,3.45,3.45,0,0,0,1.46.72l.13-1a2.16,2.16,0,0,1-1.58-.7c-.35-.35-.78-1-.55-1.47l-.3.23c-.29,0-.23-.35-.26,0-.06.64.95.64,1,0Z"/><path class="cls-1" d="M17.43,37c.9-2,2.11-3.77,3-5.75L19.46,31a14.35,14.35,0,0,0,.36,3.26,19,19,0,0,1,.1,3.46.5.5,0,0,0,1,0,18.49,18.49,0,0,0-.09-3.49A14.09,14.09,0,0,1,20.47,31c0-.47-.74-.72-.94-.25-.85,2-2.07,3.78-3,5.74a.52.52,0,0,0,.18.69.5.5,0,0,0,.68-.18Z"/><path class="cls-1" d="M6.74,65v4.39a.5.5,0,0,0,1,0V65a.5.5,0,0,0-1,0Z"/><path class="cls-1" d="M30.18,95.66c-.13-.69-.3-1.68-1-2.06s-1.57.38-2.05.92a18.93,18.93,0,0,0-1.54,1.69,1.33,1.33,0,0,0-.26,1.07,1.79,1.79,0,0,0,.59.84,10.44,10.44,0,0,0,1.1.78l.53.36c.08.06-.08-.07,0,0l.12.1.17.18a.48.48,0,0,0,.7,0,.51.51,0,0,0,0-.71A7,7,0,0,0,27,97.7a2.48,2.48,0,0,1-.64-.53c-.06-.06.06.1,0,0a.25.25,0,0,1,0-.07l0-.06c.05.09,0,0,0,0s0-.06,0,0V97c0,.07,0,.08,0,0l0-.11c0,.11.06-.08.07-.11l.11-.16.12-.15.18-.2c.24-.26.49-.5.74-.74s.45-.51.7-.75a1.22,1.22,0,0,1,.31-.25c.05,0,.17-.06.07,0l.08,0c.05,0-.12,0,0,0s.09,0,0,0c0,0,.09.06,0,0l.06,0c.07,0,0-.07,0,0s0,0,.05,0,0-.06,0,0l.12.21c0,.08-.05-.12,0,0A.88.88,0,0,1,29,95a2,2,0,0,1,.08.26,6,6,0,0,1,.16.71.5.5,0,0,0,1-.27Z"/><path class="cls-1" d="M41.93,168.34l-.54-.43a.51.51,0,0,0-.84.22,10.61,10.61,0,0,0-.11,5,11.42,11.42,0,0,0,1.73,4.62c.31.44,1.09.2.92-.38s-.52-1.19-.31-1.69l-.78.1a1.34,1.34,0,0,1,.42.65.51.51,0,0,0,1-.13,10.3,10.3,0,0,1,0-2.15l-.35.35c1.08-.29,2.58-.39,3.44.49a4,4,0,0,1,.76,1.74,4.11,4.11,0,0,0,1,1.9.51.51,0,0,0,.84-.22c.3-1.08-.35-1.95-.6-3l-.92.39a8.6,8.6,0,0,0,.67.8.51.51,0,0,0,.84-.22,3.23,3.23,0,0,0-.61-2.62.5.5,0,0,0-.93.25,22.48,22.48,0,0,1,0,4.92l.48-.37a4.35,4.35,0,0,1-2.41-.83,22,22,0,0,1-2.17-1.56,29.44,29.44,0,0,1-5-5.08.5.5,0,0,0-.71,0,3.1,3.1,0,0,0-.92,2.46,6.75,6.75,0,0,0,.94,2.64c.44.79,1,1.53,1.42,2.31a33.45,33.45,0,0,0,1.91,2.93c1.45,2,3.09,3.76,4.63,5.64a20.92,20.92,0,0,1,2,2.94c.58,1,1.1,2.08,1.7,3.09s1.37,2.11,2,3.22a16.62,16.62,0,0,0,2,3.13.5.5,0,0,0,.79-.1c.54-1.14-.08-2.27-.4-3.38-.18-.63-.27-1.31-.39-2s-.26-1.51-.34-2.27-1-.66-1,0a14.42,14.42,0,0,0,.17,2.62,15.49,15.49,0,0,0,.83,2.24c.26.71.48,1.44.77,2.14A5,5,0,0,0,55,200.55a.51.51,0,0,0,.71,0c.92-1.14.26-2.85-.23-4a31.85,31.85,0,0,0-2.54-4.66l-1.1-1.69a.51.51,0,0,0-.93.26c-.09.67.56,1.39.94,1.88a15.22,15.22,0,0,1,1.38,1.84c.59,1,1,2.12,1.55,3.19a8.5,8.5,0,0,0,1.81,2.85c.85.74,1.93,1.12,2.81,1.8.36.28.85-.18.74-.56a20.38,20.38,0,0,0-1.16-3.05c-.28-.58-1.15-.07-.87.5a18,18,0,0,1,1.06,2.81l.74-.56c-.74-.57-1.61-.92-2.37-1.46a6.12,6.12,0,0,1-1.73-2.5c-.49-1-.91-2-1.44-3a11.42,11.42,0,0,0-1.37-2,10.39,10.39,0,0,1-.76-1,3.24,3.24,0,0,1-.28-.47.6.6,0,0,1,0-.16c0-.08,0,0,0-.09l-.93.25c.71,1.1,1.43,2.19,2.09,3.32a16.16,16.16,0,0,1,2,4.38,2.89,2.89,0,0,1,.1.93.86.86,0,0,1-.06.33.64.64,0,0,1,0,.07s0-.07,0,0-.13.18-.06.11h.71a4.32,4.32,0,0,1-.9-1.57c-.25-.66-.46-1.33-.71-2a15.72,15.72,0,0,1-.77-2.05,11.14,11.14,0,0,1-.15-2.45h-1c.15,1.38.41,2.76.69,4.12a12.67,12.67,0,0,0,.46,1.48,2.11,2.11,0,0,1,.12,1.5l.79-.1a13.75,13.75,0,0,1-1.7-2.63c-.51-.92-1-1.81-1.62-2.69-1.26-1.9-2.12-4-3.47-5.9s-3-3.59-4.47-5.42a30.9,30.9,0,0,1-2-2.78c-.52-.8-1-1.63-1.49-2.43-.9-1.4-2.39-3.59-.91-5.1h-.71a30,30,0,0,0,5.15,5.23,20.4,20.4,0,0,0,2.45,1.72,4.88,4.88,0,0,0,2.65.81.52.52,0,0,0,.49-.36,23.09,23.09,0,0,0,0-5.19l-.93.25a2.34,2.34,0,0,1,.5,1.85l.84-.22a7.34,7.34,0,0,1-.51-.6.51.51,0,0,0-.92.39c.19.77.83,1.6.6,2.42l.84-.22a4.29,4.29,0,0,1-.9-2A3.57,3.57,0,0,0,46.93,174a4.79,4.79,0,0,0-4.14-.5.5.5,0,0,0-.35.35,11.41,11.41,0,0,0,0,2.41l1-.13a2.38,2.38,0,0,0-.68-1.1c-.22-.19-.66-.21-.79.1a3.34,3.34,0,0,0,.2,2.46l.92-.38A10.63,10.63,0,0,1,41.42,173a9.59,9.59,0,0,1,.1-4.55l-.84.22.54.43a.52.52,0,0,0,.71,0,.51.51,0,0,0,0-.71Z"/><path class="cls-1" d="M70.38,187.43a9,9,0,0,0-.56,2c0,.66.59,1.16.57,1.82h1a4.71,4.71,0,0,0-.78-2.47.5.5,0,0,0-.93.25,6.33,6.33,0,0,0,0,1,1.84,1.84,0,0,0,.29,1.06,1.81,1.81,0,0,0,.79.34,1.9,1.9,0,0,0,.75,0c.89-.18,1.19-1.11,1.44-1.86a14.8,14.8,0,0,1,1-2.11,7.11,7.11,0,0,0,.55-1.23,1.26,1.26,0,0,0,.08-.47c0-.38-.32-.52-.62-.65-1.22-.54-2.57-.46-3.81-.91a6.74,6.74,0,0,1-2.66-2.2,27.54,27.54,0,0,1-3.59-6.4A14.41,14.41,0,0,0,61.76,172c-.34-.39-.74-.74-1-1.15a4.18,4.18,0,0,1-.58-1.53.48.48,0,0,0-.35-.35l-.52-.11c-.63-.13-.9.83-.27,1l.53.11-.35-.35a4.77,4.77,0,0,0,.69,1.79c.37.51.83.94,1.24,1.41A16.46,16.46,0,0,1,63.43,177a28.62,28.62,0,0,0,2.16,4.1,13.11,13.11,0,0,0,3.07,3.44,5.57,5.57,0,0,0,2.48,1,8.2,8.2,0,0,1,2.71.69c-.09-.14-.17-.29-.25-.43,0,0,0,.11,0,0s0,.1,0,.15-.06.2-.1.3c-.12.28-.27.55-.41.82-.27.5-.57,1-.81,1.5s-.33,1-.59,1.54-.6.45-1.12.22l.24.29a3.8,3.8,0,0,1-.1-1.54l-.93.26a3.81,3.81,0,0,1,.64,2,.5.5,0,0,0,1,0,2.12,2.12,0,0,0-.23-1,2.68,2.68,0,0,1-.33-.73c-.11-.61.4-1.25.52-1.83s-.84-.9-1-.27Z"/><path class="cls-1" d="M56.9,157.92a1.84,1.84,0,0,0-1.74-.75,2,2,0,0,0-1.23,1.17,7.54,7.54,0,0,0-.54,4.4,2.81,2.81,0,0,0,1,1.83.5.5,0,0,0,.68-.18.52.52,0,0,0-.18-.69c.15.11-.17-.21-.07-.08a2.82,2.82,0,0,1-.18-.29.36.36,0,0,0,0-.09s0,.09,0,0l-.06-.17a3.59,3.59,0,0,1-.11-.41,4.14,4.14,0,0,1-.09-.83,7.85,7.85,0,0,1,0-1,6.14,6.14,0,0,1,.12-.86,6.33,6.33,0,0,1,.24-.88c0-.07,0-.13.08-.19,0,.09,0-.08.05-.1a2.27,2.27,0,0,1,.19-.34s.1-.14,0-.05a.69.69,0,0,1,.11-.13l.1-.1c.08-.07-.07,0,0,0l.07,0,.06,0s-.11,0,0,0,.11,0,0,0h.17c-.14,0,0,0,0,0s0,0,0,0l.1,0,.17.11.11.09.22.23c.43.49,1.13-.23.71-.71Z"/><path class="cls-1" d="M5.76,110.92a7.15,7.15,0,0,0,1,2.35c.22.41.42.84.66,1.24s.53.86.76,1.31c.47.89.91,1.79,1.44,2.66s1.07,1.7,1.65,2.52c1.17,1.64,2.11,3.41,3.38,5a13.9,13.9,0,0,1,1.78,2.53,21.61,21.61,0,0,1,1.07,2.74A20.92,20.92,0,0,0,18.56,134a20.29,20.29,0,0,0,1.58,2.33,7.38,7.38,0,0,1,.66,1.11,6.6,6.6,0,0,0,.64,1.34c.24.32.53.59.74.93s.5.92.73,1.38a19.46,19.46,0,0,1,1.24,2.9c.3,1,.45,2,.74,3a9.32,9.32,0,0,0,1.3,2.6,12.05,12.05,0,0,1,.68,1.07,7.66,7.66,0,0,1,.58,1.46,29.18,29.18,0,0,0,1.08,3.06c.48,1,1.14,2,1.69,3a22,22,0,0,1,1.16,2.57,5.25,5.25,0,0,0,1.27,2.16.5.5,0,0,0,.83-.22l.11-.33c.21-.62-.76-.88-1-.27l-.11.33.84-.22a4.45,4.45,0,0,1-1-1.81,22.62,22.62,0,0,0-1-2.21c-.46-.89-1-1.73-1.5-2.6a13.59,13.59,0,0,1-1.14-2.73,14.71,14.71,0,0,0-1-2.67c-.45-.81-1.07-1.52-1.48-2.36a12.42,12.42,0,0,1-.82-2.81,15.35,15.35,0,0,0-1-2.93,24.44,24.44,0,0,0-1.33-2.72,7.37,7.37,0,0,0-.83-1.08,4.86,4.86,0,0,1-.56-1.2,13.24,13.24,0,0,0-1.48-2.25,10.58,10.58,0,0,1-1.34-2.53,24,24,0,0,0-2.26-5.32c-.59-.85-1.29-1.62-1.91-2.44s-1.07-1.69-1.6-2.54-1.26-1.8-1.87-2.72a32.68,32.68,0,0,1-1.72-2.91c-.25-.48-.48-1-.76-1.46s-.57-.93-.83-1.42-.42-.83-.65-1.25a3.92,3.92,0,0,1-.54-1.28.5.5,0,0,0-1,0Z"/><path class="cls-1" d="M5.64,109.59c-.45-.36-.56-1.27-.66-1.83-.16-.81-.31-1.62-.44-2.43a34.49,34.49,0,0,1-.09-6.89A23.76,23.76,0,0,0,4.37,95c-.14-1.18-.4-2.34-.48-3.53s0-2.4-.08-3.6-.36-2.3-.47-3.45-.42-2.58-.47-3.88,0-2.83,0-4.23a.5.5,0,0,0-1,0c0,1.27,0,2.55,0,3.82a26.71,26.71,0,0,0,.4,3.57c.08.59.12,1.18.2,1.76s.2,1.14.28,1.71c.17,1.22.07,2.46.12,3.7a29.64,29.64,0,0,0,.44,3.64A19.61,19.61,0,0,1,3.46,98a43.42,43.42,0,0,0,0,7c.14,1,.34,2,.53,3a3.86,3.86,0,0,0,.92,2.27c.5.41,1.21-.3.71-.71Z"/><path class="cls-1" d="M52.38,100.13c2.28,1.15,4.75,2,6.76,3.64a9.79,9.79,0,0,1,1.4,1.33c.42.48.76,1,1.21,1.48.92.89,2.07,1.48,3,2.37S66.61,111,67.57,112a38.7,38.7,0,0,0,3.27,2.88c.55.47,1.09.94,1.65,1.38s1.18.86,1.78,1.27a5.35,5.35,0,0,1,1.26,1.38,9.72,9.72,0,0,0,1.25,1.47A25.83,25.83,0,0,0,80.59,123c1.08.68,1.27,2.14,2.49,2.64,0-.33.09-.65.13-1l-.31,0a.51.51,0,0,0-.5.5.51.51,0,0,0,.5.5l.31,0a.5.5,0,0,0,.5-.44.53.53,0,0,0-.36-.55c-.46-.18-.7-.79-.94-1.19a4.12,4.12,0,0,0-1.13-1.22c-.51-.36-1.08-.64-1.61-1a18,18,0,0,1-1.73-1.16,7.46,7.46,0,0,1-1.35-1.4,12.15,12.15,0,0,0-1.19-1.49,13.23,13.23,0,0,0-1.66-1.2c-.59-.43-1.15-.91-1.71-1.39-1.08-.92-2.23-1.76-3.23-2.76s-1.89-2.07-2.85-3.08a12,12,0,0,0-1.5-1.36c-.49-.38-1-.71-1.49-1.11a7.85,7.85,0,0,1-1.27-1.37,10.82,10.82,0,0,0-1.34-1.45c-2.16-1.92-4.91-2.93-7.46-4.22-.57-.29-1.08.58-.51.87Z"/><path class="cls-1" d="M8.69,62.11v1a.53.53,0,0,0,.15.36.51.51,0,0,0,.35.15.53.53,0,0,0,.36-.15.52.52,0,0,0,.14-.36v-1a.48.48,0,0,0-.5-.5.5.5,0,0,0-.35.14.53.53,0,0,0-.15.36Z"/><path class="cls-1" d="M21.41,30.38c.18-2.63,1.53-4.81,3-6.94a32.22,32.22,0,0,1,4.84-6,10.71,10.71,0,0,1,3-2.08,5.54,5.54,0,0,1,3.34-.23A4.28,4.28,0,0,1,38.21,17a4.16,4.16,0,0,1,.48,2.83,4.64,4.64,0,0,1-1.24,2.66,1.07,1.07,0,0,1-1.12.29,1.53,1.53,0,0,1-.81-1.23c-.12-1.22.86-2.45,1.53-3.36a28.64,28.64,0,0,1,2.86-3.26,26.65,26.65,0,0,1,4.21-3.59,11.57,11.57,0,0,1,2.34-1.22,3.86,3.86,0,0,1,2.17-.26,2.25,2.25,0,0,1,1.47,1.44,1.48,1.48,0,0,1,.12.69A7.45,7.45,0,0,1,50.16,13a12.75,12.75,0,0,1-.57,2.46,4.71,4.71,0,0,1-1,1.78.73.73,0,0,1-.2.14l-.07,0c.06,0-.1,0-.13,0l.48.63a15.78,15.78,0,0,1,3.89-5.4,16.93,16.93,0,0,1,5.68-3.36,8.87,8.87,0,0,1,3.63-.86c.65.06.64-.94,0-1a8.31,8.31,0,0,0-3.46.74,21.5,21.5,0,0,0-3.2,1.36,17.54,17.54,0,0,0-5.47,4.74,15.42,15.42,0,0,0-2,3.52c-.14.32.2.6.48.63.76.07,1.32-.6,1.67-1.19a9.51,9.51,0,0,0,1-2.65,10.75,10.75,0,0,0,.33-2.65,3.38,3.38,0,0,0-1-2.31c-1.43-1.44-3.62-.78-5.19,0A20,20,0,0,0,40.4,13a38.65,38.65,0,0,0-3.31,3.46,12.12,12.12,0,0,0-2.41,3.82,2.68,2.68,0,0,0,1.39,3.41c1.19.41,2.22-.51,2.79-1.46,1.2-2,1.32-4.91-.45-6.63a6.3,6.3,0,0,0-7.24-.82,20.81,20.81,0,0,0-6.19,6c-.84,1.15-1.65,2.33-2.41,3.54a14.74,14.74,0,0,0-1.8,3.83,10.67,10.67,0,0,0-.36,2.18c-.05.64.95.64,1,0Z"/><path class="cls-1" d="M40,34.76l-.31,0a.51.51,0,0,0-.44.76c.57,1.3.87,2.7,1.45,4s1.23,2.66,1.9,4c1.3,2.53,2.73,5,4.12,7.47.76,1.35,1.54,2.69,2.43,4l.3-.73-.31.08a.5.5,0,0,0,.26,1l.31-.09a.49.49,0,0,0,.3-.73c-1.58-2.28-2.84-4.75-4.19-7.17s-2.84-5.07-4-7.73c-.66-1.47-1-3-1.66-4.51l-.43.75.31,0a.52.52,0,0,0,.5-.5.51.51,0,0,0-.5-.5Z"/><path class="cls-1" d="M37,48.43h-.36a.5.5,0,0,0,0,1,11.33,11.33,0,0,0,3.55-.67,24.19,24.19,0,0,1,3.89-.59,35.64,35.64,0,0,0,3.84-.48c1.27-.25,2.48-.72,3.73-1a8.1,8.1,0,0,1,1.77-.16,3,3,0,0,0,1.75-.47.5.5,0,0,0-.12-.91L54.72,45c-.61-.21-.87.76-.26,1l.35.12-.12-.91a2.34,2.34,0,0,1-1.42.33,8.88,8.88,0,0,0-1.54.12c-1.22.25-2.38.69-3.59,1-2.48.59-5.06.49-7.55,1a15.24,15.24,0,0,1-3.93.79v1H37c.64,0,.64-1,0-1Z"/><path class="cls-1" d="M44.39,36a23.9,23.9,0,0,0-1.92,6.93c-.39,2.5-.79,5-.95,7.54-.1,1.55-.12,3.11-.12,4.67h1v-.33a.5.5,0,0,0-1,0v.33a.5.5,0,0,0,1,0,53.05,53.05,0,0,1,.47-8c.34-2.31.59-4.65,1.12-6.93a17.46,17.46,0,0,1,1.27-3.73c.28-.58-.58-1.09-.87-.51Z"/><path class="cls-1" d="M33.12,40.76a4.46,4.46,0,0,0,2.43,2.38c1.1.59,2.23,1.07,3.3,1.72a41,41,0,0,0,9.81,4.69c1,.27,1.93.46,2.87.75a14.25,14.25,0,0,1,2.15,1.05c.09-.31.17-.62.26-.93l-.33,0a.51.51,0,0,0-.5.5.51.51,0,0,0,.5.5l.33,0c.5.06.67-.71.25-.93-.62-.33-1.21-.69-1.86-1A19.91,19.91,0,0,0,50,48.87a28.78,28.78,0,0,1-4.95-1.74c-1.63-.76-3.2-1.64-4.74-2.55-.64-.39-1.27-.81-1.94-1.17-.49-.26-1-.48-1.5-.72a13,13,0,0,1-1.75-1,2.54,2.54,0,0,1-1.05-1.22c-.19-.62-1.15-.36-1,.26Z"/><path class="cls-1" d="M55.57,31.34a2.28,2.28,0,0,0-1.5.87c-.37.44-.76,1.12-.43,1.68a1.32,1.32,0,0,0,1.71.34A1.47,1.47,0,0,0,56,32.86a2.7,2.7,0,0,0-.61-1.56,1.78,1.78,0,0,0-.6-.49,1.27,1.27,0,0,0-.41-.15,1.35,1.35,0,0,0-.28,0,.63.63,0,0,0-.39.17,1.91,1.91,0,0,0-.79,1.87,1.79,1.79,0,0,0,1.26,1.4A.82.82,0,0,0,55,34a1.42,1.42,0,0,0,.28-.41,1.82,1.82,0,0,0,.12-1.08A1.09,1.09,0,0,0,54,31.56a1.6,1.6,0,0,0-.54.36.5.5,0,0,0-.08.6l.33.55a.51.51,0,0,0,.69.18.51.51,0,0,0,.18-.68L54.21,32c0,.2-.05.4-.08.6l.08-.07c.07-.06-.05,0,0,0l.08-.05c.09-.06,0,0,0,0s.21-.05.08,0h0c.09,0-.12,0,0,0l.07,0s-.15,0-.06,0,0,0,.05,0-.09-.08,0,0l0,0s-.07-.11,0,0a.34.34,0,0,0,.06.12s-.05-.13,0,0a.14.14,0,0,1,0,.06,1.24,1.24,0,0,1,0,.16s0-.15,0,0v.07a.86.86,0,0,0,0,.16s0-.12,0,0a.64.64,0,0,0,0,.07.24.24,0,0,1,0,.08s0,.1,0,0v0l0,.07s0,.05,0,.07.06-.07,0,0l.35-.15s0,0,0,0h-.06l-.1,0-.09,0-.06,0c-.05,0,0,0,0,0s-.13-.07-.17-.1-.08-.09,0,0l-.07-.06a1.66,1.66,0,0,0-.13-.14c.09.08,0,.06,0,0a.35.35,0,0,1-.05-.08l0-.09c0-.08,0,.12,0,0a1.21,1.21,0,0,1,0-.18c0-.12,0,0,0,0a.41.41,0,0,1,0-.11v-.17c0-.08,0,.13,0,0a.31.31,0,0,0,0-.08l0-.09v0c0-.05,0,0,0,0s0-.11.08-.15.06-.08.06-.1l0,0,0,0a1.14,1.14,0,0,1,.16-.15l0,0,0,0a.41.41,0,0,1,.11-.07l-.25.06c.11,0,0,0,0,0h.07a.84.84,0,0,0,.17.05s-.11-.05,0,0l.07,0,.06,0s.11.08,0,0,0,0,0,0l.07.05.11.13,0,0s-.06-.1,0-.06l.05.07s.07.1.1.16l.07.14v0l0,0a1.68,1.68,0,0,1,.09.32s0,.06,0,.08v-.07s0,0,0,.05,0,.11,0,.16a.76.76,0,0,1,0,.15c0,.05,0,.1,0,0a.17.17,0,0,0,0,.07.5.5,0,0,1,0,.13s0,.11,0,0v0l0,0c0,.07,0,0,0,0l-.09.1s.11-.08,0,0l-.05,0c-.08,0,.11,0,0,0l-.07,0H54.7s.12,0,0,0H54.6c.09,0,0,0,0,0l-.09,0c-.07,0,.09.06,0,0l0,0c-.06,0,0,0,.05,0l-.05,0s.07.11,0,0,0,.11,0,0a.14.14,0,0,0,0-.07s0,.14,0,.05a.15.15,0,0,0,0-.07s0,.14,0,0l0-.08a.24.24,0,0,1,0-.08c0-.08,0,.1,0,0a1.29,1.29,0,0,1,.09-.16c0-.06.09-.12.12-.18l0,0,0,0,.07-.08c.1-.11.23-.2.33-.31l-.05,0,.05,0,.09-.06.17-.09,0,0,0,0,.09,0,.08,0c.09,0-.14,0,0,0a.51.51,0,0,0,.5-.5.5.5,0,0,0-.5-.5Z"/><path class="cls-1" d="M62.88,26l0,.3,1-.13a1.79,1.79,0,0,0-.2-.39,1.85,1.85,0,0,0-.37-.37,1.28,1.28,0,0,0-.72-.25,1.12,1.12,0,0,0-.76.3,1.33,1.33,0,0,0-.35.87.54.54,0,0,0,.06.33.78.78,0,0,0,.27.24,1,1,0,0,0,.34.13,1,1,0,0,0,.48,0,1.24,1.24,0,0,0,.43-.25l.08-.1a.55.55,0,0,0,.06-.18.5.5,0,0,0-.06-.32l-.32-.42a.53.53,0,0,0-.3-.23.5.5,0,0,0-.38.05.5.5,0,0,0-.23.3.49.49,0,0,0,0,.39l.31.41c0-.2,0-.4.08-.6h0l.1-.08-.14.09.11-.05-.12,0,.13,0h-.11l.14,0-.16,0,.12,0L62.24,26l.24.43a.53.53,0,0,0,0-.13v.14a1,1,0,0,1,.06-.25l0,.12a.6.6,0,0,1,.09-.15l-.08.1.09-.1-.1.08.12-.07-.12.05.15,0-.13,0h.16l-.13,0a.7.7,0,0,1,.19.06l-.12-.05a.88.88,0,0,1,.21.12l-.1-.08a1.37,1.37,0,0,1,.17.17l-.08-.1a1.1,1.1,0,0,1,.15.26l-.05-.12v0a.57.57,0,0,0,.23.3.59.59,0,0,0,.32.06.51.51,0,0,0,.44-.5l0-.3a.5.5,0,0,0-.86-.35.46.46,0,0,0-.14.35Z"/><path class="cls-1" d="M1.41.61A19.38,19.38,0,0,0,4.37,6a41.79,41.79,0,0,1,3.38,5.14,12.6,12.6,0,0,0,.95,1.63,7.28,7.28,0,0,1,1,1.41c.26.59,1.13.08.87-.5a5.34,5.34,0,0,0-.84-1.21,8.28,8.28,0,0,1-.88-1.38c-.5-.93-1-1.85-1.57-2.73C6.19,6.67,4.91,5.15,3.86,3.46A14.35,14.35,0,0,1,2.37.35c-.2-.61-1.16-.35-1,.26Z"/><path class="cls-1" d="M.62,8.41A73.88,73.88,0,0,1,8.29,7c.61-.1,1.41-.16,2.09-.28a3.6,3.6,0,0,0,2-.76.51.51,0,0,0-.22-.84L11.85,5c-.61-.23-.87.74-.27,1l.32.12c-.07-.27-.14-.55-.22-.83a3.73,3.73,0,0,1-1.78.54c-.7.11-1.41.16-2.1.28A75.08,75.08,0,0,0,.35,7.44a.5.5,0,0,0,.27,1Z"/><path class="cls-1" d="M1.86,13.91a26.49,26.49,0,0,1,3-6.49c.59-1,1.22-1.93,1.82-2.89A6.76,6.76,0,0,0,7.83,1.67l-.36.48.39-.09c.63-.15.36-1.12-.27-1l-.39.1a.5.5,0,0,0-.37.48,6.74,6.74,0,0,1-1.25,2.7c-.61,1-1.22,1.89-1.8,2.86A26.46,26.46,0,0,0,.9,13.65a.5.5,0,0,0,1,.26Z"/><path class="cls-1" d="M61.51,201.85A35.33,35.33,0,0,1,58,208a.5.5,0,0,0,.18.68.5.5,0,0,0,.68-.18,35.62,35.62,0,0,0,3.54-6.13.52.52,0,0,0-.18-.69.5.5,0,0,0-.68.18Z"/><path class="cls-1" d="M58,201.05c-1.63.29-2,2.15-2.71,3.37-.87,1.54-2.45,2.92-1.88,4.86a.51.51,0,0,0,.84.23,9.86,9.86,0,0,0,2-2.68,4.08,4.08,0,0,1,.93-1.18,10.84,10.84,0,0,0,1.13-1c1.33-1.51,1.41-3.75,2.89-5.14.47-.45-.24-1.16-.71-.71a6.93,6.93,0,0,0-1.56,2.52,8.76,8.76,0,0,1-1.33,2.62c-.67.77-1.56,1.24-2.08,2.15a9.83,9.83,0,0,1-2,2.73l.84.22c-.46-1.57,1.08-2.86,1.78-4.09.53-1,.85-2.69,2.11-2.91.63-.11.37-1.08-.27-1Z"/><path class="cls-1" d="M62.55,205.15c0-.18-.08-.36-.11-.55a.13.13,0,0,0,0-.06c0,.14,0,.07,0,0s0-.1,0-.16,0-.21,0-.31,0-.2,0-.29c0,.12,0,.07,0,0a.2.2,0,0,1,0-.07.74.74,0,0,1,0-.14.19.19,0,0,1,0-.07c0-.05,0-.05,0,0l.06-.13,0,0c.05-.08-.06.06,0,0l.11-.11a.5.5,0,0,0,0-.71.51.51,0,0,0-.71,0,1.94,1.94,0,0,0-.55,1.43,5,5,0,0,0,.18,1.38.5.5,0,0,0,.61.35.5.5,0,0,0,.35-.62Z"/><path class="cls-1" d="M55.56,210.62a7.3,7.3,0,0,0-1.28.85A2.35,2.35,0,0,0,53.21,213a1,1,0,0,0,.56,1,.49.49,0,0,0,.68-.18.5.5,0,0,0-.18-.68l-.07,0c.12.06.07,0,0,0l0-.05c.11.08.07.09,0,.05l0,0s0,0,0,0,0,.11,0,.08,0,0,0-.06,0,.14,0,.09V213c0,.1,0,.12,0,.05a.14.14,0,0,1,0-.07c0-.1-.06.1,0,0l0-.09.09-.14s.09-.07,0,0l.05-.07a4.53,4.53,0,0,1,.6-.56h0l.07-.05.18-.13a2.92,2.92,0,0,1,.32-.21,5.39,5.39,0,0,1,.52-.3.51.51,0,0,0,.18-.69.53.53,0,0,0-.69-.18Z"/><path class="cls-1" d="M62.08,205.49a17.28,17.28,0,0,1-1.17-2c-.18-.32-.33-.54-.72-.55h-.47a.47.47,0,0,0-.43.25c-.88,2-1.75,4.08-2.51,6.17-.22.61.75.87,1,.27.72-2,1.56-4,2.4-5.94l-.43.25h.57l-.43-.25a23.23,23.23,0,0,0,1.51,2.49.5.5,0,0,0,.71,0,.51.51,0,0,0,0-.7Z"/><path class="cls-1" d="M56.24,206.25A5.57,5.57,0,0,1,55.6,209a7.34,7.34,0,0,1-1.13,1.81c-.78.87-2.08,2-1.52,3.31a.51.51,0,0,0,.69.18.53.53,0,0,0,.18-.69c-.15-.34.34-.93.56-1.19.37-.45.81-.87,1.17-1.33a8.92,8.92,0,0,0,1.17-2.17,5.92,5.92,0,0,0,.52-2.65c-.05-.64-1.05-.65-1,0Z"/><path class="cls-1" d="M79.83,187c-3.76-2.06-7.38-4.38-11.07-6.56-.86-.51-1.73-1-2.62-1.51a2.38,2.38,0,0,0-2.22-.25,2.19,2.19,0,0,0-1.1,2.19,4.8,4.8,0,0,0,1,2.23,5.78,5.78,0,0,0,.83,1.07c.2.19.46.25.67.42a2.49,2.49,0,0,1,.47.59,18.22,18.22,0,0,0,2,2.42c.29.27.91.1.86-.35a2,2,0,0,0-.34-1.15.57.57,0,0,0-.87.06,1.11,1.11,0,0,0,.45,1.52c.37.19.89-.13.74-.57a3,3,0,0,1-.12-.89,3.44,3.44,0,0,0-.35-1.17c-.33-.85-.67-1.69-1-2.54-.68-1.67-1.38-3.34-2.07-5s-1.39-3.33-2.06-5c-.32-.8-.63-1.6-1-2.4a16.21,16.21,0,0,1-.61-2.3,6.66,6.66,0,0,1-.53-2.14,5.37,5.37,0,0,1,.73-2.11c.18-.33.38-.66.58-1,.06-.1.23-.25.09-.25a.92.92,0,0,1,.15.11,4.33,4.33,0,0,1,.43.53c.2.26.44.49.62.77.39.58.64,1.25,1,1.86s.87,1.35,1.3,2c.83,1.33,1.61,2.7,2.32,4.11a43.56,43.56,0,0,1,2,4.77c.56,1.58.85,3.37,2,4.68.36.43,1.12-.14.78-.61-.23-.32-.56-1-1-1a.52.52,0,0,0-.51.5c0,.38.51.89.75,1.11a.5.5,0,0,0,.78-.61,90.71,90.71,0,0,1-6.41-14.43.51.51,0,0,0-.49-.37h-.57A.48.48,0,0,0,65,166a8.88,8.88,0,0,0-.64,4.91,28.42,28.42,0,0,0,1.29,4.87c.19.61,1.16.35,1-.27-.92-2.89-2.06-6.05-.75-9l-.43.25H66l-.48-.37A92.55,92.55,0,0,0,72.06,181l.78-.61a3.74,3.74,0,0,1-.34-.38l-.1-.14c-.12-.15,0-.14,0,.12l-.5.5c-.57,0-.38-.23-.29-.08a.52.52,0,0,0,.1.11l.35.48.78-.61a5.44,5.44,0,0,1-1-1.91c-.24-.82-.51-1.64-.8-2.44a43.59,43.59,0,0,0-1.88-4.47c-.74-1.5-1.56-3-2.44-4.38-.43-.7-.92-1.38-1.34-2.09s-.64-1.38-1.07-2c-.19-.28-.42-.51-.63-.77s-.32-.45-.51-.65a1,1,0,0,0-1.56-.13,5.52,5.52,0,0,0-.63,1,11,11,0,0,0-.56,1.08,5,5,0,0,0-.54,2.37,14.15,14.15,0,0,0,.65,2.35,12.93,12.93,0,0,0,.66,2.28c.75,1.76,1.42,3.55,2.15,5.32.81,1.95,1.63,3.9,2.43,5.85.41,1,.82,2,1.21,3a5.87,5.87,0,0,1,.5,1.32,6.16,6.16,0,0,0,.15,1.2l.74-.57c-.06,0-.1-.06-.08,0s-.07-.14,0-.17.15,0-.09.2l-.66-.06s0,0,0,0a3.1,3.1,0,0,0,.09.5l.86-.36A14,14,0,0,1,66.88,185a11.66,11.66,0,0,0-.79-1.06c-.28-.29-.71-.37-1-.69A8.26,8.26,0,0,1,64,181.37c-.24-.62-.29-1.5.4-1.85s1.27.23,1.75.5c.87.5,1.73,1,2.6,1.52,1.63,1,3.26,2,4.89,3,1.88,1.14,3.77,2.26,5.7,3.31.57.31,1.08-.55.51-.86Z"/><path class="cls-1" d="M78.16,184.86a7.42,7.42,0,0,1-1.12-.23,2.53,2.53,0,0,0-.81.12l-.88.18c-1.13.21-2.27.41-3.39.65q-.88.18-1.77.42l-.81.24c-.29.09-.58.15-.69.46a5.69,5.69,0,0,0-.21,1.3,7.28,7.28,0,0,0,0,1.32A5.8,5.8,0,0,0,71,193.65a1.86,1.86,0,0,0,1.16.18,1.82,1.82,0,0,0,1.08-.63,11.83,11.83,0,0,1,2.32-1.66,21.08,21.08,0,0,1,2.93-1.27,5.29,5.29,0,0,0,1.55-.64,8.65,8.65,0,0,0,.82-.89c.45-.46-.26-1.17-.71-.71s-.51.75-.94.94-1.17.39-1.74.61a17.57,17.57,0,0,0-3.23,1.58,12.57,12.57,0,0,0-1.48,1.13c-.36.31-.62.7-1.15.53a2.87,2.87,0,0,1-1.09-1,4.71,4.71,0,0,1-.75-1.35,6.1,6.1,0,0,1-.14-3.54l-.35.35a34.91,34.91,0,0,1,4.75-1.13c.77-.15,1.54-.29,2.3-.45.18,0,.38-.11.55-.12a1.58,1.58,0,0,1,.36.09,2.73,2.73,0,0,0,.89.15c.64,0,.65-1,0-1Z"/><path class="cls-1" d="M67.65,183.62a9.54,9.54,0,0,0,1.22,4.52c.32.7.66,1.39,1,2.1a17.35,17.35,0,0,0,1,2.17,5.5,5.5,0,0,0,1.54,1.78,1.93,1.93,0,0,0,1.66.11,15.59,15.59,0,0,0,3.19-1.89,14,14,0,0,0,4.17-3.22.51.51,0,0,0-.18-.69.51.51,0,0,0-.68.18,11.46,11.46,0,0,1-3.35,2.59c-1,.58-1.86,1.3-2.86,1.82a1.84,1.84,0,0,1-1.28.31,1.6,1.6,0,0,1-.6-.5,5.45,5.45,0,0,1-.68-.9A35,35,0,0,1,70,188.14a9.59,9.59,0,0,1-1.32-4.52c0-.65-1-.64-1,0Z"/><path class="cls-1" d="M81.08,188.65a15,15,0,0,0-4.61,2.92c-.67.59-1.33,1.21-2,1.8l-1,.89c-.19.15-.41.27-.45.53a3.42,3.42,0,0,0,0,.64.5.5,0,0,0,.5.5A8,8,0,0,0,77,194.51c1.07-.71,2.06-1.54,3.17-2.2l-.68-.68a1.14,1.14,0,0,1-.18.25s-.15.12-.16.11h0q.27-.08.3.33.33.19.18.39l0-.06a4.26,4.26,0,0,0,.49-.34l-.68-.68a5.69,5.69,0,0,0-.51,4.79l0-.38a5.24,5.24,0,0,0-1.16,4.23.5.5,0,0,0,1,0,5.82,5.82,0,0,0-.18-2.31,7.15,7.15,0,0,1-.37-2.24l-1,.13a26.65,26.65,0,0,1,.15,5.65,3.49,3.49,0,0,0,.56,2.35,2.6,2.6,0,0,0,1.57.87,8.72,8.72,0,0,0,1.91.1,4,4,0,0,0,.85,0,1.85,1.85,0,0,0,1-.58c1.16-1.28.84-3.31.48-4.86-.45-1.89-1.25-3.72-1.33-5.69a.5.5,0,0,0-1,0,9.3,9.3,0,0,0,0,1.75.53.53,0,0,0,.49.37h0a.49.49,0,0,0,.48-.37,7.31,7.31,0,0,0,0-1.75.5.5,0,0,0-1,0c-.11,2.65.94,5.25.59,7.9a4.33,4.33,0,0,1-1.78,3.07c-.19.13-.34.22-.54.11a1.4,1.4,0,0,1-.44-.55,4.79,4.79,0,0,1-.54-1.77,30.81,30.81,0,0,1-.28-6.29h-1a5.46,5.46,0,0,1,0,.57s0,.16,0,.12c.38-.06.5-.14.36-.21l-.16-.12c-.31-.25-.88-.12-.86.35.07,1.46.11,2.91.06,4.36,0,.73-.07,1.45-.15,2.17s-.23,1.5-.31,2.25c0,.23,0,.62.24.75.08,0,.07,0,0,0s0,.17.07.25a1.25,1.25,0,0,0,.4.36,1.81,1.81,0,0,0,1.89,0,20.91,20.91,0,0,0,2.78-1.54A6.79,6.79,0,0,0,84,203a8.65,8.65,0,0,0,.69-3.8,19,19,0,0,0-.32-4.32,4.41,4.41,0,0,0-.63-1.93,2.07,2.07,0,0,0-1.26-.91c-.51-.06-1.16.59-1.38,1a2.63,2.63,0,0,0-.16,1.08,9.77,9.77,0,0,1-.16,1.21c-.16.8-.38,1.59-.54,2.39a2.45,2.45,0,0,0-.11,1.07,1.86,1.86,0,0,0,.12.42.84.84,0,0,0,0,.17c0,.08,0,.26,0,.05a.51.51,0,0,0,.74.56c.46-.19,1.19-.47,1.35-1a.69.69,0,0,0-.7-.85,1.25,1.25,0,0,0-1.39,1.55.51.51,0,0,0,.74.3,2,2,0,0,0,1.26-2.18A2.69,2.69,0,0,0,80.93,196a1.64,1.64,0,0,0-2.17.57c-.73,1.1-.62,2.57-.62,3.83a14.7,14.7,0,0,0,.09,1.88,2.49,2.49,0,0,0,.62,1.52.5.5,0,0,0,.78-.1A9.25,9.25,0,0,0,80.4,199c0-.37-.56-.73-.85-.35a4.54,4.54,0,0,0-.9,2.73,10.06,10.06,0,0,1-.22,2.79.51.51,0,0,0,.48.63c2.15.28,4.52-1.31,4.23-3.65a.51.51,0,0,0-.5-.5,1.71,1.71,0,0,0-1.52.62c-.27.39.18.81.57.73s1.07-.56.58-1a.75.75,0,0,0-1.15.31.51.51,0,0,0,.57.73c1-.22,1.34-1.83,1.56-2.69.18-.69.38-1.36.5-2.06.16-.92.25-1.84.34-2.76h-1c.14,2.05-.88,4.06-1.72,5.87-.73,1.59-1.38,3.62-3,4.52l.69.18c-.24-.54.2-1.17.51-1.57s.83-.92,1.23-1.39l-.83-.49c-.15.56-.79.92-1.18,1.31a6,6,0,0,0-.88,1.29c-.48.85-1.11,2.21-.3,3.06a2.63,2.63,0,0,0,3,.26,4.84,4.84,0,0,0,1.86-2.28,18.64,18.64,0,0,0,1-3.09.5.5,0,0,0-1-.26c-.4,1.51-.81,3.36-2,4.47a1.76,1.76,0,0,1-2,.29c-.62-.39.16-1.65.41-2.08a4.63,4.63,0,0,1,.94-1.21,3.16,3.16,0,0,0,1.14-1.49c.12-.46-.5-.89-.84-.49-1,1.13-2.65,2.5-1.9,4.17a.51.51,0,0,0,.69.18c1.81-1,2.55-3.1,3.37-4.87.9-2,2-4.15,1.85-6.38a.5.5,0,0,0-1,0,26.93,26.93,0,0,1-.76,4.38c-.12.44-.22.87-.37,1.3a3.29,3.29,0,0,1-.29.63.86.86,0,0,1-.14.18c-.06.06,0,0-.11.06l.57.73q.08-.12,0,0c-.21.09-.29,0-.24-.37-.12-.49,0-.42-.3-.36l.57.73c.11-.15.49-.12.65-.12l-.5-.5c.23,1.84-1.59,2.86-3.23,2.65l.49.63a8.45,8.45,0,0,0,.24-2.61,3.92,3.92,0,0,1,.62-2.46L79.4,199a8.38,8.38,0,0,1-.63,4.23l.78-.11a1.67,1.67,0,0,1-.33-.91,11,11,0,0,1-.08-1.29,12.29,12.29,0,0,1,.15-3,1.83,1.83,0,0,1,.5-1,.51.51,0,0,1,.46-.09,1.71,1.71,0,0,1,1.08,1,1,1,0,0,1,0,.74,1.36,1.36,0,0,1-.75.62l.74.3s0-.22,0-.11c0-.12,0,.07,0,0s0,0,0,0a.34.34,0,0,1,.09-.08c-.11.07,0,0,.06,0h0l.16,0c-.14,0,0,0,0,0s0,0,0,0l0,0-.06,0c-.08-.11-.21-.21-.16-.42s0-.09,0-.08-.17.13-.27.19a6.9,6.9,0,0,1-.67.32l.74.56c.07-.48-.26-.9-.17-1.37.14-.73.33-1.44.49-2.16a12.49,12.49,0,0,0,.31-2.11c0-.27,0-.48.16-.69a6.8,6.8,0,0,1,.57-.5l-.36.15a.67.67,0,0,1,.45.3l.22.27a.22.22,0,0,1,.07.09c-.08-.15,0,.2,0,.2a14.58,14.58,0,0,1,.43,2A19.69,19.69,0,0,1,83.7,200a8,8,0,0,1-.23,1.82,4.54,4.54,0,0,1-.64,1.33A7.1,7.1,0,0,1,80.64,205c-.49.28-1,.54-1.49.8s-1.07.66-1.6.17l.15.36a1,1,0,0,0-.15-.47.57.57,0,0,0-.12-.15c-.05-.06-.06-.07,0,0s0,.06,0,0a2.26,2.26,0,0,0,.11-.69l.09-.61c.11-.86.19-1.72.24-2.59a48.08,48.08,0,0,0,0-4.95l-.85.36c.36.29.9.64,1.31.2s.21-.86.18-1.27a.51.51,0,0,0-1,0,30.82,30.82,0,0,0,.29,6.29,5.54,5.54,0,0,0,.19,1.14,8.74,8.74,0,0,0,.41,1,2,2,0,0,0,1.43,1.23,2.57,2.57,0,0,0,1.89-1.06,5,5,0,0,0,1.1-1.83,9.48,9.48,0,0,0,.2-4.27,30.79,30.79,0,0,1-.51-5h-1c0,.33,0,.67,0,1,0,.14,0,.27,0,.4s0,.34,0,.08l.48-.36h0l.48.36c0,.23,0,.09,0,0v-.29c0-.4,0-.81,0-1.21h-1a19.11,19.11,0,0,0,1,4.66,18.69,18.69,0,0,1,.53,2.21,5.41,5.41,0,0,1,0,2.23,1.84,1.84,0,0,1-.54.88.86.86,0,0,1-.64.18,15.69,15.69,0,0,1-1.68,0,2.08,2.08,0,0,1-1.28-.51c-.49-.49-.4-1.28-.4-1.92a26.07,26.07,0,0,0-.19-5.79c-.13-.57-1-.41-1,.14a6.55,6.55,0,0,0,.31,2.15,5.72,5.72,0,0,1,.28,2.13h1a3.6,3.6,0,0,1,.17-1.95,4.51,4.51,0,0,1,.46-.87c.17-.28.54-.61.5-1s-.21-.66-.26-1a4.42,4.42,0,0,1,0-1.09,5.14,5.14,0,0,1,.66-2,.5.5,0,0,0-.68-.68,2.56,2.56,0,0,0-.87.69.54.54,0,0,0,.29.82c.51.15,1.06-.43,1.26-.83a.5.5,0,0,0-.68-.68c-2,1.18-3.79,3.18-6.22,3.48.17.17.34.33.5.5v-.57l-.14.35c2.45-1.92,4.51-4.49,7.51-5.59.6-.23.34-1.19-.26-1Z"/><path class="cls-1" d="M78.61,185.19c-1.23-.55-2.33-1.36-3.54-1.95a.51.51,0,0,0-.74.57,1,1,0,0,0,.42.66.58.58,0,0,0,.76-.22.76.76,0,0,0-.7-1.08.51.51,0,0,0-.43.76,7.67,7.67,0,0,0,1,1.54,5.89,5.89,0,0,0,.71.48c.27.19.52.38.77.58a10.38,10.38,0,0,1,2.42,2.66,5,5,0,0,1,.82,3.2,4.45,4.45,0,0,1-1.5,2.63,9.55,9.55,0,0,1-1.45,1.1c-.58.36-1.07.64-1.64.1l.15.36a1.55,1.55,0,0,0-.43-.93c0,.2,0,.4.08.61a6,6,0,0,1,2.13-1.38c.65-.37,1.29-.77,1.93-1.16a5.88,5.88,0,0,0,2.93-3.57.5.5,0,0,0-1-.27,4.12,4.12,0,0,1-1.11,2,8.39,8.39,0,0,1-1.74,1.22c-.66.38-1.29.82-2,1.16a5.19,5.19,0,0,0-2.07,1.51.5.5,0,0,0,.08.61c.16.17.14.39.29.57a1.89,1.89,0,0,0,1,.59,2.61,2.61,0,0,0,1.9-.59,8.1,8.1,0,0,0,2.77-2.69c1.46-2.59.07-5.47-1.82-7.4a14.87,14.87,0,0,0-1.86-1.59,3.71,3.71,0,0,1-.89-.67c-.27-.37-.48-.78-.72-1.16l-.44.76-.14-.07c-.18-.24-.08-.34.3-.31.43-.13.4,0,.33-.26l-.74.57c1.22.58,2.31,1.4,3.55,1.95.58.26,1.09-.61.5-.87Z"/><path class="cls-1" d="M77.43,188.34c-1.1.29-2,.94-3.09,1.32-.43.15-.81.19-1,.68a2.36,2.36,0,0,0-.11.79.5.5,0,0,0,.5.5,16.26,16.26,0,0,0,3.47-.39c.55-.13,1.1-.28,1.64-.45s1.07-.44,1.61-.61c-.1,0,.15,0,.18,0a.83.83,0,0,0,.34-.2.81.81,0,0,0,.25-.62c0-.52-.61-.85-1-1.06a6.39,6.39,0,0,0-2.76-.61c-1.09,0-2.17.09-3.26.08.05.33.09.66.14,1a1.58,1.58,0,0,1,.31-.08.65.65,0,0,0,.14,0c.09,0-.06,0,0,0l-.3-.23h0v-.51c.29-.17.36-.23.22-.2,0,0,0,0,0,0s-.28,0-.43,0c.05.33.09.66.14,1a30.73,30.73,0,0,1,3.58-.6c-.08-.31-.17-.62-.25-.93l-.4.19-.08,0a1,1,0,0,1,.28.06l.23.3a.39.39,0,0,1-.15.47l0,0,.1-.06a.59.59,0,0,1,.23,0c0-.33-.09-.66-.13-1a13.74,13.74,0,0,0-4,2.26q-.45.36-.87.75c-.27.26-.53.46-.48.87a5.78,5.78,0,0,0,.65,1.78.5.5,0,0,0,.91-.39,3.65,3.65,0,0,0-.83-1.71.5.5,0,0,0-.84.22c-.48,1.93,1.09,3.34,1.85,4.92.26.53,1.06.15.92-.38A15,15,0,0,0,72,190c-.29-.37-.56-.84-1.08-.88a1.09,1.09,0,0,0-1,.49c-.24.4,0,1,0,1.41a9.47,9.47,0,0,0,.47,1.39A17.66,17.66,0,0,0,71.9,195l.89,1.32a4.11,4.11,0,0,0,.94,1.21,2.55,2.55,0,0,0,2.55.13,14.27,14.27,0,0,0,1.33-.75L79,196A34.32,34.32,0,0,0,81.82,194a4.11,4.11,0,0,0,1.71-2.64c.11-.63-.86-.9-1-.27a2.87,2.87,0,0,1-1,1.88c-.68.56-1.38,1.08-2.11,1.58s-1.47,1-2.24,1.44a4.52,4.52,0,0,1-2.07.93c-.89,0-1.22-.79-1.64-1.43s-1-1.41-1.38-2.14a10.51,10.51,0,0,1-1-2.21c0-.19-.1-.38-.14-.57a2.59,2.59,0,0,1-.11-.49c0,.08.11,0,0,0,.17.07.36.43.47.57a14,14,0,0,1,2.81,5.09l.92-.38c-.61-1.27-2.14-2.62-1.75-4.15l-.84.22a2.67,2.67,0,0,1,.57,1.27l.92-.39a4.11,4.11,0,0,1-.52-1.44l-.15.35a13,13,0,0,1,4.81-3.1.5.5,0,0,0-.13-1c-.4,0-1.06.19-1.18.63a.52.52,0,0,0,.52.66,2.18,2.18,0,0,0,.91-.36.5.5,0,0,0-.25-.93,33.21,33.21,0,0,0-3.85.63.5.5,0,0,0,.13,1c.39,0,.88,0,1.13-.32a.52.52,0,0,0,0-.51c-.29-.39-.86-.27-1.26-.15a.5.5,0,0,0,.13,1c1.88,0,4.15-.51,5.83.58,0,0,.2.18.24.17.15-.24.13-.33-.07-.26l-.23.09c-.27.12-.55.23-.83.33a17.4,17.4,0,0,1-1.74.52,15,15,0,0,1-3.65.47c.16.17.33.34.5.5a3,3,0,0,0,.06-.49c0-.06-.24.1-.09.1a.84.84,0,0,0,.27-.08,6,6,0,0,0,.66-.26,16.75,16.75,0,0,1,2.54-1.09.5.5,0,0,0-.27-1Z"/><path class="cls-1" d="M59.84,197.57a8.09,8.09,0,0,0,.28.83.26.26,0,0,0,.09.17.29.29,0,0,0,.14.13.5.5,0,0,0,.73-.56q-.15-.42-.27-.84a.5.5,0,0,0-.62-.35.5.5,0,0,0-.3.23.53.53,0,0,0,0,.39Z"/><path class="cls-1" d="M60.62,195.84a6.85,6.85,0,0,0-.77-2.73.5.5,0,0,0-.56-.23.51.51,0,0,0-.37.48,2,2,0,0,0,.19.86.56.56,0,0,0,.88.15.74.74,0,0,0,.15-.7,1.47,1.47,0,0,0-.36-.66.51.51,0,0,0-.84.49c.25.89.4,1.81.58,2.72a.5.5,0,0,0,1-.26c-.18-.92-.33-1.83-.58-2.73l-.84.49c.09.1,0-.06,0,0l.05.07a.15.15,0,0,0,0,.09s0-.13,0,0,0,.06,0,.08,0-.13,0-.06,0-.1,0,0a1.46,1.46,0,0,1,.11-.18.49.49,0,0,1,.65,0s.09.12,0,.07,0,.11,0,0,0-.12,0-.19,0-.14,0,0c0-.06,0-.13,0-.19l-.93.26c0,.1.11.19.16.3l.06.13c0-.09,0,0,0,.06a5.76,5.76,0,0,1,.18.59,4.13,4.13,0,0,1,.13.61c0,.09,0,.19.05.28s0,.15,0,.06a1.11,1.11,0,0,0,0,.19.51.51,0,0,0,.5.5c.25,0,.54-.22.5-.5Z"/><path class="cls-1" d="M59.82,197.72a1.58,1.58,0,0,0,.1.49,2.77,2.77,0,0,0,.22.46.5.5,0,0,0,.62.21.49.49,0,0,0,.29-.6,8.91,8.91,0,0,1-.24-1.05.5.5,0,0,0-.62-.35.5.5,0,0,0-.3.23l0,.12a.62.62,0,0,0,0,.27,7.63,7.63,0,0,0,.25,1.05l.91-.39a2.29,2.29,0,0,1-.14-.27l0,.12a1.61,1.61,0,0,1-.1-.36l0,.13v-.06a.53.53,0,0,0-.15-.35.51.51,0,0,0-.35-.15.53.53,0,0,0-.36.15.46.46,0,0,0-.14.35Z"/><path class="cls-1" d="M62.44,202.67c-4.33-1.32-5-6.58-6.38-10.21a12.82,12.82,0,0,0-1.67-3.17.5.5,0,0,0-.86,0c-.33.45.22,1.28.49,1.64a.61.61,0,0,0,.49.31.52.52,0,0,0,.5-.59,4.64,4.64,0,0,0-.62-1.36.5.5,0,0,0-.86,0c-.59.77.68,2,1.2,1.16A1.1,1.1,0,0,0,54,189c-1,0-1,1.62-1.09,2.26-.09,1.08-.08,2.16-.07,3.24,0,1.7,0,3.38.14,5.07a24.38,24.38,0,0,0,1.48,6.86c.19.49,1,.47,1-.13a7.4,7.4,0,0,0-.24-2.2.51.51,0,0,0-1,0,4.13,4.13,0,0,0,.22,2.33c.18.5,1,.46,1-.13-.3-4.47-2.1-8.53-3.54-12.7-.2-.58-.39-1.15-.57-1.73,0-.16-.1-.32-.14-.49a1.89,1.89,0,0,0-.06-.18c0-.11,0-.15-.07,0,0-.09.15-.16.21-.25a1.17,1.17,0,0,0,.1-.41l-.75.43a57.18,57.18,0,0,1,9.62,7.78.51.51,0,0,0,.84-.49,1.18,1.18,0,0,0-.69-.66.51.51,0,0,0-.62.35c-.06.39.2.58.47.8a.51.51,0,0,0,.84-.49,2.7,2.7,0,0,0-.08-.39c-.19-.61-1.16-.35-1,.27a2.74,2.74,0,0,1,.09.39l.83-.49-.23-.2s-.14-.15,0,0l.06.39h0l-.62.35c-.11,0-.05,0-.06,0h0c.12.11.12.22,0,0l.83-.49a57.78,57.78,0,0,0-9.83-7.93c-.35-.24-.71.08-.75.43,0-.13,0-.08-.07,0a.87.87,0,0,0-.18.31,1.29,1.29,0,0,0,.08.75q.24.81.51,1.62c.35,1.05.73,2.08,1.11,3.11a57.49,57.49,0,0,1,2,6.24,21.55,21.55,0,0,1,.58,3.74l1-.14a3.15,3.15,0,0,1-.22-1.79h-1a6.25,6.25,0,0,1,.2,1.93l1-.14a27.15,27.15,0,0,1-1.59-9.79,47.17,47.17,0,0,1,.1-5.45c0-.19.05-.37.09-.58a2.17,2.17,0,0,1,.07-.24l0-.11s0,.07,0,0,0,0,0-.05S54,190,54,190s-.39,0-.34-.09.11.18.12.19,0,0,0,0q.91-.21.54-.42c0,.17,0,.2,0,.07h-.86c.14.27.28.54.41.82,0,0,.1.2.05.12.16.25-.34,0,.17-.35l.48-.13s.28.15.19.11.05.07,0,0,0-.07-.07-.11-.13-.21-.19-.33-.05-.1-.08-.16a1,1,0,0,1,0-.1s0,.06,0,0a.5.5,0,0,0,0-.13c0-.07,0,0,0,0a.51.51,0,0,1,0,.17h-.86c2.67,3.55,2.48,8.57,5.52,11.9a6.9,6.9,0,0,0,3.12,1.95c.62.19.88-.78.27-1Z"/><path class="cls-1" d="M57.12,210.22a2.22,2.22,0,0,0,.11-1.08.8.8,0,0,0-.79-.63,3.15,3.15,0,0,0-1.26.33,8.56,8.56,0,0,0-1.38.71,4.65,4.65,0,0,0-1.74,1.78,1.61,1.61,0,0,0,.53,2.18,2.76,2.76,0,0,0,2.17-.25.52.52,0,0,0,.35-.61.51.51,0,0,0-.62-.35c-.22.09-.45.17-.67.24a2.25,2.25,0,0,1-.35.09c-.12,0,0,0-.07,0h-.2c-.12,0,0,0-.07,0s-.14,0-.05,0-.14-.1-.07,0l-.06-.06c-.06-.07,0,0,0,0a.67.67,0,0,1,0-.59,2.11,2.11,0,0,1,.44-.7l.33-.32.16-.14.08-.07.05,0a6.67,6.67,0,0,1,2-1l.3-.09.12,0h0a.24.24,0,0,1-.11-.09c-.06-.06,0,.07,0-.07,0,0,0,0,0,.06s0-.1,0,0v.08s0,.13,0,.06,0,0,0,.05l0,.13-.06.27a.5.5,0,0,0,1,.26Z"/><path class="cls-1" d="M59.88,206.4a5.89,5.89,0,0,0-2.47,1.68,11.32,11.32,0,0,0-1.78,2.4c-.31.56.55,1.07.86.5a10.14,10.14,0,0,1,1.59-2.15,8.29,8.29,0,0,1,1-.9,5.35,5.35,0,0,1,.56-.36,2.21,2.21,0,0,1,.5-.21c.62-.19.36-1.15-.26-1Z"/><path class="cls-1" d="M63.32,206a6.13,6.13,0,0,1-4,2.89,11,11,0,0,1-4.9-.12c-.63-.15-.9.82-.27,1a11.75,11.75,0,0,0,5.53.1,7.1,7.1,0,0,0,4.45-3.32.5.5,0,0,0-.86-.51Z"/><path class="cls-1" d="M63.21,204.53a4,4,0,0,0-1.73.34,11.23,11.23,0,0,0-1.6.77A5.91,5.91,0,0,0,57.23,208a.5.5,0,0,0,.43.75c1.11,0,2-1,2.74-1.69.39-.33.85-.69,1.27-1.05a4.61,4.61,0,0,1,1.49-.95c.62-.2.36-1.16-.26-1a10.29,10.29,0,0,0-2.92,2c-.41.31-.77.67-1.17,1a2.33,2.33,0,0,1-1.15.64l.44.75a5,5,0,0,1,2.28-2,5.36,5.36,0,0,1,2.83-1,.5.5,0,0,0,.5-.5.51.51,0,0,0-.5-.5Z"/><path class="cls-1" d="M63.12,205.7a44.7,44.7,0,0,1-4.38,4.84c-1.09,1.14-2.11,2.77-3.75,3.15l.64.48c0-.61.69-1.2,1.09-1.57a9.07,9.07,0,0,1,.72-.67c.34-.28.75-.49,1.11-.75a14.22,14.22,0,0,0,3.89-4.32.51.51,0,0,0-.07-.61c-.14-.15-.12-.31-.21-.47a1.53,1.53,0,0,0-.69-.51,1.58,1.58,0,0,0-1.71.27,15.28,15.28,0,0,0-2.38,2.57c-1.4,1.82-2.51,3.86-4,5.59a.5.5,0,0,0,.35.85.46.46,0,0,1,.22.14.52.52,0,0,0,.61.08c2.74-2,6.42-3.08,8.4-6a6.75,6.75,0,0,0,1-2.82.5.5,0,1,0-1-.27,6.36,6.36,0,0,1-2.35,4.1,26.69,26.69,0,0,1-4.23,2.63A23.32,23.32,0,0,0,54,213.91l.61.07a1.52,1.52,0,0,0-.93-.43l.36.86a49.35,49.35,0,0,0,3.35-4.65,23.31,23.31,0,0,1,1.73-2.23c.34-.37.69-.73,1.06-1.06.18-.15.33-.34.58-.34a.88.88,0,0,1,.59.25l-.15-.35a1.56,1.56,0,0,0,.44.93c0-.2,0-.41-.08-.61a13.05,13.05,0,0,1-4.12,4.37,6.37,6.37,0,0,0-.94.7c-.29.26-.58.52-.85.8a2.83,2.83,0,0,0-1,1.95.5.5,0,0,0,.63.48c1.81-.41,2.92-2.06,4.12-3.33.76-.8,1.58-1.55,2.33-2.36A27.16,27.16,0,0,0,64,206.21c.38-.53-.49-1-.86-.51Z"/><path class="cls-1" d="M52.58,211.9c-.58.57-1.21,1.63-.68,2.43a1.5,1.5,0,0,0,1.6.55c.29-.08.54-.25.83-.31a2.54,2.54,0,0,0,.85-.26,4.34,4.34,0,0,0,.72-.63c.19-.19.42-.34.61-.54a4.21,4.21,0,0,0,.69-1.39v0l0-.07.1-.25c0-.12.1-.25.14-.37a1.32,1.32,0,0,0,0-.92,1.2,1.2,0,0,0-1.15-.63c-.92,0-2.24.73-2.25,1.77a.5.5,0,0,0,1,0c0-.05,0-.1,0,0l0-.1c0,.11,0,0,0,0a.59.59,0,0,1,0-.08c.06-.11-.07.06,0,0l.07-.08.07-.07.07-.06a2.36,2.36,0,0,1,.4-.24s.12-.05,0,0l.13,0,.25-.07c.14,0-.09,0,0,0h.2c.11,0-.09,0,0,0l.11,0s-.1,0,0,0,.1.08,0,0,.11.1,0,.06v0c0,.06,0,.06,0,0v0c0-.06,0-.05,0,0s0-.1,0,.07a.36.36,0,0,1,0,.1,4.6,4.6,0,0,1-.24.63,4.22,4.22,0,0,1-.41,1c-.09.13.06-.06,0,0l-.11.11a1.8,1.8,0,0,1-.2.19c-.2.16-.4.34-.59.52a.94.94,0,0,1-.41.29c-.23.07-.47.07-.69.16a4.34,4.34,0,0,1-.65.25.6.6,0,0,1-.36-.09c-.1-.05,0,.06,0,0l-.06-.06c0,.06.05.06,0,0s0-.08,0,0a.74.74,0,0,1,0-.14c0,.17,0-.19,0,0a1.69,1.69,0,0,1,0-.24s.06-.15,0,0a1.11,1.11,0,0,1,.07-.16c0-.08.09-.15.14-.23l.07-.1,0,0,.2-.21c.45-.46-.26-1.17-.71-.71Z"/><path class="cls-1" d="M63,204.13c-1.63-.21-2.72,1.07-3.19,2.49a6.15,6.15,0,0,0-.24,1c0,.17,0,.35-.06.53s0,.15,0,.22,0,.13,0,.12.05-.08,0,0c-.21.24-.63.17-.91.17l-1.12,0a9.59,9.59,0,0,0-4.34,1.06,4.72,4.72,0,0,0-1.54,1.44,4.87,4.87,0,0,0-.49,1c-.12.37-.32.91-.09,1.27,1,1.66,3.41.76,5,1.22a.5.5,0,0,0,.27-1,9.34,9.34,0,0,0-2.53-.19c-.66,0-1.5,0-1.9-.64l.06.39a3.6,3.6,0,0,1,1.49-2.52,6.81,6.81,0,0,1,2.9-1c.52-.07,1.06-.1,1.59-.13a7.28,7.28,0,0,0,1.62-.07,1.78,1.78,0,0,0,.74-.43,1.06,1.06,0,0,0,.27-.81,5.16,5.16,0,0,1,.27-1.46c.33-1.05,1-2,2.23-1.8.27,0,.5-.25.5-.5a.5.5,0,0,0-.5-.5Z"/><path class="cls-1" d="M55.38,213.5a2.34,2.34,0,0,1-2.86.41l.23.29a2.67,2.67,0,0,1,.65-2,2.72,2.72,0,0,1,1.87-1.06,1.14,1.14,0,0,1,1,.85,1.54,1.54,0,0,1-.43,1.48c-.43.44.11,1,.6.79s1-.85.53-1.33-1.11.3-1.26.76a.5.5,0,0,0,.73.57c3.28-1.8,6.5-4.18,7.78-7.84.22-.61-.75-.87-1-.27-1.19,3.4-4.3,5.58-7.32,7.24l.73.57c0-.09.11-.2.14-.29-.07.25-.6-.14-.67-.34s0-.06,0-.05a2.12,2.12,0,0,0-.21.11c.2.27.4.53.61.79a2.56,2.56,0,0,0,.65-2.6A2.15,2.15,0,0,0,55,210.13a4.06,4.06,0,0,0-2.74,1.93,3.55,3.55,0,0,0-.51,1.57,2.16,2.16,0,0,0,0,.84c.11.33.51.44.81.55a3.2,3.2,0,0,0,3.49-.81c.42-.48-.28-1.2-.71-.71Z"/><path class="cls-1" d="M59.24,195.63a2.25,2.25,0,0,0,.38,1.3,5.84,5.84,0,0,1,.44,1.36c.23,1,.56,2.05.88,3.07.16.5.29,1,.43,1.53s.3.83.4,1.26a3.61,3.61,0,0,0,.8,2,.5.5,0,0,0,.85-.35,14.3,14.3,0,0,0-.62-3c-.27-1.12-.66-2.21-.89-3.34s-.38-2.11-.71-3.15c-.21-.69-.32-1.6-1-2a.51.51,0,0,0-.75.43,3.08,3.08,0,0,0,.22,1.2c.15.44.27.9.42,1.34.37,1.1.8,2.17,1.22,3.25s.9,2.15,1.36,3.22q.3.67.63,1.35a2.21,2.21,0,0,0,.77,1c.41.27.8-.17.74-.56a5.29,5.29,0,0,0-.63-1.6c-.29-.55-.51-1.12-.76-1.68a37.31,37.31,0,0,0-1.73-3.32c-.66-1.11-1.29-2.25-2-3.36a8.54,8.54,0,0,0-2.14-2.73c-.54-.37-1,.5-.51.86a3.56,3.56,0,0,1,1,1.12c.33.49.66,1,1,1.49.65,1.07,1.26,2.16,1.9,3.24a34.77,34.77,0,0,1,1.66,3.21c.24.52.45,1.06.71,1.57a4.85,4.85,0,0,1,.58,1.46l.74-.56c-.28-.18-.4-.61-.54-.89-.21-.44-.41-.89-.61-1.34-.43-1-.86-2-1.25-3s-.78-2-1.12-3c-.14-.41-.24-.82-.38-1.22a2.59,2.59,0,0,1-.23-1.06l-.75.44c.21.13.28.56.34.79s.21.71.32,1.06c.27,1,.4,2,.63,3s.57,2,.82,3a13.86,13.86,0,0,1,.6,2.83l.85-.36c-.44-.39-.43-1.22-.59-1.76s-.29-.87-.41-1.32-.25-.94-.4-1.41a27.56,27.56,0,0,1-.82-2.82,7.33,7.33,0,0,0-.38-1.29c-.15-.38-.48-.79-.43-1.22a.5.5,0,0,0-.5-.5.51.51,0,0,0-.5.5Z"/><path class="cls-1" d="M83.75,192.63c0,.08.09.16.13.24s.09.17,0,0a.78.78,0,0,1,0,.14,2.83,2.83,0,0,1,.16.62c0-.13,0,0,0,.07a.86.86,0,0,1,0,.16,2.44,2.44,0,0,1,0,.27v.07c0,.06,0,.05,0,0a.35.35,0,0,1,0,.14.65.65,0,0,1,0,.13l0,.08c0-.06,0-.06,0,0a.83.83,0,0,0-.07.13l0,.06c0-.06,0-.07,0,0l-.09.09c-.06.06.1-.07,0,0l0,0,0,0-.08,0,0,0h0a.41.41,0,0,0-.11,0,.48.48,0,0,0-.12,0h0l-.25-.07-.13-.05h0a1.23,1.23,0,0,1-.26-.12.5.5,0,0,0-.5.86,2.09,2.09,0,0,0,2.07.2,2.24,2.24,0,0,0,.68-2.3,3.27,3.27,0,0,0-.46-1.24.5.5,0,1,0-.86.51Z"/><path class="cls-1" d="M75.93,182.47a12.94,12.94,0,0,1,.81,1.46c.31.54.66,1,1,1.56.69,1,1.39,2,2.15,2.89s1.37,1.84,2.16,2.68a14.42,14.42,0,0,1,1.13,1.33,10.55,10.55,0,0,0,1,1.39c.45.47,1.16-.24.71-.71a12.73,12.73,0,0,1-1-1.39c-.33-.43-.68-.84-1-1.24a12.09,12.09,0,0,1-1.08-1.29c-.33-.48-.7-.93-1.07-1.38-.77-.93-1.47-1.91-2.16-2.9a17.09,17.09,0,0,1-.94-1.45,14,14,0,0,0-.82-1.46.51.51,0,0,0-.68-.18.51.51,0,0,0-.18.69Z"/></g></g></svg>