<svg id="Layer_1" data-name="Layer 1" xmlns="http://www.w3.org/2000/svg" xmlns:xlink="http://www.w3.org/1999/xlink" viewBox="0 0 249.71 156.89"><defs><style>.cls-1,.cls-3{fill:none;}.cls-2{clip-path:url(#clip-path);}.cls-3{stroke:#000;}</style><clipPath id="clip-path" transform="translate(-6.7 -1.99)"><rect class="cls-1" x="63.8" y="-9.67" width="130" height="240" transform="translate(-40.72 115.26) rotate(-42.25)"/></clipPath></defs><g class="cls-2"><path class="cls-3" d="M148.3,82.06l-1-3.51A89,89,0,0,0,110.41,3a2.09,2.09,0,0,0-1.17-.47,2.14,2.14,0,0,0-1.23.32,2,2,0,0,0-.81,1c-.08.57.31.76.42,1.17m40.68,77.1a40.84,40.84,0,0,1,1.17,5.57Zm105,74.36.2-.77.61.52a1.74,1.74,0,0,0,1.23.57c.19,0,.38-.17.5-.51a3.07,3.07,0,0,0-.83-2.9h0a284.26,284.26,0,0,0-43.36-38.26l0,0,0,0a82.52,82.52,0,0,0-27.28-16.77c-3.05-1.07-6.17-2-9.33-3h-.05a136.48,136.48,0,0,0-25.51-7.15l-.36-.06L149,87.7a39.5,39.5,0,0,0-1.15-5.5h0l-1-3.52,0-.07v-.08A88.45,88.45,0,0,0,110.12,3.37h0a1.52,1.52,0,0,0-1.81-.12,1.57,1.57,0,0,0-.61.74,1.55,1.55,0,0,0-.06.95,175.85,175.85,0,0,1,3.65,19.57c.21,1.42.41,2.85.62,4.3.83,5.84,1.69,11.89,2.8,17.86,2.77,14.93,7.07,29.29,16.18,38.77l.85.88-1.22,0a113.14,113.14,0,0,0-14.26.46h-.06q-9.36-.21-18.65.06h-.24l-.15-.18A88.86,88.86,0,0,0,56.47,60.2,90,90,0,0,0,7.79,59h0a.64.64,0,0,0-.53.41,1.74,1.74,0,0,0,0,1,5.48,5.48,0,0,0,1.07,2.11C20.58,75.69,33.69,89.62,50.7,96.52c14.06,5.67,27.28,3.31,40.89.11l.13,0,.13,0a3,3,0,0,0,1.58,0,2.94,2.94,0,0,0,1.4-.77l.1-.09.13,0c5.53-1.4,11.23-2.72,17-3.65a3.23,3.23,0,0,1,.53-.08h0q4.8.06,9.64.32l1.76.09-1.55.85C101.19,104.94,89.21,130.6,83,154h0a2.1,2.1,0,0,0,.06,1.12,4.69,4.69,0,0,0,.66,1.35,2.76,2.76,0,0,0,2.18,1.38h0c8.91-.64,19.11-3.81,28.27-8.75s17.27-11.63,22-19.29a56.35,56.35,0,0,0,4.94-10.3v0l0,0c.78-1.54,1.52-3.12,2.2-4.71l0,0,0,0A26,26,0,0,0,147,98.1l0-.15.07-.13.24-.51c.35-.7.69-1.38,1-2l.16-.36.38.06a204.62,204.62,0,0,1,31.86,7.72c14.53,4.68,24.92,13.85,35.69,24h0l32.68,31h0a2.6,2.6,0,0,0,1.15.6,2.57,2.57,0,0,0,1.32,0,2.64,2.64,0,0,0,1.13-.69A2.53,2.53,0,0,0,253.26,156.42ZM65.36,68.83h0l0,0c-.65-.42-1.19-.76-1.85-1.12l.93.28h0a74.18,74.18,0,0,1,15.54,8.43h0a48.3,48.3,0,0,0-5.13-2.46l0,0,0,0A73.29,73.29,0,0,0,65.36,68.83Z" transform="translate(-6.7 -1.99)"/></g></svg>