<svg xmlns="http://www.w3.org/2000/svg" viewBox="0 0 118.88 63.76"><g id="Layer_2" data-name="Layer 2"><g id="Object"><path d="M118,62a1.52,1.52,0,0,0-1.13-2.35L94.62,58c-7.32-.55-14.09-1.3-20.59-5A100.91,100.91,0,0,1,60.62,44c.18-.4.35-.84.53-1.29a13,13,0,0,0,5-6.91q.54-1.17,1-2.37a27.64,27.64,0,0,0,2.15-5.24c2.47-8.62-1-20.77-6.52-27.73C62.18-.3,60.43,0,60,.7c-6.53,10-12,22.89-9.13,34.57q-1.7-1.67-3.32-3.39a1.27,1.27,0,0,1-.13-.19c-1.59-2.41-3-4.91-4.33-7.38a1.73,1.73,0,0,0-.85-1.54c-3.36-6-6.93-11.64-13.77-14.91C20.22,3.93,10.69,3.77,1.77,3.69,1.16,3.69-.39,4.15.09,5A44.57,44.57,0,0,0,40.2,28.45q3,3.47,6.2,6.8A55.49,55.49,0,0,0,51,40.6c-13.18-.37-27,12.85-37.38,18.13a1,1,0,0,0,.33,1.88,44.37,44.37,0,0,0,40-11.53l1.62-.8A19.84,19.84,0,0,0,58,46.87,68.05,68.05,0,0,0,69.16,53.8q2.09,1.28,4.21,2.42a41.46,41.46,0,0,0,15.33,4.4,142.1,142.1,0,0,0,28.52,3.13C118.68,63.78,119.68,62.21,118,62ZM21.91,22.44c.36.12.72.22,1.09.32a37.47,37.47,0,0,0,5,1.74,25.07,25.07,0,0,0,2.64,1.06A41.64,41.64,0,0,1,21.91,22.44Z"/></g></g></svg>