<svg xmlns="http://www.w3.org/2000/svg" viewBox="0 0 85.19 220.88"><g id="Layer_2" data-name="Layer 2"><g id="Object"><path d="M62.4,220.31C82,191.68,90.94,153.45,81.27,119.55c-4.59-16.09-14.19-28-29.94-34.07-8.24-3.18-17.06-4.88-24.91-9A36.94,36.94,0,0,1,9.26,57.1C1.92,38.09,12.13,17.51,30.67,10c3.5-1.42,2.12-7.1-1.6-5.8a43.08,43.08,0,0,0-28,33.86C-1.22,53.92,6.25,70.37,19.43,79.33,34.23,89.39,54.62,87.94,67,102s14.5,35.64,13.81,53.44A122.6,122.6,0,0,1,60.21,219c-.92,1.36,1.27,2.62,2.19,1.28Z"/><path d="M3.7,4.37c12,.61,24,.86,36,1L37.14,2q-5,14.57-9.84,29.16h5.3C28,17.08,15.89,8.47,4.07.71q-.7,2.58-1.4,5.16a104.33,104.33,0,0,1,26.85,5.44c.25-1.82.5-3.65.74-5.47A53.18,53.18,0,0,1,12.64,4C9.16,3,7.78,8.23,11.16,9.36l17.36,5.82c3.13,1,4.65-3.41,2.15-5.09A13.79,13.79,0,0,0,19.84,8c-3.1.57-2.36,5.55.74,5.46l12.11-.35L30,9.61a83.71,83.71,0,0,1-4.12,12.83l5.35,1.47a56.08,56.08,0,0,0,2.15-17H27.85q.2,3.32-3.12,3.1a2.79,2.79,0,0,0-2.67,3.5,6.37,6.37,0,0,0,4.73,4.78,2.79,2.79,0,0,0,3.4-1.93l.63-3.58a2.79,2.79,0,0,0-4.62-2.69l-.37.32a2.8,2.8,0,0,0-.44,3.35l.3.54a2.85,2.85,0,0,0,3.12,1.27c3.93-.84,7.52-7.13,10-10C41,2.89,37.32-.92,34.93,1.69c-1.37,1.49-5.86,8.13-7.59,8.5l3.13,1.27-.3-.53c-.14,1.12-.29,2.23-.43,3.35l.37-.32-4.62-2.69-.63,3.57,3.4-1.93L27.4,12l-2.67,3.5a8.07,8.07,0,0,0,8.66-8.63c-.19-3.54-5.63-3.59-5.54,0a51.21,51.21,0,0,1-2,15.57c-1,3.53,4,4.68,5.35,1.47a82.17,82.17,0,0,0,4.12-12.82,2.81,2.81,0,0,0-2.67-3.52l-12.11.35q.36,2.73.74,5.46a8.44,8.44,0,0,1,6.54,1.52c.71-1.7,1.43-3.39,2.14-5.09L12.64,4,11.16,9.36a57.55,57.55,0,0,0,19.1,2.05A2.8,2.8,0,0,0,31,5.94,110,110,0,0,0,2.67.33C-.24.14-.87,4.09,1.27,5.49,11.8,12.38,23.21,20,27.3,32.58a2.77,2.77,0,0,0,5.3,0Q37.48,18,42.28,3.37A2.68,2.68,0,0,0,39.71,0c-12,0-24,.2-36,.74a1.82,1.82,0,0,0,0,3.63Z"/></g></g></svg>