<svg width="152" height="139" viewBox="0 0 152 139" fill="none" xmlns="http://www.w3.org/2000/svg">
<g clip-path="url(#clip0_401_416)">
<path d="M124.792 12.2774C101.627 14.242 77.9987 25.8077 64.5059 45.1953C58.1019 54.3974 55.9907 64.4276 59.5169 75.1737C61.3595 80.7976 64.2159 86.0952 65.4054 91.9152C66.5729 97.7706 65.5845 103.851 62.6223 109.035C55.8687 120.902 40.8613 124.327 29.1054 117.889C26.8849 116.675 24.5223 119.799 26.7738 121.178C31.2135 123.846 36.2895 125.271 41.4693 125.302C46.6491 125.333 51.7418 123.97 56.2134 121.356C65.4144 115.821 70.7844 104.972 69.8473 94.3345C68.7943 82.3901 59.3989 72.4237 61.4474 60.0396C63.496 47.6554 73.7959 37.408 83.3253 30.221C95.4576 21.0461 109.899 15.4199 125.04 13.9691C126.136 13.8701 125.862 12.1995 124.776 12.2901L124.792 12.2774Z" fill="#505050"/>
<path d="M37.6157 134.271C32.8457 127.786 27.8889 121.452 22.875 115.166L22.2113 117.923C28.6648 115.535 35.0991 113.117 41.5143 110.669L39.2678 107.918C33.9111 116.274 34.5762 126.208 35.5596 135.631C36.65 135.144 37.7404 134.657 38.8307 134.17C35.2766 129.157 32.3991 123.696 30.2725 117.931C29.2221 118.572 28.1665 119.218 27.1203 119.865C29.8312 122.786 32.033 126.14 33.6342 129.789C34.5904 132.019 37.8894 130.518 37.0431 128.285L32.7047 116.809C31.8969 114.761 28.9641 115.842 29.152 117.851C29.2572 119.118 29.6229 120.35 30.2262 121.47C30.8295 122.589 31.6574 123.572 32.658 124.357C34.2678 125.724 36.5384 123.229 35.1777 121.659L29.8629 115.523L29.1869 118.402C31.8951 117.078 34.7056 115.974 37.5911 115.102L36.0862 111.702C32.549 113.222 29.2663 115.276 26.3531 117.793L28.6971 120.662C29.7892 119.655 30.7662 119.757 31.6283 120.967C31.8105 121.186 32.0401 121.36 32.2997 121.476C32.5593 121.593 32.842 121.648 33.1263 121.639C33.4106 121.629 33.689 121.555 33.9402 121.422C34.1915 121.288 34.4091 121.1 34.5763 120.869C35.0656 120.241 35.3695 119.489 35.4535 118.697C35.5376 117.905 35.3984 117.106 35.0519 116.389C34.8499 115.942 34.4808 115.593 34.024 115.416C33.5671 115.239 33.0591 115.249 32.6091 115.442L30.4843 116.633C30.1217 116.807 29.8251 117.094 29.6384 117.45C29.4518 117.807 29.3851 118.214 29.4482 118.611C29.5114 119.009 29.7011 119.375 29.989 119.656C30.277 119.937 30.6479 120.117 31.0467 120.171L31.3696 120.227C31.7765 120.265 32.1846 120.169 32.5321 119.954C32.8795 119.739 33.1472 119.417 33.2945 119.035L33.4476 118.651C33.5806 118.267 33.588 117.852 33.4687 117.464C33.3494 117.076 33.1096 116.736 32.7841 116.493C30.6824 114.81 25.8966 115.613 23.356 115.543C21.037 115.542 20.6197 119.067 22.9872 119.201C24.3411 119.28 29.6901 118.796 30.6154 119.537L29.9477 117.374L29.7998 117.754C30.4404 117.352 31.0799 116.96 31.7205 116.558L31.3976 116.501L31.96 120.039L34.0796 118.853L31.6369 117.906L31.5292 118.738L34.4772 118.64C34.0324 118.003 33.4552 117.468 32.7851 117.074C32.115 116.68 31.3677 116.434 30.5942 116.355C29.8207 116.276 29.0392 116.364 28.303 116.614C27.5667 116.864 26.8931 117.27 26.3281 117.804C24.5716 119.404 26.8515 122.248 28.6764 120.679C31.3487 118.378 34.3599 116.502 37.6039 115.117C39.8596 114.14 38.3369 111.058 36.0989 111.718C33.2138 112.585 30.4047 113.688 27.6999 115.014C27.4407 115.133 27.2118 115.309 27.0305 115.529C26.8492 115.749 26.7203 116.007 26.6534 116.284C26.5865 116.561 26.5833 116.85 26.6442 117.128C26.7052 117.407 26.8285 117.668 27.005 117.892L32.3198 124.028C33.1625 123.132 34.0024 122.232 34.8395 121.329C34.2502 120.828 33.7701 120.211 33.4289 119.516C33.0878 118.821 32.8928 118.064 32.8561 117.291C31.6729 117.643 30.4908 117.986 29.3076 118.338L33.6342 129.789L37.0431 128.285C35.3195 124.323 32.9423 120.678 30.0107 117.504C29.7189 117.171 29.3186 116.952 28.8809 116.886C28.4432 116.82 27.9961 116.911 27.6187 117.142C27.2414 117.374 26.9581 117.731 26.819 118.152C26.6799 118.572 26.6939 119.028 26.8585 119.439C29.1272 125.507 32.186 131.25 35.9558 136.518C37.0907 138.109 39.4076 136.761 39.227 135.057C38.3389 126.673 37.4567 117.522 42.2512 110.067C42.4727 109.736 42.5822 109.343 42.5634 108.946C42.5446 108.548 42.3986 108.168 42.1468 107.859C41.8951 107.551 41.551 107.332 41.1653 107.234C40.7796 107.137 40.3727 107.165 40.0046 107.316C33.5816 109.748 27.1612 112.201 20.7435 114.675C20.4937 114.788 20.2731 114.956 20.0985 115.168C19.924 115.379 19.8001 115.627 19.7365 115.894C19.6728 116.161 19.671 116.438 19.7313 116.706C19.7915 116.973 19.9122 117.223 20.0841 117.437C25.1706 123.664 30.361 129.806 35.7278 135.805C35.9396 136.028 36.228 136.163 36.5352 136.182C36.8424 136.202 37.1456 136.105 37.384 135.91C37.6223 135.715 37.7783 135.438 37.8205 135.133C37.8627 134.828 37.788 134.518 37.6115 134.266L37.6157 134.271Z" fill="#505050"/>
</g>
<defs>
<clipPath id="clip0_401_416">
<rect width="57.0813" height="148" fill="white" transform="translate(36.9165 138.044) rotate(-129.243)"/>
</clipPath>
</defs>
</svg>
