<svg width="106" height="112" viewBox="0 0 106 112" fill="none" xmlns="http://www.w3.org/2000/svg">
<g clip-path="url(#clip0_401_421)">
<path d="M3.51917 33.1461C10.8749 49.9946 20.9074 67.4036 39.5138 73.4051C48.0542 76.1482 57.1713 76.33 66.0627 75.9205C76.5479 75.4361 87.0324 74.3737 97.4973 73.5391C99.3121 73.3665 100.924 75.1596 99.8118 76.9197C97.0158 81.4184 92.7941 84.8542 87.8198 86.6796C85.7093 87.4682 83.144 84.6884 85.327 83.0668C88.9623 80.3682 92.6248 77.6933 96.2419 74.9589C98.6573 73.129 97.1125 71.512 95.5445 69.5688C93.9766 67.6257 92.4281 65.8979 90.8045 64.1558C88.9093 62.1163 92.1235 59.1665 94.0188 61.2209C96.4157 63.7622 98.6729 66.4316 100.78 69.2174C102.02 70.8996 103.036 72.808 102.178 74.9195C101.216 77.2713 98.5108 78.6932 96.6203 80.1359L88.312 86.3465C87.4771 85.1392 86.6432 83.934 85.8102 82.7307C90.0563 81.2075 93.6723 78.31 96.0831 74.4991C96.8515 75.61 97.6291 76.7538 98.4036 77.8766C87.54 78.6964 76.6958 79.7315 65.8268 80.186C56.0661 80.5571 46.0275 80.131 36.7934 76.7045C18.4573 69.8895 7.05392 51.7964 1.77324 33.7792C1.47891 32.7575 3.12035 32.185 3.5462 33.1548L3.51917 33.1461Z" fill="#505050"/>
</g>
<defs>
<clipPath id="clip0_401_421">
<rect width="73.8484" height="87.0357" fill="white" transform="matrix(0.891236 -0.453541 -0.453541 -0.891236 39.5874 111.412)"/>
</clipPath>
</defs>
</svg>
