<svg width="107" height="77" viewBox="0 0 107 77" fill="none" xmlns="http://www.w3.org/2000/svg">
<g clip-path="url(#clip0_401_411)">
<path d="M60.3091 55.6437C64.4176 59.9297 69.7656 63.6561 74.5408 67.4755C76.6235 69.1366 78.7141 70.7866 80.7965 72.4536C82.2835 73.6301 83.9621 75.4453 86.3122 75.5306C90.5353 75.6767 92.8282 70.1576 94.4744 67.9302C97.7283 63.5472 100.914 59.1354 104.031 54.6949C105.644 52.3843 101.152 50.0409 99.5383 52.369C97.2144 55.7166 94.8595 59.0373 92.4736 62.3313C91.3364 63.9112 90.192 65.485 89.0405 67.0525C88.3015 68.057 86.6543 71.3266 85.2132 71.7362L87.1917 71.6336C84.7172 71.0587 81.9929 68.0604 80.1351 66.6786C78.1572 65.211 76.1689 63.7507 74.1703 62.2976C70.2947 59.4501 66.5225 56.3342 62.2139 53.9128C60.7621 53.07 59.329 54.6387 60.3085 55.6554L60.3091 55.6437Z" fill="#505050"/>
<path d="M86.2515 74.52C88.4527 71.0866 87.8079 66.4479 87.6056 62.6586C87.3604 58.0775 86.7076 53.507 85.6517 48.9802C83.6613 40.2773 80.1646 31.7964 75.2584 23.7721C71.1491 17.1628 65.4165 10.5812 57.3733 6.50149C49.2487 2.40602 39.5635 1.78839 30.6864 4.36798C19.2443 7.70142 10.857 15.3194 3.83033 22.7857C1.75264 24.9735 6.24422 27.1771 8.36667 25.1371C16.2146 17.6896 24.2293 9.31889 37.2175 7.32222C48.9863 5.49027 58.8652 11.2359 65.3972 18.5572C72.469 26.4302 76.5577 35.9265 79.5421 45.0926C81.099 49.9223 82.2618 54.8166 83.0232 59.7458C83.4394 62.4222 83.6762 65.1011 83.8678 67.7835C84.0296 70.0277 83.9925 72.3607 85.0647 74.4884C85.1224 74.5709 85.2061 74.6409 85.3075 74.6918C85.409 74.7426 85.5249 74.7725 85.644 74.7786C85.7632 74.7847 85.8815 74.7667 85.9876 74.7265C86.0938 74.6863 86.1841 74.6252 86.25 74.549L86.2515 74.52Z" fill="#505050"/>
</g>
<defs>
<clipPath id="clip0_401_411">
<rect width="102.468" height="70.3566" fill="white" transform="translate(4.47974 0.88501) rotate(2.92789)"/>
</clipPath>
</defs>
</svg>
