<svg xmlns="http://www.w3.org/2000/svg" viewBox="0 0 483.4 392.05"><defs><style>.cls-1{fill:#202020;}</style></defs><g id="Layer_2" data-name="Layer 2"><g id="Icons"><path class="cls-1" d="M473.57,0H9.83A9.84,9.84,0,0,0,0,9.83v81a9.82,9.82,0,0,0,9.83,9.83H39.47A58.05,58.05,0,0,0,55.2,131.38V382.22A9.84,9.84,0,0,0,65,392.05H418.36a9.83,9.83,0,0,0,9.83-9.83V131.38a58.07,58.07,0,0,0,15.74-30.75h29.64a9.83,9.83,0,0,0,9.83-9.83v-81A9.84,9.84,0,0,0,473.57,0ZM177.35,372.38H114.43V266.51c17.34-6.09,45.59-6.09,62.92,0Zm231.18,0H197V260a9.83,9.83,0,0,0-5.36-8.76c-23.53-12-68-12-91.51,0A9.82,9.82,0,0,0,94.77,260V372.38H74.87V144.6a57.9,57.9,0,0,0,70.21-21.5,58.08,58.08,0,0,0,96.62,0,58.07,58.07,0,0,0,96.61,0,57.92,57.92,0,0,0,70.22,21.5ZM463.73,81H434.92a9.84,9.84,0,0,0-9.83,9.83,38.48,38.48,0,0,1-76.95,0,9.83,9.83,0,1,0-19.66,0,38.48,38.48,0,0,1-77,0,9.83,9.83,0,0,0-19.66,0,38.48,38.48,0,0,1-77,0,9.84,9.84,0,0,0-19.67,0,38.47,38.47,0,1,1-76.94,0A9.84,9.84,0,0,0,48.48,81H19.66V19.66H463.73Z"/><path class="cls-1" d="M378.45,187H227.89a9.84,9.84,0,0,0-9.83,9.83V307.34a9.84,9.84,0,0,0,9.83,9.83H378.45a9.84,9.84,0,0,0,9.84-9.83V196.8A9.84,9.84,0,0,0,378.45,187ZM368.62,297.5H237.72V206.63h130.9Z"/><path class="cls-1" d="M136.8,308.67A9.83,9.83,0,0,0,127,318.5V322a9.83,9.83,0,1,0,19.66,0V318.5A9.83,9.83,0,0,0,136.8,308.67Z"/><path class="cls-1" d="M261.36,243.36h81.12a9.83,9.83,0,0,0,0-19.66H261.36a9.83,9.83,0,0,0,0,19.66Z"/><path class="cls-1" d="M261.36,280.44h81.12a9.83,9.83,0,0,0,0-19.66H261.36a9.83,9.83,0,0,0,0,19.66Z"/><path class="cls-1" d="M95.72,59.61h292a9.84,9.84,0,0,0,0-19.67h-292a9.84,9.84,0,0,0,0,19.67Z"/></g></g></svg>